<?xml version="1.0" encoding="utf-8"?>
<!-- Generator: Adobe Illustrator 23.0.5, SVG Export Plug-In . SVG Version: 6.00 Build 0)  -->
<svg version="1.1" id="Capa_1" xmlns="http://www.w3.org/2000/svg" xmlns:xlink="http://www.w3.org/1999/xlink" x="0px" y="0px"
	 viewBox="0 0 944.6 661.7" style="enable-background:new 0 0 944.6 661.7;" xml:space="preserve">
<style type="text/css">
	.st0{fill:url(#SVGID_1_);}
	.st1{opacity:0.8;fill:none;stroke:#FFFFFF;stroke-width:3;stroke-linecap:round;stroke-miterlimit:10;enable-background:new    ;}
	.st2{opacity:0.6;fill:none;stroke:#FFFFFF;stroke-width:3;stroke-linecap:round;stroke-miterlimit:10;enable-background:new    ;}
	.st3{fill:#FFFFFF;}
	.st4{opacity:0.3;fill:url(#SVGID_2_);enable-background:new    ;}
	.st5{fill:url(#SVGID_3_);}
	.st6{opacity:0.5;fill:#6BCDC3;enable-background:new    ;}
	.st7{opacity:0.75;}
	.st8{opacity:0.8;fill:#FFFFFF;enable-background:new    ;}
	.st9{opacity:0.75;fill:url(#SVGID_4_);enable-background:new    ;}
	.st10{fill:url(#SVGID_5_);}
	.st11{fill:url(#SVGID_6_);}
	.st12{fill:#0B7D73;}
	.st13{fill:#0FA599;}
	.st14{fill:#08534D;}
	.st15{fill:#6BCDC3;}
	.st16{fill:none;stroke:#000000;stroke-miterlimit:10;}
	.st17{fill:#3E56B0;stroke:#CBCBCB;stroke-width:2;stroke-miterlimit:10;}
	.st18{opacity:0.7;fill:#FFFFFF;enable-background:new    ;}
	.st19{fill:none;stroke:#C3EAE6;stroke-width:2;stroke-miterlimit:10;}
	.st20{fill:none;stroke:#C3EAE6;stroke-linecap:round;stroke-miterlimit:10;}
	.st21{fill:url(#SVGID_7_);}
	.st22{opacity:0.7;fill:#CFCFCF;enable-background:new    ;}
	.st23{fill:#D3D3D3;}
	.st24{opacity:0.15;fill:#989898;enable-background:new    ;}
	.st25{fill:url(#SVGID_8_);}
	.st26{opacity:0.25;fill:#989898;enable-background:new    ;}
	.st27{fill:#23354B;}
	.st28{fill:#4F5D6F;}
	.st29{fill:#CDA6FB;}
	.st30{fill:#F0F0F0;}
	.st31{opacity:0.3;fill:#989898;enable-background:new    ;}
	.st32{fill:#89D7CF;}
	.st33{fill:#C4EBE7;}
	.st34{fill:#8A4EBF;}
	.st35{opacity:0.5;}
	.st36{fill:url(#SVGID_9_);}
	.st37{fill:url(#SVGID_10_);}
	.st38{fill:#BDB454;}
	.st39{fill:#FCF170;}
	.st40{fill:url(#SVGID_11_);}
	.st41{fill:url(#SVGID_12_);}
	.st42{fill:url(#SVGID_13_);}
	.st43{opacity:0.7;fill:url(#SVGID_14_);enable-background:new    ;}
	.st44{opacity:0.7;}
	.st45{opacity:0.2;}
	.st46{opacity:0.3;fill:#6BCDC3;enable-background:new    ;}
	.st47{fill:#3FB7AD;}
	.st48{fill:none;}
	.st49{fill:#F9C15C;}
	.st50{fill:#F8B133;}
	.st51{fill:#F0F0F0;stroke:#F0F0F0;stroke-width:4;stroke-miterlimit:10;}
	.st52{opacity:0.5;fill:#FFFFFF;enable-background:new    ;}
</style>
<title>no necesitas</title>
<g>
	<g id="_4-cimpu_volando">
		<g id="nubes_y_cielo">
			
				<linearGradient id="SVGID_1_" gradientUnits="userSpaceOnUse" x1="227.5619" y1="54.8959" x2="768.5619" y2="404.8058" gradientTransform="matrix(1 0 0 -1 0 616)">
				<stop  offset="2.000000e-02" style="stop-color:#6BCDC3"/>
				<stop  offset="0.23" style="stop-color:#0FA599"/>
				<stop  offset="0.47" style="stop-color:#3E56B0"/>
				<stop  offset="0.71" style="stop-color:#223D88"/>
				<stop  offset="0.95" style="stop-color:#6D22AF"/>
			</linearGradient>
			<path class="st0" d="M753.4,392.5c-2.6-9.1-12.6-14-22.4-10.9c-1.3,0.4-2.5,0.9-3.7,1.6c-3.6-2.8-7.9-4.8-12.4-5.8
				c0.6-2.1,0.9-4.2,0.9-6.4c0-12.1-9-22-20.4-22.9l29-205.1l-61.8-8.7L633,346.4c-10.1,0.1-18.2,8.7-18.2,19.3c0,2.4,0.4,4.8,1.3,7
				c-1.5,0.5-3,1.2-4.4,1.9c-6-6.9-14.7-10.9-23.9-10.9c-18,0-32.5,15.2-32.5,34s14.5,34,32.5,34c5.1,0,10-1.2,14.5-3.6
				c2,2.3,4.3,4.2,6.8,5.9c-20.5,29.1-52.3,48.8-88.6,51.8c-3.2,0.3-6.5,0.4-9.8,0.4c-11.8,0-23.5-1.8-34.7-5.4
				c4.8-8.5,3.9-19.2-2.3-26.8c10.3-9.4,11-25.4,1.6-35.7c-4.8-5.2-11.6-8.2-18.7-8.2c-6.4,0.1-12.6,2.6-17.3,7
				c-21.5,19-36.9-2.8-45.7-14s-18.9-22-30.9-30c-47.4-32-109.1-33.8-158.3-4.5c-0.4,1.5-1,2.9-2,4.1c5.8,14.4,5.8,29.6,2.6,44.4
				c0.8,0.4,1.7,0.8,2.7,1.3c5.1,2.2,11,5.5,15.2,9.7c1.5-4,3.9-7.6,7-10.5c5-4.6,12.3-6.9,18.9-4.4c0.9-0.4,1.7-0.7,2.7-0.9
				c4.5-1.6,9,0.7,12.9,2.5c2.1-5,4.8-9.9,8.7-13.8s9.2-6.5,14.6-6.5s11,3,13.4,7.9c0.5,1.1,1.1,2.5,2.3,2.8c0.7,0.1,1.5,0,2.1-0.3
				c4.7-1.3,8.8,1,11.9,4.3c2.8,3,1,2.2,5,2.9c2.7,0.4,5,0.1,7.6,1.3c2.9,1.3,5.5,3.3,7.5,5.8c3.2,3.8,1.9,3.1,6.4,3.2
				c5,0.1,10,1.7,11.9,6.9c1.6,4.6,0,10.1,2.4,14.5c1.8,3.4,5.6,5.2,9.2,6.5c6.3,2.2,11.3,4.8,15.7,9.8c3.6,4.1,4.3,11.5,9,14.5
				c4.4,2.8,10.3,0.7,15,3.5c3.6,2.2,6.4,5.5,7.9,9.5c3.2,8.4,2.6,17.7-1.6,25.6c-0.3,0.5-0.5,1-0.8,1.4c4.5,3,7.9,7.5,9.6,12.6
				l1.2,1.6c26.6,15.1,56.7,23.1,87.3,23.2c49.2,0,95.5-20.2,130.5-56.9c18.3-19.2,32.5-41.9,41.7-66.8c5.6,8.8,15.4,14.2,25.8,14.3
				c15.6,0,28.5-11.9,30.9-27.5l0.8-0.2C750.3,411.5,756,401.6,753.4,392.5z"/>
			<path class="st1" d="M397.3,434.3c7,8.8,13.6,18.2,20.1,28.1"/>
			<path class="st1" d="M293.1,372.7c37.1,2.5,65.6,19.6,89.9,45.1"/>
			<path class="st2" d="M348.3,407c16.2,10.4,29.6,24.3,41.3,40.7"/>
			<path class="st3" d="M853.6,604c1.5-24.3-12-39.2-22.9-45c0.5-0.6,0.9-1.3,1.3-2c8.7-13.5,8.5-30.7-1.6-42.4
				c-6.5-7.4-16-11.5-25.8-11.2c1.5-2.7,2.4-5.7,2.8-8.8c0-0.3,0.1-0.5,0.1-0.8v-0.4c0-0.2,0-0.3,0-0.5c0.1-1.5,0-3-0.3-4.5
				c-1.4-9-7.8-16.2-16.3-17.7l0,0c0.2-0.6,0.3-1.1,0.5-1.7c1.7-7.8-1.2-15.8-7.9-19.8c-5.7-3.3-12.7-2.8-18.4,0.7
				c-4.2-5.4-10.1-9.1-16.7-10.6c-7.6-1.6-15.5,0-22,4.2c-0.2-0.7-0.5-1.4-0.7-2.2c-7.2-20.3-27.5-31.7-45.7-25.9
				c-1.4-0.6-2.9-1-4.5-1.3c-7.6-1.6-15.5,0-22,4.2c-0.2-0.7-0.5-1.4-0.7-2.2c-7.3-20.7-28.2-32.1-46.7-25.6
				c-7.3,2.6-13.4,7.7-17.3,14.4c-6.9-3.2-14.8-2.7-20.8,1.9c-2.6,2.1-4.7,4.8-5.9,7.9c-6.1-1.4-12.4-1.1-18.3,1
				c-7.3,2.6-13.4,7.7-17.3,14.4c-6.9-3.2-14.8-2.7-20.8,1.9c-7.5,5.8-9.3,16.3-5.2,25.3c-5,1.6-9.2,4.9-11.9,9.3
				c-8.6,0.6-16.9,3.2-24.2,7.6c-11.4,6.8-20,17.5-24.3,30c-12.7-3-25.9,0.4-34.4,10.2c-10.1,11.7-10.3,28.9-1.7,42.4
				c0.4,0.7,0.9,1.3,1.3,2c-10.9,5.9-17.7,16.9-19.3,29.3c-0.7,5.2-0.4,10.5,0.8,15.6C387.1,605,843.3,602.5,853.6,604z"/>
			
				<linearGradient id="SVGID_2_" gradientUnits="userSpaceOnUse" x1="606.6448" y1="252.2572" x2="626.1649" y2="-96.2729" gradientTransform="matrix(1 0 0 -1 0 616)">
				<stop  offset="0.15" style="stop-color:#FFFFFF;stop-opacity:0.8"/>
				<stop  offset="0.19" style="stop-color:#F6F7FB;stop-opacity:0.79"/>
				<stop  offset="0.25" style="stop-color:#DEE2F1;stop-opacity:0.77"/>
				<stop  offset="0.31" style="stop-color:#B6BFE1;stop-opacity:0.72"/>
				<stop  offset="0.39" style="stop-color:#7E8ECA;stop-opacity:0.67"/>
				<stop  offset="0.47" style="stop-color:#3E56B0;stop-opacity:0.6"/>
				<stop  offset="0.5" style="stop-color:#494AB0;stop-opacity:0.65"/>
				<stop  offset="0.56" style="stop-color:#5D34B0;stop-opacity:0.73"/>
				<stop  offset="0.61" style="stop-color:#6927B0;stop-opacity:0.78"/>
				<stop  offset="0.67" style="stop-color:#6D22B0;stop-opacity:0.8"/>
			</linearGradient>
			<path class="st4" d="M853.6,604c1.5-24.3-12-39.2-22.9-45c0.5-0.6,0.9-1.3,1.3-2c8.7-13.5,8.5-30.7-1.6-42.4
				c-6.5-7.4-16-11.5-25.8-11.2c1.5-2.7,2.4-5.7,2.8-8.8c0-0.3,0.1-0.5,0.1-0.8v-0.4c0-0.2,0-0.3,0-0.5c0.1-1.5,0-3-0.3-4.5
				c-1.4-9-7.8-16.2-16.3-17.7l0,0c0.2-0.6,0.3-1.1,0.5-1.7c1.7-7.8-1.2-15.8-7.9-19.8c-5.7-3.3-12.7-2.8-18.4,0.7
				c-4.2-5.4-10.1-9.1-16.7-10.6c-7.6-1.6-15.5,0-22,4.2c-0.2-0.7-0.5-1.4-0.7-2.2c-7.2-20.3-27.5-31.7-45.7-25.9
				c-1.4-0.6-2.9-1-4.5-1.3c-7.6-1.6-15.5,0-22,4.2c-0.2-0.7-0.5-1.4-0.7-2.2c-7.3-20.7-28.2-32.1-46.7-25.6
				c-7.3,2.6-13.4,7.7-17.3,14.4c-6.9-3.2-14.8-2.7-20.8,1.9c-2.6,2.1-4.7,4.8-5.9,7.9c-6.1-1.4-12.4-1.1-18.3,1
				c-7.3,2.6-13.4,7.7-17.3,14.4c-6.9-3.2-14.8-2.7-20.8,1.9c-7.5,5.8-9.3,16.3-5.2,25.3c-5,1.6-9.2,4.9-11.9,9.3
				c-8.6,0.6-16.9,3.2-24.2,7.6c-11.4,6.8-20,17.5-24.3,30c-12.7-3-25.9,0.4-34.4,10.2c-10.1,11.7-10.3,28.9-1.7,42.4
				c0.4,0.7,0.9,1.3,1.3,2c-10.9,5.9-17.7,16.9-19.3,29.3c-0.7,5.2-0.4,10.5,0.8,15.6C387.1,605,843.3,602.5,853.6,604z"/>
			
				<linearGradient id="SVGID_3_" gradientUnits="userSpaceOnUse" x1="612.3601" y1="245.9827" x2="648.5601" y2="-79.5773" gradientTransform="matrix(1 0 0 -1 0 616)">
				<stop  offset="0.46" style="stop-color:#FFFFFF"/>
				<stop  offset="0.59" style="stop-color:#CDEEEB"/>
				<stop  offset="0.72" style="stop-color:#A2E0D9"/>
				<stop  offset="0.83" style="stop-color:#84D5CD"/>
				<stop  offset="0.93" style="stop-color:#72CFC6"/>
				<stop  offset="1" style="stop-color:#6BCDC3"/>
			</linearGradient>
			<path class="st5" d="M801.5,603.7c1-17-8.4-27.4-16-31.5c0.3-0.5,0.7-0.9,1-1.4c6.1-9.4,5.9-21.5-1.2-29.7
				c-4.6-5.2-11.2-8.1-18.1-7.9c1-1.9,1.7-4,1.9-6.1c0-0.2,0-0.4,0.1-0.5c0-0.1,0-0.2,0-0.3c0-0.1,0-0.2,0-0.3c0-1.1,0-2.1-0.2-3.2
				c-1-6.3-5.5-11.3-11.4-12.4l0,0c0.1-0.4,0.2-0.8,0.3-1.2c1.2-5.5-0.9-11.1-5.5-13.8c-4-2.3-9-2.1-12.9,0.5
				c-2.9-3.8-7.1-6.4-11.7-7.4c-5.3-1.1-10.9,0-15.4,3c-0.2-0.5-0.3-1-0.5-1.5c-5-14.2-19.2-22.2-32-18.1c-1-0.4-2.1-0.7-3.1-0.9
				c-5.3-1.1-10.8,0-15.4,3c-0.2-0.5-0.3-1-0.5-1.5c-5.1-14.5-19.8-22.5-32.7-17.9c-5.1,1.8-9.4,5.4-12.1,10.1
				c-4.7-2.3-10.3-1.8-14.5,1.3c-1.8,1.4-3.3,3.4-4.1,5.5c-4.2-1-8.7-0.8-12.8,0.7c-5.1,1.8-9.4,5.3-12.1,9.9
				c-4.7-2.3-10.3-1.8-14.5,1.3c-5.2,4.1-6.5,11.4-3.6,17.7c-3.5,1.1-6.4,3.4-8.3,6.5c-6,0.4-11.8,2.2-17,5.3c-8,4.8-14,12.2-17,21
				c-8.9-2.1-18.2,0.3-24.1,7.1c-7.1,8.2-7.2,20.2-1.2,29.7c0.3,0.5,0.6,0.9,1,1.4c-7.6,4.2-12.6,11.9-13.5,20.5
				c-0.5,3.6-0.3,7.3,0.5,10.9C474.9,604.3,794.3,602.6,801.5,603.7z"/>
			<path class="st6" d="M736.8,603.2H536.4c0.6-55.3,45.9-99.8,101.2-99.2C692.2,504.5,736.3,548.6,736.8,603.2z"/>
			<g class="st7">
				<ellipse transform="matrix(0.8332 -0.553 0.553 0.8332 -40.0676 419.1028)" class="st3" cx="674.7" cy="276" rx="1" ry="0.8"/>
				
					<ellipse transform="matrix(0.6578 -0.7532 0.7532 0.6578 31.7098 583.6607)" class="st8" cx="658.1" cy="256.9" rx="1.9" ry="1.7"/>
				<ellipse class="st8" cx="664.8" cy="233" rx="2.1" ry="1.9"/>
				<ellipse class="st3" cx="677.4" cy="354.1" rx="2.1" ry="1.9"/>
				<ellipse class="st3" cx="666.4" cy="306.2" rx="2.1" ry="1.9"/>
				<ellipse class="st8" cx="672" cy="238.8" rx="1" ry="0.9"/>
				
					<ellipse transform="matrix(0.6578 -0.7532 0.7532 0.6578 13.4022 612.2198)" class="st3" cx="680.4" cy="291.4" rx="1.9" ry="1.7"/>
				
					<ellipse transform="matrix(0.1352 -0.9908 0.9908 0.1352 153.1412 968.0496)" class="st3" cx="631.1" cy="396.3" rx="1.3" ry="1.4"/>
				<ellipse class="st8" cx="682.9" cy="329" rx="1.4" ry="1.3"/>
				<path class="st3" d="M546.7,428c1.1,0,2.1,0.8,2.1,1.9c0,1-0.9,1.9-2.1,1.9s-2.1-0.8-2.1-1.9C544.7,428.8,545.6,428,546.7,428z"
					/>
				<ellipse class="st3" cx="598.6" cy="378.4" rx="3.3" ry="3"/>
				
					<ellipse transform="matrix(0.1352 -0.9908 0.9908 0.1352 175.7909 951.8601)" class="st3" cx="633.2" cy="375.2" rx="1.3" ry="1.4"/>
				<ellipse class="st3" cx="696.5" cy="396" rx="1.4" ry="1.3"/>
				<ellipse class="st3" cx="702.9" cy="368.3" rx="1.4" ry="1.3"/>
				<ellipse class="st3" cx="738.1" cy="400.3" rx="1.4" ry="1.3"/>
				<ellipse class="st8" cx="649.2" cy="367.1" rx="2.1" ry="1.9"/>
				<ellipse class="st3" cx="700.1" cy="254.9" rx="2.1" ry="1.9"/>
				<ellipse class="st3" cx="640.1" cy="353.7" rx="1" ry="0.9"/>
				<ellipse class="st3" cx="684.8" cy="384" rx="3.3" ry="3"/>
				<ellipse class="st8" cx="700" cy="223.3" rx="3.3" ry="3"/>
				<ellipse class="st8" cx="656" cy="390.5" rx="4" ry="3.6"/>
				<ellipse class="st3" cx="717.4" cy="386.8" rx="4" ry="3.6"/>
			</g>
		</g>
		
			<linearGradient id="SVGID_4_" gradientUnits="userSpaceOnUse" x1="400.3935" y1="134.346" x2="411.3835" y2="83.526" gradientTransform="matrix(1 0 0 -1 0 616)">
			<stop  offset="0.46" style="stop-color:#FFFFFF"/>
			<stop  offset="0.59" style="stop-color:#CDEEEB"/>
			<stop  offset="0.72" style="stop-color:#A2E0D9"/>
			<stop  offset="0.83" style="stop-color:#84D5CD"/>
			<stop  offset="0.93" style="stop-color:#72CFC6"/>
			<stop  offset="1" style="stop-color:#6BCDC3"/>
		</linearGradient>
		<path class="st9" d="M424,528.2c-6.6-3.6-13-7.6-19.1-11.9c-4.6-3.3-8.9-6.9-13-10.8c3.6,3.3,7.4,6.4,11.3,9.3
			c6.5,4.6,13.3,8.8,20.3,12.5C423.8,527.5,423.9,527.8,424,528.2z"/>
		
			<linearGradient id="SVGID_5_" gradientUnits="userSpaceOnUse" x1="466.4035" y1="323.5196" x2="506.5135" y2="87.4296" gradientTransform="matrix(1 0 0 -1 0 616)">
			<stop  offset="0.28" style="stop-color:#E6E6E6;stop-opacity:0.37"/>
			<stop  offset="0.3" style="stop-color:#E5E5E5;stop-opacity:0.35"/>
			<stop  offset="0.5" style="stop-color:#DBDBDB;stop-opacity:0.2"/>
			<stop  offset="0.69" style="stop-color:#D5D5D5;stop-opacity:9.000000e-02"/>
			<stop  offset="0.86" style="stop-color:#D0D0D0;stop-opacity:2.000000e-02"/>
			<stop  offset="1" style="stop-color:#CFCFCF;stop-opacity:0"/>
		</linearGradient>
		<path class="st10" d="M505.6,492.4c0.4-2.1,0.8-4.2,1.2-6.4c-5.1-0.1-10.1-0.5-15.2-1.3c2.3,8.7,5.3,17.3,9.9,24.5
			C503.1,503.7,504.5,498.1,505.6,492.4z"/>
		
			<linearGradient id="SVGID_6_" gradientUnits="userSpaceOnUse" x1="445.631" y1="318.6475" x2="485.531" y2="83.7375" gradientTransform="matrix(1 0 0 -1 0 616)">
			<stop  offset="0.28" style="stop-color:#E6E6E6;stop-opacity:0.37"/>
			<stop  offset="0.3" style="stop-color:#E5E5E5;stop-opacity:0.35"/>
			<stop  offset="0.5" style="stop-color:#DBDBDB;stop-opacity:0.2"/>
			<stop  offset="0.69" style="stop-color:#D5D5D5;stop-opacity:9.000000e-02"/>
			<stop  offset="0.86" style="stop-color:#D0D0D0;stop-opacity:2.000000e-02"/>
			<stop  offset="1" style="stop-color:#CFCFCF;stop-opacity:0"/>
		</linearGradient>
		<path class="st11" d="M528.1,488.3c-0.1,0.7-0.2,1.3-0.3,2c7.4-1,15.3,7.4,11.1,16.8c-1.7,3.7-3.5,7.4-5.5,10.9
			c-2.4,5-4.9,9.9-8.4,14.3c-1,1.2-2,2.3-3.1,3.3c-2.2,3-4.5,6-6.9,9c-5.1,6.4-16.4,2.9-18-5c-0.2-1.1-0.4-2.2-0.5-3.3
			c-7.6-5.7-13.2-13.8-17.4-22.8c-0.6,3.9-1,7.8-1.2,11.7c-0.6,14.4-21.5,14.5-21.5,0c0-8.9,0.6-17.9-0.5-26.8
			c0-0.4-0.1-0.8-0.2-1.2c-1.2-0.2-2.3-0.5-3.4-1c-0.5-0.2-1.1-0.5-1.6-0.8c-1.4,2.5-3.4,4.5-5.8,6.1c-5,3.1-10.1,6.5-15.3,9.1
			c-4.8,2.6-10.3,3.4-15.7,2.3c-0.2,0.3-0.3,0.7-0.5,1c-0.3,0.5-0.5,1-0.8,1.4c4.5,3,7.9,7.5,9.7,12.6l0.1,0.2
			c26.3,14.7,56,22.4,86.1,22.6C551.9,550.8,571,499.8,528.1,488.3z"/>
		<g id="nabe">
			<path class="st12" d="M622.3,138.1l28.7-28.6c8.6-8.6,17.2-24.5,22.7-35.2l4.1-8l-84,86.9c-2.9,3-1.7,15.1,2.9,15.7l4.9,0.6
				C598.6,157.3,614.3,146.1,622.3,138.1z"/>
			<path class="st12" d="M783.3,193.6l-6.1-0.8c0.2-0.4,0.4-0.7,0.5-1.1l0,0l0.2-0.4c0.1-0.1,0.1-0.3,0.2-0.4
				c0.1-0.1,0.1-0.3,0.1-0.4c0.1-0.3,0.2-0.6,0.3-0.9c0-0.1,0.1-0.3,0.1-0.5s0.1-0.3,0.1-0.5c0.4-2.9,0.1-5.8-0.8-8.5
				c-0.3-0.9-0.5-1.7-0.9-2.6c-0.2-0.5-0.4-1-0.6-1.5c-0.4-1-0.9-2.1-1.5-3.1l-0.3-0.5c-0.3-0.7-0.7-1.4-1.1-2
				c-0.1-0.2-0.2-0.3-0.3-0.5c-0.3-0.5-0.6-1-0.9-1.5c-0.7-1.1-1.4-2.3-2.1-3.4l-0.6-0.9c-0.2-0.3-0.4-0.6-0.6-0.9l-0.6-0.9
				c-1.2-1.8-2.3-3.5-3.2-5.1l-20.3-35.1c-6.1-10.4-10.4-21.7-13-33.5l-2.9-14.2l61.1,104.9C792.2,182.8,787.9,194.2,783.3,193.6z"
				/>
			<path class="st13" d="M778.5,188.5c-0.2,1.5-0.7,2.9-1.4,4.3l-175.6-23.1c-3-12.4,12.7-23.5,20.7-31.5l28.7-28.6
				c8.6-8.5,17.2-24.5,22.6-35.2l4.1-8L708,41.6l21.6,36.2l2.3,10.6c2.6,11.8,6.9,23.1,13,33.5l20.4,35.1c0.9,1.6,2,3.3,3.2,5.1
				C773.4,169.7,779.9,179,778.5,188.5z"/>
			<path class="st14" d="M713.3,194.8l56.9,2.8c2.9-0.3,5.4-2.2,6.5-4.9l-71.8-9.4l-0.1,2.7C704.8,190.7,708.5,194.6,713.3,194.8z"
				/>
			<path class="st14" d="M661.5,188.1l-54.8-11.5c-2.8-1.2-4.7-3.9-4.9-6.9l70.4,9.3l-0.6,2.8C670.5,186.3,666,189.1,661.5,188.1z"
				/>
			<path class="st13" d="M730.6,55.7l-17.3-27.1c-1.8-2.8-5.5-3.6-8.3-1.8c-0.3,0.2-0.5,0.4-0.8,0.6l-23.4,21.8
				c8.6-22.3,21.6-35.4,27.7-40.7c1.7-1.4,4.2-1.2,5.6,0.5c0.1,0.1,0.2,0.2,0.2,0.3C718.9,16.1,728,32.1,730.6,55.7z"/>
			<path class="st15" d="M730.2,85.4c-2.1,15.8-6.6,31.1-11.3,46.2c-3,9.7-6.8,19.8-9.3,29.9c-0.5,2-1.2,4.2-1.8,6.4
				c-1.1,3.3-1.8,6.7-2.2,10.1l-0.9,15.6c-0.2,3.3-3,5.9-6.3,5.7c-0.2,0-0.3,0-0.5,0l-22.6-3c-3.3-0.4-5.6-3.4-5.2-6.7
				c0-0.2,0-0.3,0.1-0.5l3.2-15.3c0.5-3.4,0.7-6.9,0.5-10.3c-0.1-2.3-0.2-4.6-0.2-6.7c-0.4-26.2-3.5-52.8-0.1-78.8
				c1.3-9.8,3.7-19.4,7.2-28.6l23.4-21.8c2.4-2.2,6.2-2.1,8.5,0.4c0.2,0.2,0.4,0.5,0.6,0.8l17.3,27.1
				C731.7,65.6,731.5,75.6,730.2,85.4z"/>
			<path class="st14" d="M697.3,199.2l-1.2,3.2c-0.8,2.2-3,3.6-5.4,3.3l-10.2-1.3c-2.3-0.3-4.1-2.2-4.3-4.5l-0.3-3.4"/>
			<path class="st16" d="M688.8,180.6c0.2-0.4,0.3-0.8,0.4-1.2l0,0"/>
			<path class="st13" d="M692.1,156.4L692.1,156.4c1,0.1,1.6,1.3,1.4,2.7l-7.3,50.2c-0.3,1.4-1.8,1.2-1.7-0.2l5.5-50.4
				C690.2,157.3,691.1,156.3,692.1,156.4z"/>
			<circle class="st17" cx="705.7" cy="52.8" r="11.1"/>
			<circle class="st18" cx="703.9" cy="46.8" r="1.8"/>
			<circle class="st18" cx="699.1" cy="51" r="1.2"/>
			<line class="st19" x1="708.3" y1="168" x2="692.6" y2="165.9"/>
			<line class="st19" x1="689.1" y1="165.5" x2="674.4" y2="163.6"/>
			<path class="st20" d="M730.6,55.7l-17.3-27.1c-1.8-2.8-5.5-3.6-8.3-1.8c-0.3,0.2-0.5,0.4-0.8,0.6l-23.4,21.8"/>
			
				<linearGradient id="SVGID_7_" gradientUnits="userSpaceOnUse" x1="-782.6184" y1="17.1058" x2="-760.9885" y2="-0.7943" gradientTransform="matrix(0.9914 0.1305 0.1305 -0.9914 1454.9946 292.1089)">
				<stop  offset="6.000000e-02" style="stop-color:#CBCBCB;stop-opacity:0.7"/>
				<stop  offset="0.76" style="stop-color:#E5E5E5;stop-opacity:0.5"/>
			</linearGradient>
			<path class="st21" d="M697.9,199.3l-0.7-0.1l-1.2,3.2c-0.8,2.2-3,3.6-5.4,3.3l-4-0.5l6.7-45.5l12.2,22.7l-0.8,11.3
				c-0.2,3.3-3,5.9-6.3,5.7C698.3,199.4,698.1,199.4,697.9,199.3z"/>
			<path class="st22" d="M693.5,159.1l-6.7,46.1l-0.6,4.1c-0.2,0.8-0.7,1.1-1.2,0.9l7.1-53.7C693.1,156.6,693.7,157.8,693.5,159.1z"
				/>
			<path class="st23" d="M716.1,54.2c-0.7,5.7-5.9,9.6-11.6,8.9l0,0c-2.9-0.4-5.4-1.9-7.1-4.3c1,0.5,2.2,0.8,3.3,1
				c6.1,0.8,11.7-3.5,12.5-9.6c0.2-1.7,0.1-3.4-0.5-5C715.3,47.5,716.5,50.8,716.1,54.2z"/>
			<path class="st24" d="M783.3,193.8l-6.5-1.1c-1.1,2.7-3.6,4.6-6.5,4.9l-56.2-2.7c-4.7-0.1-8.4-4-8.3-8.7c0,0,0,0,0,0l0.2-2.7
				l-0.6-0.1l-0.6,10.4c-0.2,3.3-3,5.9-6.3,5.7c-0.2,0-0.3,0-0.5,0l-0.7-0.1l-1.2,3.2c-0.8,2.2-3,3.6-5.4,3.3l-4-0.5l6.7-46.1
				c0.2-1.3-1.3-3.6-1.4-2.7c2.6-23.5,13.2-77.4,13.4-93c6,0.8,10.5-3.1,11.3-9.2s-2.9-11.6-9-12.4l4.5-34c1.1,0.2,1.5,0.7,2.2,1.6
				c4.5,6.6,13.6,22.6,16.2,46.3c0.8,7,0.9,14,0.4,21C734.8,82.9,790,179,790,179C792,182.6,787.8,194.4,783.3,193.8z"/>
		</g>
		<path class="st24" d="M264.5,410.9c-5.5,6-12.5,12.1-11.9,20.9c-0.2,8.4,2.1,19.2-7.3,20.5v30.1c0.7,1.4,0.1,3.1-1.3,3.8
			c0,0,0,0-0.1,0c-5.5,3.8-10.9,7.8-16.4,11.6c-3.1,2.2-6.8,3.3-10.6,3.1v-2.3v-0.8l0.1-14v-3l0-6.8v-3v-6v-2.9l0.1-9.9v-0.3
			l0.1-17.9l11.5,0.2c0,0,0.8-70.6,0-90.4c-1.5-35.5-10.6-49.8-10.6-49.8c32.9-0.4,58,24.5,63.8,51
			C287.1,364.3,282.1,392.9,264.5,410.9z"/>
		<g id="pc_y_dinero">
			<polygon class="st3" points="654.8,555.7 689.2,555.7 700.6,597.9 643.3,597.9 			"/>
			<path class="st3" d="M619.3,591.7h105.3c5.9,0,10.7,4.8,10.7,10.7v1.3l0,0H608.6l0,0v-1.3C608.6,596.5,613.4,591.7,619.3,591.7z"
				/>
			
				<linearGradient id="SVGID_8_" gradientUnits="userSpaceOnUse" x1="672.9625" y1="63.9301" x2="671.6024" y2="0.8401" gradientTransform="matrix(1 0 0 -1 0 616)">
				<stop  offset="0.23" style="stop-color:#CBCBCB;stop-opacity:0.7"/>
				<stop  offset="0.49" style="stop-color:#E5E5E5;stop-opacity:0.5"/>
			</linearGradient>
			<polygon class="st25" points="652.8,563 691.1,563 699,591.3 645.3,591.3 			"/>
			<path class="st26" d="M710.1,591.3h12.3c7,0,12.6,5.6,12.6,12.6v0l0,0l-25.2,0.1l0.2-1.1c3.2-1.9,4.3-6,2.4-9.2
				C711.9,592.8,711.1,591.9,710.1,591.3L710.1,591.3z"/>
			<path class="st27" d="M779.7,415.3c0-6.1-5-11.1-11.1-11.1H575.4c-6.1,0-11.1,5-11.1,11.1v123.4h215.4V415.3z M769.6,526.9H574.3
				V413.6h195.3V526.9z"/>
			<path class="st3" d="M564.3,538.7v13.2c0,6.1,5,11.1,11.1,11.1h193.2c6.1,0,11.1-5,11.1-11.1v-13.2H564.3z"/>
			<path class="st15" d="M576.2,413.6h191.6c1,0,1.8,0.8,1.8,1.9V525c0,1-0.8,1.8-1.8,1.8H576.2c-1,0-1.8-0.8-1.8-1.8V415.5
				C574.3,414.4,575.2,413.6,576.2,413.6z"/>
			<path class="st27" d="M457.5,485.1h-84.8c-2.8,0-5,2.3-4.9,5.1c0,0.4,0.1,0.8,0.2,1.2l28.8,99l-1.5,2.1c-2.2,3-1.6,7.2,1.4,9.5
				c1.2,0.9,2.6,1.3,4,1.3l197.9-1.6v-8.8L425,585.6l-29.7-84.4L457.5,485.1z"/>
			<path class="st28" d="M543.6,589.6H405.1c-0.8,0-1.5-0.5-1.7-1.3l-28.9-100.9c-0.3-1,0.3-2,1.2-2.2c0.2,0,0.3-0.1,0.5-0.1h138.5
				c0.8,0,1.5,0.5,1.7,1.3l28.9,100.9c0.3,0.9-0.3,1.9-1.2,2.2C544,589.6,543.8,589.6,543.6,589.6z"/>
			<path class="st29" d="M532.6,584.4H412.1c-1.6,0-3.1-1.1-3.5-2.6L383.7,495c-0.6-1.9,0.6-4,2.5-4.5c0.3-0.1,0.7-0.1,1-0.1h120.4
				c1.6,0,3.1,1.1,3.5,2.6l24.9,86.7c0.6,1.9-0.5,4-2.4,4.5C533.3,584.4,532.9,584.4,532.6,584.4z"/>
			<path class="st30" d="M481.2,589.6h153.5l0,0v1.4c0,6.3-5.1,11.4-11.4,11.4H492.6c-6.3,0-11.4-5.1-11.4-11.4l0,0L481.2,589.6
				L481.2,589.6z"/>
			<path class="st26" d="M481.7,589.9h152.1c0.4,0,0.8,0.3,0.8,0.8v0.2c0,0.4-0.3,0.8-0.8,0.8H481.7c-0.4,0-0.8-0.3-0.8-0.8v-0.2
				C481,590.2,481.3,589.9,481.7,589.9z"/>
			<path class="st28" d="M481.2,589.6h153.5l0,0v1.4c0,6.3-5.1,11.4-11.4,11.4H492.6c-6.3,0-11.4-5.1-11.4-11.4l0,0L481.2,589.6
				L481.2,589.6z"/>
			<path class="st31" d="M652.7,424.2h47.4c3.9,0,7,3.1,7,7v81c0,3.9-3.1,7-7,7h-47.4c-3.9,0-7-3.1-7-7v-81
				C645.7,427.4,648.8,424.2,652.7,424.2z"/>
			<path class="st3" d="M647.2,424.2h48.2c3.9,0,7,3.1,7,7V509c0,3.9-3.1,7-7,7h-48.2c-3.9,0-7-3.1-7-7v-77.8
				C640.2,427.4,643.3,424.2,647.2,424.2z"/>
			<path class="st32" d="M652,457h38.6c2,0,3.7,1.6,3.7,3.7v0.9c0,2-1.6,3.7-3.7,3.7H652c-2,0-3.7-1.6-3.7-3.7v-0.9
				C648.4,458.7,650,457,652,457z"/>
			<path class="st33" d="M652,473.4h38.6c2,0,3.7,1.6,3.7,3.7v0.9c0,2-1.6,3.7-3.7,3.7H652c-2,0-3.7-1.6-3.7-3.7v-0.9
				C648.4,475.1,650,473.4,652,473.4z"/>
			<circle class="st13" cx="671.3" cy="443.1" r="7.4"/>
			<path class="st34" d="M662.6,493.1H680c2.2,0,4,1.8,4,4v1c0,2.2-1.8,4-4,4h-17.4c-2.2,0-4-1.8-4-4v-1
				C658.6,494.9,660.4,493.1,662.6,493.1z"/>
			<g class="st35">
				<path class="st27" d="M653.9,478.6c0.7,0,1.2-0.6,1.2-1.2c0-0.7-0.6-1.2-1.2-1.2l0,0c-0.7,0-1.2,0.6-1.2,1.2
					C652.7,478,653.3,478.6,653.9,478.6z"/>
			</g>
			<g class="st35">
				<path class="st27" d="M659.2,478.6c0.7,0,1.2-0.6,1.2-1.2c0-0.7-0.6-1.2-1.2-1.2l0,0c-0.7,0-1.2,0.6-1.2,1.2
					C658,478,658.5,478.6,659.2,478.6z"/>
			</g>
			<g class="st35">
				<path class="st27" d="M664.6,478.6c0.7,0,1.2-0.6,1.2-1.2c0-0.7-0.6-1.2-1.2-1.2l0,0c-0.7,0-1.2,0.6-1.2,1.2
					C663.3,478,663.9,478.6,664.6,478.6z"/>
			</g>
			<g class="st35">
				<path class="st27" d="M669.9,478.6c0.7,0,1.2-0.6,1.2-1.2c0-0.7-0.6-1.2-1.2-1.2l0,0c-0.7,0-1.2,0.6-1.2,1.2
					C668.7,478,669.3,478.6,669.9,478.6z"/>
			</g>
			<path class="st31" d="M475.3,570.4h-24.8c-4.6-0.2-8.7-3.2-10.2-7.5L426.8,518c-1.3-4.2,1.3-7.5,5.6-7.5h24.8
				c4.6,0.2,8.7,3.2,10.2,7.5l13.5,44.9C482.2,567,479.7,570.4,475.3,570.4z"/>
			<path class="st3" d="M477.3,567.8h-25.4c-4.4,0-8.9-3.5-10.2-7.9l-12.9-44.9c-1.3-4.4,1.3-7.9,5.6-7.9h25.4
				c4.4,0,8.9,3.5,10.2,7.9l12.9,44.9C484.1,564.2,481.6,567.8,477.3,567.8z"/>
			<path class="st32" d="M467.4,534.1h-24.9c-1.6-0.1-3-1.2-3.5-2.7l0,0c-0.4-1,0.1-2.2,1.2-2.6c0.2-0.1,0.5-0.1,0.8-0.1h25
				c1.6,0.1,3,1.2,3.5,2.7l0,0c0.4,1-0.1,2.2-1.2,2.6C467.9,534.1,467.6,534.1,467.4,534.1z"/>
			<path class="st33" d="M470.5,545h-24.9c-1.6-0.1-3-1.2-3.5-2.7l0,0c-0.4-1,0.1-2.2,1.2-2.6c0.2-0.1,0.5-0.1,0.8-0.1h24.9
				c1.6,0.1,3,1.2,3.5,2.7l0,0c0.4,1-0.1,2.2-1.2,2.6C471,545,470.7,545,470.5,545z"/>
			
				<ellipse transform="matrix(0.655 -0.7556 0.7556 0.655 -237.061 519.7779)" class="st13" cx="450.7" cy="519.5" rx="4.2" ry="5.6"/>
			<path class="st34" d="M467.3,558.5h-10.8c-1.8-0.1-3.3-1.3-3.8-3l0,0c-0.5-1.1,0-2.4,1.1-2.8c0.3-0.1,0.6-0.2,1-0.2h10.8
				c1.8,0.1,3.3,1.3,3.8,3l0,0c0.5,1.1,0,2.4-1.1,2.8C468,558.5,467.6,558.6,467.3,558.5z"/>
			<g class="st35">
				<path class="st27" d="M445.9,543c1,0,0.6-1.6-0.5-1.6S444.9,543,445.9,543z"/>
			</g>
			<g class="st35">
				<path class="st27" d="M449.4,543c1,0,0.6-1.6-0.5-1.6S448.4,543,449.4,543z"/>
			</g>
			<g class="st35">
				<path class="st27" d="M453,543c1,0,0.6-1.6-0.5-1.6S451.9,543,453,543z"/>
			</g>
			<g class="st35">
				<path class="st27" d="M456.5,543c1,0,0.6-1.6-0.5-1.6S455.5,543,456.5,543z"/>
			</g>
			<path class="st26" d="M779.7,415.3v123.1H564.3v-5.2l198.1-129.1h6.2C774.7,404.3,779.7,409.2,779.7,415.3z"/>
			
				<linearGradient id="SVGID_9_" gradientUnits="userSpaceOnUse" x1="572.9036" y1="217.2766" x2="608.6736" y2="174.9066" gradientTransform="matrix(1 0 0 -1 0 616)">
				<stop  offset="0" style="stop-color:#E6E6E6;stop-opacity:0.5"/>
				<stop  offset="0.15" style="stop-color:#E5E5E5;stop-opacity:0.47"/>
				<stop  offset="0.37" style="stop-color:#E1E1E1;stop-opacity:0.39"/>
				<stop  offset="0.63" style="stop-color:#DADADA;stop-opacity:0.25"/>
				<stop  offset="0.92" style="stop-color:#D2D2D2;stop-opacity:6.000000e-02"/>
				<stop  offset="1" style="stop-color:#CFCFCF;stop-opacity:0"/>
			</linearGradient>
			<path class="st36" d="M680.4,404.2H575.9c-6.7,0-12,4.6-12,11.2l0.3,94.9c0,0,26.9-49.2,42.4-63.4
				C620.2,434.7,680.4,404.2,680.4,404.2z"/>
			<path class="st26" d="M405.4,589.9l99.4-104.7h9.2c1.3,0,2.5,0.9,2.8,2.1l28.4,100.6c0.1,0.5-0.1,1-0.6,1.1c-0.1,0-0.2,0-0.3,0
				L405.4,589.9z"/>
			
				<linearGradient id="SVGID_10_" gradientUnits="userSpaceOnUse" x1="382.6156" y1="127.0899" x2="423.6156" y2="99.2598" gradientTransform="matrix(1 0 0 -1 0 616)">
				<stop  offset="0" style="stop-color:#E6E6E6;stop-opacity:0.37"/>
				<stop  offset="0.23" style="stop-color:#E5E5E5;stop-opacity:0.35"/>
				<stop  offset="0.45" style="stop-color:#E2E2E2;stop-opacity:0.3"/>
				<stop  offset="0.65" style="stop-color:#DDDDDD;stop-opacity:0.22"/>
				<stop  offset="0.84" style="stop-color:#D6D6D6;stop-opacity:0.11"/>
				<stop  offset="1" style="stop-color:#CFCFCF;stop-opacity:0"/>
			</linearGradient>
			<path class="st37" d="M383.6,495.7l10.9,35.4l40.5-40.8l-47.2-0.4c-2.4,0-4.4,1.9-4.4,4.4C383.4,494.8,383.5,495.3,383.6,495.7z"
				/>
			<path class="st38" d="M437.2,602.5c-22.4,1.8-44.9,1.8-67.3,0c-2.3-0.2-4.1-2.1-4.2-4.4l-0.1-2.1c-0.2-2.5,1.7-4.7,4.2-4.9
				c0.2,0,0.4,0,0.6,0c22.1,1.7,44.2,1.7,66.3,0c2.5-0.1,4.7,1.8,4.8,4.3c0,0.2,0,0.4,0,0.6l-0.1,2.1
				C441.3,600.4,439.5,602.3,437.2,602.5z"/>
			<ellipse class="st39" cx="403.5" cy="591.8" rx="35.6" ry="2.7"/>
			<path class="st38" d="M437.6,592.1c-22.6,1.9-45.4,1.9-68.1,0c-2.1-0.2-3.7-1.9-3.8-4l-0.2-3.2c-0.2-1.9,1.1-3.5,3-3.7
				c0.2,0,0.5,0,0.7,0c22.7,1.8,45.2,1.2,67.9-0.5c2.3-0.1,4.3,1.6,4.4,4c0,0.2,0,0.4,0,0.5l-0.2,3
				C441.3,590.2,439.7,591.9,437.6,592.1z"/>
			<path class="st39" d="M439.1,581.5c-1,1.2-16,2.1-35.6,2.1s-33-0.9-35.6-2.1c-1.3-0.6,6.8-1.2,35.6-1.5
				C428.1,579.7,440.1,580.3,439.1,581.5z"/>
			
				<linearGradient id="SVGID_11_" gradientUnits="userSpaceOnUse" x1="366.3957" y1="28.2301" x2="389.9057" y2="28.2301" gradientTransform="matrix(1 0 0 -1 0 616)">
				<stop  offset="0" style="stop-color:#FFFFFF;stop-opacity:0.7"/>
				<stop  offset="0.23" style="stop-color:#FFFFFF;stop-opacity:0"/>
			</linearGradient>
			<path class="st40" d="M366.4,584.2v3.3c0,1.9,1.5,3.5,3.4,3.7c0,0,13.8,1.4,20,1.2c0.1-2.3,0.1-3.6,0.1-7.2
				c-7.5,0.4-15-0.3-22.4-2.1C367,583.1,366.4,583.5,366.4,584.2C366.4,584.2,366.4,584.2,366.4,584.2z"/>
			
				<linearGradient id="SVGID_12_" gradientUnits="userSpaceOnUse" x1="366.3957" y1="17.9101" x2="389.9057" y2="17.9101" gradientTransform="matrix(1 0 0 -1 0 616)">
				<stop  offset="0" style="stop-color:#FFFFFF;stop-opacity:0.7"/>
				<stop  offset="0.26" style="stop-color:#FFFFFF;stop-opacity:0"/>
			</linearGradient>
			<path class="st41" d="M366.4,594.5v3.3c0,1.9,1.5,3.5,3.4,3.7c0,0,13.8,1.4,20,1.2c0.1-2.3,0.1-3.6,0.1-7.2
				c-7.5,0.4-15-0.3-22.4-2.1C367,593.4,366.4,593.9,366.4,594.5C366.4,594.5,366.4,594.5,366.4,594.5z"/>
			<path class="st24" d="M441,583.3v3.9c0.1,2.2-1.5,4-3.6,4.3c0,0-8.6,1-15.5,1.3l4.6-8.5c4.5-0.3,9-1.1,13.3-2.3
				C440.5,582.1,441,582.6,441,583.3C441,583.3,441,583.3,441,583.3z"/>
			<path class="st24" d="M441,593.7v3.9c0.1,2.2-1.5,4-3.6,4.3c0,0-8.6,1-15.5,1.3l4.6-8.5c1.3-0.1-23-1-21.9-1.1
				c20.6-0.6,34.6-1.8,34.6-1.8C439.9,591.8,441,593,441,593.7z"/>
			
				<linearGradient id="SVGID_13_" gradientUnits="userSpaceOnUse" x1="366.886" y1="33.4956" x2="427.6657" y2="33.4956" gradientTransform="matrix(1 0 0 -1 0 616)">
				<stop  offset="0" style="stop-color:#FFFFFF"/>
				<stop  offset="1" style="stop-color:#FFFFFF;stop-opacity:0"/>
			</linearGradient>
			<path class="st42" d="M374.3,580.7c0,0-10.6,0.5-6.5,1.8s16.8,3.3,59.8,0.7c-15.2,0.5-49,0.8-58.1-1
				C366.6,581.5,374.3,580.7,374.3,580.7z"/>
			
				<linearGradient id="SVGID_14_" gradientUnits="userSpaceOnUse" x1="612.2999" y1="36.2906" x2="613.2699" y2="-61.3394" gradientTransform="matrix(1 0 0 -1 0 616)">
				<stop  offset="0.22" style="stop-color:#3E56B0;stop-opacity:0.7"/>
				<stop  offset="0.29" style="stop-color:#5F73BB;stop-opacity:0.56"/>
				<stop  offset="0.41" style="stop-color:#99A4CD;stop-opacity:0.32"/>
				<stop  offset="0.53" style="stop-color:#C3C7DA;stop-opacity:0.14"/>
				<stop  offset="0.62" style="stop-color:#DCDDE2;stop-opacity:4.000000e-02"/>
				<stop  offset="0.69" style="stop-color:#E5E5E5;stop-opacity:0"/>
			</linearGradient>
			<path class="st43" d="M370.7,620c7.3,2.2,14.6,4.6,22.1,7.5c27.5,10.7,330.7,8.1,399.8,4.4c5.8-0.3,11.7-0.7,17.4-1.5
				c22.1-3.1,41.5-12.9,63-17.3c11.7-2.4,23.8-4,35.6-6c2.8-0.5,2.4-4-0.4-4h-476l-115.3,1c-2.8,0-3.2,3.5-0.4,4
				C335.9,611.4,353.2,614.7,370.7,620z"/>
		</g>
		<g id="bombillo">
			<g class="st44">
				<g class="st45">
					
						<image style="overflow:visible;enable-background:new    ;" width="415" height="406" xlink:href="5FB73E58.png"  transform="matrix(1 0 0 1 9.2857 153)">
					</image>
				</g>
				<circle class="st46" cx="216.5" cy="360.7" r="128.2"/>
				<circle class="st6" cx="216.5" cy="360.7" r="85.5"/>
			</g>
			<path class="st47" d="M245.4,453.7V486L231,496.6c-7.8,5.7-18.4,5.8-26.3,0.1L189.9,486v-32.3H245.4z"/>
			<path class="st48" d="M227.4,348.8v0.5c0-0.1,0-0.2,0-0.3V348.8c0-0.9,0-1.8,0-2.7C227.3,347,227.3,347.9,227.4,348.8z"/>
			<path class="st48" d="M227.5,390.5c0-0.1,0-0.3-0.1-0.4c0-0.3-0.1-0.5,0-0.8c0-0.5,0-1.1,0-1.6c0.8,0.2,1.3,1.1,1,1.9
				C228.3,390,228,390.3,227.5,390.5z"/>
			<path class="st48" d="M258.4,377.6c0,0.1,0,0.2,0,0.2v-0.5C258.4,377.5,258.4,377.6,258.4,377.6z"/>
			<path class="st15" d="M234.5,454c-11.5,0-23.1,0-34.6,0v-17.5c0-0.5,0.4-1,0.9-1h32.7c0.5,0,0.9,0.5,0.9,1v17c0,0,0,0.1,0,0.1
				C234.4,453.8,234.4,453.9,234.5,454z"/>
			<path class="st49" d="M229.4,355.1h-0.2c0,1.1,0,2.2,0,3.4c3-2.9,8.9-2.2,10.2,2.9c0.7,0,1.6,0,2.3,0l0,0
				C241,355.5,235.3,353.8,229.4,355.1z M229.4,355.1h-0.2c0,1.1,0,2.2,0,3.4c3-2.9,8.9-2.2,10.2,2.9c0.7,0,1.6,0,2.3,0l0,0
				C241,355.5,235.3,353.8,229.4,355.1z M229.4,355.1h-0.2c0,1.1,0,2.2,0,3.4c3-2.9,8.9-2.2,10.2,2.9c0.7,0,1.6,0,2.3,0l0,0
				C241,355.5,235.3,353.8,229.4,355.1z M229.4,355.1h-0.2c0,1.1,0,2.2,0,3.4c3-2.9,8.9-2.2,10.2,2.9c0.7,0,1.6,0,2.3,0l0,0
				C241,355.5,235.3,353.8,229.4,355.1z M229.4,355.1h-0.2c0,1.1,0,2.2,0,3.4c3-2.9,8.9-2.2,10.2,2.9c0.7,0,1.6,0,2.3,0l0,0
				C241,355.5,235.3,353.8,229.4,355.1z M229.4,355.1h-0.2c0,1.1,0,2.2,0,3.4c3-2.9,8.9-2.2,10.2,2.9c0.7,0,1.6,0,2.3,0l0,0
				C241,355.5,235.3,353.8,229.4,355.1z M229.4,355.1h-0.2c0,1.1,0,2.2,0,3.4c3-2.9,8.9-2.2,10.2,2.9c0.7,0,1.6,0,2.3,0l0,0
				C241,355.5,235.3,353.8,229.4,355.1z M229.4,355.1h-0.2c0,1.1,0,2.2,0,3.4c3-2.9,8.9-2.2,10.2,2.9c0.7,0,1.6,0,2.3,0l0,0
				C241,355.5,235.3,353.8,229.4,355.1z M229.4,355.1h-0.2c0,1.1,0,2.2,0,3.4c3-2.9,8.9-2.2,10.2,2.9c0.7,0,1.6,0,2.3,0l0,0
				C241,355.5,235.3,353.8,229.4,355.1z M229.4,355.1h-0.2c0,1.1,0,2.2,0,3.4c3-2.9,8.9-2.2,10.2,2.9c0.7,0,1.6,0,2.3,0l0,0
				C241,355.5,235.3,353.8,229.4,355.1z M229.4,355.1h-0.2c0,1.1,0,2.2,0,3.4c3-2.9,8.9-2.2,10.2,2.9c0.7,0,1.6,0,2.3,0l0,0
				C241,355.5,235.3,353.8,229.4,355.1z M282.1,345.4c-5.8-26.8-30.9-52-63.8-51.6c-2.6,0-5.2,0.2-7.8,0.5c-7,0.9-13.8,2.9-20.3,5.7
				c-7.3,3.1-14,7.4-19.7,12.9c-15.4,14.8-26.9,47.5-16.7,71.5c3.8,11.2,10.9,21.4,22.2,32c6.1,5.8,9,12.6,8.5,20.4
				c-0.1,1.2-0.1,2.4-0.1,3.6c0,1.8,0,3.5,0.2,5.2c0.4,4.5,2.5,7.2,6.3,8.1h9v-17.2c0-0.1,0-0.2,0-0.3c0,0,0-0.1,0-0.1
				c0-0.1,0-0.2,0.1-0.2c0-0.1,0.1-0.1,0.1-0.2c0,0,0.1-0.1,0.1-0.1l0,0l0,0c0,0,0.1,0,0.1-0.1c0.1-0.1,0.2-0.1,0.4-0.1h32.8
				c0.1,0,0.2,0,0.4,0.1c0,0,0.1,0,0.1,0.1l0,0l0,0c0,0,0.1,0.1,0.1,0.1c0,0,0.1,0.1,0.1,0.2c0,0.1,0.1,0.1,0.1,0.2c0,0,0,0.1,0,0.1
				c0,0.1,0,0.2,0,0.3v17c0,0,0,0,0,0.1v0.1h11v0.2c7.8-1.1,7.5-8.8,7.3-16.2c0-1.5-0.1-3.1-0.1-4.5c-0.6-9,6.4-15.1,11.9-21.2
				C282.1,393.7,287.1,364.7,282.1,345.4L282.1,345.4z M253.3,367.8c11.1,2.7,10.7,17.9-0.3,19.8c-2.2,0.5-3.7-0.4-4.4-2.6l0,0l0,0
				c-1.4-4.4-5.1-7.6-9.7-8.2v2.4c11.6,2.4,10.1,19.5-1.8,19.6c-3.1,0-6-1.5-7.9-4c-0.9-1.2-1.5-2.7-1.7-4.2
				c-0.2,0.1-0.3,0.1-0.5,0.1h-7.6v42c0,0.1,0,0.2,0,0.3c0,0.1-0.1,0.2-0.1,0.3c0,0.1-0.1,0.2-0.1,0.3c-0.1,0.1-0.1,0.2-0.2,0.2
				c-0.3,0.3-0.7,0.4-1,0.4h-0.3l-0.2-0.1c-0.1,0-0.2-0.1-0.3-0.1c-0.1-0.1-0.2-0.1-0.3-0.2c-0.1-0.1-0.1-0.1-0.2-0.2
				c-0.1-0.1-0.1-0.2-0.2-0.3c0-0.1-0.1-0.1-0.1-0.2c0,0,0,0,0-0.1l0,0c0-0.1,0-0.2,0-0.3v-42h-8.2c-0.8,4.6-3.1,8.3-8.7,8.4
				c-1.8-0.2-3.6-0.6-5.3-1.3c-3.3-1.5-5.4-4.8-5.2-8.4c0-4.6,2.9-9.4,7.9-10.2v-2.4c-4.5,0.6-8.3,3.9-9.5,8.3
				c-0.4,1.9-2.3,3-4.1,2.6c0,0-0.1,0-0.1,0c-11.3-1.7-11.5-17.3-0.5-19.8c0-0.8,0-1.5,0-2.3c-2,0.2-3.9,0.9-5.4,2.2
				c-1.3,1.1-3.2,1.3-4.6,0.4c-12.4-6.9-1.5-25.1,10.4-16.7l1.8-1.6c-1.7-1.6-3.9-2.6-6.2-2.8c-1.6-0.1-3-1.2-3.5-2.8
				c-2.5-6,2.3-13.5,8.8-13.5c1.6-0.2,3.1,0.9,3.3,2.5c1.4,5,5.9,8.5,11.1,8.5v-2.3c-5-0.3-9-4.2-9.3-9.2c-0.8-8.8,10-14.2,16.4-8
				c1.9,1.8,3,4.3,3.1,7c0,5.9,0,11.8,0,17.6v5.7c0,1.2-0.5,2.8-2,2.5c-5.8-1.3-11.7,0.4-12.3,6.2c0.6,0,1.9,0.1,2.4,0
				c0.8-4.2,6.6-6.2,9.9-3.1c1.4,1.3,2.2,3.2,2.1,5.1c0,7.1,0,14.1,0,21.2c0.1,1,0.1,2,0,3H227c0.1,0,0.3,0,0.4,0c0-1.7,0-3.5,0-5.2
				s0-3.5,0-5.2s0-3.6,0-5.4s0-3.6,0-5.3c0-1.2,0-2.4,0-3.5c0-0.2,0-0.4,0-0.6s0-0.3,0.1-0.5c0.2-1.3,0.8-2.5,1.7-3.4
				c3-2.9,8.9-2.2,10.2,2.9c0.7,0,1.6,0,2.3,0l0,0c-0.7-5.8-6.5-7.5-12.3-6.2h-0.2c-1.3,0.1-1.8-1.3-1.8-2.5v-3.8c0-0.9,0-1.8,0-2.7
				c0-1.5,0-3.1,0-4.6c0-0.6,0-1.2,0-1.8v-0.3c0-0.6,0-1.2,0-1.8v-0.7c0-2.5,0-5,0-7.4v-0.1c0-5.4,4.4-9.7,9.8-9.7
				c2.7,0,5.3,1.2,7.2,3.2c5.2,5.6,1.9,15.4-5.7,16.4c0,0.7,0.1,1.7,0,2.4c4.6-0.6,8.4-3.8,9.8-8.1c0.1-0.1,0.1-0.3,0.1-0.4
				c0.3-1.5,1.7-2.6,3.3-2.5c6.5,0,11.4,7.5,8.9,13.5c-0.5,1.6-1.8,2.7-3.5,2.8c-2.3,0.3-4.5,1.2-6.2,2.8l1.8,1.6
				c0.3-0.2,0.7-0.4,1-0.6c11.6-6.9,21.5,10.7,9.3,17.4c-1.4,0.8-3.2,0.6-4.5-0.4l-0.5-0.4c-0.1-0.1-0.3-0.2-0.4-0.3l-0.4-0.3
				c-0.1-0.1-0.3-0.2-0.4-0.3c-1.2-0.6-2.4-0.9-3.7-1C253.2,366.3,253.2,367.1,253.3,367.8z M229.4,355.1h-0.2c0,1.1,0,2.2,0,3.4
				c3-2.9,8.9-2.2,10.2,2.9c0.7,0,1.6,0,2.3,0l0,0C241,355.5,235.3,353.8,229.4,355.1L229.4,355.1z M229.4,355.1h-0.2
				c0,1.1,0,2.2,0,3.4c3-2.9,8.9-2.2,10.2,2.9c0.7,0,1.6,0,2.3,0l0,0C241,355.5,235.3,353.8,229.4,355.1L229.4,355.1z M229.4,355.1
				h-0.2c0,1.1,0,2.2,0,3.4c3-2.9,8.9-2.2,10.2,2.9c0.7,0,1.6,0,2.3,0l0,0C241,355.5,235.3,353.8,229.4,355.1L229.4,355.1z
				 M229.4,355.1h-0.2c0,1.1,0,2.2,0,3.4c3-2.9,8.9-2.2,10.2,2.9c0.7,0,1.6,0,2.3,0l0,0C241,355.5,235.3,353.8,229.4,355.1
				L229.4,355.1z M229.4,355.1h-0.2c0,1.1,0,2.2,0,3.4c3-2.9,8.9-2.2,10.2,2.9c0.7,0,1.6,0,2.3,0l0,0
				C241,355.5,235.3,353.8,229.4,355.1L229.4,355.1z M229.4,355.1h-0.2c0,1.1,0,2.2,0,3.4c3-2.9,8.9-2.2,10.2,2.9c0.7,0,1.6,0,2.3,0
				l0,0C241,355.5,235.3,353.8,229.4,355.1L229.4,355.1z M229.4,355.1h-0.2c0,1.1,0,2.2,0,3.4c3-2.9,8.9-2.2,10.2,2.9
				c0.7,0,1.6,0,2.3,0l0,0C241,355.5,235.3,353.8,229.4,355.1L229.4,355.1z M229.4,355.1h-0.2c0,1.1,0,2.2,0,3.4
				c3-2.9,8.9-2.2,10.2,2.9c0.7,0,1.6,0,2.3,0l0,0C241,355.5,235.3,353.8,229.4,355.1L229.4,355.1z M229.4,355.1h-0.2
				c0,1.1,0,2.2,0,3.4c3-2.9,8.9-2.2,10.2,2.9c0.7,0,1.6,0,2.3,0l0,0C241,355.5,235.3,353.8,229.4,355.1L229.4,355.1z M229.4,355.1
				h-0.2c0,1.1,0,2.2,0,3.4c3-2.9,8.9-2.2,10.2,2.9c0.7,0,1.6,0,2.3,0l0,0C241,355.5,235.3,353.8,229.4,355.1L229.4,355.1z
				 M229.4,355.1h-0.2c0,1.1,0,2.2,0,3.4c3-2.9,8.9-2.2,10.2,2.9c0.7,0,1.6,0,2.3,0l0,0C241,355.5,235.3,353.8,229.4,355.1
				L229.4,355.1z"/>
			<path class="st15" d="M253.9,350.9c-0.3,0.2-0.7,0.4-1,0.6l-1.8-1.6c1.7-1.6,3.9-2.6,6.2-2.8c1.6-0.1,3-1.3,3.5-2.8
				c2.5-6-2.4-13.5-8.9-13.5c-1.6-0.1-3,0.9-3.3,2.5c0,0.1-0.1,0.3-0.1,0.4c-1.4,4.4-5.3,7.5-9.8,8.1c0-0.7,0-1.8,0-2.4
				c7.6-1,10.9-10.8,5.7-16.4c-3.6-4-9.8-4.3-13.7-0.7c-2,1.8-3.2,4.4-3.2,7.1v0.1c0,2.5,0,5,0,7.4v0.7c0,0.6,0,1.2,0,1.8v0.3
				c0,0.6,0,1.2,0,1.8c0,1.5,0,3.1,0,4.6c0,0.9,0,1.8,0,2.7v0.5c0,1.4,0.1,2.9,0.2,4.3c7.6-1.7,13.7,1.7,14.1,7.7l0,0
				c-0.7,0-1.6,0-2.3,0c-1.3-5.1-7.2-5.7-10.2-2.9c-0.9,0.9-1.5,2.1-1.7,3.4c0,0.1,0,0.3-0.1,0.5s0,0.4,0,0.6c0,1.2,0,2.3,0,3.5
				c0,1.8,0,3.5,0,5.3s0,3.6,0,5.4s0,3.5,0,5.2s0,3.5,0,5.2c0.8,0.2,1.3,1.1,1,1.9c-0.1,0.4-0.5,0.8-0.9,1l0,0
				c0.2,1.5,0.8,3,1.7,4.2c1.8,2.5,4.7,4,7.9,4c11.8-0.2,13.4-17.2,1.8-19.6v-2.4c4.5,0.6,8.3,3.8,9.7,8.2l0,0l0,0
				c0.7,2.2,2.2,3.1,4.4,2.6c11-1.9,11.4-17.1,0.3-19.8c-0.1-0.7-0.1-1.4,0-2.2c1.3,0.1,2.5,0.4,3.7,1c0.1,0.1,0.3,0.2,0.4,0.3
				l0.4,0.3c0.1,0.1,0.3,0.2,0.4,0.3l0.5,0.4c1.3,1,3,1.2,4.5,0.4C275.4,361.5,265.5,344,253.9,350.9z M258.4,377.4
				c0,0.1,0,0.2,0,0.3c0,0.1,0,0.2,0,0.2V377.4z"/>
			<path class="st15" d="M207.4,390.6h0.9c-0.8,4.6-3.1,8.3-8.7,8.4c-1.8-0.1-3.6-0.5-5.3-1.2c-3.3-1.5-5.4-4.8-5.2-8.4
				c0-4.6,2.9-9.4,7.9-10.2v-2.4c-4.5,0.6-8.3,3.9-9.5,8.3c-0.4,1.9-2.3,3-4.1,2.6c0,0-0.1,0-0.1,0c-11.3-1.7-11.5-17.3-0.5-19.8
				c0-0.8,0-1.5,0-2.3c-2,0.2-3.9,0.9-5.4,2.2c-1.3,1.1-3.2,1.3-4.6,0.4c-12.4-6.9-1.5-25.1,10.4-16.7l1.8-1.6
				c-1.7-1.6-3.9-2.6-6.2-2.8c-1.6-0.1-3-1.2-3.5-2.8c-2.5-6,2.3-13.5,8.8-13.5c1.6-0.2,3.1,0.9,3.3,2.5c1.4,5,5.9,8.5,11.1,8.5
				v-2.3c-5-0.3-9-4.2-9.3-9.2c-0.8-8.8,10-14.2,16.4-8c1.9,1.8,3,4.3,3.1,7c0,5.9,0,11.8,0,17.6v5.7c0,1.2-0.5,2.8-2,2.5
				c-5.8-1.3-11.7,0.4-12.3,6.2c0.6,0,1.9,0.1,2.4,0c0.8-4.2,6.6-6.2,9.9-3.1c1.4,1.3,2.2,3.2,2.1,5.1c0,7.1,0,14.1,0,21.2
				c0.1,1,0.1,2,0,3h-1.2c-0.8,0-1.5,0.7-1.5,1.5C205.8,389.9,206.5,390.6,207.4,390.6L207.4,390.6z"/>
			<path class="st50" d="M190.9,453.7h6v0.3h-3.2C192.8,454,191.8,453.9,190.9,453.7z"/>
			<path class="st50" d="M245.4,453.7v0.2c-0.7,0.1-1.5,0.1-2.2,0.1h-5.9c0-0.1,0.1-0.2,0.1-0.3H245.4z"/>
			<path class="st30" d="M245.7,485.3c0-0.3-0.1-0.7-0.3-1c-0.6-1-1.8-1.5-2.9-1.4c-8.4,0-16.9,0-25.3,0h-24.5
				c-1.4-0.3-2.7,0.5-3.1,1.8c-0.2,0.5-0.2,1-0.1,1.5c0.3,0.8,0.9,1.5,1.6,2c5.5,3.9,10.9,7.8,16.4,11.7c6,4.2,14.1,4.2,20.1,0
				c5.5-3.9,11-7.8,16.4-11.7C245.2,487.7,245.8,486.5,245.7,485.3z M225.9,497.5c-2.4,1.8-5.4,2.7-8.4,2.6H217
				c-2.8,0-5.5-0.9-7.8-2.6c-4.8-3.4-9.6-6.8-14.4-10.2L193,486h49.1l-0.3,0.2C236.5,490,231.2,493.8,225.9,497.5L225.9,497.5z"/>
			<path class="st48" d="M226.5,406.7v-0.1"/>
			<path class="st51" d="M227.5,390.5L227.5,390.5c-0.2,0.1-0.3,0.1-0.5,0.1h-7.6v42c0,0.1,0,0.2,0,0.3c0,0.1-0.1,0.2-0.1,0.3
				c0,0.1-0.1,0.2-0.1,0.3c-0.1,0.1-0.1,0.2-0.2,0.2c-0.3,0.3-0.7,0.4-1,0.4h-0.3l-0.2-0.1c-0.1,0-0.2-0.1-0.3-0.1
				c-0.1-0.1-0.2-0.1-0.3-0.2c-0.1-0.1-0.1-0.1-0.2-0.2c-0.1-0.1-0.1-0.2-0.2-0.3c0-0.1-0.1-0.1-0.1-0.2c0,0,0,0,0-0.1
				c0-0.1,0-0.2,0-0.3v-42h-9c-0.8,0-1.5-0.7-1.5-1.5s0.7-1.5,1.5-1.5h19.6c0.8,0,1.5,0.7,1.5,1.5
				C228.6,389.7,228.2,390.3,227.5,390.5L227.5,390.5z"/>
			<path class="st30" d="M243.4,467h-52.5c-0.8,0-1.5-0.7-1.5-1.5s0.7-1.5,1.5-1.5h52.5c0.8,0,1.5,0.7,1.5,1.5S244.2,467,243.4,467z
				"/>
			<path class="st30" d="M243.4,476h-52.5c-0.8,0-1.5-0.7-1.5-1.5s0.7-1.5,1.5-1.5h52.5c0.8,0,1.5,0.7,1.5,1.5S244.2,476,243.4,476z
				"/>
			<path class="st52" d="M179.1,405.7c-8.1,0.2-23.9-25.9-21-51c0.2-1.7,3.1-24.7,21-40.5c4.9-4.3,10.5-7.8,16.5-10.5
				c6.7-3.1,16.9-6.5,18-4.5c0.4,0.6,0.9,2.1-4.5,4.5c-3.2,1.4-9,2.8-15,6c-7.8,4.1-12.1,9.7-15,13.5c-4.1,5.4-7.2,11.5-9,18
				c-2,7.3-3.3,13-3,21c0.4,9.6,2,14.4,4.5,19.5c4.9,10.2,9,18,10.5,19.5C184.2,403.3,181.3,405.7,179.1,405.7z"/>
			<path class="st52" d="M194.2,415.9c0.7,0,1.3,0.5,1.4,1.2c1,6.9,1.4,13.8,1,20.8c0,1.4-0.3,2.8-0.9,4.1c-0.7,1.3-2,0.8-3.4,0.6
				c-2.2-0.3-1.9-11.2-2.7-14.8c-0.5-2.2-2.8-4.3-4.4-6.4c-0.9-1.4-0.6-3.2,0.8-4.2c0.2-0.1,0.4-0.2,0.5-0.3
				C189,416.1,191.6,415.7,194.2,415.9z"/>
			<path class="st24" d="M264.5,410.9c-5.5,6-12.5,12.1-11.9,20.9c-0.2,8.4,2.1,19.2-7.3,20.5v30.1c0.7,1.4,0.1,3.1-1.3,3.8
				c0,0,0,0-0.1,0c-5.5,3.8-10.9,7.8-16.4,11.6c-3.1,2.2-6.8,3.3-10.6,3.1v-2.3v-0.8l0.1-14v-3l0-6.8v-3v-6v-2.9l0.1-9.9v-0.3
				l0.1-17.9l11.5,0.2c0,0,0.8-70.6,0-90.4c-1.5-35.5-10.6-49.8-10.6-49.8c32.9-0.4,58,24.5,63.8,51
				C287.1,364.3,282.1,392.9,264.5,410.9z"/>
		</g>
	</g>
</g>
</svg>
