<?xml version="1.0" encoding="utf-8"?>
<!-- Generator: Adobe Illustrator 23.0.5, SVG Export Plug-In . SVG Version: 6.00 Build 0)  -->
<svg version="1.1" id="Capa_1" xmlns="http://www.w3.org/2000/svg" xmlns:xlink="http://www.w3.org/1999/xlink" x="0px" y="0px"
	 viewBox="0 0 880.4 513.8" style="enable-background:new 0 0 880.4 513.8;" xml:space="preserve">
<style type="text/css">
	.st0{fill:url(#SVGID_1_);}
	.st1{fill:url(#SVGID_2_);}
	.st2{fill:url(#SVGID_3_);}
	.st3{fill:url(#SVGID_4_);}
	.st4{fill:url(#SVGID_5_);}
	.st5{fill:url(#SVGID_6_);}
	.st6{fill:none;stroke:#F3E08F;stroke-width:9;stroke-linecap:round;stroke-miterlimit:10;}
	.st7{fill:none;stroke:#E4007C;stroke-width:9;stroke-linecap:round;stroke-miterlimit:10;}
	.st8{fill:url(#SVGID_7_);}
	.st9{fill:#D1D2D3;}
	.st10{fill:#8B5E5E;}
	.st11{fill:#9D6B6B;}
	.st12{fill:#DBD1CC;}
	.st13{fill:#F2EDEB;}
	.st14{fill:url(#SVGID_8_);}
	.st15{fill:#868E94;}
	.st16{fill:#8E6047;}
	.st17{fill:#B98660;}
	.st18{fill:url(#SVGID_9_);}
	.st19{fill:#6B757C;}
	.st20{fill:url(#SVGID_10_);}
	.st21{fill:url(#SVGID_11_);}
	.st22{fill:url(#SVGID_12_);}
	.st23{fill:url(#SVGID_13_);}
	.st24{fill:#174869;}
	.st25{fill:#FBDAA7;}
	.st26{fill:url(#SVGID_14_);}
	.st27{fill:#6BCEC4;}
	.st28{fill:#0FA69A;}
	.st29{fill:none;stroke:#FFF3AD;stroke-linecap:round;stroke-miterlimit:10;}
	.st30{fill:none;stroke:#FFF3AD;stroke-linecap:round;stroke-miterlimit:10;stroke-dasharray:8.43,8.43;}
	.st31{fill:none;stroke:#FFF3AD;stroke-linecap:round;stroke-miterlimit:10;stroke-dasharray:4.88,4.88;}
	.st32{fill:none;stroke:#FFF3AD;stroke-linecap:round;stroke-miterlimit:10;stroke-dasharray:8.21,8.21;}
	.st33{fill:url(#SVGID_15_);}
	.st34{fill:url(#SVGID_16_);}
	.st35{fill:url(#SVGID_17_);}
	.st36{fill:#8120F4;}
	.st37{fill:url(#SVGID_18_);}
	.st38{fill:url(#SVGID_19_);}
	.st39{fill:#465A61;}
	.st40{fill:#3B4A51;}
	.st41{fill:#7C8768;}
	.st42{fill:url(#SVGID_20_);}
	.st43{fill:#4BB9EC;}
	.st44{fill:#76E2F8;}
	.st45{fill:#455960;}
	.st46{opacity:0.4;}
	.st47{fill:#223D89;}
	.st48{fill:#FBE910;}
	.st49{fill:#E4007C;stroke:#FFFFFF;stroke-width:3;stroke-miterlimit:10;}
	.st50{fill:url(#SVGID_21_);}
	.st51{fill:url(#SVGID_22_);}
	.st52{fill:#E70D83;}
	.st53{fill:#F70A75;}
	.st54{fill:#444850;}
	.st55{fill:url(#SVGID_23_);}
	.st56{fill:url(#SVGID_24_);}
	.st57{fill:url(#SVGID_25_);}
	.st58{fill:url(#SVGID_26_);}
	.st59{fill:url(#SVGID_27_);}
	.st60{fill:url(#SVGID_28_);}
	.st61{fill:url(#SVGID_29_);}
	.st62{fill:none;stroke:#223D89;stroke-width:2;stroke-linecap:round;stroke-miterlimit:10;}
	.st63{fill:url(#SVGID_30_);stroke:#223D89;stroke-miterlimit:10;}
	.st64{fill:url(#SVGID_31_);stroke:#223D89;stroke-width:0.72;stroke-miterlimit:10;}
	.st65{fill:url(#SVGID_32_);stroke:#223D89;stroke-miterlimit:10;}
	.st66{fill:url(#SVGID_33_);stroke:#223D89;stroke-miterlimit:10;}
	.st67{font-family:'Roboto-Regular';}
	.st68{font-size:20px;}
	.st69{font-size:14px;}
	.st70{opacity:0.7;}
	.st71{fill:#C1CADD;}
	.st72{fill:#D6D7E1;}
	.st73{fill:#E3F9F7;}
</style>
<title>IGI_LandingS5_IGNIS (LISTO)</title>
<g id="Fondo">
	
		<radialGradient id="SVGID_1_" cx="428.0051" cy="170.546" r="122.09" gradientTransform="matrix(-6.244217e-02 -0.998 -2.0759 0.1299 873.319 909.7368)" gradientUnits="userSpaceOnUse">
		<stop  offset="0" style="stop-color:#6D22B0"/>
		<stop  offset="0.17" style="stop-color:#6923AB"/>
		<stop  offset="0.39" style="stop-color:#5E269B"/>
		<stop  offset="0.63" style="stop-color:#4B2B81"/>
		<stop  offset="0.88" style="stop-color:#31315E"/>
		<stop  offset="1" style="stop-color:#23354B"/>
	</radialGradient>
	<path class="st0" d="M245.8,446.8l294-108.7l160.7,71.3l-138.7,98.7c-7.9,5.1-17.6,6.8-26.8,4.8c-14.6-3.3-21.5-14.9-22.5-16.8
		c-4.5,2.9-9.7,4.7-15.1,5.2c-4.2,0.4-8.4,0-12.4-1.2c-4.3-1.8-7.9-5-10-9.2c-2.4-5.1-2.6-10.9-0.5-16.1c-4.8-0.8-11.2,0-17.5-2.3
		c-5.5-2-9.4-6.3-13.2-8.4c-12.2,8.5-27.3,11.9-42,9.6c-7.1,6.1-15,11.1-23.6,14.8c-34.7,15.1-76.7,7.9-106-13.6
		C261.8,467.3,252.8,457.7,245.8,446.8z"/>
	
		<linearGradient id="SVGID_2_" gradientUnits="userSpaceOnUse" x1="626.524" y1="133.7828" x2="735.154" y2="370.4628" gradientTransform="matrix(1 0 0 -1 -52.21 485.66)">
		<stop  offset="0" style="stop-color:#23354B"/>
		<stop  offset="3.000000e-02" style="stop-color:#233655"/>
		<stop  offset="0.12" style="stop-color:#223A72"/>
		<stop  offset="0.2" style="stop-color:#223C83"/>
		<stop  offset="0.26" style="stop-color:#223D89"/>
		<stop  offset="0.53" style="stop-color:#3E56B1"/>
		<stop  offset="0.56" style="stop-color:#3D5FB7"/>
		<stop  offset="0.77" style="stop-color:#389DDD"/>
		<stop  offset="0.92" style="stop-color:#34C3F6"/>
		<stop  offset="1" style="stop-color:#33D2FF"/>
	</linearGradient>
	<path class="st1" d="M539.8,338.2l160.7,71.3l66-47.3c1.2-1.3,11-12,8.7-27.3c-2.1-13.7-12.3-20.8-14-22
		c4.2-3.8,15.9-15.6,18.7-34.4c4.4-29.9-17.8-50.6-20.3-52.9c-16.8-15.1-36.7-16-42.4-16.1c0.9-1.4,18.3-29.3,3.8-58.8
		c-12.7-25.8-39.5-31.3-42.5-31.9c22.1-24.2,22.2-60.9,1.6-83.8c-22.4-25-63.6-27-89.6-2.2c-4.5-10.2-12.2-18.7-21.8-24.4
		c-15.8-9.2-27.9-7.7-32.2-7C538.7,113.5,537.6,226.1,539.8,338.2"/>
	
		<linearGradient id="SVGID_3_" gradientUnits="userSpaceOnUse" x1="472.8757" y1="122.3982" x2="333.8557" y2="452.7082" gradientTransform="matrix(1 0 0 -1 -52.21 485.66)">
		<stop  offset="0" style="stop-color:#23354B"/>
		<stop  offset="2.000000e-02" style="stop-color:#234056"/>
		<stop  offset="7.000000e-02" style="stop-color:#225D72"/>
		<stop  offset="0.12" style="stop-color:#226E83"/>
		<stop  offset="0.15" style="stop-color:#227489"/>
		<stop  offset="0.25" style="stop-color:#3D959F"/>
		<stop  offset="0.38" style="stop-color:#5EBEBA"/>
		<stop  offset="0.45" style="stop-color:#6BCEC4"/>
		<stop  offset="0.66" style="stop-color:#78CFC8"/>
		<stop  offset="0.96" style="stop-color:#C9E9E7"/>
	</linearGradient>
	<path class="st2" d="M245.8,446.8l293.9-108.4L538.8,0.8c-8,1.3-15.1,4.8-18.3,6.5c-6,2.9-11.5,6.5-16.7,10.7
		c-13-12.5-37-19.1-48.4-17.8c-8.6,1-27.3,4-47.6,23.8c-3-4.1-14.2-17.9-34.1-22.3c-28.2-6.1-49.5,12.2-51.9,14.3
		c-10.4-13.8-29.7-17-44-7.3L109.2,145.3c-0.6,0.6-12.5,12.8-8.3,29.6c2.8,11,11.3,19.5,22.3,22.4c-3.4,5.3-20.5,33.5-12.3,69.6
		c9.4,41.3,44.2,59.4,48.9,61.7c-0.1,4.2-0.6,46.3,32.3,69.5c11.5,8,25.1,12.5,39.1,13.2c-1.4,7.6-0.5,15.3,2.5,22.4
		c3.2,7.4,9.7,11.5,12.4,13.8"/>
</g>
<g id="dashboard">
	
		<linearGradient id="SVGID_4_" gradientUnits="userSpaceOnUse" x1="538.3436" y1="185.0057" x2="324.0136" y2="329.7857" gradientTransform="matrix(1 0 0 -1 -52.21 485.66)">
		<stop  offset="0" style="stop-color:#78CFC8"/>
		<stop  offset="0.19" style="stop-color:#93D7D1"/>
		<stop  offset="0.54" style="stop-color:#C1E4E1"/>
		<stop  offset="0.71" style="stop-color:#D3E9E7"/>
	</linearGradient>
	<path class="st3" d="M491.8,273.5l-231.3,84.7c-5.9,2.1-19.6-3.2-19.6-9.7l-0.1-162.7c0-4,3.1-9.7,6.7-11l241.6-84.6
		c5.9-2.1,12.1,2.5,12.1,9l0.6,160.4C501.8,263.6,495.5,272.2,491.8,273.5z"/>
	
		<linearGradient id="SVGID_5_" gradientUnits="userSpaceOnUse" x1="414.1404" y1="290.1038" x2="394.3704" y2="345.1537" gradientTransform="matrix(1 0 0 -1 -52.21 485.66)">
		<stop  offset="0" style="stop-color:#23354B"/>
		<stop  offset="0.23" style="stop-color:#25384D"/>
		<stop  offset="0.37" style="stop-color:#2D4054"/>
		<stop  offset="0.49" style="stop-color:#3A4F5F"/>
		<stop  offset="0.59" style="stop-color:#4D636F"/>
		<stop  offset="0.69" style="stop-color:#657E84"/>
		<stop  offset="0.78" style="stop-color:#839F9D"/>
		<stop  offset="0.86" style="stop-color:#A7C6BB"/>
		<stop  offset="0.94" style="stop-color:#CFF2DE"/>
		<stop  offset="0.96" style="stop-color:#DBFFE8"/>
	</linearGradient>
	<path class="st4" d="M482.5,264.8l-217.3,80c-7.3,0-9.3-3.3-9.1-12.4L256,189c0-3.6,2.7-8.5,6-9.7l215.9-74.6
		c4.3-1.4,8.9,0.8,10.4,5.1c0.3,0.9,0.4,1.8,0.4,2.8l0.5,139.5C489.1,255.8,485.8,263.7,482.5,264.8z"/>
	
		<linearGradient id="SVGID_6_" gradientUnits="userSpaceOnUse" x1="388.1813" y1="198.4202" x2="362.0013" y2="336.3802" gradientTransform="matrix(1 0 0 -1 0 513.89)">
		<stop  offset="0" style="stop-color:#3E56B1"/>
		<stop  offset="0.17" style="stop-color:#3D65BB"/>
		<stop  offset="0.51" style="stop-color:#398DD4"/>
		<stop  offset="0.97" style="stop-color:#33CEFC"/>
		<stop  offset="1" style="stop-color:#33D2FF"/>
	</linearGradient>
	<polygon class="st5" points="478.5,255.5 263.6,335.3 263.5,190 478.7,115.9 	"/>
	<line class="st6" x1="344.5" y1="198.2" x2="393.8" y2="181.5"/>
	<line class="st7" x1="280.5" y1="305.2" x2="329.8" y2="288.5"/>
	<line class="st7" x1="281.5" y1="285.5" x2="345.1" y2="263.5"/>
	<g id="Capa_18">
		
			<linearGradient id="SVGID_7_" gradientUnits="userSpaceOnUse" x1="415.467" y1="269.5427" x2="449.337" y2="263.6427" gradientTransform="matrix(1 0 0 -1 -52.21 485.66)">
			<stop  offset="0" style="stop-color:#7E8A92"/>
			<stop  offset="0.36" style="stop-color:#808C94"/>
			<stop  offset="0.53" style="stop-color:#88939A"/>
			<stop  offset="0.66" style="stop-color:#959EA5"/>
			<stop  offset="0.77" style="stop-color:#A7AFB4"/>
			<stop  offset="0.86" style="stop-color:#BFC4C7"/>
			<stop  offset="0.95" style="stop-color:#DCDEDF"/>
			<stop  offset="1" style="stop-color:#F1F1F1"/>
		</linearGradient>
		<path class="st8" d="M357.5,210c0.2,0.6,0.5,1.1,1,1.5c0.7,0.5,1.7,0.6,1.5,1.3c-0.5,3-0.8,6.1-0.9,9.1c-0.1,2.4,0,4.9,0.3,7.3
			c0.9,3.2,2.8,6.1,5.4,8.2c2.5,2,5.6,3.2,8.8,3.4c3.2-0.3,6.3-1.7,8.7-3.8c2-1.8,3.5-4,4.5-6.5c1.5-3.7,2.3-7.7,2.6-11.7
			c0.2-3,0.1-5.9-0.4-8.9l-0.4-2.9c-0.3-1,1.8-1.4,2.4-2.4c0.6-0.9,0.8-2,0.6-3.1c-0.1-0.7-0.4-1.3-0.8-1.9c-1.7-2.5-5-2.5-5.4-2.5
			c-0.2,0-4.5,0.3-6.1,3.6c-0.4,0.9-0.6,1.8-0.5,2.8c0.2,0.9,0.3,1.7,0.4,2.6c0,0.3,0.1,0.6,0.1,0.9c0.2,5.4,0.3,13.3-0.5,16
			c-0.3,1.3-1,2.6-2.1,3.4c-0.7,0.4-1.5,0.6-2.3,0.6c-0.9-0.2-1.7-0.7-2.3-1.4c-0.7-0.8-1.1-1.9-1.2-3c-0.2-3.7-0.2-7.3,0-11l0,0
			l0.4-3c0.7-3.1,0.2-3.8-0.1-4.2c-0.7-0.7-1.5-1.3-2.4-1.7c-3.1-1.4-7-0.4-10.3,2.4c-0.7,0.7-1.2,1.6-1.3,2.6
			C357.3,208.5,357.3,209.3,357.5,210z"/>
		<ellipse transform="matrix(0.1393 -0.9902 0.9902 0.1393 91.2465 573.1373)" class="st9" cx="375.3" cy="234.1" rx="4.7" ry="3"/>
		
			<ellipse transform="matrix(7.393440e-02 -0.9973 0.9973 7.393440e-02 110.2741 581.6206)" class="st9" cx="368.3" cy="231.4" rx="3.7" ry="2.3"/>
		
			<ellipse transform="matrix(6.982913e-02 -0.9976 0.9976 6.982913e-02 129.8317 590.979)" class="st9" cx="381.8" cy="225.9" rx="3.7" ry="2.3"/>
		
			<ellipse transform="matrix(6.679637e-02 -0.9978 0.9978 6.679637e-02 118.774 572.6959)" class="st9" cx="365.5" cy="222.9" rx="2.9" ry="2.1"/>
		
			<ellipse transform="matrix(6.679637e-02 -0.9978 0.9978 6.679637e-02 141.7911 587.3906)" class="st9" cx="384.9" cy="217.9" rx="2.9" ry="2.1"/>
		
			<ellipse transform="matrix(0.1104 -0.9939 0.9939 0.1104 112.7832 555.2425)" class="st9" cx="366.6" cy="214.6" rx="2" ry="1.5"/>
		
			<ellipse transform="matrix(0.1104 -0.9939 0.9939 0.1104 132.9634 568.9275)" class="st9" cx="384.3" cy="210.2" rx="2" ry="1.5"/>
	</g>
	<g id="Capa_19">
		<path class="st10" d="M433.4,193.7l0.1,20.6c-1.7,0.4-3.1,1.5-4,2.9c-1.2,2.2-1,5,0.5,7l8.3,4.3c0.7,0.4,1.5,0.4,2.3,0.1l4.2-1.6
			c-0.8-0.8-1.3-1.7-1.6-2.8c-1.1-3.5,1-6.6,1.3-7l0.3-23.1l7.5-3.2v-5.8L433.4,193.7z"/>
		<path class="st11" d="M452.2,191v22.8c1.2-0.2,2.4,0.1,3.4,0.9c1.6,1.7,0.4,5-0.5,6.6c-0.7,1.2-1.8,2.2-3,2.9l-7.4,3
			c-1.2-1.1-2-2.7-2.1-4.4c0-2,0.6-3.9,1.8-5.4l0.3-23.1L452.2,191z"/>
		<polygon class="st12" points="429.7,196.9 410.1,188.3 409.9,165 415,156.6 449.2,143 463.8,147.7 429.7,162.4 		"/>
		<polygon class="st13" points="429.7,162.4 463.8,147.7 469.5,150.5 469.7,173.7 463,182 452.2,186.9 452.4,185.7 433.4,193.7 
			433.4,194.9 429.7,196.9 		"/>
		<path class="st10" d="M440.5,157.7l-8.3-4.4c0-1.2,0.4-2.3,1.1-3.2c1-1.4,2.5-2.4,4.2-2.6c2.4,1.2,5.3,2.4,7.6,3.6l0.2,4.6
			L440.5,157.7z"/>
		<path class="st11" d="M445.2,155.6l6.6-2.7c0.1-0.8,0-1.7-0.3-2.4c-0.3-0.7-0.8-1.3-1.5-1.6l-7.4-3.6l-5.2,2.1l7.6,3.6
			L445.2,155.6z"/>
	</g>
	<g id="Capa_20">
		
			<linearGradient id="SVGID_8_" gradientUnits="userSpaceOnUse" x1="356.4069" y1="292.7658" x2="386.4969" y2="270.8658" gradientTransform="matrix(1 0 0 -1 -52.21 485.66)">
			<stop  offset="0" style="stop-color:#7C8991"/>
			<stop  offset="0.14" style="stop-color:#838F97"/>
			<stop  offset="0.34" style="stop-color:#96A0A7"/>
			<stop  offset="0.57" style="stop-color:#B5BCC1"/>
			<stop  offset="0.83" style="stop-color:#DFE3E5"/>
			<stop  offset="1" style="stop-color:#FFFFFF"/>
		</linearGradient>
		<path class="st14" d="M298.3,191.6l4.9,4.1l-0.3,17.6l6.4-3.2l-0.2,8.4l5.4-2.6v-7.6c1.7-0.7,2.8-2.3,2.9-4.2v-4.4
			c0.4-0.5,5-5.9,11.7-5.1c2.4,0.3,4.6,1.3,6.4,2.9c-0.1-0.5-1.8-7-8.4-9.4c-4.1-1.4-8.5-0.8-12.1,1.6l-4.3-3.1L298.3,191.6z"/>
		<polygon class="st15" points="302.1,211.6 302.1,217.1 307.4,220 309,218.9 309.1,218.5 309.3,210.2 302.9,213.4 		"/>
		<path class="st16" d="M301.3,215.6l-0.2,40.2c0.7,2.4,2.3,4.3,4.5,5.3c1.5,0.6,3.1,0.7,4.7,0.3c-1.1-0.6-1.9-1.4-2.5-2.4
			c-0.4-0.8-0.2-1-0.3-1.5c0-12.8,0-25.9,0-38.8L301.3,215.6z"/>
		<path class="st17" d="M307.5,218.8l7.6-3.4l-0.1,41.3c-0.6,2.4-2.4,4.2-4.8,4.8c-0.7-0.2-1.4-0.6-1.9-1.1c-0.7-0.8-1-1.8-0.9-2.8
			V218.8z"/>
		
			<linearGradient id="SVGID_9_" gradientUnits="userSpaceOnUse" x1="284.1235" y1="313.1032" x2="302.1235" y2="293.2632" gradientTransform="matrix(1 0 0 -1 0 513.89)">
			<stop  offset="0" style="stop-color:#7C8991"/>
			<stop  offset="0.21" style="stop-color:#939EA4"/>
			<stop  offset="0.66" style="stop-color:#CED3D6"/>
			<stop  offset="1" style="stop-color:#FFFFFF"/>
		</linearGradient>
		<polygon class="st18" points="280,198.1 280,208.2 287.9,214.5 294.6,211.3 294.6,200.3 287.5,194.6 		"/>
		<path class="st19" d="M335.5,197.6c-2.4,0.1-6.1,0-9.5,1c-4.1,1.3-6.5,3.5-8.7,5v-3.7c0.3-0.5,3.8-5.4,9.9-5.5
			C330.3,194.4,333.3,195.5,335.5,197.6z"/>
		<path class="st19" d="M298.3,191.6l4.9,4.1l-0.3,17.6c-0.2-1.1-0.9-2-1.8-2.5c-1.9-0.7-4,1.9-4.4,2.3c-0.8,0.9-1.3,2-1.6,3.2
			l-7,3.1l-8.2-6.3v-5.1l7.9,6.4l6.7-3.2v-11l-7-5.7c1.2,0.8,2.4,1.5,3.8,1.8c1.7,0.5,3.9,1.1,5.5-0.2
			C298.6,194.8,298.4,192,298.3,191.6z"/>
	</g>
</g>
<g id="human">
	
		<linearGradient id="SVGID_10_" gradientUnits="userSpaceOnUse" x1="561.706" y1="109.1984" x2="640.6777" y2="109.1984" gradientTransform="matrix(1 0 0 -1 -52.21 485.66)">
		<stop  offset="0" style="stop-color:#FFFFFF"/>
		<stop  offset="1" style="stop-color:#F1F1F1"/>
	</linearGradient>
	<path class="st20" d="M552.6,456.9c0.5,0.5,1,3.1,5.7,2.9c4.7-0.2,10.7-4.6,11.1-5.1c3.3-19.5,6.4-32,8.6-42.3
		c7.3-33.9,10.6-48.7,10.4-68.5c-0.2-13.1-2.2-26.1-6-38.7c-12,3.8-24.8,4.1-37,0.9c-9-2.5-17.3-6.9-24.4-12.9c-3.3,6.9-6,14-8,21.3
		c-3.5,12.7-6.2,30.5,0.7,79.3c1.9,13.3,4.3,30.2,8.9,51c0.2,0.1,4.2,3.4,8,1.7c2.6-1.2,4.9-3.1,5.1-3.7c-0.2-13.8-1-29.9,1.1-47.1
		c1.6-12.8,3.9-25.4,6.9-37.9c2.2,10.4,4.2,21.7,5.7,33.6C552.2,413.1,553.3,435,552.6,456.9z"/>
	
		<linearGradient id="SVGID_11_" gradientUnits="userSpaceOnUse" x1="608.7398" y1="10.0511" x2="595.9398" y2="24.7811" gradientTransform="matrix(1 0 0 -1 -52.21 485.66)">
		<stop  offset="0" style="stop-color:#EC9F35"/>
		<stop  offset="0.19" style="stop-color:#EDA434"/>
		<stop  offset="0.41" style="stop-color:#F0B233"/>
		<stop  offset="0.65" style="stop-color:#F5CA30"/>
		<stop  offset="0.9" style="stop-color:#FCEB2C"/>
		<stop  offset="1" style="stop-color:#FFFA2A"/>
	</linearGradient>
	<path class="st21" d="M569.5,454.6l-0.3,13.2c0.1,1.2-0.2,2.4-0.9,3.4c-0.6,0.8-1.4,1.4-2.3,1.7c-4.8,1.4-6.3,2.8-9.7,5.1
		c-4.5,3.1-9.3,5.7-14.3,7.7c-3.7,1.5-7.4,1.3-8.9-1.1c-1.1-1.8,0.1-6.7,1.5-8.7c4-4.8,3.1-3,8.2-6.7c1.5-1.1,7.8-5.8,8.3-8.3
		c0.4-2,1.4-3.4,1.4-4c1.5,0.9,3.1,1.5,4.9,1.7C563.8,459.5,568.6,455.4,569.5,454.6z"/>
	
		<linearGradient id="SVGID_12_" gradientUnits="userSpaceOnUse" x1="579.2304" y1="22.3377" x2="566.3504" y2="37.1578" gradientTransform="matrix(1 0 0 -1 -52.21 485.66)">
		<stop  offset="0" style="stop-color:#EC9F35"/>
		<stop  offset="0.19" style="stop-color:#EDA434"/>
		<stop  offset="0.41" style="stop-color:#F0B233"/>
		<stop  offset="0.65" style="stop-color:#F5CA30"/>
		<stop  offset="0.9" style="stop-color:#FCEB2C"/>
		<stop  offset="1" style="stop-color:#FFFA2A"/>
	</linearGradient>
	<path class="st22" d="M522.6,444.9c-0.1,2.5-0.8,4.9-2.1,7c-4.3,4.7-8.6,9.3-12.9,14c-1.1,1.7-1.1,3.9,0,5.6
		c1.6,2.2,4.5,2.9,6.9,1.6l23.1-13.3c1-0.4,1.7-1.2,2-2.2c-0.2-3.5,0-3.1-1.5-6.5c-0.8-2.8-1.6-5.5-2.4-8.3c-0.8,0.7-4.9,4.2-10,3.2
		C524.7,445.9,523.6,445.5,522.6,444.9z"/>
	
		<linearGradient id="SVGID_13_" gradientUnits="userSpaceOnUse" x1="658.55" y1="-0.24" x2="658.55" y2="-0.24" gradientTransform="matrix(1 0 0 -1 -52.21 485.66)">
		<stop  offset="0" style="stop-color:#EC9F35"/>
		<stop  offset="0.19" style="stop-color:#EDA434"/>
		<stop  offset="0.41" style="stop-color:#F0B233"/>
		<stop  offset="0.65" style="stop-color:#F5CA30"/>
		<stop  offset="0.9" style="stop-color:#FCEB2C"/>
		<stop  offset="1" style="stop-color:#FFFA2A"/>
	</linearGradient>
	<path class="st23" d="M606.3,485.9"/>
	<path class="st24" d="M581.6,153.2l9.7,1.1c0.3,1.3,1.7,5.8,0.3,10.5c-1.7,5.7-4.8,7.4-5.7,7.8c-0.4,1.3-0.6,2.6-0.6,4
		c0.1,1.5,0.4,3,1,4.4c0.9,0.4,2,0.5,3,0.2c1.2-0.3,2.3-1,3.1-2c-1.3,0.3-2.7-0.3-3.4-1.4c-0.6-1.3,1.3-3.5,2.8-4.5
		c4.5-3.6,7.5-8.9,8.3-14.6c0.6-4.5-0.1-9-2-13.1c-3.7-0.8-7.6-0.2-10.9,1.7C584.9,148.6,583,150.7,581.6,153.2z"/>
	<path class="st25" d="M588.4,190.9c-3.5,4.7-9.4,6.9-15.1,5.7c0.1-11.8,0.2-23.6,0.3-35.4l9.2-8l9.7,1.1c0.4,1.8,1.9,8.6-2,14.6
		c-0.9,1.4-2.1,2.7-3.4,3.7c-0.7,3.8-0.8,7.6-0.3,11.4C587,186.4,587.6,188.7,588.4,190.9z"/>
	
		<linearGradient id="SVGID_14_" gradientUnits="userSpaceOnUse" x1="640.3057" y1="206.0577" x2="567.1557" y2="290.9977" gradientTransform="matrix(1 0 0 -1 -52.21 485.66)">
		<stop  offset="1.000000e-02" style="stop-color:#0FA69A"/>
		<stop  offset="0.17" style="stop-color:#12A9A2"/>
		<stop  offset="0.43" style="stop-color:#1AB3B8"/>
		<stop  offset="0.74" style="stop-color:#26C3DC"/>
		<stop  offset="1" style="stop-color:#33D2FF"/>
	</linearGradient>
	<path class="st26" d="M521.5,266l-0.4,27.1c4.5,3.7,13.5,11.7,28.1,14.6c14.8,2.9,27.6-0.8,33.2-2.6c8.8-12.5,15.8-26.2,21-40.6
		c7.4-6.1,12.2-14.8,13.4-24.3c1-8.1-0.7-16.3-4.8-23.4c-6.9-9.5-14.9-18.2-23.7-26c-3.3,2.4-7.1,4-11.1,4.9
		c-10.8,2.2-19.5-2.5-22-4l-4.9,6.3c-2,6.5-0.6,16.7,4.5,19c5.5,2.5,8.4,3.7,8.7,3.4c0.7,1.1,12.6,5,7,18.7
		c-4.5,11.1-14.4,15.3-16.3,16c-0.3,8.9-6.5,16.3-14.6,18C532.8,274.5,525.7,271.7,521.5,266z"/>
	<path class="st27" d="M550.4,198l-5.4-4l-14,8v42.6l8.9,7.2l-3.1,10.9l3.1,10.5c1.8-0.6,7.1-0.6,10.9-5.4
		c3.4-4.4,3.5-10.7,3.7-12.6c1.9-0.8,12-4.7,16.6-15.1c5-11.3-0.8-21.7-1.5-23.4c-1.3,0-9.4,1.9-15.1-4.9
		C550.4,207,550.5,199.9,550.4,198z"/>
	<path class="st28" d="M513.8,272c-5.2,6.5-12.2,9.3-16.9,7.1c-1.6-0.7-2.8-1.9-3.7-3.4c-1.3-2.8-2.1-5.8-2.6-8.9
		c-0.3-2.3-0.4-4.6-0.3-6.9l19.4,5.7L513.8,272z"/>
	<g id="Capa_21">
		<line class="st29" x1="600" y1="267.4" x2="596.9" y2="270"/>
		<line class="st30" x1="590.5" y1="275.5" x2="568.2" y2="294.7"/>
		<line class="st29" x1="565" y1="297.5" x2="562" y2="300.1"/>
		<path class="st29" d="M557.6,302.3c-1.2,0.4-1.8,1-3.9,0.5"/>
		<path class="st31" d="M549.3,300.8c-2-1.4-3.7-3.2-5-5.2"/>
		<path class="st29" d="M543,293.5c-0.7-1.2-1.2-2.4-1.7-3.6"/>
		<path class="st29" d="M582.3,249.3c-1.1,0.6-2.2,1.4-3.4,2.1"/>
		<path class="st32" d="M572.3,256.3c-0.8,0.7-1.7,1.4-2.5,2.1c-2.4,2.1-4.6,4.2-6.5,6.2"/>
		<path class="st29" d="M560.5,267.8c-0.9,1.1-1.8,2.1-2.5,3.1"/>
		
			<linearGradient id="SVGID_15_" gradientUnits="userSpaceOnUse" x1="567.3316" y1="271.9942" x2="554.5816" y2="307.4942" gradientTransform="matrix(1 0 0 -1 -52.21 485.66)">
			<stop  offset="1.000000e-02" style="stop-color:#3B3B3B"/>
			<stop  offset="0.1" style="stop-color:#494949"/>
			<stop  offset="0.34" style="stop-color:#6A6A6A"/>
			<stop  offset="0.47" style="stop-color:#777777"/>
			<stop  offset="0.58" style="stop-color:#8C8C8C"/>
			<stop  offset="0.79" style="stop-color:#C3C3C3"/>
			<stop  offset="1" style="stop-color:#FFFFFF"/>
		</linearGradient>
		<path class="st33" d="M481.4,194.8l6.5-4.7c0.5-0.4,1-0.7,1.6-0.9c0.8-0.2,1.6-0.2,2.4-0.1l42,11.3c3,1.2,5.2,3.9,5.6,7.1
			c1.8,21.1,3.5,42.2,5.3,63.3c0.2,1.3-0.1,2.6-0.9,3.6c-2,2.1-4.7,3.4-7,5.2l-6.9-69.2L481.4,194.8z"/>
		
			<linearGradient id="SVGID_16_" gradientUnits="userSpaceOnUse" x1="539.3759" y1="272.5461" x2="578.9858" y2="230.4861" gradientTransform="matrix(1 0 0 -1 -52.21 485.66)">
			<stop  offset="0" style="stop-color:#FBE9A8"/>
			<stop  offset="7.000000e-02" style="stop-color:#FBE4A8"/>
			<stop  offset="0.33" style="stop-color:#FBD4A8"/>
			<stop  offset="0.57" style="stop-color:#FBC9A8"/>
			<stop  offset="0.85" style="stop-color:#AA998E"/>
			<stop  offset="1" style="stop-color:#828282"/>
		</linearGradient>
		<path class="st34" d="M533.6,279.6l-41.5-11.1c-4.1-1.3-5-3.3-5.5-6.5l-6-62.6c-0.4-5.5,1.9-5.9,5.5-5.1l39.3,10.9
			c6.7,1.4,7.1,3.9,7.6,8.5l5.3,61.5C539,280.5,536,280.2,533.6,279.6z"/>
		
			<linearGradient id="SVGID_17_" gradientUnits="userSpaceOnUse" x1="555.0698" y1="280.3063" x2="537.5197" y2="281.5163" gradientTransform="matrix(1 0 0 -1 -52.21 485.66)">
			<stop  offset="5.000000e-02" style="stop-color:#777777"/>
			<stop  offset="0.2" style="stop-color:#7B7B7B"/>
			<stop  offset="0.36" style="stop-color:#898989"/>
			<stop  offset="0.54" style="stop-color:#9F9F9F"/>
			<stop  offset="0.72" style="stop-color:#BEBEBE"/>
			<stop  offset="0.9" style="stop-color:#E5E5E5"/>
			<stop  offset="1" style="stop-color:#FFFFFF"/>
		</linearGradient>
		<path class="st35" d="M500.1,209.9l-13-3.7c-1-0.3-1.4-0.5-1.5-2l-0.4-3.6c0-1.1,0.4-1.5,1.8-1.1l12.9,3.6c1.9,0.4,2.2,1,2.2,2.1
			l0.3,3.3C502.5,210.2,501.8,210.2,500.1,209.9z"/>
		<ellipse transform="matrix(0.946 -0.3242 0.3242 0.946 -39.6099 169.3874)" cx="488.5" cy="203.6" rx="1.4" ry="1.9"/>
		
			<ellipse transform="matrix(0.946 -0.3242 0.3242 0.946 -39.5946 169.3788)" class="st36" cx="488.5" cy="203.5" rx="0.8" ry="1.1"/>
	</g>
	<g id="Capa_22">
		
			<linearGradient id="SVGID_18_" gradientUnits="userSpaceOnUse" x1="605.7487" y1="214.3929" x2="578.4487" y2="229.9029" gradientTransform="matrix(1 0 0 -1 -52.21 485.66)">
			<stop  offset="0" style="stop-color:#FF820D"/>
			<stop  offset="1" style="stop-color:#FFC10D"/>
		</linearGradient>
		<path class="st37" d="M524,228.5c-0.8-0.7-2.1-0.6-2.8,0.2c-0.3,0.3-0.4,0.6-0.5,1c-2.4,12.6,1.1,25.6,9.4,35.3
			c0.2,0.2,0.3,0.4,0.4,0.7c2.4,7.7,4.8,15.3,7.3,23c0.3,1.1,1.4,1.7,2.5,1.4c0.1,0,0.1,0,0.2-0.1c3.4-1.3,8.9-3.8,12.7-7.7
			c2.8-2.9,4.6-6.6,5.2-10.6c0.1-0.5,0-1.1-0.3-1.5c-3.5-5-7.3-9-10.8-13.9c-0.4-0.5-0.5-1.2-0.2-1.9c1.4-3.7,1.3-7.8-0.4-11.4
			c-1.1-2.1-2.6-4-4.5-5.5c0.2,0.8,0.1,1.6-0.4,2.2C540.5,241,535,237.3,524,228.5z"/>
		
			<linearGradient id="SVGID_19_" gradientUnits="userSpaceOnUse" x1="540.1613" y1="252.6045" x2="529.1812" y2="255.5745" gradientTransform="matrix(1 0 0 -1 -52.21 485.66)">
			<stop  offset="0" style="stop-color:#FF820D"/>
			<stop  offset="0.24" style="stop-color:#FF860D"/>
			<stop  offset="0.5" style="stop-color:#FF940D"/>
			<stop  offset="0.78" style="stop-color:#FFA90D"/>
			<stop  offset="1" style="stop-color:#FFC10D"/>
		</linearGradient>
		<path class="st38" d="M486.5,214.3c-0.4-0.6-1.2-0.8-1.8-0.5c-0.1,0-0.1,0.1-0.2,0.1c-3.3,2.7-5.9,6.2-7.3,10.3
			c-0.7,2.2-1.1,4.5-1.2,6.8c-0.1,6.4,2,12.6,6,17.5c0.4,0.6,0.9,1.1,1.5,1.4l2.1,1.2c0,0,0.1,0,0.1-0.1c-0.4-1-0.1-2.6-0.2-3.9
			c0-0.3,0.1-0.6,0.2-0.8c3.1-4.6,4.9-10,5-15.6C490.9,225,489.4,219.3,486.5,214.3z"/>
	</g>
	<g id="Capa_23">
		<path class="st39" d="M602.3,146.6l-15.1,12.7l-2.5-0.7l-0.7,32.9c-1.2,11.9-7,19.9-14.9,21.3c-3,0.5-6,0-8.7-1.3v-86.4l16.4-11.3
			l23,7.6c1.7,0.5,2.8,2.1,2.8,3.9L602.3,146.6z"/>
		<path class="st40" d="M602.3,146.6l-15.1,12.7l-2.5-0.7l-0.2,4.9c0.3,0.5,0.8,0.9,1.5,0.9c0.7,0,1.5-0.3,2.1-0.7
			c5.3-4.2,9.9-8.5,15.2-12.8c1.6-1.2,2.3-2.2,1.8-3.3C604.5,146.8,603.4,146.3,602.3,146.6z"/>
		<ellipse class="st41" cx="537.3" cy="149.2" rx="2.6" ry="2.4"/>
		
			<linearGradient id="SVGID_20_" gradientUnits="userSpaceOnUse" x1="607.7822" y1="337.5186" x2="585.4023" y2="369.5685" gradientTransform="matrix(1 0 0 -1 -52.21 485.66)">
			<stop  offset="0" style="stop-color:#596C76"/>
			<stop  offset="0.2" style="stop-color:#5C6E77"/>
			<stop  offset="0.36" style="stop-color:#66767C"/>
			<stop  offset="0.5" style="stop-color:#778383"/>
			<stop  offset="0.64" style="stop-color:#8E958E"/>
			<stop  offset="0.76" style="stop-color:#ACAC9B"/>
			<stop  offset="0.88" style="stop-color:#D1C8AC"/>
			<stop  offset="1" style="stop-color:#FBE9BF"/>
		</linearGradient>
		<path class="st42" d="M560.3,125.2v86.4c-2.8-1.3-5.5-3-7.8-5.1c-11.6-10-13.8-25.7-14-30.4c-0.3-16.2-0.6-32.7-0.9-48.9
			l23.2-16.3c1.3-0.9,3.1-1.2,4.6-0.7l11.3,3.7C571.3,117.7,565.8,121.4,560.3,125.2"/>
		<path class="st43" d="M560.4,143.3v26.8l14,4.3c1.3,0.4,2.7-0.3,3.1-1.6c0.1-0.2,0.1-0.5,0.1-0.7l0-22c0-1.8-1.3-3.4-3.1-3.8
			L560.4,143.3z"/>
		<path class="st44" d="M560.4,170.1l0.1-26.8l-12.1-2.7c-2.3-0.6-3.7,0.5-3.9,3l0.3,19.2c-0.1,1.5,0.9,2.9,2.4,3.2L560.4,170.1z"/>
		<path class="st40" d="M570.6,177.4L570.6,177.4c0.8,0,1.5,0.7,1.5,1.5v11c0,0.8-0.7,1.5-1.5,1.5h0c-0.8,0-1.5-0.7-1.5-1.5v-11
			C569,178.1,569.7,177.4,570.6,177.4z"/>
		<path class="st40" d="M560.4,175L560.4,175c0.8,0,1.5,0.7,1.5,1.5v11c0,0.8-0.7,1.5-1.5,1.5l0,0c-0.8,0-1.5-0.7-1.5-1.5v-11
			C558.9,175.7,559.5,175,560.4,175z"/>
		<path class="st45" d="M549.3,169.8L549.3,169.8c0.8,0,1.4,0.6,1.4,1.4v11.1c0,0.8-0.6,1.4-1.4,1.4l0,0c-0.8,0-1.4-0.6-1.4-1.4
			v-11.1C547.9,170.4,548.5,169.8,549.3,169.8z"/>
	</g>
</g>
<g id="sombras" class="st46">
	<path class="st47" d="M667.8,69h1.5c3.4,0,6.1,2.7,6.1,6.1c0,0,0,0,0,0v26.1c0,3.2-2.6,5.8-5.8,5.8c0,0,0,0-0.1,0h-16.8L642,118.3
		l-10.7-16.5L667.8,69z"/>
	<ellipse class="st47" cx="502.1" cy="58.5" rx="29" ry="28.3"/>
	
		<ellipse transform="matrix(0.9989 -4.780380e-02 4.780380e-02 0.9989 -2.9301 13.1812)" class="st47" cx="274.1" cy="67.9" rx="43.3" ry="17.3"/>
	
		<ellipse transform="matrix(0.9976 -6.906003e-02 6.906003e-02 0.9976 -9.3822 15.6129)" class="st47" cx="221.1" cy="143.5" rx="43.3" ry="17.3"/>
	<ellipse class="st48" cx="391.8" cy="85.5" rx="54.7" ry="54"/>
	<ellipse class="st49" cx="392.5" cy="85.2" rx="45.3" ry="44.3"/>
</g>
<g id="UP">
	
		<linearGradient id="SVGID_21_" gradientUnits="userSpaceOnUse" x1="652.9605" y1="415.2624" x2="724.3505" y2="400.8024" gradientTransform="matrix(1 0 0 -1 -52.21 485.66)">
		<stop  offset="0" style="stop-color:#B82BEF"/>
		<stop  offset="9.000000e-02" style="stop-color:#9427D1"/>
		<stop  offset="0.18" style="stop-color:#6D22B0"/>
		<stop  offset="0.23" style="stop-color:#6926B0"/>
		<stop  offset="0.29" style="stop-color:#5E32B0"/>
		<stop  offset="0.34" style="stop-color:#4C46B1"/>
		<stop  offset="0.37" style="stop-color:#3E56B1"/>
		<stop  offset="0.61" style="stop-color:#3896D9"/>
		<stop  offset="0.63" style="stop-color:#3C9BD7"/>
		<stop  offset="0.78" style="stop-color:#56B7CD"/>
		<stop  offset="0.91" style="stop-color:#65C8C6"/>
		<stop  offset="1" style="stop-color:#6BCEC4"/>
	</linearGradient>
	<path class="st50" d="M663.8,98.9h-58.3c-2.6,0-4.8-2.1-4.8-4.8V60.4c0-2.6,2.1-4.8,4.8-4.8h58.3c2.6,0,4.8,2.1,4.8,4.8v33.7
		C668.6,96.8,666.4,98.9,663.8,98.9z"/>
	
		<linearGradient id="SVGID_22_" gradientUnits="userSpaceOnUse" x1="595.3792" y1="416.9758" x2="666.7692" y2="402.5158" gradientTransform="matrix(1 0 0 -1 0 513.89)">
		<stop  offset="0" style="stop-color:#B82BEF"/>
		<stop  offset="9.000000e-02" style="stop-color:#9427D1"/>
		<stop  offset="0.18" style="stop-color:#6D22B0"/>
		<stop  offset="0.23" style="stop-color:#6926B0"/>
		<stop  offset="0.29" style="stop-color:#5E32B0"/>
		<stop  offset="0.34" style="stop-color:#4C46B1"/>
		<stop  offset="0.37" style="stop-color:#3E56B1"/>
		<stop  offset="0.61" style="stop-color:#3896D9"/>
		<stop  offset="0.63" style="stop-color:#3C9BD7"/>
		<stop  offset="0.78" style="stop-color:#56B7CD"/>
		<stop  offset="0.91" style="stop-color:#65C8C6"/>
		<stop  offset="1" style="stop-color:#6BCEC4"/>
	</linearGradient>
	<polygon class="st51" points="634.5,114 648.5,98.5 621.1,98.9 	"/>
	<path class="st52" d="M607.9,43l7.4,5.6c0.7,0.5,0.9,1.6,0.3,2.3l0,0c-0.5,0.7-1.6,0.9-2.3,0.3l-7.4-5.6c-0.7-0.5-0.9-1.6-0.3-2.3
		l0,0C606.2,42.6,607.2,42.4,607.9,43z"/>
	<path class="st52" d="M657,77.9l7.4,5.6c0.7,0.5,0.9,1.6,0.3,2.3l0,0c-0.5,0.7-1.6,0.9-2.3,0.3l-7.4-5.6c-0.7-0.5-0.9-1.6-0.3-2.3
		l0,0C655.3,77.5,656.3,77.3,657,77.9z"/>
	<path class="st52" d="M663.8,45.3l-7.3,5.7c-0.7,0.6-1.7,0.4-2.3-0.3v0c-0.6-0.7-0.4-1.7,0.3-2.3l7.3-5.7c0.7-0.6,1.7-0.4,2.3,0.3
		l0,0C664.7,43.7,664.6,44.7,663.8,45.3z"/>
	<path class="st52" d="M614.7,80.4l-7.3,5.7c-0.7,0.6-1.7,0.4-2.3-0.3l0,0c-0.6-0.7-0.4-1.7,0.3-2.3l7.3-5.7
		c0.7-0.6,1.7-0.4,2.3,0.3v0C615.5,78.8,615.4,79.8,614.7,80.4z"/>
	<path class="st53" d="M606.6,60.9h4.2c0.8,0,1.5,0.7,1.5,1.5v0c0,0.8-0.7,1.5-1.5,1.5h-4.2c-0.8,0-1.5-0.7-1.5-1.5v0
		C605.1,61.5,605.7,60.9,606.6,60.9z"/>
	<path class="st53" d="M659,60.9h4.2c0.8,0,1.5,0.7,1.5,1.5v0c0,0.8-0.7,1.5-1.5,1.5H659c-0.8,0-1.5-0.7-1.5-1.5v0
		C657.6,61.5,658.2,60.9,659,60.9z"/>
	<path class="st54" d="M638.9,92.9L638.9,92.9c0.8,0,1.4,0.6,1.4,1.4v2c0,0.8-0.6,1.4-1.4,1.4h0c-0.8,0-1.4-0.6-1.4-1.4v-2
		C637.5,93.6,638.1,92.9,638.9,92.9z"/>
	<path class="st54" d="M631,93L631,93c0.8,0,1.4,0.6,1.4,1.4v2c0,0.8-0.6,1.4-1.4,1.4h0c-0.8,0-1.4-0.6-1.4-1.4v-2
		C629.6,93.6,630.3,93,631,93z"/>
	
		<linearGradient id="SVGID_23_" gradientUnits="userSpaceOnUse" x1="689.0246" y1="400.9576" x2="684.1546" y2="391.7076" gradientTransform="matrix(1 0 0 -1 -52.21 485.66)">
		<stop  offset="0" style="stop-color:#8F8F8F"/>
		<stop  offset="0.12" style="stop-color:#889B99"/>
		<stop  offset="0.47" style="stop-color:#78B7B0"/>
		<stop  offset="0.77" style="stop-color:#6EC8BF"/>
		<stop  offset="1" style="stop-color:#6BCEC4"/>
	</linearGradient>
	<path class="st55" d="M626.5,85.5l0.2,5.5c0.1,0.8,0.4,1.6,1,2.2c0.5,0.5,1.1,0.9,1.8,1.1h10.5c0.7-0.2,1.3-0.5,1.8-1
		c0.5-0.5,0.9-1.1,1.2-1.8c0-2,0.1-3.9,0.2-5.9L626.5,85.5z"/>
	
		<linearGradient id="SVGID_24_" gradientUnits="userSpaceOnUse" x1="672.635" y1="432.9095" x2="701.545" y2="409.1895" gradientTransform="matrix(1 0 0 -1 -52.21 485.66)">
		<stop  offset="0" style="stop-color:#FEEDB5"/>
		<stop  offset="0.21" style="stop-color:#FEED8F"/>
		<stop  offset="0.39" style="stop-color:#FEED74"/>
		<stop  offset="0.5" style="stop-color:#FEED6A"/>
		<stop  offset="0.61" style="stop-color:#FEE26A"/>
		<stop  offset="0.8" style="stop-color:#FEC56A"/>
		<stop  offset="1" style="stop-color:#FEA16A"/>
	</linearGradient>
	<path class="st56" d="M626.6,85.5L626.6,85.5V80l0,0c0-1.6-0.7-3.2-1.9-4.2c-2.3-2-4.3-4.4-5.8-7.2c-1.6-2.6-2.5-5.6-2.8-8.6
		c0-0.4,0-0.8,0-1.1c0.1-3.3,1.5-8.2,7.1-12.5c7.8-5.7,18.7-4.9,25.5,2c4.1,4.4,4.9,8.5,4.7,11.5c0,0.2,0,0.4,0,0.6
		c0,3.2-0.8,5.4-3.2,8.9c-1.6,2.4-3.4,3.9-5.6,6.7c-1,1.3-1.5,2.9-1.5,4.5v4.9l0,0L626.6,85.5z"/>
	
		<linearGradient id="SVGID_25_" gradientUnits="userSpaceOnUse" x1="674.4753" y1="433.7061" x2="682.3153" y2="432.1161" gradientTransform="matrix(1 0 0 -1 -52.21 485.66)">
		<stop  offset="0" style="stop-color:#B82BEF"/>
		<stop  offset="9.000000e-02" style="stop-color:#9427D1"/>
		<stop  offset="0.18" style="stop-color:#6D22B0"/>
		<stop  offset="0.23" style="stop-color:#6926B0"/>
		<stop  offset="0.29" style="stop-color:#5E32B0"/>
		<stop  offset="0.34" style="stop-color:#4C46B1"/>
		<stop  offset="0.37" style="stop-color:#3E56B1"/>
		<stop  offset="0.61" style="stop-color:#3896D9"/>
		<stop  offset="0.63" style="stop-color:#3C9BD7"/>
		<stop  offset="0.78" style="stop-color:#56B7CD"/>
		<stop  offset="0.91" style="stop-color:#65C8C6"/>
		<stop  offset="1" style="stop-color:#6BCEC4"/>
	</linearGradient>
	<path class="st57" d="M629.5,50.7c-1.4,0.5-2.6,1.2-3.7,2.1c-1,1-1.7,2.2-2.2,3.5c-0.1,0-0.3,1-1.2,1l-0.3-0.1
		c-0.4-0.2-0.7-0.6-0.7-1.1c0.1-0.7,0.3-1.5,0.6-2.1c0.4-0.9,1-1.7,1.7-2.4c1.7-1.6,3.7-2.8,6-3.3c0.6,0,1.2,0.4,1.2,1.1
		c0,0.1,0,0.2,0,0.2C630.7,50.2,630.2,50.6,629.5,50.7z"/>
	
		<linearGradient id="SVGID_26_" gradientUnits="userSpaceOnUse" x1="630.9698" y1="443.739" x2="633.7376" y2="443.1795" gradientTransform="matrix(1 0 0 -1 0 513.89)">
		<stop  offset="0" style="stop-color:#B82BEF"/>
		<stop  offset="9.000000e-02" style="stop-color:#9427D1"/>
		<stop  offset="0.18" style="stop-color:#6D22B0"/>
		<stop  offset="0.23" style="stop-color:#6926B0"/>
		<stop  offset="0.29" style="stop-color:#5E32B0"/>
		<stop  offset="0.34" style="stop-color:#4C46B1"/>
		<stop  offset="0.37" style="stop-color:#3E56B1"/>
		<stop  offset="0.61" style="stop-color:#3896D9"/>
		<stop  offset="0.63" style="stop-color:#3C9BD7"/>
		<stop  offset="0.78" style="stop-color:#56B7CD"/>
		<stop  offset="0.91" style="stop-color:#65C8C6"/>
		<stop  offset="1" style="stop-color:#6BCEC4"/>
	</linearGradient>
	<ellipse class="st58" cx="632.3" cy="70.4" rx="1.4" ry="1.7"/>
	
		<linearGradient id="SVGID_27_" gradientUnits="userSpaceOnUse" x1="636.1592" y1="443.9162" x2="638.9292" y2="443.3462" gradientTransform="matrix(1 0 0 -1 0 513.89)">
		<stop  offset="0" style="stop-color:#B82BEF"/>
		<stop  offset="9.000000e-02" style="stop-color:#9427D1"/>
		<stop  offset="0.18" style="stop-color:#6D22B0"/>
		<stop  offset="0.23" style="stop-color:#6926B0"/>
		<stop  offset="0.29" style="stop-color:#5E32B0"/>
		<stop  offset="0.34" style="stop-color:#4C46B1"/>
		<stop  offset="0.37" style="stop-color:#3E56B1"/>
		<stop  offset="0.61" style="stop-color:#3896D9"/>
		<stop  offset="0.63" style="stop-color:#3C9BD7"/>
		<stop  offset="0.78" style="stop-color:#56B7CD"/>
		<stop  offset="0.91" style="stop-color:#65C8C6"/>
		<stop  offset="1" style="stop-color:#6BCEC4"/>
	</linearGradient>
	<ellipse class="st59" cx="637.5" cy="70.3" rx="1.4" ry="1.7"/>
	
		<linearGradient id="SVGID_28_" gradientUnits="userSpaceOnUse" x1="631.09" y1="435.005" x2="633.83" y2="435.005" gradientTransform="matrix(1 0 0 -1 0 513.89)">
		<stop  offset="0" style="stop-color:#B82BEF"/>
		<stop  offset="9.000000e-02" style="stop-color:#9427D1"/>
		<stop  offset="0.18" style="stop-color:#6D22B0"/>
		<stop  offset="0.23" style="stop-color:#6926B0"/>
		<stop  offset="0.29" style="stop-color:#5E32B0"/>
		<stop  offset="0.34" style="stop-color:#4C46B1"/>
		<stop  offset="0.37" style="stop-color:#3E56B1"/>
		<stop  offset="0.61" style="stop-color:#3896D9"/>
		<stop  offset="0.63" style="stop-color:#3C9BD7"/>
		<stop  offset="0.78" style="stop-color:#56B7CD"/>
		<stop  offset="0.91" style="stop-color:#65C8C6"/>
		<stop  offset="1" style="stop-color:#6BCEC4"/>
	</linearGradient>
	<path class="st60" d="M632.4,75.5h0.1c0.7,0,1.3,0.6,1.3,1.3V81c0,0.7-0.6,1.3-1.3,1.3h-0.1c-0.7,0-1.3-0.6-1.3-1.3v-4.2
		C631.1,76.1,631.7,75.5,632.4,75.5z"/>
	
		<linearGradient id="SVGID_29_" gradientUnits="userSpaceOnUse" x1="636.11" y1="435.145" x2="638.84" y2="435.145" gradientTransform="matrix(1 0 0 -1 0 513.89)">
		<stop  offset="0" style="stop-color:#B82BEF"/>
		<stop  offset="9.000000e-02" style="stop-color:#9427D1"/>
		<stop  offset="0.18" style="stop-color:#6D22B0"/>
		<stop  offset="0.23" style="stop-color:#6926B0"/>
		<stop  offset="0.29" style="stop-color:#5E32B0"/>
		<stop  offset="0.34" style="stop-color:#4C46B1"/>
		<stop  offset="0.37" style="stop-color:#3E56B1"/>
		<stop  offset="0.61" style="stop-color:#3896D9"/>
		<stop  offset="0.63" style="stop-color:#3C9BD7"/>
		<stop  offset="0.78" style="stop-color:#56B7CD"/>
		<stop  offset="0.91" style="stop-color:#65C8C6"/>
		<stop  offset="1" style="stop-color:#6BCEC4"/>
	</linearGradient>
	<path class="st61" d="M637.4,75.4h0.1c0.7,0,1.3,0.6,1.3,1.3v4.2c0,0.7-0.6,1.3-1.3,1.3h-0.1c-0.7,0-1.3-0.6-1.3-1.3v-4.2
		C636.1,75.9,636.7,75.4,637.4,75.4z"/>
	<path class="st62" d="M302.5,65.5c2.1,0.3,4,1.2,5.5,2.7c5,5,0.5,13.2,4.4,19.8c1.5,2.7,4.9,5.9,12.9,7.4c4,0.5,8,0.5,12,0
		c14.2-1.9,23.8-10,27.9-13.9l13.3,24.7c1,16.7-5.5,30-15,32.9c-3.2,0.9-6.5,0.8-9.6-0.2c-2.7-1-5.3-2.2-7.8-3.6
		c-7.5-4.3-10.2-8.5-17.3-10.4c-1.4-0.4-2.8-0.6-4.2-0.7c-2.2-0.5-4.5-0.4-6.7,0.2c-10.4,3-11.1,18.3-21.1,20.9
		c-2.5,0.6-5.2,0.5-7.6-0.4c-2.3-1.1-4.4-2.6-6.1-4.5c-7-7.8-3.1-17.2-9.3-24.4c-1.7-2-4.8-4.5-10.7-5.8c-5.2-0.4-10.3,0.5-15,2.7
		c-6.8,3.3-12.1,9-15,15.9"/>
	<path class="st62" d="M423.2,87.4c6.1,10.9,17.1,18.3,29.5,19.8c2.2-0.3,4.9-1.1,6.2-3.3c3.9-6.3-7.7-17.4-4-23.5
		c0.8-1.3,2.5-2.8,7.1-3.3c2-0.2,4,0.1,5.8,0.7c9.7,3.4,10.4,17,18.5,18.4c2.3,0.4,4.8-0.2,6.5-1.8c1.5-1.4,2-3.6,1.8-8.4
		c-0.3-5.5-1.4-10.9-3.3-16"/>
	
		<linearGradient id="SVGID_30_" gradientUnits="userSpaceOnUse" x1="417.5015" y1="387.951" x2="376.839" y2="453.9651" gradientTransform="matrix(1 0 0 -1 0 513.89)">
		<stop  offset="0" style="stop-color:#FF9833"/>
		<stop  offset="0" style="stop-color:#FF9934"/>
		<stop  offset="9.000000e-02" style="stop-color:#FFB164"/>
		<stop  offset="0.19" style="stop-color:#FFC58D"/>
		<stop  offset="0.29" style="stop-color:#FFD7B0"/>
		<stop  offset="0.4" style="stop-color:#FFE6CD"/>
		<stop  offset="0.51" style="stop-color:#FFF1E3"/>
		<stop  offset="0.63" style="stop-color:#FFF9F3"/>
		<stop  offset="0.77" style="stop-color:#FFFEFC"/>
		<stop  offset="0.96" style="stop-color:#FFFFFF"/>
	</linearGradient>
	<ellipse class="st63" cx="392.5" cy="85.3" rx="39" ry="38.7"/>
	
		<linearGradient id="SVGID_31_" gradientUnits="userSpaceOnUse" x1="514.3996" y1="432.3597" x2="484.9771" y2="480.1138" gradientTransform="matrix(1 0 0 -1 0 513.89)">
		<stop  offset="0" style="stop-color:#FF9833"/>
		<stop  offset="0" style="stop-color:#FF9934"/>
		<stop  offset="9.000000e-02" style="stop-color:#FFB164"/>
		<stop  offset="0.19" style="stop-color:#FFC58D"/>
		<stop  offset="0.29" style="stop-color:#FFD7B0"/>
		<stop  offset="0.4" style="stop-color:#FFE6CD"/>
		<stop  offset="0.51" style="stop-color:#FFF1E3"/>
		<stop  offset="0.63" style="stop-color:#FFF9F3"/>
		<stop  offset="0.77" style="stop-color:#FFFEFC"/>
		<stop  offset="0.96" style="stop-color:#FFFFFF"/>
	</linearGradient>
	<ellipse class="st64" cx="496.3" cy="52.2" rx="28.1" ry="28"/>
	
		<linearGradient id="SVGID_32_" gradientUnits="userSpaceOnUse" x1="285.8004" y1="426.2103" x2="256.8183" y2="473.2437" gradientTransform="matrix(1 0 0 -1 0 513.89)">
		<stop  offset="0" style="stop-color:#FF9833"/>
		<stop  offset="0" style="stop-color:#FF9934"/>
		<stop  offset="9.000000e-02" style="stop-color:#FFB164"/>
		<stop  offset="0.19" style="stop-color:#FFC58D"/>
		<stop  offset="0.29" style="stop-color:#FFD7B0"/>
		<stop  offset="0.4" style="stop-color:#FFE6CD"/>
		<stop  offset="0.51" style="stop-color:#FFF1E3"/>
		<stop  offset="0.63" style="stop-color:#FFF9F3"/>
		<stop  offset="0.77" style="stop-color:#FFFEFC"/>
		<stop  offset="0.96" style="stop-color:#FFFFFF"/>
	</linearGradient>
	<ellipse class="st65" cx="268" cy="58.8" rx="43.2" ry="18.6"/>
	
		<linearGradient id="SVGID_33_" gradientUnits="userSpaceOnUse" x1="233.1304" y1="351.5503" x2="204.1483" y2="398.5837" gradientTransform="matrix(1 0 0 -1 0 513.89)">
		<stop  offset="0" style="stop-color:#FF9833"/>
		<stop  offset="0" style="stop-color:#FF9934"/>
		<stop  offset="9.000000e-02" style="stop-color:#FFB164"/>
		<stop  offset="0.19" style="stop-color:#FFC58D"/>
		<stop  offset="0.29" style="stop-color:#FFD7B0"/>
		<stop  offset="0.4" style="stop-color:#FFE6CD"/>
		<stop  offset="0.51" style="stop-color:#FFF1E3"/>
		<stop  offset="0.63" style="stop-color:#FFF9F3"/>
		<stop  offset="0.77" style="stop-color:#FFFEFC"/>
		<stop  offset="0.96" style="stop-color:#FFFFFF"/>
	</linearGradient>
	<ellipse class="st66" cx="215.3" cy="133.4" rx="43.1" ry="18.6"/>
	<text transform="matrix(1 0 0 1 359.46 92.5)" class="st47 st67 st68">MVP14</text>
	<text transform="matrix(1 0 0 1 485.12 58.83)" class="st47 st67 st68">IGI</text>
	<text transform="matrix(1 0 0 1 185.46 137.5)" class="st47 st67 st69">PRODU</text>
	<text transform="matrix(1 0 0 1 230.8 137.5)" class="st47 st67 st69">C</text>
	<text transform="matrix(1 0 0 1 239.71 137.5)" class="st47 st67 st69">T</text>
	<text transform="matrix(1 0 0 1 244.79 62.5)" class="st47 st67 st69">DIG</text>
	<text transform="matrix(1 0 0 1 267.31 62.5)" class="st47 st67 st69">I</text>
	<text transform="matrix(1 0 0 1 270.92 62.5)" class="st47 st67 st69">T</text>
	<text transform="matrix(1 0 0 1 278.74 62.5)" class="st47 st67 st69">AL</text>
</g>
<g id="detalles" class="st70">
	<path class="st71" d="M705.8,86.8c-5.2,0-5.2,8,0,8S710.9,86.8,705.8,86.8z"/>
	<path class="st71" d="M719.8,374.2c-5.2,0-5.2,8,0,8S724.9,374.2,719.8,374.2z"/>
	<path class="st71" d="M339.1,472.8c-5.1,0-5.1,8,0,8S344.3,472.8,339.1,472.8z"/>
	<path class="st72" d="M341.8,485.5c-2.6,0-2.6,4,0,4S344.4,485.5,341.8,485.5z"/>
	<path class="st72" d="M333.1,482.8c-2.6,0-2.6,4,0,4S335.7,482.8,333.1,482.8z"/>
	<path class="st72" d="M729.8,379.5c-2.6,0-2.6,4,0,4S732.4,379.5,729.8,379.5z"/>
	<path class="st72" d="M679.1,395.5c-2.6,0-2.6,4,0,4S681.7,395.5,679.1,395.5z"/>
	<path class="st72" d="M721.1,230.8c-2.6,0-2.6,4,0,4S723.7,230.8,721.1,230.8z"/>
	<path class="st72" d="M725.8,235.5c-2.6,0-2.6,4,0,4S728.4,235.5,725.8,235.5z"/>
	<path class="st72" d="M722.5,244.8c-2.6,0-2.6,4,0,4S725,244.8,722.5,244.8z"/>
	<path class="st72" d="M719.8,220.8c-2.6,0-2.6,4,0,4S722.4,220.8,719.8,220.8z"/>
	<path class="st72" d="M702.5,139.5c-2.6,0-2.6,4,0,4S705,139.5,702.5,139.5z"/>
	<path class="st72" d="M703.1,104.8c-2.6,0-2.6,4,0,4S705.7,104.8,703.1,104.8z"/>
	<path class="st72" d="M594.5,40.8c-2.6,0-2.6,4,0,4S597,40.8,594.5,40.8z"/>
	<path class="st72" d="M575.8,73.5c-2.6,0-2.6,4,0,4S578.4,73.5,575.8,73.5z"/>
	<path class="st72" d="M577.1,82.2c-2.6,0-2.6,4,0,4S579.7,82.2,577.1,82.2z"/>
	<path class="st72" d="M143.1,234.2c-2.6,0-2.6,4,0,4C145.7,238.2,145.7,234.2,143.1,234.2z"/>
	<path class="st72" d="M131.8,296.8c-2.6,0-2.6,4,0,4S134.4,296.8,131.8,296.8z"/>
	<path class="st72" d="M753.8,397.5c-2.6,0-2.6,4,0,4S756.4,397.5,753.8,397.5z"/>
	<path class="st73" d="M742.5,400.8c-5.2,0-5.2,8,0,8S747.6,400.8,742.5,400.8z"/>
	<path class="st72" d="M321.8,482.5c-0.6,0-1,0.5-1,1c0,0.5,0.4,1,1,1c0.6,0,1-0.5,1-1C322.8,482.9,322.3,482.5,321.8,482.5z"/>
	<path class="st72" d="M727.8,347.8c-0.6,0-1,0.4-1,1s0.4,1,1,1s1-0.4,1-1S728.3,347.8,727.8,347.8z"/>
	<path class="st72" d="M726.5,351.8c-0.6,0-1,0.4-1,1s0.4,1,1,1s1-0.4,1-1S727,351.8,726.5,351.8z"/>
	<path class="st72" d="M729.8,352.5c-0.6,0-1,0.4-1,1s0.4,1,1,1s1-0.4,1-1S730.3,352.5,729.8,352.5z"/>
	<path class="st71" d="M446.5,472.8c-5.1,0-5.2,8,0,8S451.6,472.8,446.5,472.8z"/>
	<path class="st72" d="M771.8,270.5c-0.6,0-1,0.4-1,1s0.4,1,1,1s1-0.4,1-1S772.3,270.5,771.8,270.5z"/>
	<path class="st72" d="M775.1,280.5c-0.6,0-1,0.4-1,1s0.4,1,1,1s1-0.4,1-1S775.7,280.5,775.1,280.5z"/>
	<path class="st72" d="M768.5,268.5c-0.6,0-1,0.4-1,1s0.4,1,1,1s1-0.4,1-1S769,268.5,768.5,268.5z"/>
	<path class="st72" d="M764.5,259.8c-0.6,0-1,0.4-1,1s0.4,1,1,1s1-0.4,1-1S765,259.8,764.5,259.8z"/>
	<path class="st72" d="M751.1,303.8c-0.6,0-1,0.4-1,1s0.4,1,1,1s1-0.4,1-1S751.7,303.8,751.1,303.8z"/>
	<path class="st72" d="M701.8,155.8c-0.6,0-1,0.4-1,1s0.4,1,1,1s1-0.4,1-1S702.3,155.8,701.8,155.8z"/>
	<path class="st72" d="M678.5,136.5c-0.6,0-1,0.4-1,1s0.4,1,1,1s1-0.4,1-1S679,136.5,678.5,136.5z"/>
	<path class="st72" d="M673.1,131.8c-0.6,0-1,0.4-1,1s0.4,1,1,1s1-0.4,1-1S673.7,131.8,673.1,131.8z"/>
	<path class="st72" d="M683.1,71.8c-0.6,0-1,0.4-1,1s0.4,1,1,1s1-0.4,1-1S683.7,71.8,683.1,71.8z"/>
	<path class="st72" d="M675.8,70.5c-0.6,0-1,0.4-1,1s0.4,1,1,1s1-0.4,1-1S676.3,70.5,675.8,70.5z"/>
	<path class="st72" d="M565.8,86.5c-0.6,0-1,0.4-1,1s0.4,1,1,1s1-0.4,1-1S566.3,86.5,565.8,86.5z"/>
	<path class="st72" d="M603.8,30.5c-0.6,0-1,0.4-1,1s0.4,1,1,1s1-0.4,1-1S604.3,30.5,603.8,30.5z"/>
	<path class="st72" d="M129.8,255.8c-0.6,0-1,0.4-1,1s0.4,1,1,1c0.6,0,1-0.4,1-1S130.3,255.8,129.8,255.8z"/>
	<path class="st72" d="M129.1,264.5c-0.6,0-1,0.4-1,1s0.4,1,1,1c0.6,0,1-0.4,1-1S129.7,264.5,129.1,264.5z"/>
	<path class="st72" d="M131.1,265.8c-0.6,0-1,0.4-1,1s0.4,1,1,1c0.6,0,1-0.4,1-1S131.7,265.8,131.1,265.8z"/>
	<path class="st72" d="M128.5,283.2c-0.6,0-1,0.4-1,1s0.4,1,1,1c0.6,0,1-0.4,1-1S129,283.2,128.5,283.2z"/>
	<path class="st72" d="M182.5,346.5c-0.6,0-1,0.4-1,1s0.4,1,1,1s1-0.4,1-1S183,346.5,182.5,346.5z"/>
	<path class="st72" d="M183.1,364.5c-0.6,0-1,0.4-1,1s0.4,1,1,1s1-0.4,1-1S183.7,364.5,183.1,364.5z"/>
	<path class="st72" d="M186.5,367.8c-0.6,0-1,0.4-1,1s0.4,1,1,1s1-0.4,1-1S187,367.8,186.5,367.8z"/>
	<path class="st72" d="M196.5,368.5c-0.6,0-1,0.4-1,1s0.4,1,1,1s1-0.4,1-1S197,368.5,196.5,368.5z"/>
	<path class="st72" d="M304.5,463.8c-0.6,0-1,0.4-1,1s0.4,1,1,1s1-0.4,1-1S305,463.8,304.5,463.8z"/>
	<path class="st72" d="M309.8,472.5c-0.6,0-1,0.4-1,1s0.4,1,1,1s1-0.4,1-1S310.3,472.5,309.8,472.5z"/>
	<path class="st72" d="M316.5,483.8c-0.6,0-1,0.4-1,1s0.4,1,1,1s1-0.4,1-1S317,483.8,316.5,483.8z"/>
	<path class="st72" d="M551.8,505.8c-0.6,0-1,0.4-1,1s0.4,1,1,1c0.6,0,1-0.4,1-1S552.3,505.8,551.8,505.8z"/>
	<path class="st72" d="M438.5,480.5c-0.6,0-1,0.4-1,1s0.4,1,1,1s1-0.4,1-1S439,480.5,438.5,480.5z"/>
	<path class="st72" d="M754.5,405.2c-0.6,0-1,0.4-1,1s0.4,1,1,1s1-0.4,1-1S755,405.2,754.5,405.2z"/>
	<path class="st72" d="M751.1,393.8c-0.6,0-1,0.4-1,1s0.4,1,1,1s1-0.4,1-1S751.7,393.8,751.1,393.8z"/>
	<path class="st72" d="M198.5,91.8c-0.6,0-1,0.4-1,1s0.4,1,1,1s1-0.4,1-1S199,91.8,198.5,91.8z"/>
	<path class="st72" d="M201.8,81.8c-0.6,0-1,0.4-1,1s0.4,1,1,1s1-0.4,1-1S202.3,81.8,201.8,81.8z"/>
	<path class="st72" d="M207.8,85.8c-0.6,0-1,0.4-1,1s0.4,1,1,1s1-0.4,1-1S208.3,85.8,207.8,85.8z"/>
	<path class="st72" d="M135.8,275.8c-0.6,0-1,0.4-1,1s0.4,1,1,1c0.6,0,1-0.4,1-1S136.3,275.8,135.8,275.8z"/>
	<path class="st72" d="M687.1,397.7c-0.3,0-0.5,0.2-0.5,0.5s0.2,0.5,0.5,0.5s0.5-0.2,0.5-0.5S687.4,397.7,687.1,397.7z"/>
	<path class="st72" d="M739.8,352.3c-0.3,0-0.5,0.2-0.5,0.5s0.2,0.5,0.5,0.5s0.5-0.2,0.5-0.5S740.1,352.3,739.8,352.3z"/>
	<path class="st72" d="M746.5,340.3c-0.3,0-0.5,0.2-0.5,0.5s0.2,0.5,0.5,0.5s0.5-0.2,0.5-0.5S746.7,340.3,746.5,340.3z"/>
	<path class="st72" d="M756.5,325.7c-0.3,0-0.5,0.2-0.5,0.5s0.2,0.5,0.5,0.5s0.5-0.2,0.5-0.5S756.7,325.7,756.5,325.7z"/>
	<path class="st72" d="M753.1,309.7c-0.3,0-0.5,0.2-0.5,0.5s0.2,0.5,0.5,0.5s0.5-0.2,0.5-0.5S753.4,309.7,753.1,309.7z"/>
	<path class="st72" d="M759.8,303c-0.3,0-0.5,0.2-0.5,0.5s0.2,0.5,0.5,0.5s0.5-0.2,0.5-0.5S760.1,303,759.8,303z"/>
	<path class="st72" d="M735.8,231.7c-0.3,0-0.5,0.2-0.5,0.5s0.2,0.5,0.5,0.5s0.5-0.2,0.5-0.5S736.1,231.7,735.8,231.7z"/>
	<path class="st72" d="M707.1,265c-0.3,0-0.5,0.2-0.5,0.5s0.2,0.5,0.5,0.5s0.5-0.2,0.5-0.5S707.4,265,707.1,265z"/>
	<path class="st72" d="M711.1,284.3c-0.3,0-0.5,0.2-0.5,0.5s0.2,0.5,0.5,0.5s0.5-0.2,0.5-0.5S711.4,284.3,711.1,284.3z"/>
	<path class="st72" d="M705.8,261.7c-0.3,0-0.5,0.2-0.5,0.5s0.2,0.5,0.5,0.5s0.5-0.2,0.5-0.5S706.1,261.7,705.8,261.7z"/>
	<path class="st72" d="M716.5,259c-0.3,0-0.5,0.2-0.5,0.5s0.2,0.5,0.5,0.5s0.5-0.2,0.5-0.5S716.7,259,716.5,259z"/>
	<path class="st72" d="M713.8,243c-0.3,0-0.5,0.2-0.5,0.5s0.2,0.5,0.5,0.5s0.5-0.2,0.5-0.5S714.1,243,713.8,243z"/>
	<path class="st72" d="M716.5,237c-0.3,0-0.5,0.2-0.5,0.5s0.2,0.5,0.5,0.5s0.5-0.2,0.5-0.5S716.7,237,716.5,237z"/>
	<path class="st72" d="M709.8,226.3c-0.3,0-0.5,0.2-0.5,0.5s0.2,0.5,0.5,0.5s0.5-0.2,0.5-0.5S710.1,226.3,709.8,226.3z"/>
	<path class="st72" d="M708.5,175c-0.3,0-0.5,0.2-0.5,0.5s0.2,0.5,0.5,0.5s0.5-0.2,0.5-0.5S708.7,175,708.5,175z"/>
	<path class="st72" d="M706.5,159c-0.3,0-0.5,0.2-0.5,0.5s0.2,0.5,0.5,0.5s0.5-0.2,0.5-0.5S706.7,159,706.5,159z"/>
	<path class="st72" d="M703.1,149.7c-0.3,0-0.5,0.2-0.5,0.5s0.2,0.5,0.5,0.5s0.5-0.2,0.5-0.5S703.4,149.7,703.1,149.7z"/>
	<path class="st72" d="M711.8,156.3c-0.3,0-0.5,0.2-0.5,0.5s0.2,0.5,0.5,0.5s0.5-0.2,0.5-0.5S712.1,156.3,711.8,156.3z"/>
	<path class="st72" d="M703.8,157.7c-0.3,0-0.5,0.2-0.5,0.5s0.2,0.5,0.5,0.5s0.5-0.2,0.5-0.5S704.1,157.7,703.8,157.7z"/>
	<path class="st72" d="M689.1,146.3c-0.3,0-0.5,0.2-0.5,0.5s0.2,0.5,0.5,0.5s0.5-0.2,0.5-0.5S689.4,146.3,689.1,146.3z"/>
	<path class="st72" d="M683.8,135c-0.3,0-0.5,0.2-0.5,0.5s0.2,0.5,0.5,0.5s0.5-0.2,0.5-0.5S684.1,135,683.8,135z"/>
	<path class="st72" d="M679.1,125.7c-0.3,0-0.5,0.2-0.5,0.5s0.2,0.5,0.5,0.5s0.5-0.2,0.5-0.5S679.4,125.7,679.1,125.7z"/>
	<path class="st72" d="M663.1,103.7c-0.3,0-0.5,0.2-0.5,0.5s0.2,0.5,0.5,0.5s0.5-0.2,0.5-0.5S663.4,103.7,663.1,103.7z"/>
	<path class="st72" d="M656.5,119.7c-0.3,0-0.5,0.2-0.5,0.5s0.2,0.5,0.5,0.5s0.5-0.2,0.5-0.5S656.7,119.7,656.5,119.7z"/>
	<path class="st72" d="M644.5,117c-0.3,0-0.5,0.2-0.5,0.5s0.2,0.5,0.5,0.5s0.5-0.2,0.5-0.5S644.7,117,644.5,117z"/>
	<path class="st72" d="M643.1,131c-0.3,0-0.5,0.2-0.5,0.5s0.2,0.5,0.5,0.5s0.5-0.2,0.5-0.5S643.4,131,643.1,131z"/>
	<path class="st72" d="M635.8,127.7c-0.3,0-0.5,0.2-0.5,0.5s0.2,0.5,0.5,0.5s0.5-0.2,0.5-0.5S636.1,127.7,635.8,127.7z"/>
	<path class="st72" d="M635.8,121.7c-0.3,0-0.5,0.2-0.5,0.5s0.2,0.5,0.5,0.5s0.5-0.2,0.5-0.5S636.1,121.7,635.8,121.7z"/>
	<path class="st72" d="M352.5,479c-0.3,0-0.5,0.2-0.5,0.5s0.2,0.5,0.5,0.5s0.5-0.2,0.5-0.5S352.7,479,352.5,479z"/>
	<path class="st72" d="M348.5,471c-0.3,0-0.5,0.2-0.5,0.5s0.2,0.5,0.5,0.5s0.5-0.2,0.5-0.5S348.7,471,348.5,471z"/>
	<path class="st72" d="M351.8,471c-0.3,0-0.5,0.2-0.5,0.5s0.2,0.5,0.5,0.5s0.5-0.2,0.5-0.5S352.1,471,351.8,471z"/>
	<path class="st72" d="M356.5,471c-0.3,0-0.5,0.2-0.5,0.5s0.2,0.5,0.5,0.5s0.5-0.2,0.5-0.5S356.7,471,356.5,471z"/>
	<path class="st72" d="M357.1,477.7c-0.3,0-0.5,0.2-0.5,0.5s0.2,0.5,0.5,0.5s0.5-0.2,0.5-0.5S357.4,477.7,357.1,477.7z"/>
	<path class="st72" d="M363.1,473.7c-0.3,0-0.5,0.2-0.5,0.5s0.2,0.5,0.5,0.5s0.5-0.2,0.5-0.5S363.4,473.7,363.1,473.7z"/>
	<path class="st72" d="M337.1,454.3c-0.3,0-0.5,0.2-0.5,0.5s0.2,0.5,0.5,0.5s0.5-0.2,0.5-0.5S337.4,454.3,337.1,454.3z"/>
	<path class="st72" d="M307.1,469c-0.3,0-0.5,0.2-0.5,0.5s0.2,0.5,0.5,0.5s0.5-0.2,0.5-0.5S307.4,469,307.1,469z"/>
	<path class="st72" d="M399.1,413c-0.3,0-0.5,0.2-0.5,0.5s0.2,0.5,0.5,0.5s0.5-0.2,0.5-0.5S399.4,413,399.1,413z"/>
	<path class="st72" d="M395.1,435c-0.3,0-0.5,0.2-0.5,0.5s0.2,0.5,0.5,0.5s0.5-0.2,0.5-0.5S395.4,435,395.1,435z"/>
	<path class="st72" d="M428.5,449c-0.3,0-0.5,0.2-0.5,0.5s0.2,0.5,0.5,0.5s0.5-0.2,0.5-0.5S428.7,449,428.5,449z"/>
	<path class="st72" d="M455.1,467.7c-0.3,0-0.5,0.2-0.5,0.5s0.2,0.5,0.5,0.5s0.5-0.2,0.5-0.5S455.4,467.7,455.1,467.7z"/>
	<path class="st72" d="M456.5,487c-0.3,0-0.5,0.2-0.5,0.5s0.2,0.5,0.5,0.5s0.5-0.2,0.5-0.5S456.7,487,456.5,487z"/>
	<path class="st72" d="M444.5,483c-0.3,0-0.5,0.2-0.5,0.5c0,0.3,0.2,0.5,0.5,0.5c0.3,0,0.5-0.2,0.5-0.5
		C445,483.2,444.7,483,444.5,483z"/>
	<path class="st71" d="M203.1,48.8c-5.1,0-5.1,8,0,8S208.3,48.8,203.1,48.8z"/>
	<path class="st71" d="M195.8,62.2c-2.6,0-2.6,4,0,4S198.4,62.2,195.8,62.2z"/>
	<path class="st71" d="M190.5,58.2c-2.6,0-2.6,4,0,4S193,58.2,190.5,58.2z"/>
</g>
</svg>
