<?xml version="1.0" encoding="utf-8"?>
<!-- Generator: Adobe Illustrator 23.0.5, SVG Export Plug-In . SVG Version: 6.00 Build 0)  -->
<svg version="1.1" id="Capa_1" xmlns="http://www.w3.org/2000/svg" xmlns:xlink="http://www.w3.org/1999/xlink" x="0px" y="0px"
	 viewBox="0 0 900 462" style="enable-background:new 0 0 900 462;" xml:space="preserve">
<style type="text/css">
	.st0{fill:url(#SVGID_1_);}
	.st1{fill:url(#SVGID_2_);}
	.st2{fill:url(#SVGID_3_);}
	.st3{fill:#7482B4;}
	.st4{fill:url(#SVGID_4_);}
	.st5{fill:url(#SVGID_5_);}
	.st6{opacity:0.81;fill:#D0D0D0;enable-background:new    ;}
	.st7{opacity:0.81;fill:#AD96C2;enable-background:new    ;}
	.st8{opacity:0.81;fill:#6BCEC4;enable-background:new    ;}
	.st9{opacity:0.81;fill:#FDFC00;enable-background:new    ;}
	.st10{fill:url(#SVGID_6_);}
	.st11{fill:#23354B;}
	.st12{fill:url(#SVGID_7_);}
	.st13{fill:#A7A8A3;}
	.st14{fill:#F1F1F1;}
	.st15{fill:url(#SVGID_8_);}
	.st16{fill:url(#SVGID_9_);}
	.st17{fill:url(#SVGID_10_);}
	.st18{fill:url(#SVGID_11_);}
	.st19{fill:#D0D0D0;}
	.st20{fill:url(#SVGID_12_);}
	.st21{fill:#FBB36C;}
	.st22{fill:#C2546E;}
	.st23{fill:none;stroke:#23354B;stroke-width:3;stroke-linecap:round;stroke-miterlimit:10;}
	.st24{fill:none;stroke:#23354B;stroke-width:3;stroke-linecap:round;stroke-linejoin:round;}
	.st25{fill:#FDFC00;}
	.st26{opacity:0.5;fill:#00B4A7;enable-background:new    ;}
	.st27{opacity:0.5;fill:#33D2FF;enable-background:new    ;}
	.st28{opacity:0.5;fill:#F1F1F1;enable-background:new    ;}
</style>
<title>IGI_LandingS5_BRIDGE (LISTO)</title>
<g id="Fondo">
	
		<linearGradient id="SVGID_1_" gradientUnits="userSpaceOnUse" x1="460.9254" y1="-73.1" x2="462.6954" y2="59.83" gradientTransform="matrix(1 0 0 -1 -15.95 395.97)">
		<stop  offset="5.000000e-02" style="stop-color:#6BCEC4"/>
		<stop  offset="0.11" style="stop-color:#67C3C2"/>
		<stop  offset="0.22" style="stop-color:#5CA5BE"/>
		<stop  offset="0.37" style="stop-color:#4A76B6"/>
		<stop  offset="0.46" style="stop-color:#3E56B1"/>
		<stop  offset="0.77" style="stop-color:#23354B"/>
		<stop  offset="0.85" style="stop-color:#3F2E71"/>
		<stop  offset="0.95" style="stop-color:#60259E"/>
		<stop  offset="1" style="stop-color:#6D22B0"/>
	</linearGradient>
	<path class="st0" d="M559,320H327l-70,70c17,16,66,70.7,198,72c102,1,159.7-48.1,180-64C635,397.3,559,320,559,320z"/>
	
		<linearGradient id="SVGID_2_" gradientUnits="userSpaceOnUse" x1="472.365" y1="418.3" x2="468.785" y2="87.62" gradientTransform="matrix(1 0 0 -1 -15.95 395.97)">
		<stop  offset="5.000000e-02" style="stop-color:#6BCEC4"/>
		<stop  offset="0.11" style="stop-color:#67C3C2"/>
		<stop  offset="0.22" style="stop-color:#5CA5BE"/>
		<stop  offset="0.37" style="stop-color:#4A76B6"/>
		<stop  offset="0.46" style="stop-color:#3E56B1"/>
		<stop  offset="0.77" style="stop-color:#23354B"/>
		<stop  offset="0.85" style="stop-color:#3F2E71"/>
		<stop  offset="0.95" style="stop-color:#60259E"/>
		<stop  offset="1" style="stop-color:#6D22B0"/>
	</linearGradient>
	<path class="st1" d="M751,342C826,184,663-0.9,450,0C204,1,114,196,142,318c7,30.4,13.5,52.6,67.2,19.8C258,308,355,274,463,275
		c106.2,1,161,25,203,49C717.3,353.3,737.5,370.4,751,342z"/>
	
		<linearGradient id="SVGID_3_" gradientUnits="userSpaceOnUse" x1="299.975" y1="97.39" x2="588.975" y2="97.39" gradientTransform="matrix(1 0 0 -1 0 461.89)">
		<stop  offset="0" style="stop-color:#FFFFFF"/>
		<stop  offset="0.96" style="stop-color:#6BCEC4"/>
	</linearGradient>
	<polygon class="st2" points="323,321 300,408 589,408 564,321 	"/>
</g>
<g id="keyboard_Imagen">
	<path class="st3" d="M439,310c-0.1-0.8-0.8-6,2-10c1.9-2.7,4.8-4.5,8-5h25c1.4-0.1,2.7-0.4,4-1c1.7-1,1.6-3.3,2-4h9
		c-0.3,1.4-1.3,5.4-4,8c-4,3.8-10.8,5-12,5c-6.7,0.3-11.3-0.3-18,0c-1.7-0.4-3.6-0.1-5,1c-1.8,1.4-2.6,3.8-2,6
		C445.3,309.7,441.6,310.3,439,310z"/>
	
		<linearGradient id="SVGID_4_" gradientUnits="userSpaceOnUse" x1="435.975" y1="146.89" x2="450.975" y2="146.89" gradientTransform="matrix(1 0 0 -1 0 461.89)">
		<stop  offset="0" style="stop-color:#6BCEC4"/>
		<stop  offset="3.000000e-02" style="stop-color:#66C3BB"/>
		<stop  offset="0.19" style="stop-color:#4E9194"/>
		<stop  offset="0.35" style="stop-color:#3B6974"/>
		<stop  offset="0.48" style="stop-color:#2E4C5E"/>
		<stop  offset="0.6" style="stop-color:#263B50"/>
		<stop  offset="0.69" style="stop-color:#23354B"/>
		<stop  offset="0.77" style="stop-color:#23354B"/>
		<stop  offset="1" style="stop-color:#23354B"/>
	</linearGradient>
	<rect x="436" y="309" class="st4" width="15" height="12"/>
	
		<linearGradient id="SVGID_5_" gradientUnits="userSpaceOnUse" x1="437.3305" y1="149.8197" x2="441.9505" y2="89.0797" gradientTransform="matrix(1 0 0 -1 0 461.89)">
		<stop  offset="0" style="stop-color:#6BCEC4"/>
		<stop  offset="3.000000e-02" style="stop-color:#66C3BB"/>
		<stop  offset="0.19" style="stop-color:#4E9194"/>
		<stop  offset="0.35" style="stop-color:#3B6974"/>
		<stop  offset="0.48" style="stop-color:#2E4C5E"/>
		<stop  offset="0.6" style="stop-color:#263B50"/>
		<stop  offset="0.69" style="stop-color:#23354B"/>
		<stop  offset="0.77" style="stop-color:#23354B"/>
		<stop  offset="1" style="stop-color:#23354B"/>
	</linearGradient>
	<polygon class="st5" points="325,320 302,406 587,406 562,320 	"/>
	<polygon class="st6" points="333,327 331,336 345,336 347,327 	"/>
	<polygon class="st6" points="354,327 352,336 365,336 367,327 	"/>
	<polygon class="st6" points="373,327 372,336 385,336 386,327 	"/>
	<polygon class="st6" points="393,327 392,336 405,336 406,327 	"/>
	<rect x="412" y="327" class="st6" width="13" height="9"/>
	<rect x="431" y="327" class="st6" width="14" height="9"/>
	<polygon class="st6" points="451,327 451,336 465,336 464,327 	"/>
	<polygon class="st6" points="470,327 471,336 485,336 484,327 	"/>
	<polygon class="st6" points="490,327 491,336 505,336 503,327 	"/>
	<polygon class="st6" points="509,327 511,336 525,336 523,327 	"/>
	<polygon class="st6" points="529,327 531,336 555,336 553,327 	"/>
	<polygon class="st6" points="330,340 327,350 346,350 348,340 	"/>
	<polygon class="st6" points="354,340 352,350 369,350 371,340 	"/>
	<rect x="400" y="340" class="st6" width="17" height="10"/>
	<rect x="424" y="340" class="st6" width="16" height="10"/>
	<polygon class="st6" points="447,340 447,350 464,350 463,340 	"/>
	<polygon class="st6" points="469,341 470,350 488,350 487,341 	"/>
	<polygon class="st6" points="493,341 494,350 512,350 510,341 	"/>
	<polygon class="st6" points="541,341 543,350 559,350 557,341 	"/>
	<polygon class="st6" points="326,354 323,365 351,365 353,354 	"/>
	<rect x="431" y="355" class="st6" width="16" height="9"/>
	<polygon class="st6" points="454,355 454,365 472,365 471,355 	"/>
	<polygon class="st6" points="478,355 479,365 497,365 495,355 	"/>
	<polygon class="st6" points="544,355 546,364 563,364 561,355 	"/>
	<polygon class="st6" points="322,369 319,381 354,381 357,369 	"/>
	<polygon class="st6" points="363,370 361,380 379,380 381,370 	"/>
	<polygon class="st6" points="388,370 387,380 405,380 405,370 	"/>
	<polygon class="st6" points="414,370 413,380 430,380 430,370 	"/>
	<rect x="438" y="370" class="st6" width="17" height="10"/>
	<polygon class="st6" points="463,370 463,381 481,381 480,370 	"/>
	<polygon class="st6" points="487,370 488,381 518,381 516,370 	"/>
	<polygon class="st6" points="548,370 550,380 568,380 565,370 	"/>
	<polygon class="st6" points="318,386 315,397 335,397 339,386 	"/>
	<polygon class="st7" points="376,340 375,350 393,350 394,340 	"/>
	<polygon class="st7" points="358,354 356,365 374,365 376,354 	"/>
	<polygon class="st7" points="382,354 381,365 399,365 400,354 	"/>
	<rect x="406" y="354" class="st7" width="18" height="11"/>
	<polygon class="st7" points="347,386 343,397 361,397 365,386 	"/>
	<polygon class="st7" points="372,386 369,398 495,398 493,386 	"/>
	<polygon class="st8" points="504,364 503,355 519,355 516,341 533,341 538,364 	"/>
	<polygon class="st9" points="522,370 524,381 543,381 540,370 	"/>
	<polygon class="st9" points="499,386 501,398 521,398 518,386 	"/>
	<polygon class="st9" points="524,386 527,398 548,398 544,386 	"/>
	<polygon class="st9" points="549,386 553,398 573,398 570,386 	"/>
</g>
<g id="Compus_Laterales">
	
		<linearGradient id="SVGID_6_" gradientUnits="userSpaceOnUse" x1="632.3416" y1="312.9255" x2="692.9116" y2="257.0355" gradientTransform="matrix(1 0 0 -1 -15.95 395.97)">
		<stop  offset="0" style="stop-color:#D4E0FF"/>
		<stop  offset="7.000000e-02" style="stop-color:#CDD9F7"/>
		<stop  offset="0.17" style="stop-color:#BBC6E2"/>
		<stop  offset="0.3" style="stop-color:#9DA7C0"/>
		<stop  offset="0.44" style="stop-color:#737C90"/>
		<stop  offset="0.46" style="stop-color:#6E768A"/>
		<stop  offset="0.52" style="stop-color:#5A6579"/>
		<stop  offset="0.64" style="stop-color:#3C4B60"/>
		<stop  offset="0.74" style="stop-color:#2A3B51"/>
		<stop  offset="0.82" style="stop-color:#23354B"/>
	</linearGradient>
	<path class="st10" d="M624,46l8-7c2.5-1.3,5.5-1.3,8,0l179,139c2.9,2.1,5.3,4.9,7,8c2.5,4.6,3.9,9.8,4,12c0.3,54-0.3,107,0,161
		l-9,5L624,46z"/>
	<path class="st11" d="M622,211V54c0-5-0.6-6.5,2-8c2.3-1.2,5.1-0.8,7,1l176.6,134.8c3.8,2.3,7.1,5.4,9.4,9.2c2.9,4.8,4.3,10.4,4,16
		v157L622,211z"/>
	
		<linearGradient id="SVGID_7_" gradientUnits="userSpaceOnUse" x1="758.6762" y1="252.1596" x2="730.4162" y2="167.1896" gradientTransform="matrix(1 0 0 -1 -15.95 395.97)">
		<stop  offset="0" style="stop-color:#FFFFFF"/>
		<stop  offset="0.96" style="stop-color:#6BCEC4"/>
	</linearGradient>
	<path class="st12" d="M626.6,216.2L627,58c-0.4-1.1,0-2.4,1-3c0.6-0.3,1.4-0.3,2,0l178,136c4.3,3.4,6.9,8.5,7,14
		c0.1,52,0.3,104,0.4,156L626.6,216.2z"/>
	<path class="st13" d="M818.8,365.1L830,359v24c-0.2,3.2-1.7,6.2-4.2,8.3c-2.6,2.2-5.6,3.8-8.8,4.7L818.8,365.1z"/>
	<path class="st14" d="M622,211v27c-0.1,3.8,0.6,7.5,2,11c1,2,3,3.6,4,5l183,141c1.5,1,3.3,1.3,5,1c3.3-0.9,5-4,5-9v-23L622,211z"/>
	<polygon class="st13" points="772,355 772,347 780,353 780,361 	"/>
	<polygon class="st13" points="786,366 786,358 794,364 794,372 	"/>
	<polygon class="st13" points="800,377 800,369 808,375 808,383 	"/>
	
		<linearGradient id="SVGID_8_" gradientUnits="userSpaceOnUse" x1="702.3975" y1="89.6042" x2="715.3575" y2="72.8542" gradientTransform="matrix(1 0 0 -1 -15.95 395.97)">
		<stop  offset="0" style="stop-color:#6E768A"/>
		<stop  offset="0.12" style="stop-color:#6E768A"/>
		<stop  offset="0.26" style="stop-color:#666F84"/>
		<stop  offset="0.48" style="stop-color:#515D72"/>
		<stop  offset="0.74" style="stop-color:#2F3F55"/>
		<stop  offset="0.82" style="stop-color:#23354B"/>
	</linearGradient>
	<path class="st15" d="M759.6,356.2L732,378c-0.1-5.6-2.2-10.9-6-15l-54-42c-1.2-0.8-2.6-1.1-4-1c-1.5,0.2-3,0.9-4,2l26-20.6
		L759.6,356.2z"/>
	<path class="st11" d="M732,378l-68-52v-3c0.4-1.4,1.6-2.6,3-3c2.5-0.5,5.1,0.2,7,2c18,14,32,25,50,39
		C729.4,364.9,732.5,371.3,732,378z"/>
	
		<linearGradient id="SVGID_9_" gradientUnits="userSpaceOnUse" x1="266.36" y1="312.9455" x2="326.93" y2="257.0555" gradientTransform="matrix(-1 0 0 -1 549.94 395.97)">
		<stop  offset="0" style="stop-color:#D4E0FF"/>
		<stop  offset="7.000000e-02" style="stop-color:#CDD9F7"/>
		<stop  offset="0.17" style="stop-color:#BBC6E2"/>
		<stop  offset="0.3" style="stop-color:#9DA7C0"/>
		<stop  offset="0.44" style="stop-color:#737C90"/>
		<stop  offset="0.46" style="stop-color:#6E768A"/>
		<stop  offset="0.52" style="stop-color:#5A6579"/>
		<stop  offset="0.64" style="stop-color:#3C4B60"/>
		<stop  offset="0.74" style="stop-color:#2A3B51"/>
		<stop  offset="0.82" style="stop-color:#23354B"/>
	</linearGradient>
	<path class="st16" d="M276,46l-8-7c-1.2-0.7-2.6-1-4-1c-1.4,0-2.8,0.3-4,1L81,178c-2.9,2.1-5.3,4.9-7,8c-2.5,4.6-3.9,9.8-4,12
		c-0.3,54,0.3,107,0,161l9,5L276,46z"/>
	<path class="st11" d="M278,211V54c0-5,0.6-6.5-2-8c-2.3-1.2-5.1-0.8-7,1L92.4,181.8c-3.8,2.3-7.1,5.4-9.4,9.2
		c-2.9,4.8-4.3,10.4-4,16v157L278,211z"/>
	
		<linearGradient id="SVGID_10_" gradientUnits="userSpaceOnUse" x1="392.6748" y1="252.1601" x2="364.4148" y2="167.19" gradientTransform="matrix(-1 0 0 -1 549.94 395.97)">
		<stop  offset="0" style="stop-color:#FFFFFF"/>
		<stop  offset="0.96" style="stop-color:#6BCEC4"/>
	</linearGradient>
	<path class="st17" d="M273.4,216.2L273,58c0.4-1.1,0-2.4-1-3c-0.6-0.3-1.4-0.3-2,0L92,191c-2.1,1.6-3.8,3.7-5,6c-1.3,2.5-2,5.2-2,8
		c-0.1,52-0.3,104-0.4,156L273.4,216.2z"/>
	<path class="st13" d="M81.2,365.1L70,359v24c0.2,3.2,1.7,6.2,4.2,8.3c2.6,2.2,5.6,3.8,8.8,4.7C82.4,385.7,81.8,375.4,81.2,365.1z"
		/>
	<path class="st14" d="M278,211v27c0.1,3.8-0.6,7.5-2,11c-1,2-3,3.6-4,5L89,395c-1.5,1-3.3,1.3-5,1c-3.3-0.9-5-4-5-9v-23L278,211z"
		/>
	<polygon class="st13" points="128,355 128,347 120,353 120,361 	"/>
	<polygon class="st13" points="114,366 114,358 106,364 106,372 	"/>
	<polygon class="st13" points="100,377 100,369 92,375 92,383 	"/>
	
		<linearGradient id="SVGID_11_" gradientUnits="userSpaceOnUse" x1="336.3975" y1="89.6042" x2="349.3575" y2="72.8542" gradientTransform="matrix(-1 0 0 -1 549.94 395.97)">
		<stop  offset="0" style="stop-color:#6E768A"/>
		<stop  offset="0.12" style="stop-color:#6E768A"/>
		<stop  offset="0.26" style="stop-color:#666F84"/>
		<stop  offset="0.48" style="stop-color:#515D72"/>
		<stop  offset="0.74" style="stop-color:#2F3F55"/>
		<stop  offset="0.82" style="stop-color:#23354B"/>
	</linearGradient>
	<path class="st18" d="M140.4,356.2L168,378c0.1-5.6,2.2-10.9,6-15l54-42c1.2-0.8,2.6-1.1,4-1c1.5,0.2,3,0.9,4,2l-26-20.6
		L140.4,356.2z"/>
	<path class="st11" d="M168,378l68-52v-3c-0.4-1.4-1.6-2.6-3-3c-2.5-0.5-5.1,0.2-7,2c-18,14-32,25-50,39
		C170.5,364.9,167.5,371.3,168,378z"/>
</g>
<g id="Compu_Central">
	<rect x="418" y="242" class="st19" width="32" height="41"/>
	<rect x="449" y="249" class="st14" width="34" height="29"/>
	<path class="st11" d="M293.6,35h310.8c3.1,0,5.6,2.5,5.6,5.6v174.8c0,3.1-2.5,5.6-5.6,5.6H293.6c-3.1,0-5.6-2.5-5.6-5.6V40.6
		C288,37.5,290.5,35,293.6,35z"/>
	<path class="st14" d="M288,212h322l0,0v30.7c0,4-3.3,7.3-7.3,7.3H295.3c-4,0-7.3-3.3-7.3-7.3l0,0V212L288,212z"/>
	
		<linearGradient id="SVGID_12_" gradientUnits="userSpaceOnUse" x1="449.8948" y1="421.19" x2="448.7248" y2="313.32" gradientTransform="matrix(1 0 0 -1 0 461.89)">
		<stop  offset="0" style="stop-color:#FFFFFF"/>
		<stop  offset="0.11" style="stop-color:#ECF9F7"/>
		<stop  offset="0.7" style="stop-color:#90DAD3"/>
		<stop  offset="0.96" style="stop-color:#6BCEC4"/>
	</linearGradient>
	<path class="st20" d="M307.2,48h283.6c2.9,0,5.2,2.3,5.2,5.2v144.6c0,2.9-2.3,5.2-5.2,5.2H307.2c-2.9,0-5.2-2.3-5.2-5.2V53.2
		C302,50.3,304.3,48,307.2,48z"/>
	<path class="st21" d="M480,155h9.9c1.1,0,2.1,0.9,2.1,2.1v20.9c0,1.1-0.9,2.1-2,2.1c0,0,0,0,0,0h-9.7c-1.2,0-2.2-1-2.2-2.2l0,0
		v-20.7C478,155.9,478.9,155,480,155L480,155z"/>
	<path class="st21" d="M461.7,138h8.6c1.5,0,2.7,1.2,2.7,2.7c0,0,0,0,0,0v36.7c0,1.5-1.2,2.7-2.7,2.7l0,0h-8.5
		c-1.6,0-2.9-1.3-2.9-2.9v-36.4C459,139.2,460.2,138,461.7,138C461.6,138,461.7,138,461.7,138z"/>
	<path class="st21" d="M442.2,150h9.5c1.2,0,2.3,1,2.3,2.3l0,0v25.5c0,1.2-1,2.3-2.3,2.3l0,0h-9.3c-1.3,0-2.4-1.1-2.4-2.4v-25.3
		C440,151,441,150,442.2,150L442.2,150L442.2,150z"/>
	<path class="st21" d="M498.3,147h9.3c1.3,0,2.4,1.1,2.4,2.4v28.3c0,1.3-1.1,2.4-2.4,2.4h-9.1c-1.4,0-2.5-1.1-2.5-2.6v-28.1
		C496,148.1,497,147,498.3,147z"/>
	<path class="st21" d="M517.9,129h8.1c1.6,0,3,1.3,3,2.9c0,0,0,0,0,0v45.1c0,1.6-1.3,2.9-3,2.9l0,0h-7.9c-1.8,0-3.2-1.4-3.2-3.2
		c0,0,0,0,0,0v-44.9C515,130.3,516.3,129,517.9,129C517.9,129,517.9,129,517.9,129z"/>
	<path class="st22" d="M543.8,80h31.3c2.1,0,3.8,1.7,3.8,3.8v0.3c0,2.1-1.7,3.8-3.8,3.8h-31.3c-2.1,0-3.8-1.7-3.8-3.8v-0.3
		C540,81.7,541.7,80,543.8,80z"/>
	<path class="st22" d="M543.8,93h31.3c2.1,0,3.8,1.7,3.8,3.8v0.3c0,2.1-1.7,3.8-3.8,3.8h-31.3c-2.1,0-3.8-1.7-3.8-3.8v-0.3
		C540,94.7,541.7,93,543.8,93z"/>
	<path class="st22" d="M543.8,106h31.3c2.1,0,3.8,1.7,3.8,3.8v0.3c0,2.1-1.7,3.8-3.8,3.8h-31.3c-2.1,0-3.8-1.7-3.8-3.8v-0.3
		C540,107.7,541.7,106,543.8,106z"/>
	<path class="st11" d="M543.8,144h31.3c2.1,0,3.8,1.7,3.8,3.8v0.3c0,2.1-1.7,3.8-3.8,3.8h-31.3c-2.1,0-3.8-1.7-3.8-3.8v-0.3
		C540,145.7,541.7,144,543.8,144z"/>
	<path class="st11" d="M543.8,158h31.3c2.1,0,3.8,1.7,3.8,3.8v0.3c0,2.1-1.7,3.8-3.8,3.8h-31.3c-2.1,0-3.8-1.7-3.8-3.8v-0.3
		C540,159.7,541.7,158,543.8,158z"/>
	<path class="st22" d="M543.2,120h20.6c1.8,0,3.2,1.4,3.2,3.2v1.6c0,1.8-1.4,3.2-3.2,3.2h-20.6c-1.8,0-3.2-1.4-3.2-3.2v-1.6
		C540,121.4,541.4,120,543.2,120z"/>
	<path class="st11" d="M543.2,171h20.6c1.8,0,3.2,1.4,3.2,3.2v1.6c0,1.8-1.4,3.2-3.2,3.2h-20.6c-1.8,0-3.2-1.4-3.2-3.2v-1.6
		C540,172.4,541.4,171,543.2,171z"/>
	<line class="st23" x1="423" y1="103" x2="465.5" y2="72.5"/>
	<line class="st23" x1="465.5" y1="72.5" x2="497.5" y2="117.5"/>
	<line class="st24" x1="514.5" y1="98.5" x2="497.5" y2="117.5"/>
	<path class="st22" d="M379.5,72C408,73,428,92,429,121c0,0.5-22.8,0-49,0"/>
	<path class="st19" d="M389.8,274h120.3c2.7,0,4.9,2.2,4.9,4.9v8.3c0,2.7-2.2,4.9-4.9,4.9H389.8c-2.7,0-4.9-2.2-4.9-4.9v-8.3
		C385,276.2,387.2,274,389.8,274z"/>
	
		<image style="overflow:visible;enable-background:new    ;" width="1199" height="1135" xlink:href="1BC9B0BE.png"  transform="matrix(0.1095 0 0 0.1095 312.2105 65)">
	</image>
	<circle class="st25" cx="521" cy="90" r="13"/>
	<circle class="st21" cx="521" cy="90" r="5"/>
</g>
<g id="Detalles">
	<path class="st26" d="M483.9,433.6c-1.3,0-1.1,2,0.2,2S485.2,433.6,483.9,433.6z"/>
	<path class="st26" d="M500.3,444c-1.3,0-1.1,2,0.2,2S501.6,444,500.3,444z"/>
	<path class="st26" d="M479.5,414c-1.3,0-1.1,2,0.2,2S480.8,414,479.5,414z"/>
	<path class="st26" d="M467.5,416.8c-1.3,0-1.1,2,0.2,2S468.8,416.8,467.5,416.8z"/>
	<path class="st26" d="M564.7,417.2c-1.3,0-1.1,2,0.2,2C566.1,419.2,566,417.2,564.7,417.2z"/>
	<path class="st26" d="M596.3,379.2c-1.3,0-1.1,2,0.2,2S597.6,379.2,596.3,379.2z"/>
	<path class="st26" d="M602.7,368c-1.3,0-1.1,2,0.2,2S604,368,602.7,368z"/>
	<path class="st26" d="M589.5,359.2c-1.3,0-1.1,2,0.2,2S590.8,359.2,589.5,359.2z"/>
	<path class="st26" d="M579.5,366c-1.3,0-1.1,2,0.2,2S580.8,366,579.5,366z"/>
	<path class="st26" d="M303.9,375.6c-1.3,0-1.1,2,0.2,2S305.2,375.6,303.9,375.6z"/>
	<path class="st26" d="M303.5,366c-1.3,0-1.1,2,0.2,2S304.8,366,303.5,366z"/>
	<path class="st26" d="M284.3,388.8c-1.3,0-1.1,2,0.2,2S285.6,388.8,284.3,388.8z"/>
	<path class="st26" d="M311.9,349.6c-1.3,0-1.1,2,0.2,2S313.2,349.6,311.9,349.6z"/>
	<path class="st26" d="M306.7,350.8c-1.3,0-1.1,2,0.2,2S308,350.8,306.7,350.8z"/>
	<path class="st26" d="M308.3,346.8c-1.3,0-1.1,2,0.2,2S309.6,346.8,308.3,346.8z"/>
	<path class="st26" d="M578.3,344.4c-1.3,0-1.1,2,0.2,2S579.6,344.4,578.3,344.4z"/>
	<path class="st26" d="M674.3,300.4c-1.3,0-1.1,2,0.2,2S675.6,300.4,674.3,300.4z"/>
	<path class="st26" d="M633.1,286c-1.3,0-1.1,2,0.2,2S634.4,286,633.1,286z"/>
	<path class="st26" d="M640.3,281.2c-1.3,0-1.1,2,0.2,2S641.6,281.2,640.3,281.2z"/>
	<path class="st26" d="M634.7,274c-1.3,0-1.1,2,0.2,2S636,274,634.7,274z"/>
	<path class="st26" d="M621.1,279.6c-1.3,0-1.1,2,0.2,2S622.4,279.6,621.1,279.6z"/>
	<path class="st26" d="M594.7,262.8c-1.3,0-1.1,2,0.2,2S596,262.8,594.7,262.8z"/>
	<path class="st26" d="M572.3,260c-1.3,0-1.1,2,0.2,2S573.6,260,572.3,260z"/>
	<path class="st26" d="M296.3,274c-1.3,0-1.1,2,0.2,2S297.6,274,296.3,274z"/>
	<path class="st26" d="M314.3,263.6c-1.3,0-1.1,2,0.2,2S315.6,263.6,314.3,263.6z"/>
	<path class="st26" d="M252.7,280c-1.3,0-1.1,2,0.2,2S254,280,252.7,280z"/>
	<path class="st26" d="M248.7,291.6c-1.3,0-1.1,2,0.2,2S250,291.6,248.7,291.6z"/>
	<path class="st26" d="M284.7,186.8c-1.3,0-1.1,2,0.2,2S286,186.8,284.7,186.8z"/>
	<path class="st26" d="M566.7,20.8c-1.3,0-1.1,2,0.2,2S568,20.8,566.7,20.8z"/>
	<path class="st26" d="M321.5,20.4c-1.3,0-1.1,2,0.2,2S322.8,20.4,321.5,20.4z"/>
	<path class="st26" d="M482.3,10.8c-1.3,0-1.1,2,0.2,2S483.6,10.8,482.3,10.8z"/>
	<path class="st26" d="M484.3,6c-1.3,0-1.1,2,0.2,2S485.6,6,484.3,6z"/>
	<path class="st26" d="M555.1,14.4c-1.3,0-1.1,2,0.2,2C556.5,16.4,556.4,14.4,555.1,14.4z"/>
	<path class="st27" d="M595.2,385.3c-3.2,0-3.2,5,0,5S598.4,385.3,595.2,385.3z"/>
	<path class="st27" d="M573.6,339.3c-3.2,0-3.2,5,0,5S576.8,339.3,573.6,339.3z"/>
	<path class="st27" d="M512,429.3c-3.2,0-3.2,5,0,5C515.2,434.3,515.2,429.3,512,429.3z"/>
	<path class="st27" d="M503.6,425.7c-3.2,0-3.2,5,0,5S506.8,425.7,503.6,425.7z"/>
	<path class="st27" d="M352,423.3c-3.2,0-3.2,5,0,5S355.2,423.3,352,423.3z"/>
	<path class="st27" d="M644,299.7c-3.2,0-3.2,5,0,5S647.2,299.7,644,299.7z"/>
	<path class="st27" d="M638,284.9c-3.2,0-3.2,5,0,5S641.2,284.9,638,284.9z"/>
	<path class="st27" d="M589.2,268.5c-3.2,0-3.2,5,0,5S592.4,268.5,589.2,268.5z"/>
	<path class="st27" d="M313.2,270.5c-3.2,0-3.2,5,0,5S316.4,270.5,313.2,270.5z"/>
	<path class="st27" d="M254.8,289.3c-3.2,0-3.2,5,0,5S258,289.3,254.8,289.3z"/>
	<path class="st27" d="M236,312.1c-3.2,0-3.2,5,0,5S239.2,312.1,236,312.1z"/>
	<path class="st27" d="M283.2,170.9c-3.2,0-3.2,5,0,5S286.4,170.9,283.2,170.9z"/>
	<path class="st27" d="M555.2,20.1c-3.2,0-3.2,5,0,5C558.4,25.1,558.4,20.1,555.2,20.1z"/>
	<path class="st27" d="M490,8.1c-3.2,0-3.2,5,0,5S493.2,8.1,490,8.1z"/>
	<path class="st27" d="M363.2,23.3c-3.2,0-3.2,5,0,5S366.4,23.3,363.2,23.3z"/>
	<path class="st28" d="M604.8,381.4c-5.2,0-5.2,8,0,8S610,381.4,604.8,381.4z"/>
	<path class="st28" d="M505.2,433.8c-5.1,0-5.2,8,0,8S510.3,433.8,505.2,433.8z"/>
	<path class="st28" d="M288.8,394.2c-5.1,0-5.2,8,0,8S294,394.2,288.8,394.2z"/>
	<path class="st28" d="M261.2,279c-5.1,0-5.2,8,0,8S266.3,279,261.2,279z"/>
	<path class="st28" d="M305.2,257.4c-5.1,0-5.2,8,0,8C310.3,265.4,310.3,257.4,305.2,257.4z"/>
	<path class="st28" d="M586.4,257c-5.2,0-5.2,8,0,8S591.5,257,586.4,257z"/>
	<path class="st28" d="M658.4,295.8c-5.2,0-5.2,8,0,8S663.5,295.8,658.4,295.8z"/>
	<path class="st28" d="M547.2,23.8c-5.1,0-5.2,8,0,8C552.3,31.8,552.3,23.8,547.2,23.8z"/>
	<path class="st28" d="M325.2,23.9c-4.5,0-4.5,7,0,7S329.7,23.9,325.2,23.9z"/>
	<path class="st28" d="M282.8,178.5c-3.2,0-3.2,5,0,5S286,178.5,282.8,178.5z"/>
	<path class="st28" d="M242.8,307.3c-3.2,0-3.2,5,0,5S246,307.3,242.8,307.3z"/>
</g>
</svg>
