<?xml version="1.0" encoding="utf-8"?>
<!-- Generator: Adobe Illustrator 23.0.5, SVG Export Plug-In . SVG Version: 6.00 Build 0)  -->
<svg version="1.1" id="Capa_1" xmlns="http://www.w3.org/2000/svg" xmlns:xlink="http://www.w3.org/1999/xlink" x="0px" y="0px"
	 viewBox="0 0 846.5 531.5" style="enable-background:new 0 0 846.5 531.5;" xml:space="preserve">
<style type="text/css">
	.st0{fill:url(#SVGID_1_);}
	.st1{opacity:0.9;fill:#6BCEC4;enable-background:new    ;}
	.st2{opacity:0.7;}
	.st3{fill:none;stroke:#F1F1F1;stroke-width:3;stroke-miterlimit:10;stroke-dasharray:25.18,25.18;}
	.st4{fill:none;stroke:#FF9930;stroke-width:3;stroke-miterlimit:10;stroke-dasharray:25.53,25.53;}
	.st5{opacity:0.7;fill:none;stroke:#F1F1F1;stroke-width:3;stroke-miterlimit:10;stroke-dasharray:25;enable-background:new    ;}
	.st6{opacity:0.7;fill:none;stroke:#FF9930;stroke-width:3;stroke-miterlimit:10;stroke-dasharray:20;enable-background:new    ;}
	.st7{fill:none;stroke:#23354B;stroke-miterlimit:10;}
	.st8{fill:url(#SVGID_2_);}
	.st9{fill:url(#SVGID_3_);}
	.st10{fill:url(#SVGID_4_);}
	.st11{fill:#22ABA2;}
	.st12{fill:#7FD1CC;}
	.st13{fill:url(#SVGID_5_);}
	.st14{fill:url(#SVGID_6_);}
	.st15{fill:url(#SVGID_7_);}
	.st16{fill:url(#SVGID_8_);}
	.st17{fill:url(#SVGID_9_);}
	.st18{fill:url(#SVGID_10_);}
	.st19{fill:url(#SVGID_11_);}
	.st20{fill:none;stroke:#E4007C;stroke-width:3;stroke-miterlimit:10;}
	.st21{fill:url(#SVGID_12_);}
	.st22{fill:url(#SVGID_13_);}
	.st23{fill:url(#SVGID_14_);}
	.st24{fill:url(#SVGID_15_);}
	.st25{fill:url(#SVGID_16_);}
	.st26{fill:url(#SVGID_17_);}
	.st27{fill:url(#SVGID_18_);}
	.st28{fill:url(#SVGID_19_);}
	.st29{fill:#BCDCEE;}
	.st30{fill:#B5DCEE;}
	.st31{fill:url(#SVGID_20_);}
	.st32{fill:url(#SVGID_21_);}
	.st33{fill:url(#SVGID_22_);}
	.st34{fill:url(#SVGID_23_);}
	.st35{fill:#CFEAF5;}
	.st36{fill:#D5E3EE;}
	.st37{fill:#D5E3EF;}
	.st38{opacity:0.2;}
	.st39{opacity:0.7;fill:#99DED7;enable-background:new    ;}
	.st40{opacity:0.7;fill:#33CAF9;enable-background:new    ;}
	.st41{opacity:0.7;fill:#C3CBCD;enable-background:new    ;}
	.st42{opacity:0.7;fill:#F1F1F1;enable-background:new    ;}
	.st43{fill:#F1F1F1;}
	.st44{opacity:0.9;}
	.st45{fill:#FFFFFF;}
	.st46{fill:#D0D0D0;}
	.st47{fill:#DEDEE6;}
	.st48{fill:#F3F3FB;}
	.st49{fill:url(#SVGID_24_);}
	.st50{fill:url(#SVGID_25_);}
	.st51{fill:url(#SVGID_26_);}
	.st52{fill:url(#SVGID_27_);}
	.st53{fill:url(#SVGID_28_);}
	.st54{fill:url(#SVGID_29_);}
	.st55{fill:url(#SVGID_30_);}
	.st56{fill:url(#SVGID_31_);}
	.st57{fill:url(#SVGID_32_);}
	.st58{fill:url(#SVGID_33_);}
	.st59{fill:url(#SVGID_34_);}
	.st60{fill:#D4DDDE;}
	.st61{fill:url(#SVGID_35_);}
	.st62{fill:url(#SVGID_36_);}
	.st63{fill:url(#SVGID_37_);}
	.st64{fill:url(#SVGID_38_);}
	.st65{fill:#C6AEDC;}
	.st66{fill:url(#SVGID_39_);}
	.st67{fill:url(#SVGID_40_);}
	.st68{fill:url(#SVGID_41_);}
	.st69{fill:url(#SVGID_42_);}
	.st70{fill:#415179;}
	.st71{fill:#243666;}
	.st72{fill:none;stroke:#B4A9CA;stroke-width:4.16;stroke-linecap:round;stroke-miterlimit:10;}
</style>
<title>IGI_LandingS5_GRAVITAS (LISTO)</title>
<g id="Fondo">
	
		<radialGradient id="SVGID_1_" cx="677.8228" cy="643.4635" r="420.3199" gradientTransform="matrix(1.000000e-02 1 1.47 -1.000000e-02 -533.4583 -627.3111)" gradientUnits="userSpaceOnUse">
		<stop  offset="5.000000e-02" style="stop-color:#0FA69A"/>
		<stop  offset="0.12" style="stop-color:#1A949F"/>
		<stop  offset="0.27" style="stop-color:#3664AD"/>
		<stop  offset="0.31" style="stop-color:#3E56B1"/>
		<stop  offset="0.39" style="stop-color:#3750A7"/>
		<stop  offset="0.54" style="stop-color:#25408E"/>
		<stop  offset="0.57" style="stop-color:#223D89"/>
		<stop  offset="0.6" style="stop-color:#223B7C"/>
		<stop  offset="0.7" style="stop-color:#233758"/>
		<stop  offset="0.75" style="stop-color:#23354B"/>
		<stop  offset="0.8" style="stop-color:#2B3355"/>
		<stop  offset="0.87" style="stop-color:#3F2E72"/>
		<stop  offset="0.97" style="stop-color:#60259F"/>
		<stop  offset="1" style="stop-color:#6D22B0"/>
	</radialGradient>
	<ellipse class="st0" cx="421.4" cy="261" rx="252.3" ry="232.3"/>
	<g>
		<ellipse class="st1" cx="422" cy="254.9" rx="133.3" ry="125"/>
	</g>
	<g class="st2">
		<ellipse class="st3" cx="420.7" cy="263.9" rx="216" ry="200.7"/>
	</g>
	<g class="st2">
		<ellipse class="st4" cx="422.4" cy="256.6" rx="133" ry="127"/>
	</g>
	<ellipse class="st5" cx="422.7" cy="253.9" rx="79" ry="76"/>
	<circle class="st6" cx="422.7" cy="254.3" r="35"/>
	<line class="st7" x1="424.7" y1="268.4" x2="444" y2="315.6"/>
	<line class="st7" x1="421.7" y1="268.5" x2="402" y2="315.5"/>
	
		<linearGradient id="SVGID_2_" gradientUnits="userSpaceOnUse" x1="420.6101" y1="238.2083" x2="425.6602" y2="238.1183" gradientTransform="matrix(1 0 0 -1 0 531.89)">
		<stop  offset="0" style="stop-color:#0FA69A"/>
		<stop  offset="0.32" style="stop-color:#1A676E"/>
		<stop  offset="0.6" style="stop-color:#23354B"/>
	</linearGradient>
	<path class="st8" d="M423,267.1L423,267.1c1.2,0,2.1,0.9,2.1,2.1v49.1c0,1.2-0.9,2.1-2.1,2.1h0c-1.2,0-2.1-0.9-2.1-2.1v-49.1
		C420.9,268,421.9,267.1,423,267.1z"/>
	<line class="st7" x1="413.8" y1="287.5" x2="428.5" y2="277.5"/>
	<line class="st7" x1="418" y1="276.8" x2="432.7" y2="288"/>
	<line class="st7" x1="410.9" y1="295.1" x2="432.7" y2="288"/>
	<line class="st7" x1="435.4" y1="295.1" x2="413.8" y2="287.5"/>
	<line class="st7" x1="402" y1="315.5" x2="435.4" y2="295.1"/>
	<line class="st7" x1="444" y1="315.6" x2="410.9" y2="295.1"/>
	
		<linearGradient id="SVGID_3_" gradientUnits="userSpaceOnUse" x1="428.2001" y1="266.69" x2="418.1101" y2="297.1" gradientTransform="matrix(1 0 0 -1 0 531.89)">
		<stop  offset="0" style="stop-color:#E37D63"/>
		<stop  offset="0.24" style="stop-color:#E99A5F"/>
		<stop  offset="0.75" style="stop-color:#F5D458"/>
		<stop  offset="1" style="stop-color:#FAEA55"/>
	</linearGradient>
	<ellipse class="st9" cx="423.9" cy="252.2" rx="17.9" ry="17.7"/>
</g>
<g id="Domo">
	
		<linearGradient id="SVGID_4_" gradientUnits="userSpaceOnUse" x1="305.7829" y1="153.8043" x2="305.5129" y2="105.3523" gradientTransform="matrix(1 0 0 -1 0 531.89)">
		<stop  offset="0" style="stop-color:#C5DEE0"/>
		<stop  offset="0.31" style="stop-color:#BBDCDC"/>
		<stop  offset="0.86" style="stop-color:#9FD5D3"/>
		<stop  offset="1" style="stop-color:#96D3D0"/>
	</linearGradient>
	<polygon class="st10" points="278,388 302.3,426.5 333.5,378.2 	"/>
	<polygon class="st11" points="332,486.2 393.2,486.2 362.2,425.4 	"/>
	<polygon class="st11" points="450.5,486 511.6,486 480.6,425.1 	"/>
	<polygon class="st11" points="509.9,485.8 571,485.8 540,425 	"/>
	<path class="st11" d="M272.6,485.1c-6.5-13.3-12.9-26.7-19.4-40c-1.1,5.2-2.1,10.9-2.9,17.1c-0.9,7.7-1.3,15.5-1.1,23.2
		L272.6,485.1z"/>
	<path class="st11" d="M568.6,486.8l21.7-41.1c1.6,6.4,2.8,13,3.5,19.5c0.7,7,0.9,14,0.6,21L568.6,486.8z"/>
	<polygon class="st12" points="302.5,425.4 332.3,486.2 362.2,425.4 	"/>
	<polygon class="st12" points="362.2,425.4 392,486.2 421.7,425.4 	"/>
	<polygon class="st12" points="421.4,425.4 451.2,486.2 480.9,425.4 	"/>
	<polygon class="st12" points="480.5,425.4 510.3,486.2 540.1,425.4 	"/>
	<path class="st12" d="M272.9,485.9l30.3-60.6h-44.5c-0.8,2.7-1.5,5.4-2.3,8.1c-1.1,4-2.2,8-3.2,11.9L272.9,485.9z"/>
	<path class="st12" d="M540,425.4l30,59.2l20.3-38c-0.7-4.4-1.7-8.7-3.2-12.9c-1-2.8-2.1-5.6-3.4-8.3L540,425.4z"/>
	<polygon class="st11" points="272.3,486.2 333.5,486.2 302.5,425.4 	"/>
	
		<linearGradient id="SVGID_5_" gradientUnits="userSpaceOnUse" x1="391.8417" y1="114.69" x2="392.1617" y2="153.95" gradientTransform="matrix(1 0 0 -1 0 531.89)">
		<stop  offset="0" style="stop-color:#45B6B1"/>
		<stop  offset="1" style="stop-color:#8FD0D0"/>
	</linearGradient>
	<polygon class="st13" points="362.2,425.4 421.4,425.4 391.5,378.2 	"/>
	
		<linearGradient id="SVGID_6_" gradientUnits="userSpaceOnUse" x1="450.9817" y1="114.26" x2="451.3016" y2="153.52" gradientTransform="matrix(1 0 0 -1 0 531.89)">
		<stop  offset="0" style="stop-color:#45B6B1"/>
		<stop  offset="1" style="stop-color:#8FD0D0"/>
	</linearGradient>
	<polygon class="st14" points="421.3,425.8 480.5,425.8 450.6,378.7 	"/>
	
		<linearGradient id="SVGID_7_" gradientUnits="userSpaceOnUse" x1="510.6946" y1="114.55" x2="511.0046" y2="153.8101" gradientTransform="matrix(1 0 0 -1 0 531.89)">
		<stop  offset="0" style="stop-color:#45B6B1"/>
		<stop  offset="1" style="stop-color:#8FD0D0"/>
	</linearGradient>
	<polygon class="st15" points="481,425.5 540.2,425.5 510.3,378.4 	"/>
	
		<linearGradient id="SVGID_8_" gradientUnits="userSpaceOnUse" x1="690.004" y1="98.46" x2="690.264" y2="129.76" gradientTransform="matrix(1 0 0 -1 -127.96 517.44)">
		<stop  offset="0" style="stop-color:#45B6B1"/>
		<stop  offset="1" style="stop-color:#8FD0D0"/>
	</linearGradient>
	<path class="st16" d="M540.2,425.5c8.2-12.5,16.4-25,24.7-37.6c3.7,5.8,7,11.8,10,18c3.3,6.3,6.3,12.8,8.8,19.4L540.2,425.5z"/>
	
		<linearGradient id="SVGID_9_" gradientUnits="userSpaceOnUse" x1="361.9009" y1="153.8125" x2="361.6409" y2="106.5132" gradientTransform="matrix(1 0 0 -1 0 531.89)">
		<stop  offset="0" style="stop-color:#C5DEE0"/>
		<stop  offset="0.31" style="stop-color:#BBDCDC"/>
		<stop  offset="0.86" style="stop-color:#9FD5D3"/>
		<stop  offset="1" style="stop-color:#96D3D0"/>
	</linearGradient>
	<polygon class="st17" points="332.3,378.2 362.2,425.4 391.5,378.2 	"/>
	
		<linearGradient id="SVGID_10_" gradientUnits="userSpaceOnUse" x1="400.054" y1="90.0254" x2="438.254" y2="40.0054" gradientTransform="matrix(1 0 0 -1 0 531.89)">
		<stop  offset="0" style="stop-color:#FBE910"/>
		<stop  offset="0.24" style="stop-color:#FCD31A"/>
		<stop  offset="0.89" style="stop-color:#FF9A32"/>
		<stop  offset="1" style="stop-color:#FF9833"/>
	</linearGradient>
	<path class="st18" d="M421.4,425.4L421.4,425.4c16.6,0,30,13.4,30,30l0,0v32.9c0,9.7-7.8,17.7-17.6,17.7c0,0,0,0-0.1,0H409
		c-9.7,0-17.6-7.9-17.6-17.6l0,0v-33C391.4,438.8,404.8,425.4,421.4,425.4L421.4,425.4L421.4,425.4z"/>
	
		<linearGradient id="SVGID_11_" gradientUnits="userSpaceOnUse" x1="421.7586" y1="44.15" x2="421.4986" y2="-3.67" gradientTransform="matrix(1 0 0 -1 0 531.89)">
		<stop  offset="0" style="stop-color:#F1F1F1"/>
		<stop  offset="1" style="stop-color:#E2E2E2"/>
	</linearGradient>
	<rect x="248.8" y="487.5" class="st19" width="345.6" height="44"/>
	<line class="st20" x1="248.9" y1="486.2" x2="594.7" y2="486.2"/>
	
		<linearGradient id="SVGID_12_" gradientUnits="userSpaceOnUse" x1="537.4957" y1="153.4999" x2="537.2358" y2="105.9551" gradientTransform="matrix(1 0 0 -1 0 531.89)">
		<stop  offset="0" style="stop-color:#C5DEE0"/>
		<stop  offset="0.31" style="stop-color:#BBDCDC"/>
		<stop  offset="0.86" style="stop-color:#9FD5D3"/>
		<stop  offset="1" style="stop-color:#96D3D0"/>
	</linearGradient>
	<polygon class="st21" points="510,378.2 540,426 564.9,388 	"/>
	
		<linearGradient id="SVGID_13_" gradientUnits="userSpaceOnUse" x1="408.5823" y1="98.5701" x2="408.8323" y2="129.7101" gradientTransform="matrix(1 0 0 -1 -127.96 517.44)">
		<stop  offset="0" style="stop-color:#45B6B1"/>
		<stop  offset="1" style="stop-color:#8FD0D0"/>
	</linearGradient>
	<path class="st22" d="M302.5,425.4L278,387.9c-8.3,11.4-14.9,24-19.4,37.4H302.5z"/>
	
		<linearGradient id="SVGID_14_" gradientUnits="userSpaceOnUse" x1="332.6946" y1="114.69" x2="333.0046" y2="153.95" gradientTransform="matrix(1 0 0 -1 0 531.89)">
		<stop  offset="0" style="stop-color:#45B6B1"/>
		<stop  offset="1" style="stop-color:#8FD0D0"/>
	</linearGradient>
	<polygon class="st23" points="303,425.4 362.2,425.4 332.3,378.2 	"/>
	
		<linearGradient id="SVGID_15_" gradientUnits="userSpaceOnUse" x1="361.7055" y1="178.5099" x2="362.5155" y2="152.1699" gradientTransform="matrix(1 0 0 -1 0 531.89)">
		<stop  offset="0" style="stop-color:#E0F2F2"/>
		<stop  offset="1" style="stop-color:#9BD4D5"/>
	</linearGradient>
	<polygon class="st24" points="333.5,378.2 391.5,378.2 362.3,343.4 	"/>
	
		<linearGradient id="SVGID_16_" gradientUnits="userSpaceOnUse" x1="479.6289" y1="178.67" x2="480.4489" y2="151.99" gradientTransform="matrix(1 0 0 -1 0 531.89)">
		<stop  offset="0" style="stop-color:#E0F2F2"/>
		<stop  offset="1" style="stop-color:#9BD4D5"/>
	</linearGradient>
	<polygon class="st25" points="450.5,378.2 510.3,378.4 480,343.1 	"/>
	
		<linearGradient id="SVGID_17_" gradientUnits="userSpaceOnUse" x1="419.9508" y1="182.15" x2="420.8808" y2="151.93" gradientTransform="matrix(1 0 0 -1 0 531.89)">
		<stop  offset="0" style="stop-color:#E0F2F2"/>
		<stop  offset="1" style="stop-color:#9BD4D5"/>
	</linearGradient>
	<polygon class="st26" points="391.5,378.2 450.2,378.4 421.5,338.2 	"/>
	
		<linearGradient id="SVGID_18_" gradientUnits="userSpaceOnUse" x1="664.9645" y1="154.2701" x2="665.7645" y2="128.0701" gradientTransform="matrix(1 0 0 -1 -127.96 517.44)">
		<stop  offset="0" style="stop-color:#E0F2F2"/>
		<stop  offset="1" style="stop-color:#9BD4D5"/>
	</linearGradient>
	<path class="st27" d="M510.3,378.4l54.6,9.6c-9.4-12.7-20.2-24.3-32.3-34.6L510.3,378.4z"/>
	
		<linearGradient id="SVGID_19_" gradientUnits="userSpaceOnUse" x1="432.8007" y1="154.72" x2="433.5607" y2="129.77" gradientTransform="matrix(1 0 0 -1 -127.96 517.44)">
		<stop  offset="0" style="stop-color:#E0F2F2"/>
		<stop  offset="1" style="stop-color:#9BD4D5"/>
	</linearGradient>
	<path class="st28" d="M332.9,378.8l-54.9,9.1c8.6-13.5,19.7-25.3,32.6-34.9C317.9,361.5,325.7,370.4,332.9,378.8z"/>
	<polygon class="st29" points="362.3,343.4 391.5,378.2 421.5,338.2 	"/>
	<polygon class="st30" points="421.5,338.2 450.3,379.7 480,343.1 	"/>
	
		<linearGradient id="SVGID_20_" gradientUnits="userSpaceOnUse" x1="480.3309" y1="153.8165" x2="480.071" y2="106.0833" gradientTransform="matrix(1 0 0 -1 0 531.89)">
		<stop  offset="0" style="stop-color:#C5DEE0"/>
		<stop  offset="0.31" style="stop-color:#BBDCDC"/>
		<stop  offset="0.86" style="stop-color:#9FD5D3"/>
		<stop  offset="1" style="stop-color:#96D3D0"/>
	</linearGradient>
	<polygon class="st31" points="449.8,378.2 480.7,425.8 510.9,378.2 	"/>
	
		<linearGradient id="SVGID_21_" gradientUnits="userSpaceOnUse" x1="421.3309" y1="153.8132" x2="421.0709" y2="106.2233" gradientTransform="matrix(1 0 0 -1 0 531.89)">
		<stop  offset="0" style="stop-color:#C5DEE0"/>
		<stop  offset="0.31" style="stop-color:#BBDCDC"/>
		<stop  offset="0.86" style="stop-color:#9FD5D3"/>
		<stop  offset="1" style="stop-color:#96D3D0"/>
	</linearGradient>
	<polygon class="st32" points="391.5,378.2 421.7,425.7 451.2,378.2 	"/>
	
		<linearGradient id="SVGID_22_" gradientUnits="userSpaceOnUse" x1="506.3584" y1="188.6401" x2="506.1585" y2="153.5338" gradientTransform="matrix(1 0 0 -1 0 531.89)">
		<stop  offset="0" style="stop-color:#C5DEE0"/>
		<stop  offset="0.31" style="stop-color:#BBDCDC"/>
		<stop  offset="0.86" style="stop-color:#9FD5D3"/>
		<stop  offset="1" style="stop-color:#96D3D0"/>
	</linearGradient>
	<polygon class="st33" points="480,343.1 510.3,378.4 532.6,353.4 	"/>
	
		<linearGradient id="SVGID_23_" gradientUnits="userSpaceOnUse" x1="336.5031" y1="188.6551" x2="336.3031" y2="153.0609" gradientTransform="matrix(1 0 0 -1 0 531.89)">
		<stop  offset="0" style="stop-color:#C5DEE0"/>
		<stop  offset="0.31" style="stop-color:#BBDCDC"/>
		<stop  offset="0.86" style="stop-color:#9FD5D3"/>
		<stop  offset="1" style="stop-color:#96D3D0"/>
	</linearGradient>
	<polygon class="st34" points="310.6,353.1 332.9,378.8 362.3,343.4 	"/>
	<path class="st35" d="M480,343.1l52.6,10.3c-10.6-9.9-22.9-17.8-36.3-23.4L480,343.1z"/>
	<polyline class="st35" points="421.5,338.2 362.3,343.4 395.2,315.4 421.5,338.2 449.5,315.7 480,343.1 421.5,338.2 	"/>
	<path class="st35" d="M362.3,343.4l-15.4-13.7c-13,6.3-25.2,14.1-36.3,23.4L362.3,343.4z"/>
	<path class="st36" d="M449.5,315.7l30.6,27.4l16.3-13.1C481.7,322.5,465.8,317.6,449.5,315.7z"/>
	<path class="st36" d="M346.9,329.7l15.4,13.7l32.9-28c-5.9,0.8-11.7,2-17.4,3.4C367.2,321.5,356.8,325.1,346.9,329.7z"/>
	<path class="st37" d="M395.2,315.4l26.3,22.9l28-22.6c-7.2-1.5-16.8-1.9-27.1-2C411.5,313.5,402.7,313.9,395.2,315.4z"/>
</g>
<g id="Sombreado" class="st38">
	
		<image style="overflow:visible;enable-background:new    ;" width="760" height="376" id="Capa_2_Imagen" xlink:href="D5D80509.png"  transform="matrix(0.7181 0 0 0.7181 150.3677 42.52)">
	</image>
</g>
<g id="puntos" class="st2">
	<path class="st39" d="M688.7,176.6c-5.2,0-5.2,8,0,8S693.9,176.6,688.7,176.6z"/>
	<path class="st39" d="M663.4,118.6c-5.1,0-5.2,8,0,8S668.5,118.6,663.4,118.6z"/>
	<path class="st39" d="M198.7,79.3c-5.1,0-5.2,8,0,8S203.9,79.3,198.7,79.3z"/>
	<path class="st39" d="M172,118.6c-5.1,0-5.2,8,0,8S177.2,118.6,172,118.6z"/>
	<path class="st40" d="M689.4,193.3c-2.6,0-2.6,4,0,4S692,193.3,689.4,193.3z"/>
	<path class="st40" d="M679.4,185.3c-2.6,0-2.6,4,0,4S682,185.3,679.4,185.3z"/>
	<path class="st40" d="M670,129.9c-2.6,0-2.6,4,0,4S672.6,129.9,670,129.9z"/>
	<path class="st40" d="M649.4,120.6c-2.6,0-2.6,4,0,4S652,120.6,649.4,120.6z"/>
	<path class="st40" d="M646.7,114.6c-2.6,0-2.6,4,0,4S649.3,114.6,646.7,114.6z"/>
	<path class="st40" d="M203.4,92.6c-2.6,0-2.6,4,0,4S206,92.6,203.4,92.6z"/>
	<path class="st40" d="M192.7,91.3c-2.6,0-2.6,4,0,4S195.3,91.3,192.7,91.3z"/>
	<path class="st40" d="M643.4,269.3c-2.6,0-2.6,4,0,4S646,269.3,643.4,269.3z"/>
	<path class="st40" d="M604.7,379.9c-2.6,0-2.6,4,0,4S607.3,379.9,604.7,379.9z"/>
	<path class="st40" d="M608,388.6c-2.6,0-2.6,4,0,4S610.6,388.6,608,388.6z"/>
	<path class="st40" d="M600,405.9c-2.6,0-2.6,4,0,4S602.6,405.9,600,405.9z"/>
	<path class="st40" d="M202,301.9c-2.6,0-2.6,4,0,4S204.6,301.9,202,301.9z"/>
	<path class="st40" d="M190.7,301.3c-2.6,0-2.6,4,0,4S193.3,301.3,190.7,301.3z"/>
	<path class="st40" d="M476.7,80.6c-2.6,0-2.6,4,0,4S479.3,80.6,476.7,80.6z"/>
	<path class="st40" d="M558,195.9c-2.6,0-2.6,4,0,4S560.6,195.9,558,195.9z"/>
	<path class="st40" d="M602.7,195.3c-2.6,0-2.6,4,0,4S605.3,195.3,602.7,195.3z"/>
	<path class="st40" d="M259.4,371.3c-2.6,0-2.6,4,0,4S262,371.3,259.4,371.3z"/>
	<path class="st41" d="M598,356.6c-2.6,0-2.6,4,0,4S600.6,356.6,598,356.6z"/>
	<path class="st41" d="M554,201.9c-2.6,0-2.6,4,0,4S556.6,201.9,554,201.9z"/>
	<path class="st41" d="M599.4,203.3c-2.6,0-2.6,4,0,4S602,203.3,599.4,203.3z"/>
	<path class="st41" d="M563.4,89.9c-2.6,0-2.6,4,0,4S566,89.9,563.4,89.9z"/>
	<path class="st41" d="M524,273.3c-2.6,0-2.6,4,0,4C526.6,277.3,526.6,273.3,524,273.3z"/>
	<path class="st41" d="M515.4,275.9c-2.6,0-2.6,4,0,4S518,275.9,515.4,275.9z"/>
	<path class="st41" d="M256,115.9c-2.6,0-2.6,4,0,4C258.6,119.9,258.6,115.9,256,115.9z"/>
	<path class="st41" d="M240,220.6c-2.6,0-2.6,4,0,4S242.6,220.6,240,220.6z"/>
	<path class="st41" d="M290,183.9c-2.6,0-2.6,4,0,4S292.6,183.9,290,183.9z"/>
	<path class="st41" d="M200.7,291.3c-2.6,0-2.6,4,0,4S203.3,291.3,200.7,291.3z"/>
	<path class="st41" d="M192.7,311.9c-2.6,0-2.6,4,0,4S195.3,311.9,192.7,311.9z"/>
	<path class="st41" d="M259.4,379.9c-2.6,0-2.6,4,0,4S262,379.9,259.4,379.9z"/>
	<path class="st41" d="M265.4,377.3c-2.6,0-2.6,4,0,4S268,377.3,265.4,377.3z"/>
	<path class="st41" d="M380.7,167.3c-2.6,0-2.6,4,0,4S383.3,167.3,380.7,167.3z"/>
	<path class="st41" d="M594,262.1c-0.3,0-0.5,0.2-0.5,0.5s0.2,0.5,0.5,0.5s0.5-0.2,0.5-0.5S594.3,262.1,594,262.1z"/>
	<path class="st41" d="M572.3,273.5c0.1-0.5-0.2-1.1-0.7-1.2c-0.1,0-0.1,0-0.2,0c-0.6,0-1,0.4-1,1s0.4,1,1,1c0.1,0,0.2,0,0.3,0
		c0.1,0.1,0.2,0.2,0.4,0.2c0.3,0,0.5-0.2,0.5-0.5C572.5,273.8,572.4,273.6,572.3,273.5z"/>
	<path class="st41" d="M608,286.1c-0.3,0-0.5,0.2-0.5,0.5s0.2,0.5,0.5,0.5s0.5-0.2,0.5-0.5S608.3,286.1,608,286.1z"/>
	<path class="st41" d="M550.7,338.9c-0.6,0-1,0.4-1,1s0.4,1,1,1s1-0.4,1-1S551.3,338.9,550.7,338.9z"/>
	<path class="st41" d="M546,334.3c-0.6,0-1,0.4-1,1s0.4,1,1,1s1-0.4,1-1S546.6,334.3,546,334.3z"/>
	<path class="st41" d="M596,260.3c-0.6,0-1,0.4-1,1s0.4,1,1,1s1-0.4,1-1S596.6,260.3,596,260.3z"/>
	<path class="st41" d="M608,215.6c-0.6,0-1,0.4-1,1s0.4,1,1,1s1-0.4,1-1S608.6,215.6,608,215.6z"/>
	<path class="st41" d="M600,176.9c-0.6,0-1,0.4-1,1s0.4,1,1,1s1-0.4,1-1S600.6,176.9,600,176.9z"/>
	<path class="st41" d="M581.4,178.3c-0.6,0-1,0.4-1,1s0.4,1,1,1s1-0.4,1-1S581.9,178.3,581.4,178.3z"/>
	<path class="st41" d="M590.7,168.3c-0.6,0-1,0.4-1,1s0.4,1,1,1s1-0.4,1-1S591.3,168.3,590.7,168.3z"/>
	<path class="st41" d="M572,180.9c-0.6,0-1,0.4-1,1s0.4,1,1,1s1-0.4,1-1S572.6,180.9,572,180.9z"/>
	<path class="st41" d="M572,166.3c-0.6,0-1,0.4-1,1s0.4,1,1,1s1-0.4,1-1S572.6,166.3,572,166.3z"/>
	<path class="st41" d="M548,186.3c-0.6,0-1,0.4-1,1s0.4,1,1,1s1-0.4,1-1S548.6,186.3,548,186.3z"/>
	<path class="st41" d="M604.7,132.3c-0.6,0-1,0.4-1,1s0.4,1,1,1s1-0.4,1-1S605.3,132.3,604.7,132.3z"/>
	<path class="st41" d="M508,320.9c-0.6,0-1,0.4-1,1s0.4,1,1,1s1-0.4,1-1S508.6,320.9,508,320.9z"/>
	<path class="st41" d="M501.4,310.9c-0.6,0-1,0.4-1,1s0.4,1,1,1s1-0.4,1-1S501.9,310.9,501.4,310.9z"/>
	<path class="st41" d="M499.4,303.6c-0.6,0-1,0.4-1,1s0.4,1,1,1s1-0.4,1-1S499.9,303.6,499.4,303.6z"/>
	<path class="st41" d="M504.7,304.9c-0.6,0-1,0.4-1,1s0.4,1,1,1s1-0.4,1-1S505.3,304.9,504.7,304.9z"/>
	<path class="st41" d="M533.4,174.3c-0.6,0-1,0.4-1,1s0.4,1,1,1c0.6,0,1-0.4,1-1S533.9,174.3,533.4,174.3z"/>
	<path class="st41" d="M534,168.3c-0.6,0-1,0.4-1,1s0.4,1,1,1s1-0.4,1-1S534.6,168.3,534,168.3z"/>
	<path class="st41" d="M517.4,154.3c-0.6,0-1,0.4-1,1s0.4,1,1,1c0.6,0,1-0.4,1-1S517.9,154.3,517.4,154.3z"/>
	<path class="st41" d="M525.4,134.9c-0.6,0-1,0.4-1,1s0.4,1,1,1c0.6,0,1-0.4,1-1S525.9,134.9,525.4,134.9z"/>
	<path class="st41" d="M504,140.9c-0.6,0-1,0.4-1,1s0.4,1,1,1s1-0.4,1-1S504.6,140.9,504,140.9z"/>
	<path class="st41" d="M504.7,136.3c-0.6,0-1,0.4-1,1s0.4,1,1,1s1-0.4,1-1S505.3,136.3,504.7,136.3z"/>
	<path class="st41" d="M522,190.9c-0.6,0-1,0.4-1,1s0.4,1,1,1c0.6,0,1-0.4,1-1S522.6,190.9,522,190.9z"/>
	<path class="st41" d="M512.7,192.3c-0.6,0-1,0.4-1,1s0.4,1,1,1c0.6,0,1-0.4,1-1S513.3,192.3,512.7,192.3z"/>
	<path class="st41" d="M485.4,212.9c-0.6,0-1,0.4-1,1s0.4,1,1,1s1-0.4,1-1S485.9,212.9,485.4,212.9z"/>
	<path class="st41" d="M474.7,222.9c-0.6,0-1,0.4-1,1s0.4,1,1,1s1-0.4,1-1S475.3,222.9,474.7,222.9z"/>
	<path class="st41" d="M457.4,176.9c-0.6,0-1,0.4-1,1s0.4,1,1,1s1-0.4,1-1S457.9,176.9,457.4,176.9z"/>
	<path class="st41" d="M460,169.6c-0.6,0-1,0.4-1,1s0.4,1,1,1s1-0.4,1-1S460.6,169.6,460,169.6z"/>
	<path class="st41" d="M454,157.6c-0.6,0-1,0.4-1,1s0.4,1,1,1s1-0.4,1-1S454.6,157.6,454,157.6z"/>
	<path class="st41" d="M445.4,158.3c-0.6,0-1,0.4-1,1s0.4,1,1,1s1-0.4,1-1S445.9,158.3,445.4,158.3z"/>
	<path class="st41" d="M448.7,151.6c-0.6,0-1,0.4-1,1s0.4,1,1,1s1-0.4,1-1S449.3,151.6,448.7,151.6z"/>
	<path class="st41" d="M405.4,164.3c-0.6,0-1,0.4-1,1s0.4,1,1,1s1-0.4,1-1S405.9,164.3,405.4,164.3z"/>
	<path class="st41" d="M404,158.3c-0.6,0-1,0.4-1,1s0.4,1,1,1s1-0.4,1-1S404.6,158.3,404,158.3z"/>
	<path class="st41" d="M410.7,156.9c-0.6,0-1,0.4-1,1s0.4,1,1,1s1-0.4,1-1S411.3,156.9,410.7,156.9z"/>
	<path class="st41" d="M414,148.9c-0.6,0-1,0.4-1,1s0.4,1,1,1s1-0.4,1-1S414.6,148.9,414,148.9z"/>
	<path class="st41" d="M392.7,161.6c-0.6,0-1,0.4-1,1s0.4,1,1,1s1-0.4,1-1S393.3,161.6,392.7,161.6z"/>
	<path class="st41" d="M377.4,226.3c-0.6,0-1,0.4-1,1s0.4,1,1,1s1-0.4,1-1S377.9,226.3,377.4,226.3z"/>
	<path class="st41" d="M374.7,226.9c-0.6,0-1,0.4-1,1s0.4,1,1,1s1-0.4,1-1S375.3,226.9,374.7,226.9z"/>
	<path class="st41" d="M364.7,220.3c-0.6,0-1,0.4-1,1s0.4,1,1,1s1-0.4,1-1S365.3,220.3,364.7,220.3z"/>
	<path class="st41" d="M320.7,202.9c-0.6,0-1,0.4-1,1s0.4,1,1,1s1-0.4,1-1S321.3,202.9,320.7,202.9z"/>
	<path class="st41" d="M317.4,198.3c-0.6,0-1,0.4-1,1s0.4,1,1,1s1-0.4,1-1S317.9,198.3,317.4,198.3z"/>
	<path class="st41" d="M324.7,195.6c-0.6,0-1,0.4-1,1s0.4,1,1,1s1-0.4,1-1S325.3,195.6,324.7,195.6z"/>
	<path class="st41" d="M484.7,41.6c-0.6,0-1,0.4-1,1s0.4,1,1,1s1-0.4,1-1S485.3,41.6,484.7,41.6z"/>
	<path class="st41" d="M435.4,43.6c-0.6,0-1,0.4-1,1s0.4,1,1,1s1-0.4,1-1S435.9,43.6,435.4,43.6z"/>
	<path class="st41" d="M449.4,44.3c-0.6,0-1,0.4-1,1s0.4,1,1,1s1-0.4,1-1S449.9,44.3,449.4,44.3z"/>
	<path class="st41" d="M409.4,44.9c-0.6,0-1,0.4-1,1s0.4,1,1,1s1-0.4,1-1S409.9,44.9,409.4,44.9z"/>
	<path class="st41" d="M308.7,141.6c-0.6,0-1,0.4-1,1s0.4,1,1,1s1-0.4,1-1S309.3,141.6,308.7,141.6z"/>
	<path class="st41" d="M296.7,141.6c-0.6,0-1,0.4-1,1s0.4,1,1,1s1-0.4,1-1S297.3,141.6,296.7,141.6z"/>
	<path class="st41" d="M302.7,82.3c-0.6,0-1,0.4-1,1s0.4,1,1,1s1-0.4,1-1S303.3,82.3,302.7,82.3z"/>
	<path class="st41" d="M274.7,156.9c-0.6,0-1,0.4-1,1s0.4,1,1,1c0.6,0,1-0.4,1-1S275.3,156.9,274.7,156.9z"/>
	<path class="st41" d="M261.4,150.9c-0.6,0-1,0.4-1,1s0.4,1,1,1c0.6,0,1-0.4,1-1S261.9,150.9,261.4,150.9z"/>
	<path class="st41" d="M263.4,158.3c-0.6,0-1,0.4-1,1s0.4,1,1,1c0.6,0,1-0.4,1-1S263.9,158.3,263.4,158.3z"/>
	<path class="st41" d="M232.7,230.9c-0.6,0-1,0.4-1,1s0.4,1,1,1s1-0.4,1-1S233.3,230.9,232.7,230.9z"/>
	<path class="st41" d="M224.7,228.9c-0.6,0-1,0.4-1,1s0.4,1,1,1s1-0.4,1-1S225.3,228.9,224.7,228.9z"/>
	<path class="st41" d="M172.7,265.6c-0.6,0-1,0.4-1,1s0.4,1,1,1s1-0.4,1-1S173.3,265.6,172.7,265.6z"/>
	<path class="st41" d="M180,274.9c-0.6,0-1,0.4-1,1s0.4,1,1,1s1-0.4,1-1S180.6,274.9,180,274.9z"/>
	<path class="st41" d="M178.7,282.3c-0.6,0-1,0.4-1,1s0.4,1,1,1s1-0.4,1-1S179.3,282.3,178.7,282.3z"/>
	<path class="st41" d="M258.7,351.6c-0.6,0-1,0.4-1,1s0.4,1,1,1c0.6,0,1-0.4,1-1S259.3,351.6,258.7,351.6z"/>
	<path class="st41" d="M256.7,290.3c-0.6,0-1,0.4-1,1s0.4,1,1,1c0.6,0,1-0.4,1-1S257.3,290.3,256.7,290.3z"/>
	<path class="st41" d="M265.4,296.9c-0.6,0-1,0.4-1,1s0.4,1,1,1c0.6,0,1-0.4,1-1S265.9,296.9,265.4,296.9z"/>
	<path class="st42" d="M488,0c-7.7,0-7.7,11.9,0,11.9S495.7,0,488,0z"/>
	<g id="Capa_6">
		<path class="st43" d="M559.7,236.1c-0.3,0-0.5,0.2-0.5,0.5s0.2,0.5,0.5,0.5s0.5-0.2,0.5-0.5S560,236.1,559.7,236.1z"/>
		<path class="st43" d="M582.4,223.4c-0.3,0-0.5,0.2-0.5,0.5s0.2,0.5,0.5,0.5s0.5-0.2,0.5-0.5S582.6,223.4,582.4,223.4z"/>
		<path class="st43" d="M571.7,198.1c-0.3,0-0.5,0.2-0.5,0.5s0.2,0.5,0.5,0.5s0.5-0.2,0.5-0.5S572,198.1,571.7,198.1z"/>
		<path class="st43" d="M582.4,206.1c-0.3,0-0.5,0.2-0.5,0.5s0.2,0.5,0.5,0.5s0.5-0.2,0.5-0.5S582.6,206.1,582.4,206.1z"/>
		<path class="st43" d="M571,212.1c-0.3,0-0.5,0.2-0.5,0.5s0.2,0.5,0.5,0.5s0.5-0.2,0.5-0.5S571.3,212.1,571,212.1z"/>
		<path class="st43" d="M579.7,166.8c-0.3,0-0.5,0.2-0.5,0.5s0.2,0.5,0.5,0.5s0.5-0.2,0.5-0.5S580,166.8,579.7,166.8z"/>
		<path class="st43" d="M575.7,157.4c-0.3,0-0.5,0.2-0.5,0.5s0.2,0.5,0.5,0.5s0.5-0.2,0.5-0.5S576,157.4,575.7,157.4z"/>
		<path class="st43" d="M575.7,155.4c-0.3,0-0.5,0.2-0.5,0.5s0.2,0.5,0.5,0.5s0.5-0.2,0.5-0.5S576,155.4,575.7,155.4z"/>
		<path class="st43" d="M581,150.8c-0.3,0-0.5,0.2-0.5,0.5s0.2,0.5,0.5,0.5s0.5-0.2,0.5-0.5S581.3,150.8,581,150.8z"/>
		<path class="st43" d="M585,156.8c-0.3,0-0.5,0.2-0.5,0.5s0.2,0.5,0.5,0.5s0.5-0.2,0.5-0.5S585.3,156.8,585,156.8z"/>
		<path class="st43" d="M576.4,162.1c-0.3,0-0.5,0.2-0.5,0.5s0.2,0.5,0.5,0.5s0.5-0.2,0.5-0.5S576.6,162.1,576.4,162.1z"/>
		<path class="st43" d="M569.7,158.8c-0.3,0-0.5,0.2-0.5,0.5s0.2,0.5,0.5,0.5s0.5-0.2,0.5-0.5S570,158.8,569.7,158.8z"/>
		<path class="st43" d="M564.4,154.8c-0.3,0-0.5,0.2-0.5,0.5s0.2,0.5,0.5,0.5s0.5-0.2,0.5-0.5S564.6,154.8,564.4,154.8z"/>
		<path class="st43" d="M561.7,149.4c-0.3,0-0.5,0.2-0.5,0.5s0.2,0.5,0.5,0.5s0.5-0.2,0.5-0.5S562,149.4,561.7,149.4z"/>
		<path class="st43" d="M560.4,144.1c-0.3,0-0.5,0.2-0.5,0.5s0.2,0.5,0.5,0.5s0.5-0.2,0.5-0.5S560.6,144.1,560.4,144.1z"/>
		<path class="st43" d="M535.7,130.1c-0.3,0-0.5,0.2-0.5,0.5s0.2,0.5,0.5,0.5s0.5-0.2,0.5-0.5S536,130.1,535.7,130.1z"/>
		<path class="st43" d="M526.4,168.8c-0.3,0-0.5,0.2-0.5,0.5s0.2,0.5,0.5,0.5c0.3,0,0.5-0.2,0.5-0.5S526.6,168.8,526.4,168.8z"/>
		<path class="st43" d="M542.4,144.8c-0.3,0-0.5,0.2-0.5,0.5s0.2,0.5,0.5,0.5s0.5-0.2,0.5-0.5S542.6,144.8,542.4,144.8z"/>
		<path class="st43" d="M529.7,140.1c-0.3,0-0.5,0.2-0.5,0.5s0.2,0.5,0.5,0.5c0.3,0,0.5-0.2,0.5-0.5S530,140.1,529.7,140.1z"/>
		<path class="st43" d="M529,117.4c-0.3,0-0.5,0.2-0.5,0.5s0.2,0.5,0.5,0.5c0.3,0,0.5-0.2,0.5-0.5S529.3,117.4,529,117.4z"/>
		<path class="st43" d="M541.7,123.4c-0.3,0-0.5,0.2-0.5,0.5s0.2,0.5,0.5,0.5s0.5-0.2,0.5-0.5S542,123.4,541.7,123.4z"/>
		<path class="st43" d="M578.4,140.1c-0.3,0-0.5,0.2-0.5,0.5s0.2,0.5,0.5,0.5s0.5-0.2,0.5-0.5S578.6,140.1,578.4,140.1z"/>
		<path class="st43" d="M585,122.8c-0.3,0-0.5,0.2-0.5,0.5s0.2,0.5,0.5,0.5s0.5-0.2,0.5-0.5S585.3,122.8,585,122.8z"/>
		<path class="st43" d="M579.7,104.8c-0.3,0-0.5,0.2-0.5,0.5s0.2,0.5,0.5,0.5s0.5-0.2,0.5-0.5S580,104.8,579.7,104.8z"/>
		<path class="st43" d="M602.4,114.1c-0.3,0-0.5,0.2-0.5,0.5s0.2,0.5,0.5,0.5s0.5-0.2,0.5-0.5S602.6,114.1,602.4,114.1z"/>
		<path class="st43" d="M599,126.8c-0.3,0-0.5,0.2-0.5,0.5s0.2,0.5,0.5,0.5s0.5-0.2,0.5-0.5S599.3,126.8,599,126.8z"/>
		<path class="st43" d="M593,110.8c-0.3,0-0.5,0.2-0.5,0.5s0.2,0.5,0.5,0.5s0.5-0.2,0.5-0.5S593.3,110.8,593,110.8z"/>
		<path class="st43" d="M604.4,117.4c-0.3,0-0.5,0.2-0.5,0.5s0.2,0.5,0.5,0.5s0.5-0.2,0.5-0.5S604.6,117.4,604.4,117.4z"/>
		<path class="st43" d="M603,118.1c-0.3,0-0.5,0.2-0.5,0.5s0.2,0.5,0.5,0.5s0.5-0.2,0.5-0.5S603.3,118.1,603,118.1z"/>
		<path class="st43" d="M587.7,114.1c-0.3,0-0.5,0.2-0.5,0.5s0.2,0.5,0.5,0.5s0.5-0.2,0.5-0.5S588,114.1,587.7,114.1z"/>
		<path class="st43" d="M571,98.1c-0.3,0-0.5,0.2-0.5,0.5s0.2,0.5,0.5,0.5s0.5-0.2,0.5-0.5S571.3,98.1,571,98.1z"/>
		<path class="st43" d="M553.7,94.8c-0.3,0-0.5,0.2-0.5,0.5s0.2,0.5,0.5,0.5s0.5-0.2,0.5-0.5S554,94.8,553.7,94.8z"/>
		<path class="st43" d="M523,70.1c-0.3,0-0.5,0.2-0.5,0.5s0.2,0.5,0.5,0.5c0.3,0,0.5-0.2,0.5-0.5S523.3,70.1,523,70.1z"/>
		<path class="st43" d="M527,63.4c-0.3,0-0.5,0.2-0.5,0.5c0,0.3,0.2,0.5,0.5,0.5c0.3,0,0.5-0.2,0.5-0.5
			C527.5,63.7,527.3,63.4,527,63.4z"/>
		<path class="st43" d="M545.7,79.4c-0.3,0-0.5,0.2-0.5,0.5s0.2,0.5,0.5,0.5s0.5-0.2,0.5-0.5S546,79.4,545.7,79.4z"/>
		<path class="st43" d="M528.4,78.8c-0.3,0-0.5,0.2-0.5,0.5s0.2,0.5,0.5,0.5c0.3,0,0.5-0.2,0.5-0.5S528.6,78.8,528.4,78.8z"/>
		<path class="st43" d="M511.7,59.4c-0.3,0-0.5,0.2-0.5,0.5s0.2,0.5,0.5,0.5s0.5-0.2,0.5-0.5S512,59.4,511.7,59.4z"/>
		<path class="st43" d="M489.7,56.1c-0.3,0-0.5,0.2-0.5,0.5s0.2,0.5,0.5,0.5s0.5-0.2,0.5-0.5S490,56.1,489.7,56.1z"/>
		<path class="st43" d="M447,50.1c-0.3,0-0.5,0.2-0.5,0.5s0.2,0.5,0.5,0.5s0.5-0.2,0.5-0.5S447.3,50.1,447,50.1z"/>
		<path class="st43" d="M437,44.1c-0.3,0-0.5,0.2-0.5,0.5s0.2,0.5,0.5,0.5s0.5-0.2,0.5-0.5S437.3,44.1,437,44.1z"/>
		<path class="st43" d="M415.7,49.4c-0.3,0-0.5,0.2-0.5,0.5s0.2,0.5,0.5,0.5s0.5-0.2,0.5-0.5S416,49.4,415.7,49.4z"/>
		<path class="st43" d="M404.4,56.1c-0.3,0-0.5,0.2-0.5,0.5s0.2,0.5,0.5,0.5s0.5-0.2,0.5-0.5S404.6,56.1,404.4,56.1z"/>
		<path class="st43" d="M380.4,45.4c-0.3,0-0.5,0.2-0.5,0.5s0.2,0.5,0.5,0.5s0.5-0.2,0.5-0.5S380.6,45.4,380.4,45.4z"/>
		<path class="st43" d="M382.4,51.4c-0.3,0-0.5,0.2-0.5,0.5s0.2,0.5,0.5,0.5s0.5-0.2,0.5-0.5S382.6,51.4,382.4,51.4z"/>
		<path class="st43" d="M389,58.1c-0.3,0-0.5,0.2-0.5,0.5s0.2,0.5,0.5,0.5s0.5-0.2,0.5-0.5S389.3,58.1,389,58.1z"/>
		<path class="st43" d="M408.4,130.1c-0.3,0-0.5,0.2-0.5,0.5s0.2,0.5,0.5,0.5s0.5-0.2,0.5-0.5S408.6,130.1,408.4,130.1z"/>
		<path class="st43" d="M402.4,120.1c-0.3,0-0.5,0.2-0.5,0.5s0.2,0.5,0.5,0.5s0.5-0.2,0.5-0.5S402.6,120.1,402.4,120.1z"/>
		<path class="st43" d="M412.4,120.1c-0.3,0-0.5,0.2-0.5,0.5s0.2,0.5,0.5,0.5s0.5-0.2,0.5-0.5S412.6,120.1,412.4,120.1z"/>
		<path class="st43" d="M413.7,128.8c-0.3,0-0.5,0.2-0.5,0.5s0.2,0.5,0.5,0.5s0.5-0.2,0.5-0.5S414,128.8,413.7,128.8z"/>
		<path class="st43" d="M405.7,123.4c-0.3,0-0.5,0.2-0.5,0.5s0.2,0.5,0.5,0.5s0.5-0.2,0.5-0.5S406,123.4,405.7,123.4z"/>
		<path class="st43" d="M411,113.4c-0.3,0-0.5,0.2-0.5,0.5c0,0.3,0.2,0.5,0.5,0.5c0.3,0,0.5-0.2,0.5-0.5
			C411.5,113.7,411.3,113.5,411,113.4z"/>
		<path class="st43" d="M402.4,112.8c-0.3,0-0.5,0.2-0.5,0.5c0,0.3,0.2,0.5,0.5,0.5s0.5-0.2,0.5-0.5
			C402.9,113,402.6,112.8,402.4,112.8z"/>
		<path class="st43" d="M417,130.1c-0.3,0-0.5,0.2-0.5,0.5s0.2,0.5,0.5,0.5s0.5-0.2,0.5-0.5S417.3,130.1,417,130.1z"/>
		<path class="st43" d="M405.7,126.1c-0.3,0-0.5,0.2-0.5,0.5s0.2,0.5,0.5,0.5s0.5-0.2,0.5-0.5S406,126.1,405.7,126.1z"/>
		<path class="st43" d="M417.7,120.8c-0.3,0-0.5,0.2-0.5,0.5s0.2,0.5,0.5,0.5s0.5-0.2,0.5-0.5S418,120.8,417.7,120.8z"/>
		<path class="st43" d="M474.4,110.1c-0.3,0-0.5,0.2-0.5,0.5s0.2,0.5,0.5,0.5s0.5-0.2,0.5-0.5S474.6,110.1,474.4,110.1z"/>
		<path class="st43" d="M474.4,104.1c-0.5-0.4-1.2-0.4-1.6,0.1c-0.4,0.5-0.4,1.2,0.1,1.6c0.5,0.4,1.2,0.4,1.6-0.1
			c0.2-0.2,0.3-0.5,0.3-0.8c0.2-0.2,0.2-0.5,0-0.7C474.6,104.2,474.5,104.1,474.4,104.1z"/>
		<path class="st43" d="M482.4,106.1c-0.3,0-0.5,0.2-0.5,0.5s0.2,0.5,0.5,0.5s0.5-0.2,0.5-0.5S482.6,106.1,482.4,106.1z"/>
		<path class="st43" d="M491,102.1c-0.3,0-0.5,0.2-0.5,0.5s0.2,0.5,0.5,0.5s0.5-0.2,0.5-0.5S491.3,102.1,491,102.1z"/>
		<path class="st43" d="M498.4,94.1c-0.3,0-0.5,0.2-0.5,0.5s0.2,0.5,0.5,0.5s0.5-0.2,0.5-0.5S498.6,94.1,498.4,94.1z"/>
		<path class="st43" d="M507,101.4c-0.3,0-0.5,0.2-0.5,0.5s0.2,0.5,0.5,0.5s0.5-0.2,0.5-0.5S507.3,101.4,507,101.4z"/>
		<path class="st43" d="M514.4,106.8c-0.3,0-0.5,0.2-0.5,0.5s0.2,0.5,0.5,0.5c0.3,0,0.5-0.2,0.5-0.5S514.6,106.8,514.4,106.8z"/>
		<path class="st43" d="M474.4,106.8c-0.3,0-0.5,0.2-0.5,0.5s0.2,0.5,0.5,0.5s0.5-0.2,0.5-0.5S474.6,106.8,474.4,106.8z"/>
		<path class="st43" d="M443,90.1c-0.3,0-0.5,0.2-0.5,0.5s0.2,0.5,0.5,0.5s0.5-0.2,0.5-0.5S443.3,90.1,443,90.1z"/>
		<path class="st43" d="M442.4,85.4c-0.3,0-0.5,0.2-0.5,0.5s0.2,0.5,0.5,0.5s0.5-0.2,0.5-0.5S442.6,85.4,442.4,85.4z"/>
		<path class="st43" d="M451,82.8c-0.3,0-0.5,0.2-0.5,0.5s0.2,0.5,0.5,0.5s0.5-0.2,0.5-0.5S451.3,82.8,451,82.8z"/>
		<path class="st43" d="M453.7,84.1c-0.3,0-0.5,0.2-0.5,0.5s0.2,0.5,0.5,0.5s0.5-0.2,0.5-0.5S454,84.1,453.7,84.1z"/>
		<path class="st43" d="M451.7,96.1c-0.3,0-0.5,0.2-0.5,0.5s0.2,0.5,0.5,0.5s0.5-0.2,0.5-0.5S452,96.1,451.7,96.1z"/>
		<path class="st43" d="M457.7,98.1c-0.3,0-0.5,0.2-0.5,0.5s0.2,0.5,0.5,0.5s0.5-0.2,0.5-0.5S458,98.1,457.7,98.1z"/>
		<path class="st43" d="M570.4,124.8c-0.3,0-0.5,0.2-0.5,0.5s0.2,0.5,0.5,0.5s0.5-0.2,0.5-0.5S570.6,124.8,570.4,124.8z"/>
		<path class="st43" d="M568.4,115.4c-0.3,0-0.5,0.2-0.5,0.5s0.2,0.5,0.5,0.5s0.5-0.2,0.5-0.5S568.6,115.4,568.4,115.4z"/>
		<path class="st43" d="M566.4,110.1c-0.3,0-0.5,0.2-0.5,0.5s0.2,0.5,0.5,0.5s0.5-0.2,0.5-0.5S566.6,110.1,566.4,110.1z"/>
		<path class="st43" d="M525.7,155.4c-0.3,0-0.5,0.2-0.5,0.5s0.2,0.5,0.5,0.5c0.3,0,0.5-0.2,0.5-0.5S526,155.4,525.7,155.4z"/>
		<path class="st43" d="M553.7,179.4c-0.3,0-0.5,0.2-0.5,0.5s0.2,0.5,0.5,0.5s0.5-0.2,0.5-0.5S554,179.4,553.7,179.4z"/>
		<path class="st43" d="M563.7,200.8c-0.3,0-0.5,0.2-0.5,0.5s0.2,0.5,0.5,0.5s0.5-0.2,0.5-0.5S564,200.8,563.7,200.8z"/>
		<path class="st43" d="M585,222.8c-0.3,0-0.5,0.2-0.5,0.5s0.2,0.5,0.5,0.5s0.5-0.2,0.5-0.5S585.3,222.8,585,222.8z"/>
		<path class="st43" d="M565,248.1c-0.3,0-0.5,0.2-0.5,0.5c0,0.1,0,0.1,0.1,0.2c-0.1,0-0.2-0.1-0.2-0.1c-0.3,0-0.5,0.2-0.5,0.5
			s0.2,0.5,0.5,0.5c0.3,0,0.5-0.2,0.5-0.5c0-0.1,0-0.2-0.1-0.2c0.1,0,0.2,0.1,0.2,0.1c0.3,0,0.5-0.2,0.5-0.5S565.3,248.1,565,248.1z
			"/>
		<path class="st43" d="M564.4,240.8c-0.3,0-0.5,0.2-0.5,0.5c0,0.3,0.2,0.5,0.5,0.5c0.3,0,0.5-0.2,0.5-0.5
			C564.9,241,564.6,240.8,564.4,240.8z"/>
		<path class="st43" d="M570.4,243.4c-0.3,0-0.5,0.2-0.5,0.5s0.2,0.5,0.5,0.5s0.5-0.2,0.5-0.5S570.6,243.4,570.4,243.4z"/>
		<path class="st43" d="M572.4,245.4c-0.3,0-0.5,0.2-0.5,0.5s0.2,0.5,0.5,0.5s0.5-0.2,0.5-0.5S572.6,245.4,572.4,245.4z"/>
		<path class="st43" d="M567.7,262.1c-0.3,0-0.5,0.2-0.5,0.5s0.2,0.5,0.5,0.5s0.5-0.2,0.5-0.5S568,262.1,567.7,262.1z"/>
		<path class="st43" d="M564.4,257.4c-0.3,0-0.5,0.2-0.5,0.5s0.2,0.5,0.5,0.5s0.5-0.2,0.5-0.5S564.6,257.4,564.4,257.4z"/>
		<path class="st43" d="M565.7,256.8c-0.3,0-0.5,0.2-0.5,0.5s0.2,0.5,0.5,0.5s0.5-0.2,0.5-0.5S566,256.8,565.7,256.8z"/>
		<path class="st43" d="M577,254.8c-0.3,0-0.5,0.2-0.5,0.5s0.2,0.5,0.5,0.5s0.5-0.2,0.5-0.5S577.3,254.8,577,254.8z"/>
		<path class="st43" d="M597,247.4c-0.3,0-0.5,0.2-0.5,0.5s0.2,0.5,0.5,0.5s0.5-0.2,0.5-0.5S597.3,247.4,597,247.4z"/>
		<path class="st43" d="M607,243.4c-0.3,0-0.5,0.2-0.5,0.5s0.2,0.5,0.5,0.5s0.5-0.2,0.5-0.5S607.3,243.4,607,243.4z"/>
		<path class="st43" d="M607,238.8c-0.3,0-0.5,0.2-0.5,0.5s0.2,0.5,0.5,0.5s0.5-0.2,0.5-0.5S607.3,238.8,607,238.8z"/>
		<path class="st43" d="M609.7,231.4c-0.3,0-0.5,0.2-0.5,0.5s0.2,0.5,0.5,0.5s0.5-0.2,0.5-0.5S610,231.4,609.7,231.4z"/>
	</g>
	<g id="pepe" class="st44">
		<path class="st45" d="M609,218.1c-0.3,0-0.5,0.2-0.5,0.5s0.2,0.5,0.5,0.5s0.5-0.2,0.5-0.5S609.3,218.1,609,218.1z"/>
		<path class="st45" d="M617,258.8c-0.3,0-0.5,0.2-0.5,0.5s0.2,0.5,0.5,0.5s0.5-0.2,0.5-0.5S617.3,258.8,617,258.8z"/>
		<path class="st45" d="M589,281.4c-0.3,0-0.5,0.2-0.5,0.5s0.2,0.5,0.5,0.5s0.5-0.2,0.5-0.5S589.3,281.4,589,281.4z"/>
		<path class="st45" d="M613.7,289.4c-0.3,0-0.5,0.2-0.5,0.5s0.2,0.5,0.5,0.5s0.5-0.2,0.5-0.5S614,289.4,613.7,289.4z"/>
		<path class="st45" d="M619,280.8c-0.3,0-0.5,0.2-0.5,0.5s0.2,0.5,0.5,0.5s0.5-0.2,0.5-0.5S619.3,280.8,619,280.8z"/>
		<path class="st45" d="M624.4,278.8c-0.3,0-0.5,0.2-0.5,0.5s0.2,0.5,0.5,0.5s0.5-0.2,0.5-0.5S624.6,278.8,624.4,278.8z"/>
		<path class="st45" d="M612.4,275.4c-0.3,0-0.5,0.2-0.5,0.5s0.2,0.5,0.5,0.5s0.5-0.2,0.5-0.5S612.6,275.4,612.4,275.4z"/>
		<path class="st45" d="M595.7,285.4c-0.3,0-0.5,0.2-0.5,0.5s0.2,0.5,0.5,0.5s0.5-0.2,0.5-0.5S596,285.4,595.7,285.4z"/>
		<path class="st45" d="M613,305.4c-0.3,0-0.5,0.2-0.5,0.5s0.2,0.5,0.5,0.5s0.5-0.2,0.5-0.5S613.3,305.4,613,305.4z"/>
		<path class="st45" d="M596.4,330.8c-0.3,0-0.5,0.2-0.5,0.5s0.2,0.5,0.5,0.5s0.5-0.2,0.5-0.5S596.6,330.8,596.4,330.8z"/>
		<path class="st45" d="M609.7,314.8c-0.3,0-0.5,0.2-0.5,0.5s0.2,0.5,0.5,0.5s0.5-0.2,0.5-0.5S610,314.8,609.7,314.8z"/>
		<path class="st45" d="M585.7,301.4c-0.3,0-0.5,0.2-0.5,0.5s0.2,0.5,0.5,0.5s0.5-0.2,0.5-0.5S586,301.4,585.7,301.4z"/>
		<path class="st45" d="M607,334.1c-0.3,0-0.5,0.2-0.5,0.5s0.2,0.5,0.5,0.5s0.5-0.2,0.5-0.5S607.3,334.1,607,334.1z"/>
		<path class="st45" d="M607,338.1c-0.3,0-0.5,0.2-0.5,0.5s0.2,0.5,0.5,0.5s0.5-0.2,0.5-0.5S607.3,338.1,607,338.1z"/>
		<path class="st45" d="M617,356.1c-0.3,0-0.5,0.2-0.5,0.5s0.2,0.5,0.5,0.5s0.5-0.2,0.5-0.5S617.3,356.1,617,356.1z"/>
		<path class="st45" d="M621.7,371.4c-0.3,0-0.5,0.2-0.5,0.5s0.2,0.5,0.5,0.5s0.5-0.2,0.5-0.5S622,371.4,621.7,371.4z"/>
		<path class="st45" d="M631,382.8c-0.3,0-0.5,0.2-0.5,0.5s0.2,0.5,0.5,0.5s0.5-0.2,0.5-0.5S631.3,382.8,631,382.8z"/>
		<path class="st45" d="M631.7,375.4c-0.3,0-0.5,0.2-0.5,0.5s0.2,0.5,0.5,0.5s0.5-0.2,0.5-0.5S632,375.4,631.7,375.4z"/>
		<path class="st45" d="M633.7,372.8c-0.3,0-0.5,0.2-0.5,0.5s0.2,0.5,0.5,0.5s0.5-0.2,0.5-0.5S634,372.8,633.7,372.8z"/>
		<path class="st45" d="M529,242.1c-0.3,0-0.5,0.2-0.5,0.5s0.2,0.5,0.5,0.5c0.3,0,0.5-0.2,0.5-0.5S529.3,242.1,529,242.1z"/>
		<path class="st45" d="M520.4,230.1c-0.3,0-0.5,0.2-0.5,0.5s0.2,0.5,0.5,0.5c0.3,0,0.5-0.2,0.5-0.5S520.6,230.1,520.4,230.1z"/>
		<path class="st45" d="M518.4,228.1c-0.3,0-0.5,0.2-0.5,0.5s0.2,0.5,0.5,0.5c0.3,0,0.5-0.2,0.5-0.5S518.6,228.1,518.4,228.1z"/>
		<path class="st45" d="M528.4,221.4c-0.3,0-0.5,0.2-0.5,0.5s0.2,0.5,0.5,0.5c0.3,0,0.5-0.2,0.5-0.5S528.6,221.4,528.4,221.4z"/>
		<path class="st45" d="M528.4,234.8c-0.3,0-0.5,0.2-0.5,0.5s0.2,0.5,0.5,0.5c0.3,0,0.5-0.2,0.5-0.5S528.6,234.8,528.4,234.8z"/>
		<path class="st45" d="M523,230.1c-0.3,0-0.5,0.2-0.5,0.5s0.2,0.5,0.5,0.5c0.3,0,0.5-0.2,0.5-0.5S523.3,230.1,523,230.1z"/>
		<path class="st45" d="M530.4,232.8c-0.3,0-0.5,0.2-0.5,0.5s0.2,0.5,0.5,0.5c0.3,0,0.5-0.2,0.5-0.5S530.6,232.8,530.4,232.8z"/>
		<path class="st45" d="M505,215.4c-0.3,0-0.5,0.2-0.5,0.5s0.2,0.5,0.5,0.5s0.5-0.2,0.5-0.5S505.3,215.4,505,215.4z"/>
		<path class="st45" d="M501.7,193.4c-0.3,0-0.5,0.2-0.5,0.5s0.2,0.5,0.5,0.5s0.5-0.2,0.5-0.5S502,193.4,501.7,193.4z"/>
		<path class="st45" d="M479.7,180.8c-0.3,0-0.5,0.2-0.5,0.5s0.2,0.5,0.5,0.5s0.5-0.2,0.5-0.5S480,180.8,479.7,180.8z"/>
		<path class="st45" d="M477,162.8c-0.3,0-0.5,0.2-0.5,0.5s0.2,0.5,0.5,0.5s0.5-0.2,0.5-0.5S477.3,162.8,477,162.8z"/>
		<path class="st45" d="M477.7,186.8c-0.3,0-0.5,0.2-0.5,0.5s0.2,0.5,0.5,0.5s0.5-0.2,0.5-0.5S478,186.8,477.7,186.8z"/>
		<path class="st45" d="M455.7,178.8c-0.3,0-0.5,0.2-0.5,0.5s0.2,0.5,0.5,0.5s0.5-0.2,0.5-0.5S456,178.8,455.7,178.8z"/>
		<path class="st45" d="M479.7,162.8c-0.3,0-0.5,0.2-0.5,0.5s0.2,0.5,0.5,0.5s0.5-0.2,0.5-0.5S480,162.8,479.7,162.8z"/>
		<path class="st45" d="M486.4,175.4c-0.3,0-0.5,0.2-0.5,0.5s0.2,0.5,0.5,0.5s0.5-0.2,0.5-0.5S486.6,175.4,486.4,175.4z"/>
		<path class="st45" d="M466.4,175.4c-0.3,0-0.5,0.2-0.5,0.5s0.2,0.5,0.5,0.5s0.5-0.2,0.5-0.5S466.6,175.4,466.4,175.4z"/>
		<path class="st45" d="M456.4,172.8c-0.3,0-0.5,0.2-0.5,0.5s0.2,0.5,0.5,0.5s0.5-0.2,0.5-0.5S456.6,172.8,456.4,172.8z"/>
		<path class="st45" d="M440.4,170.8c-0.3,0-0.5,0.2-0.5,0.5s0.2,0.5,0.5,0.5s0.5-0.2,0.5-0.5S440.6,170.8,440.4,170.8z"/>
		<path class="st45" d="M440.4,186.1c-0.3,0-0.5,0.2-0.5,0.5s0.2,0.5,0.5,0.5s0.5-0.2,0.5-0.5S440.6,186.1,440.4,186.1z"/>
		<path class="st45" d="M424.4,190.1c-0.3,0-0.5,0.2-0.5,0.5s0.2,0.5,0.5,0.5s0.5-0.2,0.5-0.5S424.6,190.1,424.4,190.1z"/>
		<path class="st45" d="M429,203.4c-0.3,0-0.5,0.2-0.5,0.5s0.2,0.5,0.5,0.5s0.5-0.2,0.5-0.5S429.3,203.4,429,203.4z"/>
		<path class="st45" d="M444.4,218.8c-0.3,0-0.5,0.2-0.5,0.5s0.2,0.5,0.5,0.5s0.5-0.2,0.5-0.5S444.6,218.8,444.4,218.8z"/>
		<path class="st45" d="M455,237.4c-0.3,0-0.5,0.2-0.5,0.5s0.2,0.5,0.5,0.5s0.5-0.2,0.5-0.5S455.3,237.4,455,237.4z"/>
		<path class="st45" d="M445,243.4c-0.3,0-0.5,0.2-0.5,0.5s0.2,0.5,0.5,0.5s0.5-0.2,0.5-0.5S445.3,243.4,445,243.4z"/>
		<path class="st45" d="M451,202.1c-0.3,0-0.5,0.2-0.5,0.5s0.2,0.5,0.5,0.5s0.5-0.2,0.5-0.5S451.3,202.1,451,202.1z"/>
		<path class="st45" d="M437,194.8c-0.3,0-0.5,0.2-0.5,0.5s0.2,0.5,0.5,0.5s0.5-0.2,0.5-0.5S437.3,194.8,437,194.8z"/>
		<path class="st45" d="M419,184.8c-0.3,0-0.5,0.2-0.5,0.5s0.2,0.5,0.5,0.5s0.5-0.2,0.5-0.5S419.3,184.8,419,184.8z"/>
		<path class="st45" d="M392.4,152.1c-0.3,0-0.5,0.2-0.5,0.5s0.2,0.5,0.5,0.5s0.5-0.2,0.5-0.5S392.6,152.1,392.4,152.1z"/>
		<path class="st45" d="M415.7,138.8c-0.3,0-0.5,0.2-0.5,0.5s0.2,0.5,0.5,0.5s0.5-0.2,0.5-0.5S416,138.8,415.7,138.8z"/>
		<path class="st45" d="M428.4,153.4c-0.3,0-0.5,0.2-0.5,0.5s0.2,0.5,0.5,0.5s0.5-0.2,0.5-0.5S428.6,153.4,428.4,153.4z"/>
		<path class="st45" d="M427,144.1c-0.3,0-0.5,0.2-0.5,0.5s0.2,0.5,0.5,0.5s0.5-0.2,0.5-0.5S427.3,144.1,427,144.1z"/>
		<path class="st45" d="M425.7,144.1c-0.3,0-0.5,0.2-0.5,0.5s0.2,0.5,0.5,0.5s0.5-0.2,0.5-0.5S426,144.1,425.7,144.1z"/>
		<path class="st45" d="M421.7,144.8c-0.3,0-0.5,0.2-0.5,0.5s0.2,0.5,0.5,0.5s0.5-0.2,0.5-0.5S422,144.8,421.7,144.8z"/>
		<path class="st45" d="M427.7,156.8c-0.3,0-0.5,0.2-0.5,0.5s0.2,0.5,0.5,0.5s0.5-0.2,0.5-0.5S428,156.8,427.7,156.8z"/>
		<path class="st45" d="M434.4,146.8c-0.3,0-0.5,0.2-0.5,0.5s0.2,0.5,0.5,0.5s0.5-0.2,0.5-0.5S434.6,146.8,434.4,146.8z"/>
		<path class="st45" d="M428.4,141.4c-0.3,0-0.5,0.2-0.5,0.5s0.2,0.5,0.5,0.5s0.5-0.2,0.5-0.5S428.6,141.4,428.4,141.4z"/>
		<path class="st45" d="M392.4,146.1c-0.3,0-0.5,0.2-0.5,0.5s0.2,0.5,0.5,0.5s0.5-0.2,0.5-0.5S392.6,146.1,392.4,146.1z"/>
		<path class="st45" d="M373.7,147.4c-0.3,0-0.5,0.2-0.5,0.5s0.2,0.5,0.5,0.5s0.5-0.2,0.5-0.5S374,147.4,373.7,147.4z"/>
		<path class="st45" d="M363,150.8c-0.3,0-0.5,0.2-0.5,0.5s0.2,0.5,0.5,0.5s0.5-0.2,0.5-0.5S363.3,150.8,363,150.8z"/>
		<path class="st45" d="M352.4,156.8c-0.3,0-0.5,0.2-0.5,0.5s0.2,0.5,0.5,0.5s0.5-0.2,0.5-0.5S352.6,156.8,352.4,156.8z"/>
		<path class="st45" d="M347.7,162.1c-0.3,0-0.5,0.2-0.5,0.5s0.2,0.5,0.5,0.5s0.5-0.2,0.5-0.5S348,162.1,347.7,162.1z"/>
		<path class="st45" d="M353,168.8c-0.3,0-0.5,0.2-0.5,0.5s0.2,0.5,0.5,0.5s0.5-0.2,0.5-0.5S353.3,168.8,353,168.8z"/>
		<path class="st45" d="M358.4,162.1c-0.3,0-0.5,0.2-0.5,0.5s0.2,0.5,0.5,0.5s0.5-0.2,0.5-0.5S358.6,162.1,358.4,162.1z"/>
		<path class="st45" d="M354.4,163.4c-0.3,0-0.5,0.2-0.5,0.5s0.2,0.5,0.5,0.5s0.5-0.2,0.5-0.5S354.6,163.4,354.4,163.4z"/>
		<path class="st45" d="M351,164.8c-0.3,0-0.5,0.2-0.5,0.5s0.2,0.5,0.5,0.5s0.5-0.2,0.5-0.5S351.3,164.8,351,164.8z"/>
		<path class="st45" d="M343,167.4c-0.3,0-0.5,0.2-0.5,0.5s0.2,0.5,0.5,0.5s0.5-0.2,0.5-0.5S343.3,167.4,343,167.4z"/>
		<path class="st45" d="M337,171.4c-0.3,0-0.5,0.2-0.5,0.5s0.2,0.5,0.5,0.5s0.5-0.2,0.5-0.5S337.3,171.4,337,171.4z"/>
		<path class="st45" d="M337,174.8c-0.3,0-0.5,0.2-0.5,0.5s0.2,0.5,0.5,0.5s0.5-0.2,0.5-0.5S337.3,174.8,337,174.8z"/>
		<path class="st45" d="M336.4,178.8c-0.3,0-0.5,0.2-0.5,0.5s0.2,0.5,0.5,0.5s0.5-0.2,0.5-0.5S336.6,178.8,336.4,178.8z"/>
		<path class="st45" d="M332.4,182.1c-0.3,0-0.5,0.2-0.5,0.5s0.2,0.5,0.5,0.5s0.5-0.2,0.5-0.5S332.6,182.1,332.4,182.1z"/>
		<path class="st45" d="M329.7,184.8c-0.3,0-0.5,0.2-0.5,0.5s0.2,0.5,0.5,0.5s0.5-0.2,0.5-0.5S330,184.8,329.7,184.8z"/>
		<path class="st45" d="M330.4,188.8c-0.3,0-0.5,0.2-0.5,0.5s0.2,0.5,0.5,0.5s0.5-0.2,0.5-0.5S330.6,188.8,330.4,188.8z"/>
		<path class="st45" d="M333,198.8c-0.3,0-0.5,0.2-0.5,0.5s0.2,0.5,0.5,0.5s0.5-0.2,0.5-0.5S333.3,198.8,333,198.8z"/>
		<path class="st45" d="M550.4,93.4c-0.3,0-0.5,0.2-0.5,0.5s0.2,0.5,0.5,0.5s0.5-0.2,0.5-0.5S550.6,93.4,550.4,93.4z"/>
		<path class="st45" d="M544.4,90.1c-0.3,0-0.5,0.2-0.5,0.5s0.2,0.5,0.5,0.5s0.5-0.2,0.5-0.5S544.6,90.1,544.4,90.1z"/>
		<path class="st45" d="M532.4,85.4c-0.3,0-0.5,0.2-0.5,0.5s0.2,0.5,0.5,0.5c0.3,0,0.5-0.2,0.5-0.5S532.6,85.4,532.4,85.4z"/>
		<path class="st45" d="M528.4,96.8c-0.3,0-0.5,0.2-0.5,0.5s0.2,0.5,0.5,0.5c0.3,0,0.5-0.2,0.5-0.5S528.6,96.8,528.4,96.8z"/>
		<path class="st45" d="M544.4,117.4c-0.3,0-0.5,0.2-0.5,0.5s0.2,0.5,0.5,0.5s0.5-0.2,0.5-0.5S544.6,117.4,544.4,117.4z"/>
		<path class="st45" d="M550.4,132.1c-0.3,0-0.5,0.2-0.5,0.5s0.2,0.5,0.5,0.5s0.5-0.2,0.5-0.5S550.6,132.1,550.4,132.1z"/>
		<path class="st45" d="M553.7,138.8c-0.3,0-0.5,0.2-0.5,0.5s0.2,0.5,0.5,0.5s0.5-0.2,0.5-0.5S554,138.8,553.7,138.8z"/>
		<path class="st45" d="M558.4,146.8c-0.3,0-0.5,0.2-0.5,0.5s0.2,0.5,0.5,0.5s0.5-0.2,0.5-0.5S558.6,146.8,558.4,146.8z"/>
		<path class="st45" d="M559.7,150.1c-0.3,0-0.5,0.2-0.5,0.5s0.2,0.5,0.5,0.5s0.5-0.2,0.5-0.5S560,150.1,559.7,150.1z"/>
		<path class="st45" d="M559.7,162.1c-0.5-0.4-1.2-0.4-1.6,0.1s-0.4,1.2,0.1,1.6c0.5,0.4,1.2,0.4,1.6-0.1c0.2-0.2,0.3-0.5,0.3-0.8
			c0.2-0.2,0.2-0.5,0-0.7C559.9,162.2,559.8,162.1,559.7,162.1z"/>
		<path class="st45" d="M539.7,178.1c-0.3,0-0.5,0.2-0.5,0.5s0.2,0.5,0.5,0.5s0.5-0.2,0.5-0.5S540,178.1,539.7,178.1z"/>
		<path class="st45" d="M550.4,158.8c-0.3,0-0.5,0.2-0.5,0.5s0.2,0.5,0.5,0.5s0.5-0.2,0.5-0.5S550.6,158.8,550.4,158.8z"/>
		<path class="st45" d="M549,159.4c-0.3,0-0.5,0.2-0.5,0.5s0.2,0.5,0.5,0.5s0.5-0.2,0.5-0.5S549.3,159.4,549,159.4z"/>
		<path class="st45" d="M541,162.1c-0.3,0-0.5,0.2-0.5,0.5s0.2,0.5,0.5,0.5s0.5-0.2,0.5-0.5S541.3,162.1,541,162.1z"/>
		<path class="st45" d="M541,157.4c-0.3,0-0.5,0.2-0.5,0.5s0.2,0.5,0.5,0.5s0.5-0.2,0.5-0.5S541.3,157.4,541,157.4z"/>
		<path class="st45" d="M537,158.1c-0.1,0-0.2,0-0.3,0.1c-0.1-0.1-0.2-0.1-0.3-0.1c-0.3,0-0.5,0.2-0.5,0.5s0.2,0.5,0.5,0.5
			c0.1,0,0.3,0,0.3-0.1c0.1,0.1,0.2,0.1,0.3,0.1c0.3,0,0.5-0.2,0.5-0.5S537.3,158.1,537,158.1z"/>
		<path class="st45" d="M293,178.8c-0.3,0-0.5,0.2-0.5,0.5s0.2,0.5,0.5,0.5s0.5-0.2,0.5-0.5S293.3,178.8,293,178.8z"/>
		<path class="st45" d="M294.4,166.8c-0.3,0-0.5,0.2-0.5,0.5s0.2,0.5,0.5,0.5s0.5-0.2,0.5-0.5S294.6,166.8,294.4,166.8z"/>
		<path class="st45" d="M283,165.4c-0.3,0-0.5,0.2-0.5,0.5s0.2,0.5,0.5,0.5s0.5-0.2,0.5-0.5S283.3,165.4,283,165.4z"/>
		<path class="st45" d="M274.4,178.1c-0.3,0-0.5,0.2-0.5,0.5s0.2,0.5,0.5,0.5c0.3,0,0.5-0.2,0.5-0.5S274.6,178.1,274.4,178.1z"/>
		<path class="st45" d="M294.4,175.4c-0.3,0-0.5,0.2-0.5,0.5s0.2,0.5,0.5,0.5s0.5-0.2,0.5-0.5S294.6,175.4,294.4,175.4z"/>
		<path class="st45" d="M281,166.1c-0.3,0-0.5,0.2-0.5,0.5s0.2,0.5,0.5,0.5s0.5-0.2,0.5-0.5S281.3,166.1,281,166.1z"/>
		<path class="st45" d="M278.4,151.4c-0.3,0-0.5,0.2-0.5,0.5s0.2,0.5,0.5,0.5s0.5-0.2,0.5-0.5S278.6,151.4,278.4,151.4z"/>
		<path class="st45" d="M281.7,143.4c-0.3,0-0.5,0.2-0.5,0.5s0.2,0.5,0.5,0.5s0.5-0.2,0.5-0.5S282,143.4,281.7,143.4z"/>
		<path class="st45" d="M296.4,151.4c-0.3,0-0.5,0.2-0.5,0.5s0.2,0.5,0.5,0.5s0.5-0.2,0.5-0.5S296.6,151.4,296.4,151.4z"/>
		<path class="st45" d="M305.7,156.1c-0.3,0-0.5,0.2-0.5,0.5s0.2,0.5,0.5,0.5s0.5-0.2,0.5-0.5S306,156.1,305.7,156.1z"/>
		<path class="st45" d="M297,160.8c-0.3,0-0.5,0.2-0.5,0.5s0.2,0.5,0.5,0.5s0.5-0.2,0.5-0.5S297.3,160.8,297,160.8z"/>
		<path class="st45" d="M279,108.1c-0.3,0-0.5,0.2-0.5,0.5s0.2,0.5,0.5,0.5s0.5-0.2,0.5-0.5S279.3,108.1,279,108.1z"/>
		<path class="st45" d="M289.7,105.4c-0.3,0-0.5,0.2-0.5,0.5s0.2,0.5,0.5,0.5s0.5-0.2,0.5-0.5S290,105.4,289.7,105.4z"/>
		<path class="st45" d="M273.7,95.4c-0.3,0-0.5,0.2-0.5,0.5s0.2,0.5,0.5,0.5c0.3,0,0.5-0.2,0.5-0.5S274,95.4,273.7,95.4z"/>
		<path class="st45" d="M263.7,105.4c-0.3,0-0.5,0.2-0.5,0.5s0.2,0.5,0.5,0.5c0.3,0,0.5-0.2,0.5-0.5S264,105.4,263.7,105.4z"/>
		<path class="st45" d="M261,98.1c-0.3,0-0.5,0.2-0.5,0.5s0.2,0.5,0.5,0.5c0.3,0,0.5-0.2,0.5-0.5S261.3,98.1,261,98.1z"/>
		<path class="st45" d="M237.7,113.4c-0.3,0-0.5,0.2-0.5,0.5c0,0.3,0.2,0.5,0.5,0.5c0.3,0,0.5-0.2,0.5-0.5
			C238.2,113.7,238,113.5,237.7,113.4z"/>
		<path class="st45" d="M245,100.1c-0.3,0-0.5,0.2-0.5,0.5s0.2,0.5,0.5,0.5s0.5-0.2,0.5-0.5S245.3,100.1,245,100.1z"/>
		<path class="st45" d="M246.4,106.8c-0.3,0-0.5,0.2-0.5,0.5s0.2,0.5,0.5,0.5s0.5-0.2,0.5-0.5S246.6,106.8,246.4,106.8z"/>
		<path class="st45" d="M253.7,106.1c-0.2,0.1-0.5,0.1-0.7-0.2c-0.1-0.2-0.1-0.3,0-0.5c-0.3,0-0.5,0.2-0.5,0.5s0.2,0.5,0.5,0.5
			c0.1,0,0.2,0,0.2-0.1c-0.1,0.2,0,0.5,0.2,0.7c0.2,0.1,0.5,0,0.7-0.2c0.1-0.2,0-0.5-0.2-0.7C253.9,106.1,253.8,106.1,253.7,106.1z"
			/>
		<path class="st45" d="M249.7,96.8c-0.3,0-0.5,0.2-0.5,0.5s0.2,0.5,0.5,0.5s0.5-0.2,0.5-0.5S250,96.8,249.7,96.8z"/>
		<path class="st45" d="M253.7,98.8c-0.3,0-0.5,0.2-0.5,0.5s0.2,0.5,0.5,0.5s0.5-0.2,0.5-0.5S254,98.8,253.7,98.8z"/>
		<path class="st45" d="M249.7,102.8c-0.3,0-0.5,0.2-0.5,0.5s0.2,0.5,0.5,0.5s0.5-0.2,0.5-0.5S250,102.8,249.7,102.8z"/>
		<path class="st45" d="M257,106.1c-0.3,0-0.5,0.2-0.5,0.5s0.2,0.5,0.5,0.5c0.3,0,0.5-0.2,0.5-0.5S257.3,106.1,257,106.1z"/>
		<path class="st45" d="M246.4,108.8c-0.3,0-0.5,0.2-0.5,0.5s0.2,0.5,0.5,0.5s0.5-0.2,0.5-0.5S246.6,108.8,246.4,108.8z"/>
		<path class="st45" d="M243.7,116.8c-0.3,0-0.5,0.2-0.5,0.5s0.2,0.5,0.5,0.5s0.5-0.2,0.5-0.5S244,116.8,243.7,116.8z"/>
		<path class="st45" d="M244.4,120.8c-0.3,0-0.5,0.2-0.5,0.5s0.2,0.5,0.5,0.5s0.5-0.2,0.5-0.5S244.6,120.8,244.4,120.8z"/>
		<path class="st45" d="M250.4,127.4c-0.3,0-0.5,0.2-0.5,0.5s0.2,0.5,0.5,0.5s0.5-0.2,0.5-0.5S250.6,127.4,250.4,127.4z"/>
		<path class="st45" d="M595.7,310.1c-0.3,0-0.5,0.2-0.5,0.5s0.2,0.5,0.5,0.5s0.5-0.2,0.5-0.5S596,310.1,595.7,310.1z"/>
		<path class="st45" d="M592.4,330.8c-0.3,0-0.5,0.2-0.5,0.5s0.2,0.5,0.5,0.5s0.5-0.2,0.5-0.5S592.6,330.8,592.4,330.8z"/>
		<path class="st45" d="M597.7,327.4c-0.3,0-0.5,0.2-0.5,0.5s0.2,0.5,0.5,0.5s0.5-0.2,0.5-0.5S598,327.4,597.7,327.4z"/>
		<path class="st45" d="M603.7,334.1c-0.3,0-0.5,0.2-0.5,0.5s0.2,0.5,0.5,0.5s0.5-0.2,0.5-0.5S604,334.1,603.7,334.1z"/>
		<path class="st45" d="M599,338.8c-0.3,0-0.5,0.2-0.5,0.5s0.2,0.5,0.5,0.5s0.5-0.2,0.5-0.5S599.3,338.8,599,338.8z"/>
		<path class="st45" d="M589.7,339.4c-0.3,0-0.5,0.2-0.5,0.5s0.2,0.5,0.5,0.5s0.5-0.2,0.5-0.5S590,339.4,589.7,339.4z"/>
		<path class="st45" d="M583.7,337.4h-1.3c-0.3,0-0.5,0.2-0.5,0.5s0.2,0.5,0.5,0.5h1.3c0.3,0,0.5-0.2,0.5-0.5S584,337.4,583.7,337.4
			z"/>
		<path class="st45" d="M568.4,352.1c-0.3,0-0.5,0.2-0.5,0.5s0.2,0.5,0.5,0.5s0.5-0.2,0.5-0.5S568.6,352.1,568.4,352.1z"/>
		<path class="st45" d="M568.4,353.4c-0.3,0-0.5,0.2-0.5,0.5s0.2,0.5,0.5,0.5s0.5-0.2,0.5-0.5S568.6,353.4,568.4,353.4z"/>
		<path class="st45" d="M575,356.1c-0.3,0-0.5,0.2-0.5,0.5s0.2,0.5,0.5,0.5s0.5-0.2,0.5-0.5S575.3,356.1,575,356.1z"/>
		<path class="st45" d="M598.4,348.1c-0.3,0-0.5,0.2-0.5,0.5s0.2,0.5,0.5,0.5s0.5-0.2,0.5-0.5S598.6,348.1,598.4,348.1z"/>
		<path class="st45" d="M611,350.1c-0.3,0-0.5,0.2-0.5,0.5s0.2,0.5,0.5,0.5s0.5-0.2,0.5-0.5S611.3,350.1,611,350.1z"/>
		<path class="st45" d="M601.7,348.1c-0.3,0-0.5,0.2-0.5,0.5s0.2,0.5,0.5,0.5s0.5-0.2,0.5-0.5S602,348.1,601.7,348.1z"/>
		<path class="st45" d="M625,339.4c-0.3,0-0.5,0.2-0.5,0.5s0.2,0.5,0.5,0.5s0.5-0.2,0.5-0.5S625.3,339.4,625,339.4z"/>
		<path class="st45" d="M641.7,339.4c-0.3,0-0.5,0.2-0.5,0.5s0.2,0.5,0.5,0.5s0.5-0.2,0.5-0.5S642,339.4,641.7,339.4z"/>
		<path class="st45" d="M630.4,366.1c-0.3,0-0.5,0.2-0.5,0.5s0.2,0.5,0.5,0.5s0.5-0.2,0.5-0.5S630.6,366.1,630.4,366.1z"/>
		<path class="st45" d="M634.4,343.4c-0.3,0-0.5,0.2-0.5,0.5s0.2,0.5,0.5,0.5s0.5-0.2,0.5-0.5S634.6,343.4,634.4,343.4z"/>
		<path class="st45" d="M635.7,342.8c-0.3,0-0.5,0.2-0.5,0.5s0.2,0.5,0.5,0.5s0.5-0.2,0.5-0.5S636,342.8,635.7,342.8z"/>
		<path class="st45" d="M642.4,329.4c-0.3,0-0.5,0.2-0.5,0.5s0.2,0.5,0.5,0.5s0.5-0.2,0.5-0.5S642.6,329.4,642.4,329.4z"/>
		<path class="st45" d="M651.7,331.4c-0.3,0-0.5,0.2-0.5,0.5s0.2,0.5,0.5,0.5s0.5-0.2,0.5-0.5S652,331.4,651.7,331.4z"/>
		<path class="st45" d="M289,338.1c-0.3,0-0.5,0.2-0.5,0.5s0.2,0.5,0.5,0.5s0.5-0.2,0.5-0.5S289.3,338.1,289,338.1z"/>
		<path class="st45" d="M269.7,320.8c-0.3,0-0.5,0.2-0.5,0.5s0.2,0.5,0.5,0.5c0.3,0,0.5-0.2,0.5-0.5S270,320.8,269.7,320.8z"/>
		<path class="st45" d="M276.4,337.4c-0.3,0-0.5,0.2-0.5,0.5s0.2,0.5,0.5,0.5c0.3,0,0.5-0.2,0.5-0.5S276.6,337.4,276.4,337.4z"/>
		<path class="st45" d="M254.4,304.5c-0.4,0-0.8,0.3-0.8,0.8s0.3,0.8,0.8,0.8s0.8-0.3,0.8-0.8S254.8,304.5,254.4,304.5L254.4,304.5z
			"/>
		<path class="st45" d="M336.4,306.5c-0.4,0-0.8,0.3-0.8,0.8s0.3,0.8,0.8,0.8s0.8-0.3,0.8-0.8S336.8,306.5,336.4,306.5z"/>
		<path class="st45" d="M329,318.5c-0.4,0-0.8,0.3-0.8,0.8s0.3,0.8,0.8,0.8s0.8-0.3,0.8-0.8S329.5,318.5,329,318.5z"/>
		<path class="st45" d="M666.4,296.5c-0.4,0-0.8,0.3-0.8,0.8s0.3,0.8,0.8,0.8s0.8-0.3,0.8-0.8S666.8,296.5,666.4,296.5z"/>
		<path class="st45" d="M652.4,277.9c-0.4,0-0.8,0.3-0.8,0.8s0.3,0.8,0.8,0.8s0.8-0.3,0.8-0.8S652.8,277.9,652.4,277.9z"/>
		<path class="st45" d="M256.4,322.8c-0.3,0-0.5,0.2-0.5,0.5s0.2,0.5,0.5,0.5c0.3,0,0.5-0.2,0.5-0.5S256.6,322.8,256.4,322.8z"/>
		<path class="st45" d="M272.4,322.8c-0.3,0-0.5,0.2-0.5,0.5s0.2,0.5,0.5,0.5c0.3,0,0.5-0.2,0.5-0.5S272.6,322.8,272.4,322.8z"/>
		<path class="st45" d="M287.7,334.8c-0.3,0-0.5,0.2-0.5,0.5s0.2,0.5,0.5,0.5s0.5-0.2,0.5-0.5S288,334.8,287.7,334.8z"/>
		<path class="st45" d="M283.7,339.4c-0.3,0-0.5,0.2-0.5,0.5s0.2,0.5,0.5,0.5s0.5-0.2,0.5-0.5S284,339.4,283.7,339.4z"/>
		<path class="st45" d="M285,322.8c-0.3,0-0.5,0.2-0.5,0.5s0.2,0.5,0.5,0.5s0.5-0.2,0.5-0.5S285.3,322.8,285,322.8z"/>
		<path class="st45" d="M295.7,330.8c-0.3,0-0.5,0.2-0.5,0.5s0.2,0.5,0.5,0.5s0.5-0.2,0.5-0.5S296,330.8,295.7,330.8z"/>
		<path class="st45" d="M293,333.4c-0.3,0-0.5,0.2-0.5,0.5s0.2,0.5,0.5,0.5s0.5-0.2,0.5-0.5S293.3,333.4,293,333.4z"/>
		<path class="st45" d="M281,326.8c-0.3,0-0.5,0.2-0.5,0.5s0.2,0.5,0.5,0.5s0.5-0.2,0.5-0.5S281.3,326.8,281,326.8z"/>
		<path class="st45" d="M288.4,330.8c-0.3,0-0.5,0.2-0.5,0.5s0.2,0.5,0.5,0.5s0.5-0.2,0.5-0.5S288.6,330.8,288.4,330.8z"/>
		<path class="st45" d="M285.7,344.8c-0.3,0-0.5,0.2-0.5,0.5s0.2,0.5,0.5,0.5s0.5-0.2,0.5-0.5S286,344.8,285.7,344.8z"/>
		<path class="st45" d="M291.7,346.8c-0.3,0-0.5,0.2-0.5,0.5s0.2,0.5,0.5,0.5s0.5-0.2,0.5-0.5S292,346.8,291.7,346.8z"/>
		<path class="st45" d="M298.4,346.1c-0.3,0-0.5,0.2-0.5,0.5s0.2,0.5,0.5,0.5s0.5-0.2,0.5-0.5S298.6,346.1,298.4,346.1z"/>
		<path class="st45" d="M301,338.8c-0.3,0-0.5,0.2-0.5,0.5s0.2,0.5,0.5,0.5s0.5-0.2,0.5-0.5S301.3,338.8,301,338.8z"/>
		<path class="st45" d="M252.4,310.1c-0.3,0-0.5,0.2-0.5,0.5s0.2,0.5,0.5,0.5s0.5-0.2,0.5-0.5S252.6,310.1,252.4,310.1z"/>
		<path class="st45" d="M234.4,290.1c-0.3,0-0.5,0.2-0.5,0.5s0.2,0.5,0.5,0.5s0.5-0.2,0.5-0.5S234.6,290.1,234.4,290.1z"/>
		<path class="st45" d="M230.4,310.1c-0.3,0-0.5,0.2-0.5,0.5s0.2,0.5,0.5,0.5s0.5-0.2,0.5-0.5S230.6,310.1,230.4,310.1z"/>
		<path class="st45" d="M206.7,329c0.2-0.2,0.2-0.5,0-0.7c-0.1-0.1-0.2-0.1-0.3-0.1c-0.3,0-0.5,0.3-0.5,0.5c0,0.1,0,0.2,0.1,0.3
			l-0.6,0.6c-0.2,0.2-0.2,0.5,0.1,0.7c0.2,0.2,0.5,0.2,0.7,0l0.7-0.7C206.9,329.5,207,329.2,206.7,329
			C206.8,329,206.8,329,206.7,329z"/>
		<path class="st45" d="M204.4,354.1c-0.3,0-0.5,0.2-0.5,0.5s0.2,0.5,0.5,0.5s0.5-0.2,0.5-0.5S204.6,354.1,204.4,354.1z"/>
		<path class="st45" d="M218.4,356.1c-0.3,0-0.5,0.2-0.5,0.5s0.2,0.5,0.5,0.5s0.5-0.2,0.5-0.5S218.6,356.1,218.4,356.1z"/>
		<path class="st45" d="M208.4,350.8c-0.3,0-0.5,0.2-0.5,0.5s0.2,0.5,0.5,0.5s0.5-0.2,0.5-0.5S208.6,350.8,208.4,350.8z"/>
		<path class="st45" d="M218.4,347.4c-0.3,0-0.5,0.2-0.5,0.5s0.2,0.5,0.5,0.5s0.5-0.2,0.5-0.5S218.6,347.4,218.4,347.4z"/>
		<path class="st45" d="M207,338.8c-0.1,0-0.2,0-0.2,0.1c0.1-0.2,0-0.5-0.2-0.7c-0.1,0-0.2-0.1-0.2-0.1c-0.3,0-0.5,0.2-0.5,0.5
			s0.2,0.5,0.5,0.5c0.1,0,0.2,0,0.2-0.1c-0.1,0.2,0,0.5,0.2,0.7c0.2,0.1,0.5,0,0.7-0.2s0-0.5-0.2-0.7
			C207.2,338.8,207.1,338.8,207,338.8z"/>
		<path class="st45" d="M227,329.4c-0.3,0-0.5,0.2-0.5,0.5s0.2,0.5,0.5,0.5s0.5-0.2,0.5-0.5S227.3,329.4,227,329.4z"/>
		<path class="st45" d="M222.4,315.4c-0.3,0-0.5,0.2-0.5,0.5s0.2,0.5,0.5,0.5s0.5-0.2,0.5-0.5S222.6,315.4,222.4,315.4z"/>
		<path class="st45" d="M221,304.8c-0.3,0-0.5,0.2-0.5,0.5s0.2,0.5,0.5,0.5s0.5-0.2,0.5-0.5S221.3,304.8,221,304.8z"/>
		<path class="st45" d="M225.7,299.4c-0.3,0-0.5,0.2-0.5,0.5s0.2,0.5,0.5,0.5s0.5-0.2,0.5-0.5S226,299.4,225.7,299.4z"/>
		<path class="st45" d="M227.7,299.4c-0.3,0-0.5,0.2-0.5,0.5s0.2,0.5,0.5,0.5s0.5-0.2,0.5-0.5S228,299.4,227.7,299.4z"/>
		<path class="st45" d="M643.7,326.1c-0.3,0-0.5,0.2-0.5,0.5s0.2,0.5,0.5,0.5s0.5-0.2,0.5-0.5S644,326.1,643.7,326.1z"/>
		<path class="st45" d="M649.7,320.8c-0.3,0-0.5,0.2-0.5,0.5s0.2,0.5,0.5,0.5s0.5-0.2,0.5-0.5S650,320.8,649.7,320.8z"/>
		<path class="st45" d="M655.7,334.1c-0.3,0-0.5,0.2-0.5,0.5s0.2,0.5,0.5,0.5s0.5-0.2,0.5-0.5S656,334.1,655.7,334.1z"/>
		<path class="st45" d="M643.7,327.4c-0.3,0-0.5,0.2-0.5,0.5s0.2,0.5,0.5,0.5s0.5-0.2,0.5-0.5S644,327.4,643.7,327.4z"/>
		<path class="st45" d="M637,316.1c-0.3,0-0.5,0.2-0.5,0.5s0.2,0.5,0.5,0.5s0.5-0.2,0.5-0.5S637.3,316.1,637,316.1z"/>
		<path class="st45" d="M642.4,306.8c-0.3,0-0.5,0.2-0.5,0.5s0.2,0.5,0.5,0.5s0.5-0.2,0.5-0.5S642.6,306.8,642.4,306.8z"/>
		<path class="st45" d="M659,310.8c-0.3,0-0.5,0.2-0.5,0.5s0.2,0.5,0.5,0.5s0.5-0.2,0.5-0.5S659.3,310.8,659,310.8z"/>
		<path class="st45" d="M654.4,300.1c-0.3,0-0.5,0.2-0.5,0.5s0.2,0.5,0.5,0.5s0.5-0.2,0.5-0.5S654.6,300.1,654.4,300.1z"/>
		<path class="st45" d="M663,277.4c-0.3,0-0.5,0.2-0.5,0.5s0.2,0.5,0.5,0.5s0.5-0.2,0.5-0.5S663.3,277.4,663,277.4z"/>
		<path class="st45" d="M655.7,230.8c-0.3,0-0.5,0.2-0.5,0.5s0.2,0.5,0.5,0.5s0.5-0.2,0.5-0.5S656,230.8,655.7,230.8z"/>
		<path class="st45" d="M665.7,240.8c-0.3,0-0.5,0.2-0.5,0.5c0,0.3,0.2,0.5,0.5,0.5c0.3,0,0.5-0.2,0.5-0.5
			C666.2,241,666,240.8,665.7,240.8z"/>
		<path class="st45" d="M659,244.8c-0.3,0-0.5,0.2-0.5,0.5s0.2,0.5,0.5,0.5s0.5-0.2,0.5-0.5S659.3,244.8,659,244.8z"/>
		<path class="st45" d="M659.7,260.8c-0.3,0-0.5,0.2-0.5,0.5s0.2,0.5,0.5,0.5s0.5-0.2,0.5-0.5S660,260.8,659.7,260.8z"/>
	</g>
</g>
<g id="items">
	
		<rect x="248.7" y="128.7" transform="matrix(0.9291 -0.3699 0.3699 0.9291 -29.2337 113.5115)" class="st46" width="65.4" height="8.6"/>
	
		<rect x="180.5" y="84.4" transform="matrix(0.903 -0.4297 0.4297 0.903 -27.5992 89.676)" class="st46" width="8.6" height="43.1"/>
	<rect x="162.6" y="205.7" transform="matrix(0.5 -0.866 0.866 0.5 -89.7278 264.4866)" class="st46" width="43.1" height="8.6"/>
	
		<rect x="214.9" y="255.7" transform="matrix(0.9758 -0.2188 0.2188 0.9758 -51.1516 58.0482)" class="st46" width="43.1" height="8.6"/>
	
		<rect x="249.6" y="185.5" transform="matrix(0.7071 -0.7071 0.7071 0.7071 -72.0721 240.194)" class="st46" width="8.6" height="43.1"/>
	
		<rect x="282.8" y="173.6" transform="matrix(0.3589 -0.9334 0.9334 0.3589 37.1896 409.9035)" class="st46" width="68.3" height="8.6"/>
	
		<rect x="320.3" y="208.9" transform="matrix(0.8421 -0.5394 0.5394 0.8421 -60.5576 219.4943)" class="st46" width="48.4" height="8.6"/>
	
		<rect x="292.8" y="68.4" transform="matrix(0.3481 -0.9375 0.9375 0.3481 109.3251 337.1083)" class="st46" width="8.6" height="43.1"/>
	<ellipse class="st47" cx="342.9" cy="106.7" rx="43.7" ry="43.6"/>
	<ellipse class="st48" cx="342.5" cy="106.6" rx="35.9" ry="35.9"/>
	
		<linearGradient id="SVGID_24_" gradientUnits="userSpaceOnUse" x1="328.3398" y1="419.1903" x2="354.3337" y2="436.8461" gradientTransform="matrix(1 0 0 -1 0 531.89)">
		<stop  offset="0" style="stop-color:#E37D63"/>
		<stop  offset="2.000000e-02" style="stop-color:#E48063"/>
		<stop  offset="0.33" style="stop-color:#EDAE5D"/>
		<stop  offset="0.61" style="stop-color:#F4CF59"/>
		<stop  offset="0.84" style="stop-color:#F8E356"/>
		<stop  offset="1" style="stop-color:#FAEA55"/>
	</linearGradient>
	<circle class="st49" cx="342.9" cy="102.8" r="15.7"/>
	
		<linearGradient id="SVGID_25_" gradientUnits="userSpaceOnUse" x1="452.2593" y1="369.6158" x2="498.3793" y2="400.8858" gradientTransform="matrix(1 0 0 -1 -127.96 517.44)">
		<stop  offset="0" style="stop-color:#E37D63"/>
		<stop  offset="9.000000e-02" style="stop-color:#E89460"/>
		<stop  offset="0.25" style="stop-color:#EEB35C"/>
		<stop  offset="0.42" style="stop-color:#F3CB59"/>
		<stop  offset="0.59" style="stop-color:#F7DC57"/>
		<stop  offset="0.78" style="stop-color:#F9E755"/>
		<stop  offset="1" style="stop-color:#FAEA55"/>
	</linearGradient>
	<path class="st50" d="M339.5,117.9c-3.8,0.3-7.4,1.3-10.9,2.9c-2.8,1.3-5.3,3-7.4,5.2c-3.7,3.9-6,9-6.3,14.4
		c16.1,13.5,39.5,13.7,55.7,0.3c0-3.5-0.9-7-2.6-10.1c-1.5-2.8-3.7-5.1-6.3-6.9c-2.1-1.5-4.4-2.7-6.9-3.7c-2.7-1.1-5.4-1.9-8.3-2.3
		C343.9,117.9,342.1,117.7,339.5,117.9z"/>
	<ellipse class="st47" cx="290.9" cy="247.9" rx="43.7" ry="43.6"/>
	<ellipse class="st48" cx="290.5" cy="247.9" rx="35.9" ry="35.9"/>
	
		<linearGradient id="SVGID_26_" gradientUnits="userSpaceOnUse" x1="278.1731" y1="279.1154" x2="300.7231" y2="294.4854" gradientTransform="matrix(1 0 0 -1 0 531.89)">
		<stop  offset="0" style="stop-color:#1E3867"/>
		<stop  offset="9.000000e-02" style="stop-color:#1B336F"/>
		<stop  offset="0.19" style="stop-color:#16297F"/>
		<stop  offset="0.4" style="stop-color:#0C179E"/>
		<stop  offset="0.61" style="stop-color:#060AB3"/>
		<stop  offset="0.81" style="stop-color:#0103C1"/>
		<stop  offset="1" style="stop-color:#0000C5"/>
	</linearGradient>
	<circle class="st51" cx="290.9" cy="244.1" r="15.7"/>
	
		<linearGradient id="SVGID_27_" gradientUnits="userSpaceOnUse" x1="410.2503" y1="233.3696" x2="436.0903" y2="254.5596" gradientTransform="matrix(1 0 0 -1 -127.96 517.44)">
		<stop  offset="0" style="stop-color:#1E3867"/>
		<stop  offset="0.15" style="stop-color:#162A7F"/>
		<stop  offset="0.37" style="stop-color:#0D189E"/>
		<stop  offset="0.59" style="stop-color:#060AB3"/>
		<stop  offset="0.81" style="stop-color:#0103C1"/>
		<stop  offset="1" style="stop-color:#0000C5"/>
	</linearGradient>
	<path class="st52" d="M287.5,259.2c-3.8,0.3-7.4,1.3-10.9,2.9c-2.8,1.3-5.3,3-7.4,5.2c-3.7,3.9-5.9,9-6.3,14.4
		c7.6,6.5,17.4,10,27.4,9.8c10.3,0.6,20.4-2.8,28.3-9.5c0.1-6.8-3.3-13.2-8.9-17c-4.5-3.1-9.7-5.2-15.1-6
		C291.9,259.2,290.1,258.9,287.5,259.2z"/>
	<ellipse class="st47" cx="211.5" cy="162.4" rx="43.7" ry="43.6"/>
	<ellipse class="st48" cx="211" cy="162.3" rx="35.9" ry="35.9"/>
	
		<linearGradient id="SVGID_28_" gradientUnits="userSpaceOnUse" x1="201.9271" y1="365.6936" x2="226.4101" y2="385.388" gradientTransform="matrix(1 0 0 -1 0 531.89)">
		<stop  offset="0" style="stop-color:#5B2196"/>
		<stop  offset="0.17" style="stop-color:#6D2196"/>
		<stop  offset="0.38" style="stop-color:#7C2196"/>
		<stop  offset="0.64" style="stop-color:#852196"/>
		<stop  offset="1" style="stop-color:#882196"/>
	</linearGradient>
	<circle class="st53" cx="211.5" cy="158.5" r="15.7"/>
	
		<linearGradient id="SVGID_29_" gradientUnits="userSpaceOnUse" x1="328.9844" y1="318.9438" x2="363.0744" y2="343.1938" gradientTransform="matrix(1 0 0 -1 -127.96 517.44)">
		<stop  offset="0" style="stop-color:#5B2196"/>
		<stop  offset="3.000000e-02" style="stop-color:#5D2196"/>
		<stop  offset="0.39" style="stop-color:#752196"/>
		<stop  offset="0.72" style="stop-color:#832196"/>
		<stop  offset="1" style="stop-color:#882196"/>
	</linearGradient>
	<path class="st54" d="M208,173.7c-3.8,0.3-7.4,1.3-10.9,2.9c-2.8,1.3-5.3,3-7.4,5.2c-3.7,3.9-6,9-6.3,14.4
		c7.6,6.5,17.4,10,27.4,9.8c10.3,0.6,20.4-2.8,28.3-9.5c0.1-6.8-3.3-13.2-8.9-17c-4.5-3.1-9.7-5.2-15.1-6
		C212.5,173.7,210.7,173.4,208,173.7z"/>
	
		<linearGradient id="SVGID_30_" gradientUnits="userSpaceOnUse" x1="179.028" y1="436.9291" x2="164.528" y2="468.9091" gradientTransform="matrix(1 0 0 -1 0 531.89)">
		<stop  offset="0" style="stop-color:#0FA69A"/>
		<stop  offset="0.34" style="stop-color:#25C0D6"/>
		<stop  offset="0.56" style="stop-color:#33D2FF"/>
		<stop  offset="0.85" style="stop-color:#B4E7F6"/>
		<stop  offset="1" style="stop-color:#F1F1F1"/>
	</linearGradient>
	<ellipse class="st55" cx="171.9" cy="79.2" rx="16.1" ry="15.9"/>
	
		<linearGradient id="SVGID_31_" gradientUnits="userSpaceOnUse" x1="178.738" y1="284.6491" x2="164.238" y2="316.6291" gradientTransform="matrix(1 0 0 -1 0 531.89)">
		<stop  offset="0" style="stop-color:#0FA69A"/>
		<stop  offset="0.34" style="stop-color:#25C0D6"/>
		<stop  offset="0.56" style="stop-color:#33D2FF"/>
		<stop  offset="0.85" style="stop-color:#B4E7F6"/>
		<stop  offset="1" style="stop-color:#F1F1F1"/>
	</linearGradient>
	<ellipse class="st56" cx="171.6" cy="231.5" rx="16.1" ry="15.9"/>
	
		<linearGradient id="SVGID_32_" gradientUnits="userSpaceOnUse" x1="214.4561" y1="249.5082" x2="199.9561" y2="281.4782" gradientTransform="matrix(1 0 0 -1 0 531.89)">
		<stop  offset="0" style="stop-color:#0FA69A"/>
		<stop  offset="0.34" style="stop-color:#25C0D6"/>
		<stop  offset="0.56" style="stop-color:#33D2FF"/>
		<stop  offset="0.85" style="stop-color:#B4E7F6"/>
		<stop  offset="1" style="stop-color:#F1F1F1"/>
	</linearGradient>
	<ellipse class="st57" cx="207.3" cy="266.7" rx="16.1" ry="15.9"/>
	
		<linearGradient id="SVGID_33_" gradientUnits="userSpaceOnUse" x1="274.458" y1="436.9291" x2="259.958" y2="468.9091" gradientTransform="matrix(1 0 0 -1 0 531.89)">
		<stop  offset="0" style="stop-color:#0FA69A"/>
		<stop  offset="0.34" style="stop-color:#25C0D6"/>
		<stop  offset="0.56" style="stop-color:#33D2FF"/>
		<stop  offset="0.85" style="stop-color:#B4E7F6"/>
		<stop  offset="1" style="stop-color:#F1F1F1"/>
	</linearGradient>
	<ellipse class="st58" cx="267.3" cy="79.2" rx="16.1" ry="15.9"/>
	
		<linearGradient id="SVGID_34_" gradientUnits="userSpaceOnUse" x1="638.359" y1="466.9295" x2="623.859" y2="498.9095" gradientTransform="matrix(0.1151 0.9934 1.0331 -0.1197 -201.2054 -372.2012)">
		<stop  offset="0" style="stop-color:#0FA69A"/>
		<stop  offset="0.34" style="stop-color:#25C0D6"/>
		<stop  offset="0.56" style="stop-color:#33D2FF"/>
		<stop  offset="0.85" style="stop-color:#B4E7F6"/>
		<stop  offset="1" style="stop-color:#F1F1F1"/>
	</linearGradient>
	<path class="st59" d="M368.7,180.7c9-1,17.2,5.3,18.2,14.1c1,8.9-5.5,16.9-14.5,17.9c-9,1-17.2-5.3-18.2-14.1
		C353.2,189.8,359.7,181.8,368.7,180.7z"/>
	
		<rect x="441.5" y="93.3" transform="matrix(0.9475 -0.3196 0.3196 0.9475 -14.3811 148.0484)" class="st60" width="4.8" height="49.1"/>
	
		<rect x="453.3" y="127.8" transform="matrix(0.9174 -0.3979 0.3979 0.9174 -12.3329 200.9083)" class="st60" width="49.1" height="4.8"/>
	
		<rect x="388.7" y="95.8" transform="matrix(0.9812 -0.1932 0.1932 0.9812 -11.1763 81.6973)" class="st60" width="49.1" height="4.8"/>
	
		<linearGradient id="SVGID_35_" gradientUnits="userSpaceOnUse" x1="454.6205" y1="386.1202" x2="449.7305" y2="397.0802" gradientTransform="matrix(1 0 0 -1 0 531.89)">
		<stop  offset="0" style="stop-color:#3E58B2"/>
		<stop  offset="0.24" style="stop-color:#5C71BE"/>
		<stop  offset="0.56" style="stop-color:#7C8DCB"/>
		<stop  offset="0.82" style="stop-color:#909ED3"/>
		<stop  offset="1" style="stop-color:#97A4D6"/>
	</linearGradient>
	<ellipse class="st61" cx="452.5" cy="140.9" rx="6" ry="5.9"/>
	
		<linearGradient id="SVGID_36_" gradientUnits="userSpaceOnUse" x1="502.9014" y1="406.4106" x2="498.0214" y2="417.3706" gradientTransform="matrix(1 0 0 -1 0 531.89)">
		<stop  offset="0" style="stop-color:#3E58B2"/>
		<stop  offset="0.24" style="stop-color:#5C71BE"/>
		<stop  offset="0.56" style="stop-color:#7C8DCB"/>
		<stop  offset="0.82" style="stop-color:#909ED3"/>
		<stop  offset="1" style="stop-color:#97A4D6"/>
	</linearGradient>
	<ellipse class="st62" cx="500.8" cy="120.7" rx="6" ry="5.9"/>
	
		<linearGradient id="SVGID_37_" gradientUnits="userSpaceOnUse" x1="728.2535" y1="503.0309" x2="723.3635" y2="513.9909" gradientTransform="matrix(0.229 0.9734 0.9734 -0.229 -225.0287 -496.965)">
		<stop  offset="0" style="stop-color:#3E58B2"/>
		<stop  offset="0.24" style="stop-color:#5C71BE"/>
		<stop  offset="0.56" style="stop-color:#7C8DCB"/>
		<stop  offset="0.82" style="stop-color:#909ED3"/>
		<stop  offset="1" style="stop-color:#97A4D6"/>
	</linearGradient>
	<path class="st63" d="M434.2,87.7c3.2-0.7,6.3,1.3,7.1,4.5c0.8,3.2-1.2,6.4-4.3,7.2s-6.3-1.3-7.1-4.5S431.1,88.4,434.2,87.7z"/>
	
		<linearGradient id="SVGID_38_" gradientUnits="userSpaceOnUse" x1="393.1867" y1="424.4085" x2="388.2967" y2="435.3685" gradientTransform="matrix(1 0 0 -1 0 531.89)">
		<stop  offset="0" style="stop-color:#3E58B2"/>
		<stop  offset="0.24" style="stop-color:#5C71BE"/>
		<stop  offset="0.56" style="stop-color:#7C8DCB"/>
		<stop  offset="0.82" style="stop-color:#909ED3"/>
		<stop  offset="1" style="stop-color:#97A4D6"/>
	</linearGradient>
	<ellipse class="st64" cx="391" cy="102.7" rx="6" ry="5.9"/>
	<path class="st65" d="M403.5,81.2l14.9,41.4l38.9-8l28.3,24.9c1.2,0.6,2.7,0.1,3.2-1.1c0.4-0.7,0.3-1.6-0.1-2.3l-30.3-26.3
		l-37.1,7.7L408,80.4c-0.3-1.2-1.6-2-2.8-1.7C404.1,79,403.3,80.1,403.5,81.2z"/>
	
		<linearGradient id="SVGID_39_" gradientUnits="userSpaceOnUse" x1="760.73" y1="287.7007" x2="775.82" y2="287.7007" gradientTransform="matrix(1 0 0 -1 -127.96 517.44)">
		<stop  offset="0" style="stop-color:#97A4D6"/>
		<stop  offset="0.11" style="stop-color:#7484B1"/>
		<stop  offset="0.23" style="stop-color:#53678E"/>
		<stop  offset="0.36" style="stop-color:#3A5073"/>
		<stop  offset="0.49" style="stop-color:#274060"/>
		<stop  offset="0.62" style="stop-color:#1D3655"/>
		<stop  offset="0.75" style="stop-color:#193351"/>
	</linearGradient>
	<path class="st66" d="M633.5,209.9c-0.4,13.1-0.4,25.4-0.7,38.5c1.2,3.8,4.9,6.3,8.9,5.8c3-0.6,5.3-2.7,6.2-5.6
		c-0.4-13.2-0.7-26.3-1.1-39.5c-0.3-0.7-0.7-1.4-1.3-2c-2.6-2.7-8.1-2.9-10.5-0.2C634.3,207.9,633.8,208.9,633.5,209.9z"/>
	
		<linearGradient id="SVGID_40_" gradientUnits="userSpaceOnUse" x1="636.59" y1="329.76" x2="643.32" y2="329.76" gradientTransform="matrix(1 0 0 -1 0 531.89)">
		<stop  offset="5.000000e-02" style="stop-color:#A8D1E2"/>
		<stop  offset="0.49" style="stop-color:#97A4D6"/>
		<stop  offset="0.59" style="stop-color:#8D9BD2"/>
		<stop  offset="0.76" style="stop-color:#7083C6"/>
		<stop  offset="0.98" style="stop-color:#435CB4"/>
		<stop  offset="1" style="stop-color:#3E58B2"/>
	</linearGradient>
	<rect x="636.6" y="197" class="st67" width="6.7" height="10.2"/>
	
		<linearGradient id="SVGID_41_" gradientUnits="userSpaceOnUse" x1="605.19" y1="365.22" x2="673.47" y2="365.22" gradientTransform="matrix(1 0 0 -1 0 531.89)">
		<stop  offset="5.000000e-02" style="stop-color:#A8D1E2"/>
		<stop  offset="0.49" style="stop-color:#97A4D6"/>
		<stop  offset="0.59" style="stop-color:#8D9BD2"/>
		<stop  offset="0.76" style="stop-color:#7083C6"/>
		<stop  offset="0.98" style="stop-color:#435CB4"/>
		<stop  offset="1" style="stop-color:#3E58B2"/>
	</linearGradient>
	<circle class="st68" cx="639.3" cy="166.7" r="34.1"/>
	
		<linearGradient id="SVGID_42_" gradientUnits="userSpaceOnUse" x1="611.637" y1="354.2977" x2="645.1769" y2="367.7077" gradientTransform="matrix(1 0 0 -1 0 531.89)">
		<stop  offset="5.000000e-02" style="stop-color:#FFFFFF"/>
		<stop  offset="1" style="stop-color:#F1F1F1"/>
	</linearGradient>
	<circle class="st69" cx="639.3" cy="166.5" r="27.4"/>
	<path class="st70" d="M616,141.7c0.1,0.2,0.2,0.9,0.6,1c0.7,0.3,1.5-0.1,2.4-0.6c1.7-1.3,12.7-9.8,27-6.6
		c5.3,1.1,10.2,3.6,14.3,7.1c0.5,0.5,1.4,0.8,1.9,0.4s0.3-1.1,0.3-1.2c-2.6-2.5-5.6-4.6-8.9-6.2c-4.2-2.1-8.8-3.3-13.6-3.4
		c-3.9,0.1-7.8,0.7-11.5,1.9C622.7,136.4,618.7,138.9,616,141.7z"/>
	<path class="st71" d="M612.1,162.9c1.8-13.5,13.1-23.8,26.8-24.1c7,0,13.7,2.6,18.8,7.3c7.7,7.3,9,15.4,9,18.5
		c-1.4-6.2-4.8-11.8-9.6-16c-5-4.3-11.5-6.7-18.1-6.7C626.4,142.1,615.4,150.7,612.1,162.9L612.1,162.9z"/>
	<path class="st72" d="M621.1,166.5c0,9,5.7,16.4,12.8,16.4"/>
</g>
</svg>
