<svg xmlns="http://www.w3.org/2000/svg" viewBox="0 0 2504 479.01"><defs><style>.cls-1{fill:#fff;}</style></defs><title>Recurso 11</title><g id="Capa_2" data-name="Capa 2"><g id="_1-_nave" data-name="1- nave"><path class="cls-1" d="M2504,0V479H0V206.75c5.29,63.9-11.09,115.59,48.56,158.34,25,17.9,54.2,27.26,83.73,34.56a1188.28,1188.28,0,0,0,230.93,33.44c73.52,3.34,146.65-3.24,214-35.1,76.7-36.3,164.21-49.24,245.34-24.17C937.9,409.49,1058,391,1158.62,350.35c95.35-38.48,203.24-32.36,288.91,24.32a431.45,431.45,0,0,0,249.33,71.48c94.3-2.57,194.18-40.3,237-72.09,38.61-28.7,91-50.23,139.19-47.7,136,7.17,276.21-49.25,352.93-160.68C2458.8,118,2487.41,59.23,2504,0Z"/></g></g></svg>