<svg xmlns="http://www.w3.org/2000/svg" xmlns:xlink="http://www.w3.org/1999/xlink" viewBox="0 0 2633.46 1883.87"><defs><style>.cls-1,.cls-20{fill:none;}.cls-2{clip-path:url(#clip-path);}.cls-10,.cls-11,.cls-3,.cls-9{fill:#fff;}.cls-3{stroke:#000;}.cls-20,.cls-3{stroke-miterlimit:10;}.cls-4{fill:url(#Degradado_sin_nombre_12);}.cls-5{fill:url(#Degradado_sin_nombre_21);}.cls-6{fill:url(#Degradado_sin_nombre_21-2);}.cls-10,.cls-7{opacity:0.8;}.cls-8{opacity:0.85;}.cls-11,.cls-12{opacity:0.5;}.cls-13{fill:url(#Degradado_sin_nombre_5);}.cls-14{fill:url(#Degradado_sin_nombre_6);}.cls-15{fill:url(#Degradado_sin_nombre_21-3);}.cls-16{fill:url(#Degradado_sin_nombre_5-2);}.cls-17,.cls-18,.cls-19{opacity:0.7;}.cls-17{fill:url(#Degradado_sin_nombre_21-4);}.cls-18{fill:url(#Degradado_sin_nombre_5-3);}.cls-20{stroke:#cfcfcf;stroke-linecap:round;stroke-width:2px;}</style><clipPath id="clip-path"><rect class="cls-1" x="68.35" y="44.26" width="2504.5" height="1731.11"/></clipPath><linearGradient id="Degradado_sin_nombre_12" x1="503.1" y1="2007.48" x2="2389.93" y2="-445.24" gradientTransform="matrix(1, 0, 0, 0.99, -0.15, -3.17)" gradientUnits="userSpaceOnUse"><stop offset="0.02" stop-color="#6bcdc3"/><stop offset="0.23" stop-color="#0fa599"/><stop offset="0.47" stop-color="#3e56b0"/><stop offset="0.71" stop-color="#223d88"/><stop offset="0.95" stop-color="#6d22af"/></linearGradient><linearGradient id="Degradado_sin_nombre_21" x1="1065.46" y1="1076.84" x2="1119.31" y2="1076.84" gradientTransform="matrix(1, -0.01, 0.01, 1, -2.48, 6.68)" gradientUnits="userSpaceOnUse"><stop offset="0" stop-color="#fff" stop-opacity="0"/><stop offset="1" stop-color="#faaf3b" stop-opacity="0.7"/></linearGradient><linearGradient id="Degradado_sin_nombre_21-2" x1="281.3" y1="1509.76" x2="354.53" y2="1509.76" gradientTransform="translate(27.18 -1.93) rotate(3.66)" xlink:href="#Degradado_sin_nombre_21"/><radialGradient id="Degradado_sin_nombre_5" cx="354.8" cy="1464.1" r="16.56" gradientTransform="matrix(0.95, -0.3, 0.27, 0.85, -449.18, 343.74)" gradientUnits="userSpaceOnUse"><stop offset="0.27" stop-color="#fff"/><stop offset="1" stop-color="#f1f1f1" stop-opacity="0.2"/></radialGradient><radialGradient id="Degradado_sin_nombre_6" cx="1115.16" cy="1037.52" r="4.95" gradientTransform="translate(1271.72 -487.17) rotate(52.41)" gradientUnits="userSpaceOnUse"><stop offset="0.65" stop-color="#fff"/><stop offset="1" stop-color="#f1f1f1" stop-opacity="0.2"/></radialGradient><linearGradient id="Degradado_sin_nombre_21-3" x1="1534.27" y1="749.87" x2="1581.75" y2="749.87" gradientTransform="translate(28 70.43) rotate(-2.06)" xlink:href="#Degradado_sin_nombre_21"/><radialGradient id="Degradado_sin_nombre_5-2" cx="1579.96" cy="712.5" r="10.74" gradientTransform="matrix(0.92, -0.39, 0.35, 0.82, -72.23, 771.86)" xlink:href="#Degradado_sin_nombre_5"/><linearGradient id="Degradado_sin_nombre_21-4" x1="2297.2" y1="973.78" x2="2370.42" y2="973.78" gradientTransform="translate(-30.35 131.22) rotate(-4.69)" xlink:href="#Degradado_sin_nombre_21"/><radialGradient id="Degradado_sin_nombre_5-3" cx="2367.45" cy="916.06" r="16.56" gradientTransform="matrix(0.9, -0.44, 0.39, 0.8, -85.73, 1159.07)" xlink:href="#Degradado_sin_nombre_5"/></defs><title>Recurso 4</title><g id="Capa_2" data-name="Capa 2"><g id="_1-_nave" data-name="1- nave"><g class="cls-2"><rect class="cls-3" x="22.26" y="1262.45" width="2610.69" height="591.06"/><path class="cls-4" d="M2603.68,18.47c17,18.25-19.17,1145.64-21.45,1197.21-3.79,85.81,65,516.32,15.62,588.08-76.73,111.43-335,63.17-471,56-48.16-2.54-122.39-55.7-161-27-42.78,31.8-99.7,48.43-194,51-75.92,2.07-313.62-24.82-397-80-85.66-56.68-130.66-9.49-226,29-100.64,40.63-201.63,14.66-317-21-81.13-25.08-117.3-42.3-194-6-67.33,31.86-137.48,15.34-211,12-77.83-3.54-169.39,11.69-245-7-29.53-7.3-135,7.9-160-10-71.08-50.94,55.79-246,35.34-327.91-45-180.22-56.06-440.33-35.35-624.31,8.25-73.31-5.39-824.45,53.3-832.07C183.25,2.44,2574.2-13.13,2603.68,18.47Z"/><path class="cls-5" d="M1085,1107.88a16.73,16.73,0,0,0,3.39-2.31c4.11-3.62,32.49-54.11,39.67-66,.75-1.24,1.47-2.5,2.26-3.72a3.77,3.77,0,0,0,.55-2.75l-.21-1.21a3.82,3.82,0,0,0-7-1.29c-6,8.92-34.14,47.27-41.08,59-2.3,3.88-4.46,9-4.52,13.63C1078,1106.69,1082.24,1109.26,1085,1107.88Z"/><path class="cls-6" d="M277.93,1472.63l-2.63.84a7.67,7.67,0,0,0-4.18,3.33l-61.69,100.46.38.15,76-92a8.21,8.21,0,0,0,1.85-4.71C288,1475.17,283,1471,277.93,1472.63Z"/><g class="cls-7"><g class="cls-8"><circle class="cls-9" cx="1629.3" cy="1432.32" r="3.51"/><circle class="cls-9" cx="1941.08" cy="1476.72" r="3.51"/><circle class="cls-9" cx="1727.53" cy="1425.64" r="2.46"/><circle class="cls-9" cx="1509.78" cy="1516.21" r="2.46"/><circle class="cls-10" cx="1946.99" cy="1629.23" r="5.62"/><circle class="cls-9" cx="1659.28" cy="1700.21" r="2.46"/><circle class="cls-9" cx="1725.33" cy="1635.19" r="2.46"/><circle class="cls-10" cx="1656.85" cy="1597.37" r="2.46"/><circle class="cls-9" cx="1923.05" cy="1365.95" r="3.51"/><circle class="cls-9" cx="1971.38" cy="1548.12" r="1.72"/><circle class="cls-10" cx="1627.14" cy="1593" r="5.62"/><circle class="cls-9" cx="1740.18" cy="1334.41" r="8.43"/><circle class="cls-10" cx="1838.43" cy="1498.81" r="8.43"/></g><g class="cls-8"><circle class="cls-9" cx="2434.59" cy="977.63" r="2.46"/><circle class="cls-10" cx="2215.07" cy="667.71" r="2.46"/><circle class="cls-10" cx="2456.61" cy="1100.76" r="3.51"/><circle class="cls-10" cx="2326.59" cy="1034.74" r="2.46"/><circle class="cls-10" cx="2246.91" cy="902.64" r="2.46"/><circle class="cls-10" cx="2337.15" cy="881.51" r="2.46"/><circle class="cls-10" cx="2298.38" cy="813.57" r="2.46"/><circle class="cls-9" cx="2445.47" cy="920.53" r="3.51"/><circle class="cls-10" cx="2275.28" cy="794.37" r="5.62"/></g><g class="cls-8"><ellipse class="cls-9" cx="2215.22" cy="1106.69" rx="1.78" ry="1.58" transform="translate(-242.47 1409.55) rotate(-33.57)"/><ellipse class="cls-10" cx="2184.14" cy="1070.91" rx="3.53" ry="3.21" transform="translate(-59.09 2011.78) rotate(-48.87)"/><ellipse class="cls-10" cx="2415.1" cy="1230.51" rx="3.86" ry="3.51"/><ellipse class="cls-9" cx="2244.68" cy="1238.28" rx="3.86" ry="3.51"/><ellipse class="cls-9" cx="2418.1" cy="1367.78" rx="3.86" ry="3.51"/><ellipse class="cls-10" cx="2428.53" cy="1241.31" rx="1.89" ry="1.72"/><ellipse class="cls-9" cx="2225.93" cy="1135.5" rx="3.53" ry="3.21" transform="translate(-93.44 2065.36) rotate(-48.87)"/><ellipse class="cls-9" cx="2214.56" cy="1459.73" rx="2.7" ry="2.46"/><ellipse class="cls-10" cx="2274.98" cy="1191.1" rx="2.7" ry="2.46"/><ellipse class="cls-9" cx="2028.11" cy="1120.03" rx="2.7" ry="2.46"/><ellipse class="cls-9" cx="2217.89" cy="1584.78" rx="3.86" ry="3.51"/><ellipse class="cls-9" cx="2315.16" cy="1488.21" rx="6.17" ry="5.62"/><ellipse class="cls-9" cx="2087.84" cy="1499.76" rx="2.7" ry="2.46"/><ellipse class="cls-9" cx="2124.88" cy="1349.92" rx="2.7" ry="2.46"/><ellipse class="cls-9" cx="2094.15" cy="1276.86" rx="2.7" ry="2.46"/><ellipse class="cls-10" cx="2235.89" cy="1404.95" rx="3.86" ry="3.51"/><ellipse class="cls-9" cx="2481.33" cy="1271.46" rx="3.86" ry="3.51"/><ellipse class="cls-9" cx="2393.03" cy="1441.91" rx="1.89" ry="1.72"/><ellipse class="cls-9" cx="2072.3" cy="1254.37" rx="6.17" ry="5.62"/><ellipse class="cls-10" cx="2481.06" cy="1212.3" rx="6.17" ry="5.62"/><ellipse class="cls-10" cx="2346.76" cy="1148.4" rx="7.41" ry="6.75"/><ellipse class="cls-9" cx="2319.69" cy="1299.62" rx="7.41" ry="6.75"/></g><g class="cls-8"><circle class="cls-9" cx="1732.35" cy="809.14" r="3.92"/><circle class="cls-10" cx="1926.12" cy="642.4" r="3.92"/><circle class="cls-9" cx="2067.35" cy="702.08" r="3.92"/><circle class="cls-10" cx="1942.69" cy="634.84" r="1.92"/><circle class="cls-9" cx="1794.05" cy="820.31" r="3.92"/><circle class="cls-10" cx="2076.75" cy="933" r="2.75"/><circle class="cls-9" cx="1653.03" cy="931.58" r="2.75"/><circle class="cls-10" cx="2205.66" cy="986.81" r="3.92"/><circle class="cls-10" cx="2147.49" cy="852.51" r="6.28"/><circle class="cls-10" cx="1924.44" cy="852" r="7.53"/><circle class="cls-9" cx="2065.04" cy="1068.93" r="2.75"/><circle class="cls-10" cx="1927.59" cy="966.34" r="2.75"/><circle class="cls-9" cx="1840.35" cy="961.64" r="2.75"/><circle class="cls-10" cx="2029.73" cy="888.26" r="3.92"/><circle class="cls-10" cx="1995.33" cy="599.51" r="3.92"/><circle class="cls-10" cx="2132.55" cy="759.11" r="1.92"/><circle class="cls-9" cx="1808.35" cy="971.7" r="6.28"/><path class="cls-10" d="M1979.13,777.82c-.67,4.11-14,11.89-19.16,11s3.61-9.37,4.29-13.48a7.53,7.53,0,0,1,14.87,2.43Z"/></g><g class="cls-8"><ellipse class="cls-9" cx="1835.88" cy="1013.09" rx="1.81" ry="1.7" transform="translate(775.07 2821.82) rotate(-88.5)"/><circle class="cls-9" cx="1880.05" cy="986.1" r="3.51"/><circle class="cls-9" cx="1827.51" cy="1296.61" r="3.51"/><circle class="cls-9" cx="1639.94" cy="1209.16" r="2.46"/><circle class="cls-9" cx="1884.16" cy="1084.48" r="2.46"/><circle class="cls-9" cx="1789.51" cy="815.38" r="2.46"/><ellipse class="cls-9" cx="1813.86" cy="661.35" rx="2.02" ry="1.89" transform="translate(-55.75 179.67) rotate(-5.58)"/><circle class="cls-9" cx="1826.1" cy="696.09" r="3.92"/><circle class="cls-9" cx="1821.57" cy="691.16" r="2.46"/><circle class="cls-9" cx="1544.14" cy="1289.59" r="3.51"/><circle class="cls-9" cx="1536.61" cy="1143.96" r="2.46"/><circle class="cls-9" cx="1674.74" cy="1076.79" r="2.46"/><circle class="cls-9" cx="1714.34" cy="1009.33" r="2.46"/><circle class="cls-9" cx="1755.33" cy="1325.04" r="1.72"/><circle class="cls-9" cx="1719.49" cy="979.73" r="5.62"/><circle class="cls-10" cx="1958.34" cy="1108.9" r="6.75"/><circle class="cls-9" cx="1824.8" cy="1184.03" r="6.75"/></g><g class="cls-8"><ellipse class="cls-10" cx="1327.17" cy="1079.56" rx="1.81" ry="1.7" transform="translate(28.74 2193.51) rotate(-79.75)"/><circle class="cls-10" cx="1374.94" cy="1059.59" r="3.51"/><circle class="cls-9" cx="1393.45" cy="1287.76" r="3.51"/><circle class="cls-10" cx="1309.38" cy="1157.02" r="3.51"/><circle class="cls-9" cx="1390.18" cy="1303.74" r="1.72"/><circle class="cls-10" cx="1103.69" cy="1243.54" r="2.46"/><circle class="cls-9" cx="1364.04" cy="1157.45" r="2.46"/><circle class="cls-10" cx="1313.65" cy="927.06" r="2.46"/><circle class="cls-9" cx="996.78" cy="1308.47" r="3.51"/><circle class="cls-9" cx="1124.65" cy="1337.19" r="5.62"/><path class="cls-9" d="M1125.89,1033.61a2.45,2.45,0,0,1-.6-1.75l-.08,0c-6.08,10.4-40.39,66.1-39.75,66.83s44.92-65.7,43.9-64.81A2.46,2.46,0,0,1,1125.89,1033.61Z"/><circle class="cls-10" cx="1158.22" cy="1118.01" r="2.46"/><circle class="cls-9" cx="1387.99" cy="1360.46" r="3.51"/><circle class="cls-9" cx="1200.13" cy="1375.62" r="1.72"/><circle class="cls-9" cx="1439.16" cy="1330.79" r="5.62"/></g><g class="cls-8"><ellipse class="cls-10" cx="1057.39" cy="1418.71" rx="1.81" ry="1.7" transform="translate(-526.79 2206.85) rotate(-79.75)"/><circle class="cls-9" cx="1123.67" cy="1626.91" r="3.51"/><circle class="cls-10" cx="1039.6" cy="1496.17" r="3.51"/><path class="cls-9" d="M1009.51,1697.48a3.51,3.51,0,0,0-7-.45,3.88,3.88,0,0,0,0,.83Z"/><circle class="cls-9" cx="1120.4" cy="1642.89" r="1.72"/><circle class="cls-10" cx="833.91" cy="1582.7" r="2.46"/><circle class="cls-9" cx="1094.26" cy="1496.6" r="2.46"/><circle class="cls-10" cx="1043.87" cy="1266.21" r="2.46"/><circle class="cls-10" cx="727" cy="1647.62" r="3.51"/><circle class="cls-10" cx="936.99" cy="1511.3" r="6.75"/><circle class="cls-11" cx="836.21" cy="1380.59" r="2.46"/><circle class="cls-9" cx="952.57" cy="1419.08" r="2.46"/><circle class="cls-9" cx="891.09" cy="1572.26" r="3.51"/><circle class="cls-9" cx="971.93" cy="1396.11" r="5.62"/><circle class="cls-9" cx="1181.79" cy="1525.28" r="8.43"/><circle class="cls-9" cx="963.08" cy="1580.02" r="6.75"/></g><g class="cls-8"><circle class="cls-9" cx="1297.1" cy="1555.6" r="2.46"/><circle class="cls-9" cx="1202.51" cy="1485.14" r="3.51"/><circle class="cls-9" cx="1369.5" cy="1457.19" r="2.46"/><circle class="cls-9" cx="1498.72" cy="1541.48" r="2.46"/><circle class="cls-9" cx="1426.65" cy="1599.76" r="2.46"/><circle class="cls-9" cx="1491.11" cy="1644.07" r="2.46"/><circle class="cls-9" cx="1312.14" cy="1611.74" r="3.51"/><circle class="cls-9" cx="1520.26" cy="1651.32" r="5.62"/></g><g class="cls-8"><circle class="cls-9" cx="1084.43" cy="675.97" r="3.92"/><circle class="cls-9" cx="1263.23" cy="534.49" r="3.92"/><circle class="cls-9" cx="1404.46" cy="594.17" r="3.92"/><circle class="cls-9" cx="1279.81" cy="526.93" r="1.92"/><circle class="cls-10" cx="1142.4" cy="759.57" r="3.92"/><circle class="cls-10" cx="1413.87" cy="825.09" r="2.75"/><circle class="cls-10" cx="990.15" cy="843.7" r="2.75"/><circle class="cls-9" cx="1542.77" cy="878.9" r="3.92"/><circle class="cls-10" cx="1402.16" cy="961.02" r="2.75"/><circle class="cls-10" cx="1366.85" cy="780.34" r="3.92"/><circle class="cls-9" cx="1332.45" cy="491.6" r="3.92"/><circle class="cls-9" cx="1469.67" cy="651.2" r="1.92"/><circle class="cls-10" cx="1145.47" cy="863.79" r="6.28"/></g><g class="cls-8"><ellipse class="cls-10" cx="1172.99" cy="905.18" rx="1.81" ry="1.7" transform="translate(237.42 2054.08) rotate(-88.5)"/><circle class="cls-10" cx="1140.78" cy="912.22" r="3.51"/><circle class="cls-10" cx="977.05" cy="1101.25" r="2.46"/><circle class="cls-10" cx="1136.44" cy="756.52" r="2.46"/><circle class="cls-10" cx="948.58" cy="901.15" r="2.46"/><circle class="cls-10" cx="1011.86" cy="968.88" r="2.46"/><circle class="cls-10" cx="1051.46" cy="901.41" r="2.46"/><circle class="cls-10" cx="1275.82" cy="1173.57" r="3.51"/><circle class="cls-10" cx="1092.45" cy="1217.13" r="1.72"/><circle class="cls-10" cx="1056.6" cy="871.82" r="5.62"/><circle class="cls-10" cx="1321.89" cy="1136.46" r="5.62"/><circle class="cls-10" cx="1312.14" cy="991.6" r="8.43"/><circle class="cls-10" cx="1154.86" cy="1155.61" r="6.75"/></g><g class="cls-12"><ellipse class="cls-10" cx="657.21" cy="939.41" rx="1.7" ry="1.81" transform="translate(-244.85 231.81) rotate(-16.91)"/><circle class="cls-9" cx="946.42" cy="1146.34" r="3.51"/><circle class="cls-10" cx="676.74" cy="1016.45" r="3.51"/><circle class="cls-9" cx="941.1" cy="1161.77" r="1.72"/><circle class="cls-10" cx="628.87" cy="956.26" r="3.51"/><circle class="cls-9" cx="443.02" cy="1006.46" r="2.46"/><circle class="cls-9" cx="931.54" cy="1217.72" r="3.51"/><circle class="cls-9" cx="986.14" cy="1194.96" r="5.62"/></g><g class="cls-8"><ellipse class="cls-10" cx="463.75" cy="525.01" rx="1.7" ry="1.81" transform="translate(-132.67 157.61) rotate(-16.91)"/><circle class="cls-11" cx="497.14" cy="485.45" r="3.51"/><circle class="cls-11" cx="483.28" cy="602.06" r="3.51"/><circle class="cls-10" cx="435.41" cy="541.87" r="3.51"/><circle class="cls-11" cx="532.11" cy="577.49" r="2.46"/><circle class="cls-11" cx="249.56" cy="592.07" r="2.46"/><circle class="cls-9" cx="347.25" cy="559.82" r="2.46"/></g><g class="cls-8"><ellipse class="cls-11" cx="1157.29" cy="456.8" rx="1.7" ry="1.81" transform="translate(-0.46 1.17) rotate(-0.06)"/><circle class="cls-11" cx="1200.72" cy="428.61" r="3.51"/><circle class="cls-11" cx="1153.65" cy="536.2" r="3.51"/><circle class="cls-11" cx="1125.28" cy="464.71" r="3.51"/><circle class="cls-11" cx="1291.65" cy="446.7" r="2.46"/><circle class="cls-11" cx="932.86" cy="458.87" r="2.46"/><circle class="cls-11" cx="1035.7" cy="456.34" r="2.46"/></g><g class="cls-8"><ellipse class="cls-11" cx="1674.16" cy="449.12" rx="1.88" ry="2" transform="translate(-25.49 108.97) rotate(-3.7)"/><circle class="cls-11" cx="1720.17" cy="414.91" r="3.89"/><circle class="cls-11" cx="1675.72" cy="537.12" r="3.89"/><circle class="cls-11" cx="1639.34" cy="460.12" r="3.89"/><circle class="cls-11" cx="1734.57" cy="522.99" r="2.72"/><circle class="cls-11" cx="1426.29" cy="467.19" r="2.72"/><circle class="cls-11" cx="1539.76" cy="457.16" r="2.72"/></g><g class="cls-8"><ellipse class="cls-11" cx="480.37" cy="948.07" rx="1.81" ry="1.7" transform="translate(-458.12 449.25) rotate(-35.14)"/><circle class="cls-11" cx="413.29" cy="990.72" r="3.51"/><circle class="cls-11" cx="247.87" cy="1110.55" r="3.51"/><circle class="cls-9" cx="206.11" cy="907.85" r="2.46"/><circle class="cls-11" cx="451.9" cy="1029.41" r="2.46"/><circle class="cls-9" cx="84.41" cy="878.98" r="3.51"/><circle class="cls-10" cx="155.26" cy="989.23" r="5.62"/><circle class="cls-9" cx="196.77" cy="786.04" r="2.46"/><circle class="cls-11" cx="254.14" cy="940.58" r="3.51"/><circle class="cls-9" cx="181.99" cy="1069.6" r="1.72"/></g><g class="cls-8"><circle class="cls-10" cx="670.37" cy="1659.26" r="3.51"/><circle class="cls-10" cx="536.92" cy="1626.98" r="3.51"/><circle class="cls-10" cx="656.81" cy="1668.34" r="1.72"/><circle class="cls-11" cx="866.89" cy="1346.46" r="2.46"/><circle class="cls-11" cx="638.73" cy="1282.03" r="2.46"/><circle class="cls-11" cx="622.14" cy="1373.22" r="2.46"/></g><g class="cls-8"><circle class="cls-10" cx="282.87" cy="1607.2" r="3.51"/><circle class="cls-9" cx="369.36" cy="1478.06" r="3.51"/><circle class="cls-9" cx="171.15" cy="1527.4" r="3.51"/><circle class="cls-10" cx="266.9" cy="1610.56" r="1.72"/><circle class="cls-9" cx="106.05" cy="1251.52" r="3.51"/><circle class="cls-11" cx="345.02" cy="1323.86" r="2.46"/><circle class="cls-9" cx="240.47" cy="1372.08" r="3.51"/><circle class="cls-9" cx="125.34" cy="1464.8" r="1.72"/><circle class="cls-9" cx="261.58" cy="1666.26" r="5.62"/><path class="cls-13" d="M280.92,1487.54c-5.71,5-10.29,11.22-16.62,15.48-7.21,4.84,13-31.87,18.75-26.61C285.61,1478.76,283.11,1485.62,280.92,1487.54Z"/></g><g class="cls-8"><ellipse class="cls-9" cx="953.82" cy="567.26" rx="1.7" ry="1.81" transform="translate(-26.92 47.94) rotate(-2.84)"/><circle class="cls-9" cx="995.83" cy="537" r="3.51"/><circle class="cls-9" cx="954.03" cy="646.75" r="3.51"/><circle class="cls-10" cx="966.93" cy="850.6" r="3.51"/><circle class="cls-11" cx="922.23" cy="576.72" r="3.51"/><circle class="cls-9" cx="1007.37" cy="634.79" r="2.46"/><circle class="cls-11" cx="797.97" cy="642.97" r="2.46"/><circle class="cls-11" cx="832.35" cy="572.7" r="2.46"/><circle class="cls-10" cx="1076.67" cy="827.11" r="3.51"/><circle class="cls-11" cx="897.11" cy="884.41" r="1.72"/><circle class="cls-11" cx="835.24" cy="542.8" r="5.62"/><circle class="cls-9" cx="1103.95" cy="630.33" r="6.75"/><circle class="cls-10" cx="955.71" cy="738.55" r="6.75"/></g><g class="cls-8"><ellipse class="cls-9" cx="1434.84" cy="574.11" rx="1.89" ry="2.02" transform="translate(152.07 1436.01) rotate(-55.7)"/><circle class="cls-9" cx="1436.22" cy="516.32" r="3.92"/><circle class="cls-9" cx="1677.33" cy="601.27" r="3.92"/><circle class="cls-9" cx="1695.93" cy="753.46" r="3.92"/><circle class="cls-9" cx="1692.14" cy="611.88" r="1.92"/><circle class="cls-9" cx="1421.97" cy="608.62" r="3.92"/><circle class="cls-10" cx="1500.38" cy="876.65" r="2.75"/><circle class="cls-9" cx="1531.06" cy="571.97" r="2.75"/><circle class="cls-9" cx="1273.17" cy="518.51" r="2.75"/><circle class="cls-9" cx="1517.94" cy="1015.22" r="3.92"/><circle class="cls-9" cx="1605.42" cy="897.89" r="6.28"/><circle class="cls-10" cx="1376.68" cy="934.2" r="2.75"/><circle class="cls-10" cx="1295.32" cy="782.34" r="2.75"/><circle class="cls-10" cx="1397.17" cy="763.91" r="2.75"/><circle class="cls-9" cx="1357.79" cy="685.92" r="2.75"/><circle class="cls-9" cx="1748.99" cy="639.92" r="3.92"/><circle class="cls-9" cx="1678.96" cy="838.41" r="1.92"/><circle class="cls-9" cx="1333.13" cy="663.2" r="6.28"/><circle class="cls-10" cx="1742.01" cy="574.23" r="6.28"/><circle class="cls-9" cx="1588.61" cy="516.52" r="7.53"/><ellipse class="cls-10" cx="1539.16" cy="740.09" rx="6.16" ry="5.85"/></g><g class="cls-8"><ellipse class="cls-9" cx="2175.17" cy="538.72" rx="1.8" ry="1.69" transform="translate(33.49 1198.12) rotate(-31.02)"/><circle class="cls-11" cx="2307.34" cy="454.81" r="3.49"/><circle class="cls-11" cx="2417.36" cy="394.17" r="3.49"/><circle class="cls-11" cx="2321.43" cy="446.77" r="1.71"/><circle class="cls-9" cx="2198.29" cy="561.97" r="3.49"/><circle class="cls-10" cx="2444.31" cy="598.18" r="2.45"/><circle class="cls-11" cx="2209.2" cy="460.08" r="2.45"/><circle class="cls-9" cx="2070.06" cy="648.85" r="2.45"/><circle class="cls-9" cx="2562.96" cy="635.51" r="3.49"/><circle class="cls-10" cx="2444.89" cy="719.67" r="2.45"/><circle class="cls-10" cx="2291.76" cy="729.03" r="2.45"/><circle class="cls-10" cx="2314.72" cy="639.77" r="2.45"/><circle class="cls-9" cx="2236.98" cy="642.64" r="2.45"/><circle class="cls-11" cx="2479.78" cy="439.48" r="1.71"/><circle class="cls-9" cx="2209.42" cy="654.15" r="5.59"/><ellipse class="cls-10" cx="2348.25" cy="516.04" rx="5.48" ry="5.21" transform="translate(898.79 2434.28) rotate(-65.32)"/></g><g class="cls-8"><circle class="cls-9" cx="1818.37" cy="492.37" r="3.39"/><circle class="cls-10" cx="2016.44" cy="518.65" r="2.37"/><circle class="cls-11" cx="2081.4" cy="416.85" r="3.39"/><circle class="cls-10" cx="2130.47" cy="548.8" r="2.37"/><circle class="cls-10" cx="2100.56" cy="694.72" r="2.37"/><circle class="cls-11" cx="1876.62" cy="445.31" r="1.66"/><ellipse class="cls-10" cx="1915.16" cy="587.95" rx="5.06" ry="5.32" transform="translate(238.21 1684.03) rotate(-50.24)"/></g><g class="cls-8"><circle class="cls-10" cx="747.68" cy="567.6" r="2.23"/><circle class="cls-10" cx="645.59" cy="610.36" r="2.23"/><circle class="cls-10" cx="564.39" cy="532.77" r="2.23"/><circle class="cls-9" cx="893.65" cy="542.23" r="1.56"/></g></g><ellipse class="cls-14" cx="1127.86" cy="1032.36" rx="3.43" ry="2.28" transform="translate(-374.47 1316.73) rotate(-53.19)"/><path class="cls-15" d="M1627.82,728l-1.64.71a5,5,0,0,0-2.49,2.42l-33.3,68.8.26.06,43.09-64.25a5.38,5.38,0,0,0,.88-3.16A4.94,4.94,0,0,0,1627.82,728Z"/><path class="cls-16" d="M1630.71,737.41c-3.36,3.58-5.91,7.9-9.72,11.06-4.34,3.59,6.33-21.4,10.38-18.37C1633.17,731.45,1632,736,1630.71,737.41Z"/><path class="cls-17" d="M2397.07,854.88l-2.47,1.21a7.7,7.7,0,0,0-3.66,3.9l-46.46,108.36.4.08,61.86-102a8.24,8.24,0,0,0,1.15-4.93C2407.43,855.93,2401.85,852.53,2397.07,854.88Z"/><path class="cls-18" d="M2402.2,869.19c-4.92,5.76-8.55,12.6-14.2,17.73-6.43,5.84,8.25-33.42,14.69-29C2405.56,859.83,2404.09,867,2402.2,869.19Z"/><g class="cls-19"><line class="cls-20" x1="2249.93" y1="1505.83" x2="2277.65" y2="1454.57"/><line class="cls-20" x1="1282.54" y1="1390.3" x2="1310.04" y2="1339.29"/><line class="cls-20" x1="1580.72" y1="1369.42" x2="1599.08" y2="1339.64"/><line class="cls-20" x1="1964.85" y1="1477" x2="1985.67" y2="1431.75"/></g></g></g></g></svg>