<svg xmlns="http://www.w3.org/2000/svg" xmlns:xlink="http://www.w3.org/1999/xlink" viewBox="0 0 690.33 669.39"><defs><style>.cls-1{isolation:isolate;}.cls-2,.cls-3,.cls-38,.cls-8{fill:#8ecbc1;}.cls-2,.cls-21,.cls-22,.cls-49,.cls-6{opacity:0.7;}.cls-3,.cls-34,.cls-35{opacity:0.5;}.cls-4{fill:url(#Degradado_sin_nombre_9);}.cls-5{fill:#8ec7c0;}.cls-16,.cls-7{fill:#5ea297;}.cls-32,.cls-36,.cls-37,.cls-8,.cls-9{opacity:0.3;}.cls-10,.cls-21,.cls-27,.cls-49{fill:#cdcdcd;}.cls-11,.cls-29{fill:#2d384c;}.cls-11{opacity:0.28;}.cls-12,.cls-27{opacity:0.2;}.cls-13{fill:#f1c2df;}.cls-14,.cls-16{opacity:0.6;}.cls-15,.cls-31,.cls-43{opacity:0.8;}.cls-16,.cls-19,.cls-47,.cls-48,.cls-49,.cls-50{mix-blend-mode:multiply;}.cls-17{fill:#f8e0ef;}.cls-18,.cls-24{fill:#efefef;}.cls-18,.cls-23,.cls-26{opacity:0.4;}.cls-19{fill:#5f27aa;opacity:0.25;}.cls-20{fill:#e7973e;}.cls-22,.cls-42,.cls-45,.cls-46{fill:none;}.cls-22{stroke:#cdcdcd;}.cls-22,.cls-42,.cls-43,.cls-44,.cls-45,.cls-46{stroke-miterlimit:10;}.cls-22,.cls-43,.cls-44,.cls-45{stroke-width:2px;}.cls-25{fill:#dfdfdf;}.cls-26,.cls-28,.cls-31{fill:#fff;}.cls-30{opacity:0.85;}.cls-32{fill:url(#Degradado_sin_nombre_47);}.cls-33{fill:url(#Degradado_sin_nombre_29);}.cls-34{fill:url(#Degradado_sin_nombre_35);}.cls-35{fill:url(#Degradado_sin_nombre_33);}.cls-36{fill:url(#Degradado_sin_nombre_19);}.cls-37{fill:url(#Degradado_sin_nombre_14);}.cls-39{fill:#477c73;}.cls-40{fill:#b7dfd9;}.cls-41{fill:#31544e;}.cls-42{stroke:#000;}.cls-43,.cls-44{fill:#384380;stroke:#c9c9c9;}.cls-45,.cls-46{stroke:#cde8e4;}.cls-46{stroke-linecap:round;}.cls-47{fill:#969696;opacity:0.15;}.cls-48{fill:url(#Degradado_sin_nombre_104);}.cls-50{fill:#d1d1d1;}</style><linearGradient id="Degradado_sin_nombre_9" x1="445.85" y1="245.55" x2="458.2" y2="720.25" gradientUnits="userSpaceOnUse"><stop offset="0.02" stop-color="#5f27aa"/><stop offset="0.11" stop-color="#5b29a7"/><stop offset="0.19" stop-color="#502e9f"/><stop offset="0.27" stop-color="#3e3791"/><stop offset="0.32" stop-color="#2f3f85"/><stop offset="0.4" stop-color="#36468e"/><stop offset="0.59" stop-color="#4757ac"/><stop offset="0.77" stop-color="#5ea398"/><stop offset="0.92" stop-color="#8eccc2"/></linearGradient><linearGradient id="Degradado_sin_nombre_47" x1="173.58" y1="688.53" x2="173.08" y2="690.56" gradientUnits="userSpaceOnUse"><stop offset="0" stop-color="#fff" stop-opacity="0"/><stop offset="0.01" stop-color="#f7f7fa" stop-opacity="0.02"/><stop offset="0.25" stop-color="#2f3f84" stop-opacity="0.5"/><stop offset="0.3" stop-color="#413692" stop-opacity="0.69"/><stop offset="0.35" stop-color="#512e9f" stop-opacity="0.86"/><stop offset="0.39" stop-color="#5b29a7" stop-opacity="0.96"/><stop offset="0.41" stop-color="#5f27aa"/></linearGradient><linearGradient id="Degradado_sin_nombre_29" x1="445.37" y1="687.48" x2="446.69" y2="502.5" gradientUnits="userSpaceOnUse"><stop offset="0.21" stop-color="#fff"/><stop offset="0.27" stop-color="#fbfdfc"/><stop offset="0.33" stop-color="#eff6f5" stop-opacity="0.99"/><stop offset="0.4" stop-color="#dcebe8" stop-opacity="0.98"/><stop offset="0.46" stop-color="#c0dbd7" stop-opacity="0.96"/><stop offset="0.53" stop-color="#9dc6c0" stop-opacity="0.94"/><stop offset="0.6" stop-color="#73aea4" stop-opacity="0.91"/><stop offset="0.63" stop-color="#5ea297" stop-opacity="0.9"/></linearGradient><linearGradient id="Degradado_sin_nombre_35" x1="479.54" y1="507.62" x2="577.17" y2="704.86" gradientUnits="userSpaceOnUse"><stop offset="0.55" stop-color="#fff" stop-opacity="0"/><stop offset="0.7" stop-color="#a1a6af" stop-opacity="0.27"/><stop offset="0.87" stop-color="#4c5566" stop-opacity="0.51"/><stop offset="1" stop-color="#2d384c" stop-opacity="0.6"/></linearGradient><linearGradient id="Degradado_sin_nombre_33" x1="401.38" y1="513.86" x2="361.71" y2="705.61" gradientUnits="userSpaceOnUse"><stop offset="0.59" stop-color="#fff" stop-opacity="0"/><stop offset="0.63" stop-color="#dcdee1" stop-opacity="0.1"/><stop offset="0.76" stop-color="#7b828f" stop-opacity="0.38"/><stop offset="0.88" stop-color="#414b5d" stop-opacity="0.54"/><stop offset="1" stop-color="#2d384c" stop-opacity="0.6"/></linearGradient><linearGradient id="Degradado_sin_nombre_19" x1="634.14" y1="626.92" x2="686.68" y2="830.03" gradientUnits="userSpaceOnUse"><stop offset="0.04" stop-color="#fff" stop-opacity="0"/><stop offset="0.14" stop-color="#9aa1c3" stop-opacity="0.24"/><stop offset="0.25" stop-color="#2f3f84" stop-opacity="0.5"/><stop offset="0.33" stop-color="#413692" stop-opacity="0.69"/><stop offset="0.42" stop-color="#512e9f" stop-opacity="0.86"/><stop offset="0.49" stop-color="#5b29a7" stop-opacity="0.96"/><stop offset="0.54" stop-color="#5f27aa"/></linearGradient><linearGradient id="Degradado_sin_nombre_14" x1="277.26" y1="632.3" x2="248.35" y2="750.19" gradientUnits="userSpaceOnUse"><stop offset="0" stop-color="#fff" stop-opacity="0"/><stop offset="0.02" stop-color="#f7f7fa" stop-opacity="0.02"/><stop offset="0.39" stop-color="#2f3f84" stop-opacity="0.5"/><stop offset="0.55" stop-color="#413692" stop-opacity="0.69"/><stop offset="0.72" stop-color="#512e9f" stop-opacity="0.86"/><stop offset="0.85" stop-color="#5b29a7" stop-opacity="0.96"/><stop offset="0.94" stop-color="#5f27aa"/></linearGradient><linearGradient id="Degradado_sin_nombre_104" x1="505.77" y1="1283.44" x2="551.91" y2="1321.64" gradientTransform="translate(-76.51 -787.89) rotate(0.12)" gradientUnits="userSpaceOnUse"><stop offset="0.06" stop-color="#c9c9c9" stop-opacity="0.7"/><stop offset="0.76" stop-color="#e3e3e3" stop-opacity="0.5"/></linearGradient></defs><title>Sin título-1</title><g class="cls-1"><g id="Capa_1" data-name="Capa 1"><path class="cls-2" d="M149.47,703c12.68,22.63,35,38.92,59.94,46.32,24,7.12,49.29,6.51,73.84,3.27,23.55-3.11,47.11-8.7,68.15-20.65s39.49-30.78,48.63-55.06c5.65-15,6.88-34.32-3.46-46.07-9.26-10.53-24-11-37.15-10.83l-165.63,2.51c-16.24.24-42.72-6.1-51.43,13.38-4.19,9.37-4.44,22.49-3.53,32.68A85.52,85.52,0,0,0,149.47,703Z" transform="translate(-99.88 -85.54)"/><path class="cls-2" d="M100.13,723.15c-1.65,8.37,5,17.51,13.22,17.87,7.42.33,14.42-6.57,14.49-14.29s-6.79-14.75-14.21-14.58-14,7.54-13.56,15.24" transform="translate(-99.88 -85.54)"/><path class="cls-3" d="M654.38,270.68c37.4,23.14,62.43,87.57,23.13,111.71-15,9.2-30.4,7.67-45.12-.1-19.51-10.3-35.51-27.59-43-48.34-9.19-25.42-3-60.29,25.68-69.73C628.26,259.87,642,263,654.38,270.68Z" transform="translate(-99.88 -85.54)"/><circle class="cls-2" cx="266.37" cy="195.54" r="7.33"/><path class="cls-4" d="M790.1,568.18a203.6,203.6,0,0,0-4.21-33.9c-17.24-82.54-72.75-146.17-143.13-186.2a20.94,20.94,0,0,1-10.7-19c.06-1.47.08-3,.07-4.45-.5-49.37-42.41-88.88-91.72-86.57a87.49,87.49,0,0,0-69.56,40.22,36.68,36.68,0,0,1-28.8,16.58c-10.74.62-21.7,1.72-32.73,3.3a34.55,34.55,0,0,1-22-4.24,70.23,70.23,0,0,0-34.84-9.2c-30.1,0-56.63,19.26-66.58,42.61a32.48,32.48,0,0,1-8.73,12.07c-20.83,17.76-49.71,39.06-72,60.31-24.83,23.66-46.05,51.4-61.43,82.1-22.57,45-36.25,104.2-13.06,151.8.75,1.53,1.53,3,2.36,4.53,23.17,41.81,65.33,67.53,113,75,66.91,10.42,128-22.83,193.5-27.81,49.77-3.78,98.57,12.27,147.52,22s103.38,12.26,145.06-15.2C771.93,665.91,791.93,615.84,790.1,568.18Z" transform="translate(-99.88 -85.54)"/><path class="cls-5" d="M276.87,594a105.51,105.51,0,0,1-14.73,7.53,2.5,2.5,0,0,0-1.08,2.88,1.87,1.87,0,0,0,1.7,1.63,1.46,1.46,0,0,0,.45-.1,108.45,108.45,0,0,0,15.12-7.74,2.65,2.65,0,0,0,.81-3C278.74,594,277.72,593.43,276.87,594Z" transform="translate(-99.88 -85.54)"/><path class="cls-5" d="M246.79,606.43a96.85,96.85,0,0,1-15.74,2.32,2.09,2.09,0,0,0-1.58,2.4c.07,1.26.86,2.23,1.78,2.2h0A99.54,99.54,0,0,0,247.44,611a2.29,2.29,0,0,0,1.34-2.66C248.6,607.06,247.71,606.22,246.79,606.43Z" transform="translate(-99.88 -85.54)"/><path class="cls-5" d="M215.15,608.5a102.83,102.83,0,0,1-15.79-2.79c-.93-.24-1.81.57-2,1.82a2.41,2.41,0,0,0,1.39,2.7A104.45,104.45,0,0,0,215,613.09h.16c.87,0,1.57-1,1.61-2.14A2.2,2.2,0,0,0,215.15,608.5Z" transform="translate(-99.88 -85.54)"/><path class="cls-5" d="M183.45,604.86a1.29,1.29,0,0,1-.57-.11c-2.46-1.07-4.94-2.24-7.36-3.5a2.64,2.64,0,0,1-1-3c.32-1.19,1.29-1.78,2.17-1.32,2.36,1.22,4.77,2.37,7.18,3.41a2.56,2.56,0,0,1,1.14,2.89A1.82,1.82,0,0,1,183.45,604.86Z" transform="translate(-99.88 -85.54)"/><g class="cls-6"><path class="cls-7" d="M688.25,406.28a1.41,1.41,0,0,1-1-.4,1.39,1.39,0,0,1,0-1.95A116.36,116.36,0,0,0,698,391.39a1.37,1.37,0,0,1,2.21,1.63,117.73,117.73,0,0,1-11,12.85A1.37,1.37,0,0,1,688.25,406.28Zm19.81-26.84a1.52,1.52,0,0,1-.65-.16,1.38,1.38,0,0,1-.57-1.86,104.19,104.19,0,0,0,6.55-15.15,1.38,1.38,0,0,1,2.61.88,106.59,106.59,0,0,1-6.73,15.55A1.36,1.36,0,0,1,708.06,379.44Zm10.72-31.57-.23,0a1.37,1.37,0,0,1-1.13-1.58,104.54,104.54,0,0,0,1.42-16.45,1.38,1.38,0,0,1,1.38-1.36h0a1.37,1.37,0,0,1,1.36,1.38,107.61,107.61,0,0,1-1.45,16.88A1.39,1.39,0,0,1,718.78,347.87Zm.3-33.35a1.38,1.38,0,0,1-1.36-1.18,120.47,120.47,0,0,0-3.48-16.16,1.37,1.37,0,1,1,2.64-.76A122.59,122.59,0,0,1,720.45,313a1.39,1.39,0,0,1-1.17,1.56Zm-9.2-32.08a1.39,1.39,0,0,1-1.27-.82,135.73,135.73,0,0,0-7.52-14.76,1.38,1.38,0,0,1,.49-1.88,1.36,1.36,0,0,1,1.88.49,139.39,139.39,0,0,1,7.68,15,1.38,1.38,0,0,1-.72,1.81A1.31,1.31,0,0,1,709.88,282.44ZM693,253.62a1.39,1.39,0,0,1-1.1-.54c-.81-1.07-1.63-2.13-2.46-3.19a117.9,117.9,0,0,0-8.34-9.34,1.37,1.37,0,1,1,1.95-1.93,117.86,117.86,0,0,1,8.54,9.56c.85,1.07,1.69,2.15,2.51,3.24a1.39,1.39,0,0,1-.27,1.93A1.42,1.42,0,0,1,693,253.62Zm-23.25-24a1.36,1.36,0,0,1-.89-.33c-3.64-3.07-7.78-6.38-13-10.42a1.38,1.38,0,0,1,1.68-2.18c5.28,4.06,9.44,7.4,13.12,10.5a1.38,1.38,0,0,1-.89,2.43ZM643.36,209a1.36,1.36,0,0,1-.83-.28c-3.69-2.82-8.52-6.56-13.19-10.41a1.38,1.38,0,0,1,1.76-2.12c4.63,3.82,9.43,7.54,13.1,10.35a1.37,1.37,0,0,1-.84,2.46Zm-25.65-21.49a1.37,1.37,0,0,1-1-.39,128.16,128.16,0,0,1-11.39-12.5,1.38,1.38,0,1,1,2.16-1.71,125,125,0,0,0,11.14,12.24,1.36,1.36,0,0,1,0,1.94A1.35,1.35,0,0,1,617.71,187.53Z" transform="translate(-99.88 -85.54)"/><path class="cls-7" d="M597.27,161.14a1.4,1.4,0,0,1-1.22-.73,80.18,80.18,0,0,1-3.49-7.63,1.37,1.37,0,1,1,2.55-1,77.13,77.13,0,0,0,3.38,7.36,1.39,1.39,0,0,1-.58,1.86A1.43,1.43,0,0,1,597.27,161.14Z" transform="translate(-99.88 -85.54)"/></g><path class="cls-8" d="M394.21,157.1a9.23,9.23,0,0,0,.59,7.81c1.45,2.28,4.55,3.56,7,2.43,2.78-1.28,3.62-5.28,2-7.87a7.68,7.68,0,0,0-8.08-3" transform="translate(-99.88 -85.54)"/><path class="cls-7" d="M654.73,146.59a17.42,17.42,0,0,0-22.36-10.34c-.49.18-1,.38-1.41.59a2.86,2.86,0,0,1-3.2-.54l-25-23.92a1.71,1.71,0,0,1,0-2.41l4.55-4.77a2.23,2.23,0,0,0-.08-3.14l-1.43-1.36a2.22,2.22,0,0,0-3.14.07l-4.54,4.76a1.7,1.7,0,0,1-2.41,0l-.18-.17a1.72,1.72,0,0,1-.06-2.42L600,98.24a2.22,2.22,0,0,0-.07-3.14l-2.1-2a2.21,2.21,0,0,0-3.13.08l-4.53,4.73a1.7,1.7,0,0,1-2.41.06l.15.14a1.72,1.72,0,0,1,0-2.42l4.2-4.4a2.23,2.23,0,0,0-.08-3.14l-2.09-2a2.22,2.22,0,0,0-3.14.07l-10,10.45a3.23,3.23,0,0,0,.09,4.55l3,2.87,2.95,2.87,8.56,8.3,29.79,28.84a2.93,2.93,0,0,1,.71,3,17.42,17.42,0,1,0,32.9-.57Zm-10,15.39a5.5,5.5,0,1,1,3.26-7.06A5.5,5.5,0,0,1,644.76,162Z" transform="translate(-99.88 -85.54)"/><path class="cls-3" d="M633.5,122.58l-1,.17a4.08,4.08,0,0,0-.39,5.7,4.16,4.16,0,0,0,5.74.11,4.1,4.1,0,0,0-5.54-6" transform="translate(-99.88 -85.54)"/><path class="cls-3" d="M631.22,109.74l-.69.12a2.85,2.85,0,0,0-.27,4,2.91,2.91,0,0,0,4,.08,2.88,2.88,0,0,0-3.89-4.23" transform="translate(-99.88 -85.54)"/><g class="cls-9"><path class="cls-10" d="M713.13,547.44c0,8.94-8,18.67-18,18.67s-18-9.73-18-18.67,8-16.17,18-16.17S713.13,538.51,713.13,547.44Z" transform="translate(-99.88 -85.54)"/><path class="cls-10" d="M711.69,596.06a17.33,17.33,0,0,0,.1,1.91,1.73,1.73,0,0,1-1.77,1.9c-5.47-.09-19.22-.11-25-.13-7.44,0-20.57,2.89-20.36-8.43.07-3.32,1.58-6.45,3.43-9.2a25.46,25.46,0,0,1,10.35-9.21c4.83-2.15,10.29-2.24,15.58-2.28,6.92-.06,14.21,0,20.22,3.38a20.94,20.94,0,0,1,5.32,4.32,2.38,2.38,0,0,1-.4,3.54A17.26,17.26,0,0,0,711.69,596.06Z" transform="translate(-99.88 -85.54)"/><path class="cls-10" d="M729,610.6a14.54,14.54,0,1,1,14.54-14.54A14.56,14.56,0,0,1,729,610.6Zm0-26.08a11.54,11.54,0,1,0,11.54,11.54A11.55,11.55,0,0,0,729,584.52Z" transform="translate(-99.88 -85.54)"/><path class="cls-10" d="M734.77,593.13h-3.11v-3.47a2.68,2.68,0,1,0-5.36,0v3.47h-3.1a2.93,2.93,0,0,0,0,5.85h3.1v3.47a2.68,2.68,0,1,0,5.36,0V599h3.11a2.93,2.93,0,0,0,0-5.85Z" transform="translate(-99.88 -85.54)"/></g><path class="cls-11" d="M663.41,485.5,521.22,310.33c0-52-15-114-40.92-145.79C475,158,455.47,133.73,445,142.26l-4.53,5L415.22,283.33s-166,202-166.64,224.54,21.64,25.46,21.64,25.46,115,12,130,10,31-12,31-12-10,35.92,17,37c2.45.1,4.66.08,6.66,0l1.34,65c0,1.12,20.64,5.4,23,6-3.59-.94-8.1-35.06-9-39.58-2.2-11.69-1.47-22.87-1.92-34.65,5.2-3.05,5.7-7.43,6.87-9.77,2-3.92,12.56-7.84,13-8-.16.07.43.67,79-5,83-6,64-5,73-13,3.17-2.82,9,4,23-8S663.41,485.5,663.41,485.5Z" transform="translate(-99.88 -85.54)"/><g class="cls-12"><path class="cls-13" d="M575.49,283.31c0,9.59-8.64,20-19.29,20s-19.28-10.44-19.28-20S545.55,266,556.2,266,575.49,273.73,575.49,283.31Z" transform="translate(-99.88 -85.54)"/><path class="cls-13" d="M569.71,339.43c8,0,22.08,3.11,21.86-9-.07-3.57-1.7-6.92-3.69-9.87a27.25,27.25,0,0,0-11.1-9.88c-4.4-2-9.29-2.33-14.14-2.42H552.36c-4.85.09-9.73.46-14.13,2.42a27.13,27.13,0,0,0-11.1,9.88c-2,3-3.62,6.3-3.69,9.87-.22,12.15,13.87,9,21.85,9Z" transform="translate(-99.88 -85.54)"/></g><g class="cls-14"><path class="cls-7" d="M368.09,260.46H368a1.37,1.37,0,0,1-1.23-1.5c.53-5.49,1.26-11,2.17-16.45a1.37,1.37,0,1,1,2.71.45c-.9,5.37-1.62,10.84-2.14,16.27A1.38,1.38,0,0,1,368.09,260.46Zm5.44-32.53a1.12,1.12,0,0,1-.32,0,1.38,1.38,0,0,1-1-1.66c1.28-5.36,2.77-10.74,4.41-16a1.38,1.38,0,0,1,2.63.82c-1.63,5.19-3.1,10.51-4.37,15.81A1.37,1.37,0,0,1,373.53,227.93Zm9.87-31.47a1.43,1.43,0,0,1-.5-.09,1.38,1.38,0,0,1-.78-1.79c2-5.13,4.22-10.25,6.58-15.23a1.38,1.38,0,0,1,2.49,1.18c-2.34,4.92-4.53,10-6.51,15.06A1.38,1.38,0,0,1,383.4,196.46Z" transform="translate(-99.88 -85.54)"/></g><g class="cls-15"><polygon class="cls-16" points="631.88 347.71 602.48 314.21 573.24 347.56 585.14 347.59 584.55 432.64 619.38 432.87 619.98 347.68 631.88 347.71"/><g class="cls-6"><path class="cls-17" d="M708.13,520.22h0a1.84,1.84,0,0,1-1.82-1.85l.59-75.1a1.84,1.84,0,0,1,1.84-1.82h0a1.83,1.83,0,0,1,1.82,1.85L710,518.4A1.84,1.84,0,0,1,708.13,520.22Z" transform="translate(-99.88 -85.54)"/></g><g class="cls-6"><path class="cls-17" d="M676.13,520h0a1.82,1.82,0,0,1-1.82-1.84l.58-83.22h-5.67a3.48,3.48,0,0,1-2.7-5.66L690,400.18a3.46,3.46,0,0,1,2.71-1.3h0a3.44,3.44,0,0,1,2.71,1.3l23,28.48a3.93,3.93,0,0,1-3.05,6.4h-6.61a1.84,1.84,0,0,1,0-3.67h6.61a.23.23,0,0,0,.23-.15.25.25,0,0,0,0-.28l-22.82-28.3-23.06,28.61,5.47,0a3.42,3.42,0,0,1,2.46,1,3.46,3.46,0,0,1,1,2.47l-.59,83.4A1.82,1.82,0,0,1,676.13,520Z" transform="translate(-99.88 -85.54)"/></g></g><polygon class="cls-18" points="519.03 480.53 503.26 461.89 487.16 480.08 493.63 480.17 492.72 531.58 511.65 531.91 512.56 480.44 519.03 480.53"/><polygon class="cls-19" points="227.32 477.69 207.29 453.63 187.83 478 195.84 477.93 196.09 545.52 219.55 545.44 219.3 477.75 227.32 477.69"/><g class="cls-14"><path class="cls-20" d="M293.87,632.88a3,3,0,0,1-2.23-1,3.2,3.2,0,0,1-.87-2.21l-.23-61.61-2.47,0a3,3,0,0,1-2.75-1.69,3.28,3.28,0,0,1,.24-3.44L299.8,543.2a3,3,0,0,1,2.46-1.29h0a3,3,0,0,1,2.44,1.24l14.67,19.53a3.25,3.25,0,0,1,.31,3.43,3.05,3.05,0,0,1-2.73,1.74l-2.53,0a1.83,1.83,0,0,1-1.77,1.39h0a1.83,1.83,0,0,1-1.83-1.83,3.16,3.16,0,0,1,3.07-3.22l2,0L302.3,546,289,564.41h2a2.94,2.94,0,0,1,2.17.89,3.23,3.23,0,0,1,1,2.3l.23,61.62,16.62-.06-.15-43.09a1.82,1.82,0,0,1,1.82-1.84h0a1.83,1.83,0,0,1,1.83,1.83l.16,43.54a3.15,3.15,0,0,1-3.09,3.22l-17.76.07Z" transform="translate(-99.88 -85.54)"/></g><circle class="cls-21" cx="62.41" cy="496.8" r="4.58"/><g class="cls-6"><path class="cls-10" d="M749.65,571.37a6.88,6.88,0,1,1,6.26-9.7h0a6.88,6.88,0,0,1-6.26,9.7Zm0-9.17a2.22,2.22,0,0,0-.94.21,2.29,2.29,0,1,0,3,1.14h0A2.31,2.31,0,0,0,749.64,562.2Z" transform="translate(-99.88 -85.54)"/></g><circle class="cls-22" cx="505.72" cy="217.65" r="4.58"/><g class="cls-23"><path class="cls-24" d="M528.07,603.81a1.37,1.37,0,0,1-1.37-1.38v-11a1.38,1.38,0,1,1,2.75,0v11A1.38,1.38,0,0,1,528.07,603.81Zm0-29.34a1.37,1.37,0,0,1-1.37-1.38v-11a1.38,1.38,0,1,1,2.75,0v11A1.38,1.38,0,0,1,528.07,574.47Zm0-29.34a1.37,1.37,0,0,1-1.37-1.38v-5.5a1.38,1.38,0,0,1,2.75,0v5.5A1.38,1.38,0,0,1,528.07,545.13Z" transform="translate(-99.88 -85.54)"/></g><g class="cls-12"><path class="cls-24" d="M552.17,564.38A1.18,1.18,0,0,1,551,563.2v-9.43a1.18,1.18,0,0,1,2.36,0v9.43A1.18,1.18,0,0,1,552.17,564.38Zm0-25.15a1.18,1.18,0,0,1-1.18-1.18v-9.43a1.18,1.18,0,0,1,2.36,0v9.43A1.18,1.18,0,0,1,552.17,539.23Zm0-25.15A1.18,1.18,0,0,1,551,512.9v-4.72a1.18,1.18,0,0,1,2.36,0v4.72A1.18,1.18,0,0,1,552.17,514.08Z" transform="translate(-99.88 -85.54)"/></g><g class="cls-9"><path class="cls-25" d="M207.34,573.83H176.09a14.39,14.39,0,0,1-14.37-14.38V535.21a14.39,14.39,0,0,1,14.37-14.38h31.25a14.4,14.4,0,0,1,14.38,14.38v24.24A14.4,14.4,0,0,1,207.34,573.83Zm-31.25-50a11.38,11.38,0,0,0-11.37,11.38v24.24a11.39,11.39,0,0,0,11.37,11.38h31.25a11.4,11.4,0,0,0,11.38-11.38V535.21a11.39,11.39,0,0,0-11.38-11.38Z" transform="translate(-99.88 -85.54)"/></g><path class="cls-26" d="M201.91,551.94A9.8,9.8,0,1,1,187,543.6a2.49,2.49,0,0,0,1.19-2.12v-1.94a3.92,3.92,0,1,1,7.84,0v1.94a2.45,2.45,0,0,0,1.18,2.1A9.78,9.78,0,0,1,201.91,551.94Z" transform="translate(-99.88 -85.54)"/><g class="cls-9"><path class="cls-25" d="M190.74,487.88h0A16.17,16.17,0,0,0,174.61,504v14.08h7.08V504.28a9.21,9.21,0,0,1,8.17-9.27,9.05,9.05,0,0,1,9.92,9v1.18a3.54,3.54,0,0,0,7.08,0V504A16.17,16.17,0,0,0,190.74,487.88Z" transform="translate(-99.88 -85.54)"/></g><path class="cls-27" d="M647,392c-11,.54-19.56,9.16-19.07,19.25s9.83,17.82,20.86,17.28,19.56-9.15,19.06-19.24S658,391.41,647,392Zm4.92,21.59a1.55,1.55,0,0,0-.83,1.51c.21,1,2.17,3.95.53,4l-6.57.32c-1.64.08,0-3,.13-4.07a1.53,1.53,0,0,0-1-1.41,6.66,6.66,0,0,1-3.83-5.59c-.21-4.22,3.84-7.74,8.67-7.05a7.07,7.07,0,0,1,5.86,4.82A6.55,6.55,0,0,1,651.91,413.54Z" transform="translate(-99.88 -85.54)"/><g class="cls-12"><path class="cls-10" d="M647.4,365.2h0A11.68,11.68,0,0,0,635.88,377l.17,15.17a14.86,14.86,0,0,1,5.09-2.51L641,377.12a6.67,6.67,0,0,1,5.83-6.77,6.55,6.55,0,0,1,7.25,6.43v.85a2.56,2.56,0,1,0,5.11-.06v-.85A11.68,11.68,0,0,0,647.4,365.2Z" transform="translate(-99.88 -85.54)"/></g><g class="cls-14"><path class="cls-28" d="M284.09,379.22c7.08,0,7.09-11,0-11s-7.09,11,0,11Z" transform="translate(-99.88 -85.54)"/></g><path class="cls-7" d="M491.14,610.06c7.08,0,7.09-11,0-11s-7.09,11,0,11Z" transform="translate(-99.88 -85.54)"/><g class="cls-6"><path class="cls-28" d="M617.34,346.68c5.29.5,6.08-7.71.79-8.22s-6.08,7.71-.79,8.22Z" transform="translate(-99.88 -85.54)"/></g><g class="cls-14"><path class="cls-29" d="M644.7,595.25c5.9,0,5.91-9.17,0-9.17s-5.91,9.17,0,9.17Z" transform="translate(-99.88 -85.54)"/></g><g class="cls-23"><path class="cls-29" d="M658.6,550.33c4.42,0,4.43-6.88,0-6.88s-4.43,6.88,0,6.88Z" transform="translate(-99.88 -85.54)"/></g><g class="cls-14"><path class="cls-7" d="M386.91,577.18c5.9,0,5.91-9.16,0-9.16s-5.91,9.16,0,9.16Z" transform="translate(-99.88 -85.54)"/></g><g class="cls-15"><g class="cls-30"><circle class="cls-28" cx="662.08" cy="413.9" r="1.17"/><circle class="cls-31" cx="672.58" cy="472.6" r="1.68"/><circle class="cls-31" cx="610.59" cy="441.13" r="1.17"/><circle class="cls-31" cx="572.6" cy="378.15" r="1.17"/><circle class="cls-31" cx="615.62" cy="368.08" r="1.17"/><circle class="cls-31" cx="551.73" cy="356.87" r="1.17"/><circle class="cls-28" cx="667.26" cy="386.68" r="1.68"/><circle class="cls-31" cx="577.05" cy="304.33" r="2.68"/></g><g class="cls-30"><ellipse class="cls-28" cx="657.37" cy="560.97" rx="0.85" ry="0.75" transform="translate(-300.43 371.54) rotate(-33.57)"/><ellipse class="cls-31" cx="642.56" cy="543.92" rx="1.68" ry="1.53" transform="translate(-289.66 584.64) rotate(-48.87)"/><ellipse class="cls-31" cx="652.79" cy="534.46" rx="1.84" ry="1.68"/><ellipse class="cls-28" cx="571.54" cy="538.17" rx="1.84" ry="1.68"/><ellipse class="cls-31" cx="659.19" cy="539.61" rx="0.9" ry="0.82"/><ellipse class="cls-28" cx="662.48" cy="574.71" rx="1.68" ry="1.53" transform="translate(-306.03 610.19) rotate(-48.87)"/><ellipse class="cls-31" cx="598.09" cy="533.84" rx="1.29" ry="1.17"/><ellipse class="cls-28" cx="468.28" cy="481.79" rx="1.29" ry="1.17"/><ellipse class="cls-31" cx="629.28" cy="480.18" rx="3.53" ry="3.22"/></g><g class="cls-30"><circle class="cls-28" cx="486.99" cy="282.53" r="1.87"/><circle class="cls-31" cx="552.93" cy="418.28" r="1.87"/><circle class="cls-28" cx="485.89" cy="457.43" r="1.31"/><circle class="cls-31" cx="518.08" cy="309.72" r="0.92"/></g><g class="cls-30"><circle class="cls-28" cx="283.22" cy="524.29" r="1.17"/><circle class="cls-28" cx="399.65" cy="464.84" r="1.17"/><circle class="cls-28" cx="233.96" cy="493.2" r="1.17"/><circle class="cls-28" cx="371.35" cy="512.31" r="3.22"/></g><g class="cls-30"><ellipse class="cls-31" cx="234.99" cy="548.04" rx="0.86" ry="0.81" transform="translate(-445.99 596.25) rotate(-79.75)"/><circle class="cls-31" cx="145.78" cy="441.88" r="1.68"/><circle class="cls-28" cx="166.71" cy="561.76" r="1.68"/><circle class="cls-31" cx="74.16" cy="539.79" r="1.68"/><circle class="cls-28" cx="31.34" cy="522.24" r="0.82"/><circle class="cls-28" cx="152.69" cy="499.63" r="1.17"/><circle class="cls-31" cx="39.43" cy="460.65" r="1.17"/><circle class="cls-28" cx="55.97" cy="533.45" r="1.68"/><path class="cls-28" d="M175.24,689.24a.82.82,0,1,1-.77-.87A.81.81,0,0,1,175.24,689.24Z" transform="translate(-99.88 -85.54)"/></g><g class="cls-30"><circle class="cls-31" cx="153.02" cy="319.84" r="1.87"/><circle class="cls-28" cx="202.04" cy="258.27" r="0.92"/></g><g class="cls-30"><ellipse class="cls-31" cx="160.48" cy="464.9" rx="0.86" ry="0.81" transform="translate(-408.35 527.61) rotate(-88.5)"/><circle class="cls-31" cx="57.15" cy="547.68" r="1.68"/></g><g class="cls-30"><circle class="cls-28" cx="219.2" cy="220.5" r="1.31"/><circle class="cls-31" cx="118.92" cy="373.26" r="1.31"/><circle class="cls-31" cx="167.48" cy="312.01" r="1.31"/><circle class="cls-28" cx="148.7" cy="274.83" r="1.31"/></g><g class="cls-30"><circle class="cls-28" cx="487.57" cy="216.13" r="1.17"/></g><g class="cls-30"><circle class="cls-31" cx="454.99" cy="162.7" r="1.13"/><circle class="cls-31" cx="502.83" cy="272.96" r="1.13"/></g></g><path class="cls-28" d="M174.23,689.24a.82.82,0,1,1-.76-.87A.81.81,0,0,1,174.23,689.24Z" transform="translate(-99.88 -85.54)"/><path class="cls-32" d="M174.23,689.24a.82.82,0,1,1-.76-.87A.81.81,0,0,1,174.23,689.24Z" transform="translate(-99.88 -85.54)"/><path class="cls-33" d="M461.6,558s2.29,61,13.75,100.85c3.49,12.12-62.76,13.15-59.59,0C425.39,618.93,428.6,558,428.6,558Z" transform="translate(-99.88 -85.54)"/><path class="cls-28" d="M671.11,667.06c0,1,0,2.09,0,3.22a140.75,140.75,0,0,1-1.34,15.55,124.35,124.35,0,0,1-3.2,15.79c-.24.88-.49,1.74-.77,2.58a53.17,53.17,0,0,1-4.14,10c-24.65,1.45-50.15-1.61-74.32-6.42-8.65-1.73-17.31-3.65-26-5.62-14.24-3.24-28.48-6.63-42.75-9.53-11.46-2.32-23-4.33-34.47-5.67-2.13-.25-4.27-.47-6.4-.68-5-.48-10.09-.82-15.14-1-4-.14-8-.19-11.95-.1A53.54,53.54,0,0,1,454.42,658c5.16-12.07,14.81-21.11,27.09-23.7a33,33,0,0,1,3.52-.55,35.91,35.91,0,0,1,21.65,4.84c4.81-7.53,12.78-12,21.24-10.84a20.6,20.6,0,0,1,8.82,3.41c6-23.88,25.72-40,47-37a39.63,39.63,0,0,1,24.19,13.53c7.28-5.84,16.81-7.4,25-3.17,7.4,3.82,12.06,11.43,13.19,20a32.39,32.39,0,0,1-.39,10.55C659.84,636.46,671,650.26,671.11,667.06Z" transform="translate(-99.88 -85.54)"/><path class="cls-28" d="M477.73,686.31c-5-.48-10.09-.82-15.14-1-4-.14-8-.19-11.95-.1-3.71.07-7.41.24-11.14.52-25.88,2-51.07,8.34-76.22,14.7-18.84,4.76-37.65,9.52-56.69,12.4a215.11,215.11,0,0,1-44.36,2.49c-3.24-7.48-4.76-18.05-5.21-27.9a133.7,133.7,0,0,1,.14-15.27c.08-1.1.17-2.15.28-3.14,1.72-16.34,14.28-28.59,28.58-28.44a30.18,30.18,0,0,1,.71-10.64c2-8.09,7.4-14.87,15.12-17.76,8.71-3.26,18.16-.73,25,5.71a40.17,40.17,0,0,1,25.67-10.62c21.75-.69,40.12,17.08,43.85,40.93a21,21,0,0,1,9.22-2.39,20.54,20.54,0,0,1,7.36,1.16,23.9,23.9,0,0,1,13,11.62,36.94,36.94,0,0,1,25.79-1.54c.92.3,1.83.62,2.71,1a37.73,37.73,0,0,1,17.78,15.19A44.89,44.89,0,0,1,477.73,686.31Z" transform="translate(-99.88 -85.54)"/><path class="cls-34" d="M671.11,667.06c0,1,0,2.09,0,3.22a140.75,140.75,0,0,1-1.34,15.55,124.35,124.35,0,0,1-3.2,15.79c-.24.88-.49,1.74-.77,2.58a53.17,53.17,0,0,1-4.14,10c-24.65,1.45-50.15-1.61-74.32-6.42-8.65-1.73-17.31-3.65-26-5.62-14.24-3.24-28.48-6.63-42.75-9.53-11.46-2.32-23-4.33-34.47-5.67-2.13-.25-4.27-.47-6.4-.68-5-.48-10.09-.82-15.14-1-4-.14-8-.19-11.95-.1A53.54,53.54,0,0,1,454.42,658c5.16-12.07,14.81-21.11,27.09-23.7a33,33,0,0,1,3.52-.55,35.91,35.91,0,0,1,21.65,4.84c4.81-7.53,12.78-12,21.24-10.84a20.6,20.6,0,0,1,8.82,3.41c6-23.88,25.72-40,47-37a39.63,39.63,0,0,1,24.19,13.53c7.28-5.84,16.81-7.4,25-3.17,7.4,3.82,12.06,11.43,13.19,20a32.39,32.39,0,0,1-.39,10.55C659.84,636.46,671,650.26,671.11,667.06Z" transform="translate(-99.88 -85.54)"/><path class="cls-35" d="M477.73,686.31c-5-.48-10.09-.82-15.14-1-4-.14-8-.19-11.95-.1-3.71.07-7.41.24-11.14.52-25.88,2-51.07,8.34-76.22,14.7-18.84,4.76-37.65,9.52-56.69,12.4a215.11,215.11,0,0,1-44.36,2.49c-3.24-7.48-4.76-18.05-5.21-27.9a133.7,133.7,0,0,1,.14-15.27c.08-1.1.17-2.15.28-3.14,1.72-16.34,14.28-28.59,28.58-28.44a30.18,30.18,0,0,1,.71-10.64c2-8.09,7.4-14.87,15.12-17.76,8.71-3.26,18.16-.73,25,5.71a40.17,40.17,0,0,1,25.67-10.62c21.75-.69,40.12,17.08,43.85,40.93a21,21,0,0,1,9.22-2.39,20.54,20.54,0,0,1,7.36,1.16,23.9,23.9,0,0,1,13,11.62,36.94,36.94,0,0,1,25.79-1.54c.92.3,1.83.62,2.71,1a37.73,37.73,0,0,1,17.78,15.19A44.89,44.89,0,0,1,477.73,686.31Z" transform="translate(-99.88 -85.54)"/><path class="cls-28" d="M740.78,686.68q-3.9,3.14-8.12,5.9c-21.19,14-45.66,20.18-71,21.65-24.65,1.45-50.15-1.61-74.32-6.42-8.65-1.73-17.31-3.65-26-5.62a84.46,84.46,0,0,1,1-14.54c6.41-41.19,41.43-69.95,78.23-64.23,1.9.3,3.76.68,5.6,1.14a62.89,62.89,0,0,1,31.74,19.62c11.74-8.33,26.77-10.29,39.51-3.75,15.22,7.82,22.5,25.39,19.18,42.82-.16.87-.36,1.73-.57,2.59A38.79,38.79,0,0,1,740.78,686.68Z" transform="translate(-99.88 -85.54)"/><path class="cls-36" d="M740.78,686.68q-3.9,3.14-8.12,5.9c-21.19,14-45.66,20.18-71,21.65-24.65,1.45-50.15-1.61-74.32-6.42-8.65-1.73-17.31-3.65-26-5.62a84.46,84.46,0,0,1,1-14.54c6.41-41.19,41.43-69.95,78.23-64.23,1.9.3,3.76.68,5.6,1.14a62.89,62.89,0,0,1,31.74,19.62c11.74-8.33,26.77-10.29,39.51-3.75,15.22,7.82,22.5,25.39,19.18,42.82-.16.87-.36,1.73-.57,2.59A38.79,38.79,0,0,1,740.78,686.68Z" transform="translate(-99.88 -85.54)"/><path class="cls-28" d="M363.28,700.44c-18.84,4.76-37.65,9.52-56.69,12.4a215.11,215.11,0,0,1-44.36,2.49,166.2,166.2,0,0,1-16.61-1.73c-30.85-4.8-59.4-17.27-82-36.79a31,31,0,0,1,14.2-3.52,73,73,0,0,1,108.91-43.35,70.24,70.24,0,0,1,21.52,20.84c16.34-1.41,32.42,8,40.78,23.63a49.29,49.29,0,0,1,5.83,23.26A51.89,51.89,0,0,1,363.28,700.44Z" transform="translate(-99.88 -85.54)"/><path class="cls-37" d="M363.28,700.44c-18.84,4.76-37.65,9.52-56.69,12.4a215.11,215.11,0,0,1-44.36,2.49,166.2,166.2,0,0,1-16.61-1.73c-30.85-4.8-59.4-17.27-82-36.79a31,31,0,0,1,14.2-3.52,73,73,0,0,1,108.91-43.35,70.24,70.24,0,0,1,21.52,20.84c16.34-1.41,32.42,8,40.78,23.63a49.29,49.29,0,0,1,5.83,23.26A51.89,51.89,0,0,1,363.28,700.44Z" transform="translate(-99.88 -85.54)"/><path class="cls-28" d="M494.7,658.72a34.44,34.44,0,0,1-2,9,42.2,42.2,0,0,1-10.5,15.68,35.89,35.89,0,0,1,1.95,3.62c-2.13-.25-16.49-.5-21.54-.67-4-.14-8-.19-11.95-.1-3.71.07-7.41.24-11.14.52-25.88,2-51.07,7.34-76.22,13.7-18.84,4.76-37.65,9.52-56.69,12.4-1.36-17.71,9.18-34.1,25.79-38.44a33.53,33.53,0,0,1,16.65,0,35.21,35.21,0,0,1,8.35,3.34c8.54,4.8,9.64,13.17,19.86,7.18,6.45-3.77,24.63-4.57,28.67-8.63,4.21-4.23,1.28-11.63,2.43-17.57A36,36,0,0,1,412.91,647c5.88-9.77,16-17.08,26.64-20.7,17.21-5.86,34.87-2.42,45.48,7.51a30.39,30.39,0,0,1,9.67,24.94Z" transform="translate(-99.88 -85.54)"/><path class="cls-28" d="M518.6,692.66c-11.46-2.32-23-3.33-34.47-4.67-2.13-.25-4.27-.47-6.4-.68-5-.48-10.09-1.82-15.14-2a29.35,29.35,0,0,1,27-17.79,29,29,0,0,1,3.11.16A29.33,29.33,0,0,1,518.6,692.66Z" transform="translate(-99.88 -85.54)"/><path class="cls-38" d="M651.32,502.66v.1c-.1,5.13-11.83,9.19-17.08,9.18l-377-.73c-12.42,0-12.36-7-9.93-13.74,17.46-48.2,125.18-184.79,133-206l8.47-17.95,58.16-60.24,58.24,69.52s79.18,134.55,97,157.25c2.42,3.08,5.25,6.39,8.25,9.88C623,464.57,651.67,482.34,651.32,502.66Z" transform="translate(-99.88 -85.54)"/><path class="cls-39" d="M651.08,512c-4.31,1-9.29,1-11.28-1.57-1.23-1.58-.66-3.25-.42-5a29,29,0,0,0,0-7.15,44,44,0,0,0-3.84-13.3c-.78-1.72-1.65-3.46-2.61-5.17-.58-1-1.17-2.05-1.8-3.07-1.24-2-2.58-4.07-4-6.07-.25-.33-.48-.67-.71-1-1-1.33-1.94-2.65-2.94-4-.25-.31-.51-.64-.76-1-.75-1-1.52-1.94-2.3-2.9-1.79-2.24-3.62-4.44-5.44-6.57l-1.55-1.83c-.52-.59-1-1.2-1.54-1.78s-1-1.19-1.5-1.77c-3-3.5-5.84-6.81-8.26-9.89l-53.54-68.1A242.33,242.33,0,0,1,511.32,305l-9.1-28.86a0,0,0,0,1,0,0l159.48,203.6c5.28,6,5,14.66,1.82,21.54a22,22,0,0,1-6.14,8.15A17.17,17.17,0,0,1,651.08,512Z" transform="translate(-99.88 -85.54)"/><path class="cls-39" d="M239.18,512c4.31,1,9.3,1,11.28-1.57,1.23-1.58.66-3.25.42-5a29,29,0,0,1,0-7.15,44,44,0,0,1,3.85-13.3c.78-1.72,1.65-3.46,2.61-5.17.57-1,1.17-2.05,1.79-3.07,1.25-2,2.58-4.07,4-6.07.25-.33.48-.67.72-1q1.43-2,2.93-4c.25-.31.51-.64.76-1,.75-1,1.52-1.94,2.3-2.9,1.79-2.24,3.63-4.44,5.45-6.57l1.54-1.83c.53-.59,1-1.2,1.54-1.78l1.51-1.77c3-3.5,5.84-6.81,8.25-9.89l53.54-68.1A242.62,242.62,0,0,0,379,305L388,276.16s0,0,0,0L228.53,479.75c-5.27,6-5,14.66-1.82,21.54a22,22,0,0,0,6.14,8.15A17.32,17.32,0,0,0,239.18,512Z" transform="translate(-99.88 -85.54)"/><path class="cls-39" d="M500.83,533.53,624,523.93a16.9,16.9,0,0,0,12.7-12l-156.87-.31.45,5.72C481,527.07,490.28,534.35,500.83,533.53Z" transform="translate(-99.88 -85.54)"/><path class="cls-39" d="M387.57,533.6l-121-9.17c-6.93-1.77-10.95-7-12.47-13.24l153.92.3-.47,6C406.78,527.15,397.82,534.37,387.57,533.6Z" transform="translate(-99.88 -85.54)"/><path class="cls-7" d="M499.42,236.88l-44.74-52.11a13.14,13.14,0,0,0-19.87.06L390.62,237C403,187.82,427.27,156.69,438.84,144a8.71,8.71,0,0,1,12.83,0C463.16,156.73,487.24,187.86,499.42,236.88Z" transform="translate(-99.88 -85.54)"/><path class="cls-40" d="M506.83,299.29c-.07,33.68-5.53,67-11.41,100.12-3.75,21.19-9.14,43.32-11.67,65.35-.49,4.35-1.32,9.13-2.11,14-1.25,7.72-2.42,15.53-1.94,21.83l2.52,33.05a12.89,12.89,0,0,1-13.05,13.7l-49.52-.1a12.88,12.88,0,0,1-13-13.75l2.65-33c.5-6.35-.57-14.16-1.85-21.84-.8-4.84-1.69-9.62-2.33-13.94C397,409.69,382.92,354.76,383,299.05A255.62,255.62,0,0,1,390.62,237l44.19-52.14a13.14,13.14,0,0,1,19.87-.06l44.74,52.11A255.25,255.25,0,0,1,506.83,299.29Z" transform="translate(-99.88 -85.54)"/><path class="cls-41" d="M467.74,547.3l-1.64,7.1a10.81,10.81,0,0,1-10.61,8.27l-22.21,0a10.8,10.8,0,0,1-10.58-8.32l-1.61-7.11" transform="translate(-99.88 -85.54)"/><path class="cls-42" d="M444.21,510.46a19.88,19.88,0,0,0,.55-2.57s0,0,0,0" transform="translate(-99.88 -85.54)"/><path class="cls-7" d="M444.66,458.79h0c2.16,0,3.91,2.2,3.86,4.87l-1.8,100c-.15,2.8-3.64,2.81-3.8,0l-2.15-100C440.71,461,442.47,458.78,444.66,458.79Z" transform="translate(-99.88 -85.54)"/><path class="cls-43" d="M407.16,331h0a3.44,3.44,0,0,0,3.13-4c-.44-3.33-.59-5-.77-8.37a3.47,3.47,0,0,0-3.81-3.41h0a4,4,0,0,0-3.55,4.13c.17,3.3.32,4.95.75,8.22A4.09,4.09,0,0,0,407.16,331Z" transform="translate(-99.88 -85.54)"/><path class="cls-43" d="M410.78,361.71h0a3.46,3.46,0,0,0,3-4.18c-.65-3.28-.93-4.92-1.37-8.23a3.54,3.54,0,0,0-4-3.16h0a4,4,0,0,0-3.2,4.28c.35,3.27.58,4.9,1.14,8.13A4,4,0,0,0,410.78,361.71Z" transform="translate(-99.88 -85.54)"/><path class="cls-44" d="M406,283.43h0a3.26,3.26,0,0,1,3,3.83c-.38,3.3-.52,5-.72,8.3a3.55,3.55,0,0,1-3.45,3.6h0a3.72,3.72,0,0,1-3.21-3.94c.09-3.31.18-5,.46-8.23A3.88,3.88,0,0,1,406,283.43Z" transform="translate(-99.88 -85.54)"/><path class="cls-43" d="M483.48,331h0a3.44,3.44,0,0,1-3.13-4c.44-3.33.59-5,.77-8.37a3.47,3.47,0,0,1,3.81-3.41h0a4,4,0,0,1,3.55,4.13c-.17,3.3-.32,4.95-.75,8.22A4.09,4.09,0,0,1,483.48,331Z" transform="translate(-99.88 -85.54)"/><path class="cls-43" d="M479.86,361.71h0a3.46,3.46,0,0,1-3-4.18c.65-3.28.92-4.92,1.37-8.23a3.54,3.54,0,0,1,4-3.16h0a4,4,0,0,1,3.2,4.28c-.35,3.27-.58,4.9-1.14,8.13A4,4,0,0,1,479.86,361.71Z" transform="translate(-99.88 -85.54)"/><path class="cls-44" d="M484.67,283.43h0a3.28,3.28,0,0,0-3.05,3.83c.39,3.3.53,5,.72,8.3a3.56,3.56,0,0,0,3.46,3.6h0a3.72,3.72,0,0,0,3.21-3.94c-.09-3.31-.19-5-.46-8.23A3.89,3.89,0,0,0,484.67,283.43Z" transform="translate(-99.88 -85.54)"/><line class="cls-45" x1="382.9" y1="393.18" x2="348.53" y2="393.11"/><line class="cls-45" x1="340.89" y1="393.09" x2="308.72" y2="393.03"/><path class="cls-46" d="M499.42,236.88l-44.74-52.11a13.14,13.14,0,0,0-19.87.06L390.62,237" transform="translate(-99.88 -85.54)"/><path class="cls-47" d="M651,512.47,636.72,512a16.79,16.79,0,0,1-12.55,12l-121.67,9.6c-10.42.82-19.55-6.45-20.29-16.17l-.43-5.71h-1.24l1.68,22a12.89,12.89,0,0,1-13.05,13.7h-1.43l-1.64,7.1a10.8,10.8,0,0,1-10.62,8.27h-8.72L448.4,464c.05-2.86-3.7-7.31-3.79-5.22,1.86-41.69,3.7-167.07,2.89-199,13.22,0,21.64-9.38,21.66-22.3s-9.48-23.55-22.8-23.59l.15-72.67c2.36,0,3.45.94,5.15,2.82,11.5,12.69,35.58,43.82,47.76,92.84a249.9,249.9,0,0,1,6.8,43.93c9.59,11.89,155.11,198.61,155.11,198.61C666.75,486.55,661,512.49,651,512.47Z" transform="translate(-99.88 -85.54)"/><path class="cls-48" d="M469.17,547.3h-1.43l-1.64,7.1a10.8,10.8,0,0,1-10.62,8.27h-8.72l1.63-97.34,32.49,44.27,1.34,24A12.89,12.89,0,0,1,469.17,547.3Z" transform="translate(-99.88 -85.54)"/><path class="cls-49" d="M448.52,463.66l-1.65,91.9-.15,8.09a2,2,0,0,1-2.28,2.06l.23-106.92C446.84,458.8,448.57,461,448.52,463.66Z" transform="translate(-99.88 -85.54)"/><ellipse class="cls-44" cx="346.81" cy="152.31" rx="24.6" ry="24.03"/><ellipse class="cls-26" cx="341.03" cy="139.95" rx="3.99" ry="3.9"/><ellipse class="cls-26" cx="331.7" cy="150.33" rx="2.66" ry="2.6"/><path class="cls-50" d="M469.8,238c0,12.35-10.27,22.32-22.91,22.31h0a23,23,0,0,1-16.78-7.22,25.34,25.34,0,0,0,7.53,1.16c13.67,0,24.76-10.76,24.79-24.11A23.73,23.73,0,0,0,460,219.62,22.19,22.19,0,0,1,469.8,238Z" transform="translate(-99.88 -85.54)"/></g></g></svg>