<svg xmlns="http://www.w3.org/2000/svg" xmlns:xlink="http://www.w3.org/1999/xlink" viewBox="0 0 1823.18 1410.41"><defs><style>.cls-1,.cls-29,.cls-3{fill:#fff;}.cls-1{stroke:#fff;}.cls-1,.cls-27,.cls-28,.cls-30,.cls-31,.cls-32,.cls-33,.cls-34,.cls-35,.cls-36,.cls-37,.cls-5{stroke-miterlimit:10;}.cls-1,.cls-28,.cls-36,.cls-5{stroke-width:2px;}.cls-2{isolation:isolate;}.cls-29,.cls-4,.cls-40{opacity:0.7;}.cls-27,.cls-36,.cls-37,.cls-5{fill:none;}.cls-5{stroke:#cfcfcf;}.cls-37,.cls-5{stroke-linecap:round;}.cls-6{mask:url(#mask);}.cls-7{fill:#6bcdc3;opacity:0.5;}.cls-38,.cls-39,.cls-40,.cls-41,.cls-7{mix-blend-mode:multiply;}.cls-8{fill:url(#Degradado_sin_nombre_39);}.cls-11,.cls-9{opacity:0.3;}.cls-9{fill:url(#Degradado_sin_nombre_63);}.cls-10{fill:url(#Degradado_sin_nombre_37);}.cls-11{fill:url(#Degradado_sin_nombre_90);}.cls-12{opacity:0.2;fill:url(#Degradado_sin_nombre_42);}.cls-13{opacity:0.1;fill:url(#Degradado_sin_nombre_41);}.cls-14,.cls-15,.cls-17,.cls-18,.cls-20{opacity:0.4;}.cls-14{fill:url(#Degradado_sin_nombre_121);}.cls-15{fill:url(#Degradado_sin_nombre_123);}.cls-16,.cls-40{fill:#cfcfcf;}.cls-17{fill:url(#Degradado_sin_nombre_163);}.cls-18{fill:url(#Degradado_sin_nombre_169);}.cls-19{opacity:0.35;fill:url(#Degradado_sin_nombre_154);}.cls-20{fill:url(#Degradado_sin_nombre_156);}.cls-21{fill:url(#Degradado_sin_nombre_11);}.cls-22{fill:#0b7d73;}.cls-23{fill:#3fb7ad;}.cls-24{fill:#0fa599;}.cls-25{fill:#a6e1db;}.cls-26{fill:#08534d;}.cls-27{stroke:#000;}.cls-28,.cls-30,.cls-31,.cls-32,.cls-33,.cls-34,.cls-35{stroke:#cbcbcb;}.cls-28{fill:url(#Degradado_sin_nombre_60);}.cls-30,.cls-31,.cls-32,.cls-33,.cls-34{opacity:0.8;}.cls-30{fill:url(#Degradado_sin_nombre_13);}.cls-31{fill:url(#Degradado_sin_nombre_13-2);}.cls-32{fill:url(#Degradado_sin_nombre_13-3);}.cls-33{fill:url(#Degradado_sin_nombre_13-4);}.cls-34{fill:url(#Degradado_sin_nombre_13-5);}.cls-35{fill:url(#Degradado_sin_nombre_13-6);}.cls-36,.cls-37{stroke:#c3eae6;}.cls-38{fill:#989898;opacity:0.15;}.cls-39{fill:url(#Degradado_sin_nombre_104);}.cls-41{fill:#d3d3d3;}.cls-42{fill:url(#Degradado_sin_nombre_15);}.cls-43{fill:url(#Degradado_sin_nombre_16);}.cls-44{fill:url(#Degradado_sin_nombre_65);}</style><mask id="mask" x="-698.12" y="-244.22" width="2533.26" height="1518.26" maskUnits="userSpaceOnUse"><path class="cls-1" d="M-114.22-214.7C24.9-177.45,119-159.9,277.73-168,481.19-178.3,572-223.15,734.37-230.68c116.42-5.4,232.27,19.38,341.79,60.1a391.19,391.19,0,0,0,103.68,23.09c48.18,4,96,.05,143.86,8.93,40,7.43,80.18,19.75,115.87,40.17A415.38,415.38,0,0,1,1541.92-16a390.39,390.39,0,0,1,45.87,61.72c17.1,28.86,31.79,62.73,61.36,80.45,15.08,9,33,10.47,49,17.76,59,26.95,91.11,89.32,105.68,151.27,13.28,56.52,20.2,114.66,24.78,172.56,4.22,53.43,7,107.55,4.69,161.17-3.84,89.21-18.65,135.58-68.28,210.22-77,115.88-193.67,184.85-330.15,177.46-48.34-2.62-101,15.78-139.72,45.64-42.94,33.07-143.2,72.34-237.85,75.06-76.2,2.19-166.55-10.87-250.21-68.2-86-58.9-194.24-71.23-289.94-31.17-101,42.28-221.55,61.57-337.32,24.54-81.42-26-169.25-12.54-246.25,25.24-67.58,33.15-141,40-214.77,36.58a1153.46,1153.46,0,0,1-231.74-34.67c-29.64-7.57-59-17.3-84-35.89-71.31-52.94-34.29-119.1-54.79-204.21-45.11-187.37-56.07-457.8-35.2-649.1,8.31-76.22,27.37-150.14,43.27-224.89C-631.48-81.74-650-165-594.49-190.29c68.08-31,108-39.84,166.94-47.78C-319-252.71-184-233.38-114.22-214.7Z"/></mask><linearGradient id="Degradado_sin_nombre_39" x1="1624.49" y1="419.63" x2="1728.88" y2="881.05" gradientTransform="matrix(0.95, 0.33, -0.33, 0.95, -74.83, -50.62)" gradientUnits="userSpaceOnUse"><stop offset="0" stop-color="#fff"/><stop offset="1" stop-color="#cfcfcf"/></linearGradient><radialGradient id="Degradado_sin_nombre_63" cx="1622.2" cy="504.75" fx="1590.2792867304995" r="181.84" gradientTransform="matrix(0.43, 0.9, -0.74, 0.35, 975.38, -687.43)" gradientUnits="userSpaceOnUse"><stop offset="0" stop-color="#fff" stop-opacity="0"/><stop offset="0.07" stop-color="#fcfcfc" stop-opacity="0.07"/><stop offset="0.19" stop-color="#f4f4f4" stop-opacity="0.24"/><stop offset="0.36" stop-color="#e6e6e6" stop-opacity="0.52"/><stop offset="0.56" stop-color="#d4d4d4" stop-opacity="0.9"/><stop offset="0.61" stop-color="#cfcfcf"/></radialGradient><linearGradient id="Degradado_sin_nombre_37" x1="646.46" y1="793.66" x2="568.3" y2="1243.92" gradientTransform="translate(-7.45 -116.2) rotate(-4)" gradientUnits="userSpaceOnUse"><stop offset="0" stop-color="#fff"/><stop offset="0.18" stop-color="#f6f6f6"/><stop offset="1" stop-color="#cfcfcf"/></linearGradient><radialGradient id="Degradado_sin_nombre_90" cx="610.31" cy="933.75" fx="515.1597314944898" fy="946.2984600031855" r="295.24" gradientTransform="matrix(-0.32, 0.95, -0.85, -0.29, 1658.77, 463.63)" gradientUnits="userSpaceOnUse"><stop offset="0" stop-color="#fff" stop-opacity="0"/><stop offset="0.06" stop-color="#fcfcfc" stop-opacity="0.07"/><stop offset="0.16" stop-color="#f4f4f4" stop-opacity="0.24"/><stop offset="0.3" stop-color="#e6e6e6" stop-opacity="0.52"/><stop offset="0.48" stop-color="#d4d4d4" stop-opacity="0.9"/><stop offset="0.52" stop-color="#cfcfcf"/><stop offset="0.97" stop-color="#3e56b0" stop-opacity="0.6"/></radialGradient><linearGradient id="Degradado_sin_nombre_42" x1="461.42" y1="892.22" x2="455.37" y2="1067.75" gradientTransform="matrix(1, 0.04, -0.04, 1.07, -16.47, -86.42)" gradientUnits="userSpaceOnUse"><stop offset="0.15" stop-color="#fff" stop-opacity="0.8"/><stop offset="0.19" stop-color="#f2f3fa" stop-opacity="0.8"/><stop offset="0.27" stop-color="#ced4eb" stop-opacity="0.8"/><stop offset="0.36" stop-color="#95a2d4" stop-opacity="0.8"/><stop offset="0.47" stop-color="#465db3" stop-opacity="0.8"/><stop offset="0.48" stop-color="#3e56b0" stop-opacity="0.8"/><stop offset="0.55" stop-color="#4e44b0" stop-opacity="0.87"/><stop offset="0.64" stop-color="#5f31b0" stop-opacity="0.94"/><stop offset="0.74" stop-color="#6a26b0" stop-opacity="0.99"/><stop offset="0.82" stop-color="#6d22b0"/></linearGradient><linearGradient id="Degradado_sin_nombre_41" x1="457.18" y1="945.48" x2="430.35" y2="1124.45" gradientTransform="matrix(1, 0.04, -0.04, 1.07, -16.47, -86.42)" gradientUnits="userSpaceOnUse"><stop offset="0" stop-color="#fff"/><stop offset="0.18" stop-color="#dcc9ec"/><stop offset="0.49" stop-color="#a170cc"/><stop offset="0.71" stop-color="#7b38b8"/><stop offset="0.82" stop-color="#6d22b0"/></linearGradient><linearGradient id="Degradado_sin_nombre_121" x1="528.04" y1="848" x2="832.52" y2="848" gradientTransform="translate(7.55 -52.01) rotate(-3.72)" gradientUnits="userSpaceOnUse"><stop offset="0.01" stop-color="#fff"/><stop offset="0.22" stop-color="#fdeed2"/><stop offset="0.76" stop-color="#fac260"/><stop offset="1" stop-color="#f8b133"/></linearGradient><linearGradient id="Degradado_sin_nombre_123" x1="1616.65" y1="519.21" x2="1451.44" y2="522.64" gradientTransform="matrix(0.95, 0.33, -0.33, 0.95, -74.83, -50.62)" gradientUnits="userSpaceOnUse"><stop offset="0" stop-color="#fff"/><stop offset="0.21" stop-color="#fdeed2"/><stop offset="0.76" stop-color="#fac260"/><stop offset="1" stop-color="#f8b133"/></linearGradient><linearGradient id="Degradado_sin_nombre_163" x1="1454.99" y1="383.04" x2="1493.2" y2="513.85" gradientTransform="matrix(0.93, 0.38, -0.42, 1.05, -86.06, -49.12)" gradientUnits="userSpaceOnUse"><stop offset="0" stop-color="#f8b133"/><stop offset="0.13" stop-color="#f9bf58" stop-opacity="0.82"/><stop offset="0.42" stop-color="#fce3b6" stop-opacity="0.36"/><stop offset="0.63" stop-color="#fff" stop-opacity="0"/></linearGradient><linearGradient id="Degradado_sin_nombre_169" x1="1275.83" y1="464.03" x2="1279.27" y2="551.46" gradientTransform="matrix(0.93, 0.38, -0.38, 0.93, -75.67, -74.82)" gradientUnits="userSpaceOnUse"><stop offset="0.17" stop-color="#f8b133"/><stop offset="0.2" stop-color="#f9be54" stop-opacity="0.84"/><stop offset="0.26" stop-color="#fbcf81" stop-opacity="0.62"/><stop offset="0.32" stop-color="#fcdea7" stop-opacity="0.43"/><stop offset="0.38" stop-color="#fdeac7" stop-opacity="0.27"/><stop offset="0.44" stop-color="#fef3df" stop-opacity="0.15"/><stop offset="0.5" stop-color="#fffaf1" stop-opacity="0.07"/><stop offset="0.55" stop-color="#fffefb" stop-opacity="0.02"/><stop offset="0.6" stop-color="#fff" stop-opacity="0"/></linearGradient><linearGradient id="Degradado_sin_nombre_154" x1="414.6" y1="1132.62" x2="534.66" y2="998.91" gradientTransform="translate(-17.07 -84.07) rotate(-9.77)" gradientUnits="userSpaceOnUse"><stop offset="0.37" stop-color="#fff"/><stop offset="0.5" stop-color="#fdeed2"/><stop offset="0.85" stop-color="#fac260"/><stop offset="1" stop-color="#f8b133"/></linearGradient><linearGradient id="Degradado_sin_nombre_156" x1="1099.38" y1="414.17" x2="1080.4" y2="468.71" gradientTransform="matrix(0.99, 0.4, -0.44, 1.08, -87.35, -46.99)" gradientUnits="userSpaceOnUse"><stop offset="0" stop-color="#f8b133"/><stop offset="0.22" stop-color="#fac66a"/><stop offset="0.49" stop-color="#fcdea9"/><stop offset="0.72" stop-color="#fef0d8"/><stop offset="0.9" stop-color="#fffbf4"/><stop offset="1" stop-color="#fff"/></linearGradient><linearGradient id="Degradado_sin_nombre_11" x1="1388.37" y1="214.84" x2="1388.37" y2="777.21" gradientTransform="matrix(0.93, 0.38, -0.43, 1.06, -97.04, -21.97)" gradientUnits="userSpaceOnUse"><stop offset="0.14" stop-color="#6bcdc3" stop-opacity="0.5"/><stop offset="0.17" stop-color="#8ed9d1" stop-opacity="0.38"/><stop offset="0.23" stop-color="#e9f7f6" stop-opacity="0.08"/><stop offset="0.24" stop-color="#fff" stop-opacity="0"/></linearGradient><radialGradient id="Degradado_sin_nombre_60" cx="1381.22" cy="-248.01" r="58.38" gradientTransform="matrix(0.5, 0.86, -1.32, 0.77, 274.83, -810.03)" gradientUnits="userSpaceOnUse"><stop offset="0.16" stop-color="#3e56b0"/><stop offset="0.36" stop-color="#3f59b0"/><stop offset="0.51" stop-color="#4362b2"/><stop offset="0.64" stop-color="#4972b5"/><stop offset="0.77" stop-color="#5189b8"/><stop offset="0.88" stop-color="#5ca6bd"/><stop offset="0.99" stop-color="#6acac2"/><stop offset="1" stop-color="#6bcdc3"/></radialGradient><linearGradient id="Degradado_sin_nombre_13" x1="1460.37" y1="-82.73" x2="1474.93" y2="-82.73" gradientTransform="matrix(0.93, 0.38, -0.38, 0.93, -74.88, -96.34)" gradientUnits="userSpaceOnUse"><stop offset="0.39" stop-color="#3e56b0"/><stop offset="0.99" stop-color="#6bcdc3"/></linearGradient><linearGradient id="Degradado_sin_nombre_13-2" x1="1450.83" y1="-22.04" x2="1468.55" y2="-22.04" xlink:href="#Degradado_sin_nombre_13"/><linearGradient id="Degradado_sin_nombre_13-3" x1="1460.12" y1="-146.22" x2="1474.81" y2="-146.22" xlink:href="#Degradado_sin_nombre_13"/><linearGradient id="Degradado_sin_nombre_13-4" x1="1284.08" y1="-82.73" x2="1298.63" y2="-82.73" xlink:href="#Degradado_sin_nombre_13"/><linearGradient id="Degradado_sin_nombre_13-5" x1="1290.45" y1="-22.04" x2="1308.18" y2="-22.04" xlink:href="#Degradado_sin_nombre_13"/><linearGradient id="Degradado_sin_nombre_13-6" x1="1284.11" y1="-146.19" x2="1299.31" y2="-146.19" xlink:href="#Degradado_sin_nombre_13"/><linearGradient id="Degradado_sin_nombre_104" x1="1340.8" y1="261.59" x2="1431.82" y2="336.94" gradientTransform="matrix(0.93, 0.38, -0.38, 0.93, -74.88, -96.34)" gradientUnits="userSpaceOnUse"><stop offset="0.06" stop-color="#cbcbcb" stop-opacity="0.7"/><stop offset="0.76" stop-color="#e5e5e5" stop-opacity="0.5"/></linearGradient><linearGradient id="Degradado_sin_nombre_15" x1="1038.43" y1="384.3" x2="1148.97" y2="424.74" gradientUnits="userSpaceOnUse"><stop offset="0" stop-color="#fff" stop-opacity="0.6"/><stop offset="0.21" stop-color="#fefefe" stop-opacity="0.59"/><stop offset="0.34" stop-color="#fcfcfc" stop-opacity="0.56"/><stop offset="0.44" stop-color="#f7f7f7" stop-opacity="0.5"/><stop offset="0.52" stop-color="#f1f1f1" stop-opacity="0.42"/><stop offset="0.6" stop-color="#e9e9e9" stop-opacity="0.32"/><stop offset="0.68" stop-color="#dfdfdf" stop-opacity="0.2"/><stop offset="0.75" stop-color="#d3d3d3" stop-opacity="0.05"/><stop offset="0.77" stop-color="#cfcfcf" stop-opacity="0"/></linearGradient><linearGradient id="Degradado_sin_nombre_16" x1="1067.56" y1="-10.31" x2="1429.25" y2="135.56" gradientUnits="userSpaceOnUse"><stop offset="0" stop-color="#fff" stop-opacity="0.8"/><stop offset="0.21" stop-color="#fefefe" stop-opacity="0.79"/><stop offset="0.31" stop-color="#fdfdfd" stop-opacity="0.76"/><stop offset="0.39" stop-color="#fafafa" stop-opacity="0.71"/><stop offset="0.45" stop-color="#f5f5f5" stop-opacity="0.64"/><stop offset="0.51" stop-color="#f0f0f0" stop-opacity="0.54"/><stop offset="0.57" stop-color="#e8e8e8" stop-opacity="0.42"/><stop offset="0.62" stop-color="#e0e0e0" stop-opacity="0.29"/><stop offset="0.66" stop-color="#d7d7d7" stop-opacity="0.13"/><stop offset="0.69" stop-color="#cfcfcf" stop-opacity="0"/></linearGradient><linearGradient id="Degradado_sin_nombre_65" x1="920.01" y1="345.85" x2="960.14" y2="411.46" gradientUnits="userSpaceOnUse"><stop offset="0" stop-color="#fff" stop-opacity="0.6"/><stop offset="0.01" stop-color="#fefefe" stop-opacity="0.58"/><stop offset="0.12" stop-color="#f0f0f0" stop-opacity="0.41"/><stop offset="0.23" stop-color="#e4e4e4" stop-opacity="0.26"/><stop offset="0.34" stop-color="#dbdbdb" stop-opacity="0.15"/><stop offset="0.45" stop-color="#d4d4d4" stop-opacity="0.06"/><stop offset="0.56" stop-color="#d0d0d0" stop-opacity="0.02"/><stop offset="0.66" stop-color="#cfcfcf" stop-opacity="0"/></linearGradient></defs><title>Recurso 9</title><g class="cls-2"><g id="Capa_2" data-name="Capa 2"><g id="_1-_nave" data-name="1- nave"><path class="cls-3" d="M77.16,1119.17c2-1.84,43.21-40.15,88-64,103.71-55.2,243.13-41.69,383-46,234.09-7.21,223.21-56.77,405-44,141.69,10,140.42,39.52,275,39,99.56-.38,169.93-16.82,278,10,25.17,6.25,74,25.88,117,43,47,18.74,70.95,28.38,94,42,33.9,20,107.46,63.74,106,104-.73,20.1-21.06,64.54-293,128-222.22,51.87-397.41,66.24-447,70-230,17.47-393.6,6.72-547-4a1619.81,1619.81,0,0,1-265-40c-104.49-24.74-265.26-62.81-271-130C-2.64,1194.4,31.94,1161.59,77.16,1119.17Z"/><g class="cls-4"><line class="cls-5" x1="1542.24" y1="891.24" x2="1569.97" y2="839.98"/><line class="cls-5" x1="574.85" y1="775.71" x2="602.35" y2="724.71"/><line class="cls-5" x1="873.03" y1="754.83" x2="891.39" y2="725.05"/><line class="cls-5" x1="1257.17" y1="862.41" x2="1277.99" y2="817.16"/></g><g class="cls-6"><path class="cls-7" d="M1516.28,873.92l-2.06-.78-.13,0-23.26-8.78c-6.33,10.2-16.27,16.7-29.38,15.57l-221.55-61.7a35.47,35.47,0,0,1-4.38-1.55c-14.75-4.81-25-18.72-26.2-34l-5.43,22.19v.08c-2.63,11.71-11.81,19.5-22.06,20.11a22.33,22.33,0,0,1-9.23-1.43l-2.54-1-3.47,6.35-3.65,6.73a19.88,19.88,0,0,1-15,10.54,18.53,18.53,0,0,1-8.78-1.06v0h0l-15.45-5.82-5.43,17.23a1.88,1.88,0,0,1-.12.3,6,6,0,0,1-.34.77c-.06.11-.12.18-.16.27a5.15,5.15,0,0,1-.42.62c0,.07-.12.13-.18.2a4.09,4.09,0,0,1-.46.47.84.84,0,0,0-.17.13c-.19.13-.36.24-.54.34a.39.39,0,0,0-.14.08,5.85,5.85,0,0,1-.6.19l-.11,0c-2.22.37-4.36-1.94-3.41-5.86l4.89-17.48-16.7-6.3c-9-3.4-14.76-13.23-13.83-23.63l1.38-15.27-2.55-1c-13.46-5.07-20.31-21.68-14.86-36.08A204.78,204.78,0,0,1,1036,742l-209.2-98.73c-11.25-8.15-15.27-21.25-14.26-34.72h0l-.77-.28L792.61,601c-17.71-6.68-13.38-60.82.44-71.38l387-296.36a557,557,0,0,1,37.82-81.46C1269.07,61.9,1342.7,19.89,1370.76,2.28A14.65,14.65,0,0,1,1386,2l0-.19c4.18,1.57,5.57,4.16,7.46,9v0c12.84,33,31,103.09,23.48,209.06,0,.5-.09,1-.12,1.51-.12,1.75-.26,3.48-.41,5.23-.08,1.1-.19,2.2-.28,3.3s-.21,2.37-.32,3.55l-.39,3.92c-.1.95-.19,1.89-.3,2.84-.16,1.51-.33,3-.51,4.54l-.22,1.91a597.43,597.43,0,0,1-11.73,66.38l151.69,503.57C1559.75,834.49,1534,880.61,1516.28,873.92Z"/><path class="cls-8" d="M1525.24,1158.71c-19.73,45.71-69.46,68.2-111.08,50.23s-127.26-68.27-171.53-82.67c-25.32,20.63-64.26,27.27-102,14.21-38.47-13.31-65.31-43.43-71.87-76a74.78,74.78,0,0,1,2.47-39.52c12.39-35.83,50.46-56.72,92.62-54.5a160,160,0,0,1,18.24-44.89c40.76-68.53,123.44-94.56,184.67-58.14,24.69,14.68,42.1,37.26,51.45,63.49,26.77-6.41,54.86.84,72.8,21.52,21.44,24.76,21.81,61.14,3.47,89.69q-1.35,2.14-2.85,4.2c23,12.44,37.53,35.73,40.92,62a95.16,95.16,0,0,1-3.43,39.9A100.25,100.25,0,0,1,1525.24,1158.71Z"/><path class="cls-9" d="M1525.24,1158.71c-19.73,45.71-69.46,68.2-111.08,50.23s-127.26-68.27-171.53-82.67c-25.32,20.63-64.26,27.27-102,14.21-38.47-13.31-65.31-43.43-71.87-76,18.94-14,47.45-20.21,78.69-16.83a115.73,115.73,0,0,1,17.1-40.5c40.5-60.88,130.77-79.18,201.62-40.86,28.57,15.45,49.61,37.75,61.9,62.84,31.35,2,48.13,9.64,63.56,17.2,23.45,11.51,37.53,35.73,40.92,62,.25,16.59.17,24.3-3.43,39.9A100.25,100.25,0,0,1,1525.24,1158.71Z"/><path class="cls-10" d="M903.86,878.76c3.27,46.84-39.44,88-95.39,91.87s-104-30.87-107.26-77.71c-.1-1.44-.15-2.88-.17-4.32a145.49,145.49,0,0,1-95.66,9c-7,34.09-32.49,61.18-66.15,66.07-44.1,6.41-85.55-27.66-92.59-76.08a93.62,93.62,0,0,1,9.51-57.21c1.22-2.32,2.54-4.56,3.94-6.73a80.06,80.06,0,0,1-6.29-8.09c-21.67-32.15-15.6-74.15,13.57-93.82A59.93,59.93,0,0,1,509,712.22c19.6-48,65.94-83.44,122.17-87.37,60.3-4.21,114.37,29,138.4,79.5,38.26,2.08,71.65,33.73,77.88,76.72a96,96,0,0,1,0,27.6c21.55,8.5,38.88,23.35,48.42,41.93A72.42,72.42,0,0,1,903.86,878.76Z"/><path class="cls-11" d="M903.86,878.76c3.27,46.84-39.44,88-95.39,91.87s-104-30.87-107.26-77.71c-.1-1.44-.15-2.88-.17-4.32a145.49,145.49,0,0,1-95.66,9c-7,34.09-32.49,61.18-66.15,66.07-44.1,6.41-85.55-27.66-92.59-76.08a93.62,93.62,0,0,1,9.51-57.21c2.12-1.61,2.79-6.94,5.18-8.33,14.72-8.59,33.56-7.88,50.43-6.15,23.5-48.28,78.13-84.3,144-88.9,70.58-4.93,133.15,23.79,160.66,74,33.38,1.22,63.68,22.87,79.58,49.63A72.42,72.42,0,0,1,903.86,878.76Z"/><path class="cls-3" d="M629.84,980.68c-.23,2-.5,4.16-.82,6.4a286.3,286.3,0,0,1-6.33,30.6c-7.38,28.12-19.68,58.2-35.69,66.71a18.61,18.61,0,0,1-11.08,2.23c-7.85-.95-203.38,6-277.39,2.41-17.93-.88-35.12-.42-50.81.14-23.73.84-44.07,1.93-58.57-1-11.81-2.4-19.76-7.45-22.5-17.48q-.27-1-.48-2.07c-1.6-8.49.77-17.73,6.41-27.08l0-.06a85.35,85.35,0,0,1,10.76-13.9c.81-.85,1.56-1.63,2.23-2.3a130.74,130.74,0,0,1,12.49-11,107.34,107.34,0,0,1-6.63-17.2c-.23-.83-.47-1.66-.67-2.5a110.32,110.32,0,0,1-3.46-20.66c-3.93-52.92,28.81-99,73.09-103,17.87-1.61,34.86,3.88,49.07,14.46,11.32-13.84,28.24-20.81,44.81-16.55A41,41,0,0,1,371,877.63c17.49-46.09,60.6-73.51,102.23-62.52,18.55,4.89,34,16.69,44.91,32.61,15.88-9.91,35.19-10.77,50.59-.4,19.31,13,26.24,39.6,18.24,63.81C614.65,917.15,633.57,947.22,629.84,980.68Z"/><path class="cls-12" d="M622.69,1017.68c-7.38,28.12-19.68,58.2-35.69,66.71a18.61,18.61,0,0,1-11.08,2.23c-7.85-.95-203.38,6-277.39,2.41-17.93-.88-35.12-.42-50.81.14-23.73.84-44.07,1.93-58.57-1-11.81-2.4-19.76-7.45-22.5-17.48q-.27-1-.48-2.07c-1.6-8.49.77-17.73,6.41-27.08l0-.06a85.35,85.35,0,0,1,10.76-13.9c.81-.85,1.56-1.63,2.23-2.3a130.74,130.74,0,0,1,12.49-11c-2.64-5.41-5.59-11-6.63-17.2-3.77-22.6,8.07-48.59,10.57-53.33,17.91-34,45.53-38.21,78.41-33.73a93.42,93.42,0,0,1,49.22,22.63c13.69-9,32.26-11,49-3.88a50.79,50.79,0,0,1,16.23,11C419.36,905.48,468,892.25,510,910.39a91.09,91.09,0,0,1,42.46,36.7c16.1-4.24,34.11-1.85,48.24,7.36a55.46,55.46,0,0,1,4.57,3.32c18.38,15,22,38.41,10.42,56.64A63,63,0,0,1,622.69,1017.68Z"/><path class="cls-13" d="M586,1083.13a18.54,18.54,0,0,1-11.08,2.24c-7.85-1-203.38,6-277.39,2.4-17.93-.88-35.12-.42-50.81.15-23.73.84-44.07,1.93-58.58-1-11.8-2.39-19.75-7.44-22.49-17.47-.18-.68-.34-1.38-.48-2.07-1.6-8.49.77-17.73,6.41-27.08a.11.11,0,0,1,0-.06c13-16,23.13-31.55,43.23-34.53,36.66-5.42,46.94,6.5,56.88,20.54,11.33-13.85,28.24-20.81,44.82-16.56a41,41,0,0,1,16.73,8.88c17.5-46.1,60.6-73.52,102.23-62.53,18.56,4.9,34,16.7,44.92,32.62,15.88-9.91,35.19-10.77,50.58-.4,19.31,13,26.24,39.59,18.24,63.81C565.38,1055.58,578.56,1067.31,586,1083.13Z"/><path class="cls-14" d="M769.75,704.69c-23.78-50.58-77.69-84.09-138-80.17A144.29,144.29,0,0,0,581.47,637c3.82-.75,7.78-.38,11.54-1.07,74.37-13.77,144.69,29.19,169.26,79.71,34.65-.72,83.45,22.39,78.89,93.63,52,32.1,57.12,57.14,60.59,63.08,1-11.9-17.87-52.71-54-62.19C855.9,753.17,817.07,708.23,769.75,704.69Z"/><path class="cls-15" d="M1388.75,883.44c-61.91-37.31-147.14-14.69-193.9,52.89a171.53,171.53,0,0,0-22.75,46.51c-43.27-5.26-84.09,12.9-101,48,.47-1.77,1-3.56,1.62-5.32,12.39-35.83,50.46-56.72,92.62-54.5a159.56,159.56,0,0,1,18.24-44.9c40.76-68.52,123.44-94.55,184.67-58.14A115.86,115.86,0,0,1,1388.75,883.44Z"/><path class="cls-16" d="M1103.85,997.22c-1.83-1.83-3.79-3.62-5.88-5.35-14.94-12.32-33.71-19.08-52.61-22.08a95.91,95.91,0,0,0-30.86.41c-20,3.37-32.62-17.27-25.29-35Q1064,757.13,1131.76,576.28c1.07-2.1,1.6-3.14,2.66-5.24Q1095.54,730.75,1053,889.52a48.71,48.71,0,0,1,23.49,2.32C1117.6,907,1117.1,963.28,1103.85,997.22Z"/><path class="cls-17" d="M1132.5,1039.26c-11.38-20.57-34.54-25.06-33.23-29.82s2.18-8.61,2.82-11.88c.93-4.78,1.28-8.26,1.6-10.67,2-15.68,1.82-36-2.87-51.18-4.33-14-18.87-30.05-34.16-32.32-5.29-.79-20.48-1.84-17.31-11.69a7.8,7.8,0,0,1,4.16-4.34c-.39,1.43-.58,2.15-1,3.58a49.17,49.17,0,0,1,23.47,2.4c33.92,12.46,40.15,55.84,33.14,86.71h0a123.09,123.09,0,0,1-5.35,17.63,55.75,55.75,0,0,1,18,12.61c8.3,16.22,10.41,18.51,12.74,20.88C1136.34,1033,1133.52,1036.64,1132.5,1039.26Z"/><path class="cls-18" d="M852.46,894.18c0-.09.06-.18.1-.28,14.9-33.48,53.65-64.84,91.8-50.13,11.89,4.59,21.19,13.3,27.4,24.39,0,0,0,0,0,0,1.78,8.37,2.65,16.65,1,19.32-13.6-9.76-28.67-16.54-44-22.68-27-10.81-57.31,12.86-74.6,30.8-.45.46-.88.91-1.31,1.38-1.57,1.69-3.38,5.86-3.85,6.07"/><path class="cls-3" d="M1411.66,1159.45c0-.11,0-.21.06-.32,5-37.33-10.46-91.07-55.41-93.8a54.89,54.89,0,0,0-24.88,4.57c0-.23.08-.45.1-.66,4.32-31-22.4-59.35-52.47-61.31-14.91-1-35.33,5.18-47,15a21.45,21.45,0,0,1-15.77,5.12l-.9-.09c-13.12-1.24-26.59,3.23-38.49,11.46a12.92,12.92,0,0,1-14,.75,53.78,53.78,0,0,0-22.67-7.28l-.35,0a11.79,11.79,0,0,1-7.94-4.14,12.4,12.4,0,0,1-1.74-2.67c-4.6-9.52-10-19-19.47-24.89-1.79-1.11-7.13-3.34-6.91-3.95-1.83-1.83-3.79-3.62-5.88-5.35-14.94-12.32-33.71-19.08-52.61-22.08a95.91,95.91,0,0,0-30.86.41c-20,3.37-32.62-17.27-25.29-35Q1064,757.13,1131.76,576.28q-76.15,149.65-158.54,296c-5.59-14.07-15.27-25-28.36-30-41.35-15.81-81.2,26.47-96.42,60.57-.05.11-.08.21-.12.3-14.86-14.41-45.9-6.43-48.51-12.2-3-6.64,0-44.21-20-54.73-25.54-13.41-57.62,4.53-70.33,27.78a75.32,75.32,0,0,0-6.37,15,12.74,12.74,0,0,1-7.68,8.34,62.91,62.91,0,0,0-17.63,10,2.56,2.56,0,0,1-4.2-1A51.18,51.18,0,0,0,645,864.05l-.06,0a10.34,10.34,0,0,1-6-9.86c.57-21-7.64-44.45-27.56-53.61-35.78-16.44-74.06,20-89.26,49.82-1.39,2.74-2.68,5.49-3.82,8.24a12.2,12.2,0,0,1-9.16,7.39c-18.53,2.85-34.58,15.25-43.39,31.6-10.28,19.08-14.47,47.54-1.33,84.57-10.86,3.49-19.69,10.22-24.68,18.73-15.26-16.48-43.43-22.62-60.07,4.72-24.34,40-31.3,64.33-81.71,83.45-23.79,9,236.57-16.16,254.57-5.79,99.26,57.23,263,82.17,377.31,119.87,149.46,49.29,309.75,51.56,459.92,70.5,30.91,3.9,66.09-22.2,70.32-54.57C1463.79,1190.18,1440.62,1162.54,1411.66,1159.45Z"/><path class="cls-19" d="M721.77,949.06c-7.87-.77-21-20.73-41.28-24.58a30.83,30.83,0,0,1-23.69-20.06,39.58,39.58,0,0,0-12.09-17.73,40.4,40.4,0,0,0-42.36-5c-3.59,1.73-7.16,4.09-11.14,3.9s-7.74-2.82-10.73-5.66c-22-20.84-33.48-25.53-57.71-27.62l0-.44a75.74,75.74,0,0,1,21.35-2.34,77.71,77.71,0,0,1,49.19,20c13.23-12.06,31.49-16.73,48.19-10.59,21,7.73,32.73,30,29.8,53.27C693.54,912.07,713.43,927.11,721.77,949.06Z"/><path class="cls-20" d="M843,913.81c-.68-.57-1.35-1.13-2-1.67a42,42,0,0,0-9.51-5.7,37.26,37.26,0,0,0-22.08-2.21,62.49,62.49,0,0,0-6.58,2,23.92,23.92,0,0,0-4.32-5.46,1.31,1.31,0,0,1-.08-.21,3.63,3.63,0,0,1-.14-.51c-.24-1-.46-2.63-.86-4.73,0-.26-.09-.55-.16-.83a.36.36,0,0,1,0-.1c-.1-.46-.19-.94-.31-1.43-.06-.26-.11-.53-.18-.8-2.69-10.93-10.53-28.62-39.81-33.41S710.6,869.52,700.76,880a68.13,68.13,0,0,1,5.32-14.53c14.37-28.9,45.42-42.3,69.36-30C797,846.73,801.86,869,797.82,891.33a2.88,2.88,0,0,0,0,.87,2.44,2.44,0,0,0,.12.55c2.28,5.45,30.39-6.87,48.82,10.67"/></g><path class="cls-21" d="M1389.7,1273.65c-150.16-18.94-310.46-21.21-459.92-70.5-149.69-49.37-305.45-160.48-444.43-225.9-26.84-12.64-33.16-54.58-19.66-79.65,8.81-16.35,24.86-28.75,43.39-31.6a12.2,12.2,0,0,0,9.16-7.39c1.14-2.75,2.43-5.5,3.82-8.24,15.2-29.86,53.48-66.26,89.26-49.82,19.92,9.16,28.13,32.65,27.56,53.61a10.34,10.34,0,0,0,6,9.86l.06,0a51.18,51.18,0,0,1,28.6,32.24,2.56,2.56,0,0,0,4.2,1,62.91,62.91,0,0,1,17.63-10,12.74,12.74,0,0,0,7.68-8.34,75.32,75.32,0,0,1,6.37-15c12.71-23.25,44.79-41.19,70.33-27.78,20,10.52,17,48.09,20,54.73,2.61,5.77,33.65-2.21,48.51,12.2,0-.09.07-.19.12-.3,15.22-34.1,55.07-76.38,96.42-60.57,13.09,5,22.77,15.89,28.36,30q82.37-146.34,158.54-296c1.07-2.1,1.6-3.14,2.66-5.24Q1095.54,730.75,1053,889.52a48.71,48.71,0,0,1,23.49,2.32c41.11,15.13,39.87,71.78,27.36,105.38-.22.6,5.12,2.84,6.91,3.95,9.47,5.86,14.87,15.37,19.47,24.89a12.4,12.4,0,0,0,1.74,2.67,11.79,11.79,0,0,0,7.94,4.14l.35,0a53.78,53.78,0,0,1,22.67,7.28,12.92,12.92,0,0,0,14-.75c11.9-8.23,25.37-12.7,38.49-11.46l.9.09a21.45,21.45,0,0,0,15.77-5.12c11.68-9.83,32.1-16,47-15,30.07,2,56.79,30.3,52.47,61.31,0,.21-.07.43-.1.66a54.89,54.89,0,0,1,24.88-4.57c45,2.73,60.42,56.47,55.41,93.8,0,.11,0,.21-.06.32,29,3.09,52.13,30.73,48.36,59.63C1455.79,1251.45,1420.61,1277.55,1389.7,1273.65Z"/><path class="cls-22" d="M866.17,444.56l147.29-86.19c44-25.75,95.7-81.73,129.39-119.49l25.25-28.3L733.94,476.06c-15,9.17-22.87,59.83-4.89,67.1L748.48,551C749.45,497.54,825.1,468.6,866.17,444.56Z"/><path class="cls-22" d="M1463.74,840.37l-24.14-9.77a51,51,0,0,0,3.33-3.91s0,0,0,0c.41-.54.81-1,1.19-1.6a19.65,19.65,0,0,0,1.12-1.62,16.92,16.92,0,0,0,1-1.66,32,32,0,0,0,2-3.4c.32-.57.61-1.16.87-1.75a15.4,15.4,0,0,0,.82-1.75c4.73-10.67,6.33-22.74,5.91-35.46-.12-3.75-.4-7.58-.86-11.43-.27-2.32-.59-4.63-1-7-.74-4.67-1.64-9.38-2.71-14.1-.2-.78-.37-1.58-.55-2.35-.72-3.15-1.52-6.29-2.36-9.43-.21-.76-.43-1.55-.63-2.34-.64-2.34-1.3-4.68-2-7-1.57-5.42-3.24-10.8-4.94-16.06-.48-1.5-.94-3-1.43-4.48s-1-3-1.44-4.41l-1.4-4.36c-2.82-8.63-5.47-16.77-7.54-24.21q-23-82.18-45.93-164.36a485.27,485.27,0,0,1-17.63-150.39l5-59.95,136.33,491.11C1511.34,805.72,1481.74,847.64,1463.74,840.37Z"/><path class="cls-23" d="M1449.64,814.74a52.64,52.64,0,0,1-10,15.86L748.49,551c1-53.48,76.61-82.42,117.7-106.46q73.62-43.11,147.26-86.2c44-25.73,95.71-81.71,129.39-119.49l25.26-28.28,149.43-69,49.81,170.22-1.85,45.66a485.27,485.27,0,0,0,17.63,150.39q22.94,82.17,45.93,164.36c2.06,7.44,4.72,15.58,7.54,24.21C1448.39,732.63,1465.34,777.52,1449.64,814.74Z"/><path class="cls-22" d="M1177.15,771.27l229,71.53c13.69,1.87,24.52-3.65,31.76-12.89l-282.31-114.2-3.46,10.87C1146.28,745,1157.54,765.14,1177.15,771.27Z"/><path class="cls-22" d="M973.1,689.36,761.93,584.8c-11.18-8.29-14.54-20.86-12.65-33.46l277,112.07-5.3,10.72C1012.47,691.38,991,698.21,973.1,689.36Z"/><path class="cls-24" d="M1394.6,223.24l-41.94-128.5a25.12,25.12,0,0,0-35.84-14.28l-118.27,64.13c58.72-81.67,125.56-121.49,155.8-136.47a16.63,16.63,0,0,1,23.07,9.34C1388.72,49.18,1409,124,1394.6,223.24Z"/><path class="cls-25" d="M1361.65,343.69c-25.1,62.05-59.64,119.58-94.78,176.35-22.49,36.37-48.6,73.26-69.48,112.05-4.11,7.67-9.16,15.89-14.16,24.21-8,13.34-15.87,26.9-19.68,38.87l-20,62.76a25.35,25.35,0,0,1-33.66,15.8l-89.12-36.05a25.35,25.35,0,0,1-13.2-34.76l29.27-59c5.6-11.35,9.48-26.54,12.86-41.63,2.15-9.5,4.09-18.95,6.14-27.4,26.19-107.16,41.47-218.68,83-321.33a519.35,519.35,0,0,1,59.69-109l118.27-64.13a25.12,25.12,0,0,1,35.84,14.28l41.94,128.5A518.23,518.23,0,0,1,1361.65,343.69Z"/><path class="cls-26" d="M1107.33,772.69l-8.21,11.91a21.09,21.09,0,0,1-25.26,7.57l-40-16.17A21.08,21.08,0,0,1,1021,753l2.38-14.27"/><path class="cls-27" d="M1092.27,687.73a43.12,43.12,0,0,0,2.9-4.34s0,0,0,0"/><path class="cls-24" d="M1131.29,592.72h0c3.84,1.55,5.18,7.14,3,12.4l-82.8,196.59c-2.52,5.44-8.7,3-6.76-2.69l75.79-199.37C1122.53,594.29,1127.42,591.15,1131.29,592.72Z"/><circle class="cls-28" cx="1296.27" cy="184.88" r="46.8"/><circle class="cls-29" cx="1295.04" cy="158.46" r="7.59"/><circle class="cls-29" cx="1271.03" cy="170.58" r="5.06"/><path class="cls-30" d="M1310.31,391.77h0c-3.7-1.4-5.21-5.6-3.5-9.4,2.74-6.1,4-9.2,6.27-15.5,1.41-3.91,5.42-5.88,9.05-4.32h0a8,8,0,0,1,4.21,9.86c-2.23,6.17-3.46,9.22-6.15,15.2A8,8,0,0,1,1310.31,391.77Z"/><path class="cls-31" d="M1277.74,443.61h0a6.87,6.87,0,0,1-1.72-10c3.91-5.36,5.78-8.1,9.35-13.67,2.22-3.47,6.54-4.58,9.71-2.4h0a7.85,7.85,0,0,1,2,10.35c-3.38,5.59-5.16,8.33-8.87,13.7A7.8,7.8,0,0,1,1277.74,443.61Z"/><path class="cls-32" d="M1345.82,303.76h0a6.87,6.87,0,0,0-9.2,4.26c-2.19,6.26-3.38,9.35-5.95,15.46-1.59,3.8-.05,8,3.55,9.35h0a7.84,7.84,0,0,0,9.66-4.2c2.68-6,3.94-9,6.25-15.08A7.8,7.8,0,0,0,1345.82,303.76Z"/><path class="cls-33" d="M1147.81,326h0c3.64,1.56,7.64-.41,9.06-4.33,2.27-6.29,3.52-9.39,6.26-15.49,1.71-3.8.2-8-3.49-9.41h0a8,8,0,0,0-9.88,4.16c-2.69,6-3.92,9-6.15,15.21A8,8,0,0,0,1147.81,326Z"/><path class="cls-34" d="M1135.18,385.94h0a6.87,6.87,0,0,0,8.18-6c.92-6.56,1.48-9.83,2.79-16.32.82-4-1.52-7.84-5.32-8.48h0a7.86,7.86,0,0,0-8.65,6c-1.45,6.37-2.08,9.57-3.15,16A7.81,7.81,0,0,0,1135.18,385.94Z"/><path class="cls-35" d="M1185,238.84h0c3.35,1.69,4.3,5.89,2.18,9.4-3.41,5.65-5,8.53-8.17,14.39-1.94,3.65-6,5.34-9.08,3.69h0c-3.09-1.65-4.2-6.05-2.39-9.72,2.92-5.89,4.45-8.79,7.66-14.47A7.62,7.62,0,0,1,1185,238.84Z"/><line class="cls-36" x1="1185.29" y1="657.14" x2="1123.43" y2="632.11"/><line class="cls-36" x1="1109.68" y1="626.55" x2="1051.78" y2="603.13"/><path class="cls-37" d="M1394.6,223.24l-41.94-128.5a25.12,25.12,0,0,0-35.84-14.28l-118.27,64.13"/><path class="cls-38" d="M1463.26,841.22l-25.35-11.29c-7.2,9.23-17.94,14.79-31.49,13l-226.26-70.43c-19.38-6-30.44-26.07-24.56-44.51l3.46-10.86-2.23-.9-13.27,41.71a25.34,25.34,0,0,1-33.65,15.8l-2.58-1-8.2,11.91a21.09,21.09,0,0,1-25.28,7.57l-15.69-6.35,76.11-180.71c2.2-5.25-1.48-16.26-3-12.39,35.38-92.87,135.56-301.24,152.8-364.87,23.79,9.61,45.92-1.63,55.54-25.42,9.7-24,.38-50.3-23.58-60L1370.24,8.52c4.24,1.72,5.51,4.22,7.18,8.94C1388.71,49.18,1409,124,1394.6,223.24a507.09,507.09,0,0,1-20.33,85.92c8.45,28.88,132.1,478.6,132.1,478.6C1510.85,804.83,1481.25,848.49,1463.26,841.22Z"/><path class="cls-39" d="M1109.91,773.73l-2.58-1-8.2,11.91a21.09,21.09,0,0,1-25.28,7.57l-15.69-6.35,75.11-178.3L1159,712.69l-15.41,45.24A25.34,25.34,0,0,1,1109.91,773.73Z"/><path class="cls-40" d="M1134.27,605.11l-76.11,180.71-6.7,15.9c-1.44,3.08-4.06,3.63-5.69,2.45l85.54-211.45C1135.15,594.3,1136.47,599.86,1134.27,605.11Z"/><path class="cls-41" d="M1336.91,201.64a43.51,43.51,0,0,1-56.65,24h0a43.31,43.31,0,0,1-24.37-25,46.41,46.41,0,0,0,12.45,7.45,47.08,47.08,0,0,0,64.6-46.78A43.45,43.45,0,0,1,1336.91,201.64Z"/><path class="cls-42" d="M1198.54,144.59a519.8,519.8,0,0,0-59.68,109c-41.53,102.64-56.81,214.17-83,321.33-2.06,8.45-4,17.91-6.16,27.4-3.37,15.09-7.25,30.28-12.85,41.64l-29.27,59a25.25,25.25,0,0,0,1,24.29l36-78.86c8.09-18.34,13.74-50.16,18.67-69.59l65.67-239.57a476.91,476.91,0,0,1,56.88-133.83l6.85-11a476.49,476.49,0,0,1,63-80.73c.87-.9,1.76-1.79,2.64-2.68q-30.07,15.51-59.17,32.83Z"/><path class="cls-43" d="M1360.22,6.81a10.82,10.82,0,0,0-5.87,1.31c-30.13,14.92-96.61,54.53-155.19,135.63q29.07-17.34,59.17-32.83a477.89,477.89,0,0,1,45.27-40.41c14.7-11.52,50.13-36.35,51.66-39.8C1359.2,21.82,1364.46,7.2,1360.22,6.81Z"/><path class="cls-44" d="M1154.36,218.77s-372.37,229-408.43,249-32.06,76.13-4,84.15-5.83-16.44,28.05-46.08c32.06-28.06,360.65-232.42,360.65-232.42S1136,252.26,1154.36,218.77Z"/></g></g></g></svg>