<svg xmlns="http://www.w3.org/2000/svg" xmlns:xlink="http://www.w3.org/1999/xlink" viewBox="0 0 836.42 880.04"><defs><style>.cls-1,.cls-12{fill:#fff;}.cls-1{stroke:#fff;}.cls-1,.cls-10,.cls-11,.cls-13,.cls-14,.cls-15,.cls-16,.cls-17,.cls-18,.cls-19,.cls-20{stroke-miterlimit:10;}.cls-1,.cls-11,.cls-19{stroke-width:2px;}.cls-2{isolation:isolate;}.cls-3{mask:url(#mask);}.cls-21,.cls-4{opacity:0.15;}.cls-21,.cls-22,.cls-23,.cls-24,.cls-4{mix-blend-mode:multiply;}.cls-5{fill:#0b7d73;}.cls-6{fill:#3fb7ad;}.cls-7{fill:#0fa599;}.cls-8{fill:#a6e1db;}.cls-9{fill:#08534d;}.cls-10,.cls-19,.cls-20{fill:none;}.cls-10{stroke:#000;}.cls-11,.cls-13,.cls-14,.cls-15,.cls-16,.cls-17,.cls-18{stroke:#cbcbcb;}.cls-11{fill:url(#Degradado_sin_nombre_60);}.cls-12,.cls-23{opacity:0.7;}.cls-13,.cls-14,.cls-15,.cls-16,.cls-17{opacity:0.8;}.cls-13{fill:url(#Degradado_sin_nombre_13);}.cls-14{fill:url(#Degradado_sin_nombre_13-2);}.cls-15{fill:url(#Degradado_sin_nombre_13-3);}.cls-16{fill:url(#Degradado_sin_nombre_13-4);}.cls-17{fill:url(#Degradado_sin_nombre_13-5);}.cls-18{fill:url(#Degradado_sin_nombre_13-6);}.cls-19,.cls-20{stroke:#c3eae6;}.cls-20{stroke-linecap:round;}.cls-21{fill:#989898;}.cls-22{fill:url(#Degradado_sin_nombre_104);}.cls-23{fill:#cfcfcf;}.cls-24{fill:#d3d3d3;}.cls-25{fill:url(#Degradado_sin_nombre_15);}.cls-26{fill:url(#Degradado_sin_nombre_16);}.cls-27{fill:url(#Degradado_sin_nombre_65);}</style><mask id="mask" x="-1416.8" y="-244.22" width="2533.26" height="1382.8" maskUnits="userSpaceOnUse"><path class="cls-1" d="M-832.9-214.7c139.12,37.25,233.22,54.8,392,46.74,203.46-10.34,294.28-55.19,456.64-62.72,116.43-5.4,232.28,19.38,341.79,60.1a391.27,391.27,0,0,0,103.68,23.09c48.19,4,96,.05,143.86,8.93,40,7.43,80.18,19.75,115.87,40.17A415,415,0,0,1,823.24-16a389.83,389.83,0,0,1,45.88,61.72c17.1,28.86,31.79,62.73,61.35,80.45,15.09,9,33,10.47,49,17.76,59,26.95,91.12,89.32,105.68,151.27,13.28,56.52,20.21,114.66,24.78,172.56,4.23,53.43,7,107.55,4.7,161.17-3.85,89.21-18.66,135.58-68.28,210.22-77,115.88-193.67,184.85-330.16,177.46-48.34-2.62-101,15.78-139.72,45.64-42.94,33.07-143.2,72.34-237.85,75.06-76.19,2.19-166.55-10.87-250.21-68.2-85.95-58.9-194.23-71.23-289.94-31.17-101,42.28-221.55,61.57-337.32,24.54-81.42-26-169.25-12.54-246.24,25.24-67.59,33.15-141,40-214.77,36.58a1153.55,1153.55,0,0,1-231.75-34.67c-29.64-7.57-59-17.3-84-35.89-71.31-52.94-34.29-119.1-54.78-204.21-45.11-187.37-56.07-457.8-35.21-649.1,8.32-76.22,27.37-150.14,43.27-224.89,12.19-57.32-6.29-140.57,49.18-165.87,68.08-31,108-39.84,166.94-47.78C-1037.72-252.71-902.7-233.38-832.9-214.7Z"/></mask><radialGradient id="Degradado_sin_nombre_60" cx="662.54" cy="-248.01" r="58.38" gradientTransform="matrix(0.5, 0.86, -1.32, 0.77, -81.54, -189.36)" gradientUnits="userSpaceOnUse"><stop offset="0.16" stop-color="#3e56b0"/><stop offset="0.36" stop-color="#3f59b0"/><stop offset="0.51" stop-color="#4362b2"/><stop offset="0.64" stop-color="#4972b5"/><stop offset="0.77" stop-color="#5189b8"/><stop offset="0.88" stop-color="#5ca6bd"/><stop offset="0.99" stop-color="#6acac2"/><stop offset="1" stop-color="#6bcdc3"/></radialGradient><linearGradient id="Degradado_sin_nombre_13" x1="741.7" y1="-82.73" x2="756.25" y2="-82.73" gradientTransform="matrix(0.93, 0.38, -0.38, 0.93, -127.33, 173.17)" gradientUnits="userSpaceOnUse"><stop offset="0.39" stop-color="#3e56b0"/><stop offset="0.99" stop-color="#6bcdc3"/></linearGradient><linearGradient id="Degradado_sin_nombre_13-2" x1="732.15" y1="-22.04" x2="749.88" y2="-22.04" xlink:href="#Degradado_sin_nombre_13"/><linearGradient id="Degradado_sin_nombre_13-3" x1="741.45" y1="-146.22" x2="756.14" y2="-146.22" xlink:href="#Degradado_sin_nombre_13"/><linearGradient id="Degradado_sin_nombre_13-4" x1="565.4" y1="-82.73" x2="579.96" y2="-82.73" xlink:href="#Degradado_sin_nombre_13"/><linearGradient id="Degradado_sin_nombre_13-5" x1="571.78" y1="-22.04" x2="589.51" y2="-22.04" xlink:href="#Degradado_sin_nombre_13"/><linearGradient id="Degradado_sin_nombre_13-6" x1="565.43" y1="-146.19" x2="580.63" y2="-146.19" xlink:href="#Degradado_sin_nombre_13"/><linearGradient id="Degradado_sin_nombre_104" x1="622.13" y1="261.59" x2="713.14" y2="336.94" gradientTransform="matrix(0.93, 0.38, -0.38, 0.93, -127.33, 173.17)" gradientUnits="userSpaceOnUse"><stop offset="0.06" stop-color="#cbcbcb" stop-opacity="0.7"/><stop offset="0.76" stop-color="#e5e5e5" stop-opacity="0.5"/></linearGradient><linearGradient id="Degradado_sin_nombre_15" x1="319.75" y1="384.3" x2="430.29" y2="424.74" gradientUnits="userSpaceOnUse"><stop offset="0" stop-color="#fff" stop-opacity="0.6"/><stop offset="0.21" stop-color="#fefefe" stop-opacity="0.59"/><stop offset="0.34" stop-color="#fcfcfc" stop-opacity="0.56"/><stop offset="0.44" stop-color="#f7f7f7" stop-opacity="0.5"/><stop offset="0.52" stop-color="#f1f1f1" stop-opacity="0.42"/><stop offset="0.6" stop-color="#e9e9e9" stop-opacity="0.32"/><stop offset="0.68" stop-color="#dfdfdf" stop-opacity="0.2"/><stop offset="0.75" stop-color="#d3d3d3" stop-opacity="0.05"/><stop offset="0.77" stop-color="#cfcfcf" stop-opacity="0"/></linearGradient><linearGradient id="Degradado_sin_nombre_16" x1="348.88" y1="-10.31" x2="710.57" y2="135.56" gradientUnits="userSpaceOnUse"><stop offset="0" stop-color="#fff" stop-opacity="0.8"/><stop offset="0.21" stop-color="#fefefe" stop-opacity="0.79"/><stop offset="0.31" stop-color="#fdfdfd" stop-opacity="0.76"/><stop offset="0.39" stop-color="#fafafa" stop-opacity="0.71"/><stop offset="0.45" stop-color="#f5f5f5" stop-opacity="0.64"/><stop offset="0.51" stop-color="#f0f0f0" stop-opacity="0.54"/><stop offset="0.57" stop-color="#e8e8e8" stop-opacity="0.42"/><stop offset="0.62" stop-color="#e0e0e0" stop-opacity="0.29"/><stop offset="0.66" stop-color="#d7d7d7" stop-opacity="0.13"/><stop offset="0.69" stop-color="#cfcfcf" stop-opacity="0"/></linearGradient><linearGradient id="Degradado_sin_nombre_65" x1="201.34" y1="345.85" x2="241.47" y2="411.46" gradientUnits="userSpaceOnUse"><stop offset="0" stop-color="#fff" stop-opacity="0.6"/><stop offset="0.01" stop-color="#fefefe" stop-opacity="0.58"/><stop offset="0.12" stop-color="#f0f0f0" stop-opacity="0.41"/><stop offset="0.23" stop-color="#e4e4e4" stop-opacity="0.26"/><stop offset="0.34" stop-color="#dbdbdb" stop-opacity="0.15"/><stop offset="0.45" stop-color="#d4d4d4" stop-opacity="0.06"/><stop offset="0.56" stop-color="#d0d0d0" stop-opacity="0.02"/><stop offset="0.66" stop-color="#cfcfcf" stop-opacity="0"/></linearGradient></defs><title>Recurso 15</title><g class="cls-2"><g id="Capa_2" data-name="Capa 2"><g id="_1-_nave" data-name="1- nave"><g class="cls-3"><path class="cls-4" d="M797.6,873.92l-2.06-.78-.13,0-23.26-8.78c-6.32,10.2-16.27,16.7-29.38,15.57l-221.54-61.7a35.62,35.62,0,0,1-4.39-1.55c-14.75-4.81-25-18.72-26.2-34l-5.42,22.19v.08c-2.64,11.71-11.82,19.5-22.07,20.11a22.33,22.33,0,0,1-9.23-1.43l-2.54-1L447.91,829l-3.66,6.73a19.87,19.87,0,0,1-15,10.54,18.53,18.53,0,0,1-8.78-1.06v0h0L405,839.32l-5.43,17.23a1.88,1.88,0,0,1-.12.3,6,6,0,0,1-.34.77c-.06.11-.12.18-.16.27a6.67,6.67,0,0,1-.41.62l-.18.2a4.17,4.17,0,0,1-.47.47l-.17.13a4.42,4.42,0,0,1-.54.34.5.5,0,0,0-.14.08,5.16,5.16,0,0,1-.6.19l-.11,0c-2.22.37-4.36-1.94-3.41-5.86l4.89-17.48-16.7-6.3c-9-3.4-14.76-13.23-13.82-23.63l1.38-15.27-2.56-1c-13.45-5.07-20.31-21.68-14.85-36.08A204.43,204.43,0,0,1,317.32,742L108.11,643.24C96.86,635.09,92.84,622,93.85,608.52h0l-.77-.28L73.94,601c-17.72-6.68-13.38-60.82.44-71.38l387-296.36A557,557,0,0,1,499.2,151.8C550.39,61.9,624,19.89,652.08,2.28A14.65,14.65,0,0,1,667.3,2l.05-.19c4.18,1.57,5.57,4.16,7.46,9v0c12.85,33,31,103.09,23.48,209.06,0,.5-.08,1-.12,1.51-.12,1.75-.25,3.48-.41,5.23-.07,1.1-.19,2.2-.28,3.3s-.21,2.37-.32,3.55l-.39,3.92c-.1.95-.19,1.89-.29,2.84-.17,1.51-.34,3-.52,4.54l-.22,1.91A595.12,595.12,0,0,1,684,313.11L835.7,816.68C841.07,834.49,815.32,880.61,797.6,873.92Z"/></g><path class="cls-5" d="M147.5,444.56l147.28-86.19c44-25.75,95.7-81.73,129.4-119.49l25.24-28.3L15.26,476.06c-15,9.17-22.87,59.83-4.88,67.1L29.81,551C30.77,497.54,106.43,468.6,147.5,444.56Z"/><path class="cls-5" d="M745.07,840.37l-24.14-9.77a48.7,48.7,0,0,0,3.32-3.91s0,0,0,0c.41-.54.81-1,1.19-1.6s.8-1.08,1.13-1.62.74-1.11,1-1.66a33.78,33.78,0,0,0,1.94-3.4c.32-.57.61-1.16.88-1.75a17.25,17.25,0,0,0,.81-1.75c4.73-10.67,6.34-22.74,5.92-35.46-.13-3.75-.41-7.58-.87-11.43-.26-2.32-.58-4.63-1-7-.73-4.67-1.64-9.38-2.71-14.1-.2-.78-.37-1.58-.55-2.35-.71-3.15-1.52-6.29-2.35-9.43-.21-.76-.44-1.55-.64-2.34q-1-3.51-2-7c-1.58-5.42-3.25-10.8-4.94-16.06-.49-1.5-1-3-1.44-4.48s-1-3-1.44-4.41l-1.4-4.36c-2.82-8.63-5.47-16.77-7.54-24.21q-23-82.18-45.93-164.36a485,485,0,0,1-17.62-150.39l5-59.95L788.17,788.67C792.66,805.72,763.06,847.64,745.07,840.37Z"/><path class="cls-6" d="M731,814.74a53,53,0,0,1-10,15.86L29.81,551c1-53.48,76.61-82.42,117.7-106.46q73.62-43.11,147.27-86.2c44-25.73,95.71-81.71,129.39-119.49l25.25-28.28,149.43-69,49.81,170.22-1.84,45.66A485,485,0,0,0,664.44,507.9q22.93,82.17,45.93,164.36c2.07,7.44,4.72,15.58,7.54,24.21C729.71,732.63,746.66,777.52,731,814.74Z"/><path class="cls-5" d="M458.48,771.27l229,71.53c13.69,1.87,24.52-3.65,31.77-12.89L436.91,715.71l-3.45,10.87C427.6,745,438.86,765.14,458.48,771.27Z"/><path class="cls-5" d="M254.42,689.36,43.25,584.8c-11.18-8.29-14.54-20.86-12.65-33.46l277,112.07-5.31,10.72C293.8,691.38,272.3,698.21,254.42,689.36Z"/><path class="cls-7" d="M675.93,223.24,634,94.74a25.12,25.12,0,0,0-35.84-14.28L479.87,144.59C538.59,62.92,605.43,23.1,635.67,8.12a16.64,16.64,0,0,1,23.08,9.34C670,49.18,690.33,124,675.93,223.24Z"/><path class="cls-8" d="M643,343.69C617.87,405.74,583.33,463.27,548.2,520c-22.49,36.37-48.61,73.26-69.49,112.05-4.11,7.67-9.15,15.89-14.16,24.21-8,13.34-15.87,26.9-19.68,38.87l-20,62.76a25.34,25.34,0,0,1-33.66,15.8l-89.12-36.05a25.35,25.35,0,0,1-13.2-34.76l29.28-59c5.6-11.35,9.48-26.54,12.85-41.63,2.15-9.5,4.09-18.95,6.15-27.4,26.18-107.16,41.47-218.68,83-321.33a519.8,519.8,0,0,1,59.69-109L598.14,80.46A25.12,25.12,0,0,1,634,94.74l41.95,128.5A519.22,519.22,0,0,1,643,343.69Z"/><path class="cls-9" d="M388.66,772.69l-8.22,11.91a21.08,21.08,0,0,1-25.26,7.57l-40-16.17a21.08,21.08,0,0,1-12.89-23l2.38-14.27"/><path class="cls-10" d="M373.59,687.73a43.2,43.2,0,0,0,2.91-4.34s0,0,0,0"/><path class="cls-7" d="M412.61,592.72h0c3.84,1.55,5.18,7.14,3,12.4l-82.8,196.59c-2.51,5.44-8.7,3-6.76-2.69l75.8-199.37C403.86,594.29,408.74,591.15,412.61,592.72Z"/><circle class="cls-11" cx="577.59" cy="184.88" r="46.8"/><circle class="cls-12" cx="576.36" cy="158.46" r="7.59"/><circle class="cls-12" cx="552.35" cy="170.58" r="5.06"/><path class="cls-13" d="M591.63,391.77h0c-3.69-1.4-5.2-5.6-3.5-9.4,2.75-6.1,4-9.2,6.27-15.5,1.42-3.91,5.42-5.88,9.05-4.32h0a8,8,0,0,1,4.21,9.86c-2.23,6.17-3.46,9.22-6.15,15.2A8,8,0,0,1,591.63,391.77Z"/><path class="cls-14" d="M559.07,443.61h0a6.86,6.86,0,0,1-1.72-10c3.9-5.36,5.77-8.1,9.34-13.67,2.22-3.47,6.55-4.58,9.72-2.4h0a7.85,7.85,0,0,1,2,10.35c-3.38,5.59-5.15,8.33-8.86,13.7A7.8,7.8,0,0,1,559.07,443.61Z"/><path class="cls-15" d="M627.15,303.76h0a6.88,6.88,0,0,0-9.21,4.26c-2.19,6.26-3.38,9.35-5.94,15.46-1.6,3.8-.06,8,3.54,9.35h0a7.85,7.85,0,0,0,9.67-4.2c2.68-6,3.93-9,6.24-15.08A7.81,7.81,0,0,0,627.15,303.76Z"/><path class="cls-16" d="M429.14,326h0c3.63,1.56,7.64-.41,9.05-4.33,2.27-6.29,3.53-9.39,6.27-15.49,1.7-3.8.2-8-3.5-9.41h0a8,8,0,0,0-9.88,4.16c-2.69,6-3.92,9-6.15,15.21A8,8,0,0,0,429.14,326Z"/><path class="cls-17" d="M416.5,385.94h0a6.88,6.88,0,0,0,8.19-6c.91-6.56,1.47-9.83,2.78-16.32.82-4-1.52-7.84-5.31-8.48h0a7.85,7.85,0,0,0-8.65,6c-1.46,6.37-2.09,9.57-3.16,16A7.81,7.81,0,0,0,416.5,385.94Z"/><path class="cls-18" d="M466.35,238.84h0c3.36,1.69,4.31,5.89,2.18,9.4-3.41,5.65-5,8.53-8.16,14.39-1.94,3.65-6,5.34-9.09,3.69h0c-3.09-1.65-4.2-6.05-2.39-9.72,2.92-5.89,4.45-8.79,7.66-14.47A7.62,7.62,0,0,1,466.35,238.84Z"/><line class="cls-19" x1="466.62" y1="657.14" x2="404.75" y2="632.11"/><line class="cls-19" x1="391.01" y1="626.55" x2="333.1" y2="603.13"/><path class="cls-20" d="M675.93,223.24,634,94.74a25.12,25.12,0,0,0-35.84-14.28L479.87,144.59"/><path class="cls-21" d="M744.59,841.22l-25.36-11.29c-7.2,9.23-17.94,14.79-31.48,13L461.49,772.49c-19.39-6-30.45-26.07-24.57-44.51l3.47-10.86-2.23-.9-13.27,41.71a25.35,25.35,0,0,1-33.66,15.8l-2.58-1-8.2,11.91a21.09,21.09,0,0,1-25.28,7.57l-15.69-6.35,76.11-180.71c2.21-5.25-1.48-16.26-3-12.39C448,499.85,548.19,291.48,565.43,227.85c23.8,9.61,45.92-1.63,55.55-25.42,9.69-24,.38-50.3-23.58-60L651.56,8.52c4.24,1.72,5.52,4.22,7.19,8.94C670,49.18,690.33,124,675.93,223.24a507.17,507.17,0,0,1-20.34,85.92c8.45,28.88,132.1,478.6,132.1,478.6C792.17,804.83,762.57,848.49,744.59,841.22Z"/><path class="cls-22" d="M391.23,773.73l-2.58-1-8.2,11.91a21.09,21.09,0,0,1-25.28,7.57l-15.69-6.35,75.11-178.3,25.7,105.17-15.4,45.24A25.35,25.35,0,0,1,391.23,773.73Z"/><path class="cls-23" d="M415.59,605.11,339.48,785.82l-6.7,15.9c-1.44,3.08-4.06,3.63-5.68,2.45l85.53-211.45C416.47,594.3,417.8,599.86,415.59,605.11Z"/><path class="cls-24" d="M618.24,201.64a43.52,43.52,0,0,1-56.66,24h0a43.31,43.31,0,0,1-24.37-25,46.41,46.41,0,0,0,12.45,7.45,47.08,47.08,0,0,0,64.61-46.78A43.5,43.5,0,0,1,618.24,201.64Z"/><path class="cls-25" d="M479.87,144.59a518.89,518.89,0,0,0-59.68,109c-41.54,102.64-56.82,214.17-83,321.33-2.05,8.45-4,17.91-6.15,27.4-3.38,15.09-7.25,30.28-12.85,41.64l-29.28,59a25.28,25.28,0,0,0,1,24.29l36-78.86C334,630,339.64,598.2,344.58,578.77L410.24,339.2a476.91,476.91,0,0,1,56.88-133.83l6.85-11a476.49,476.49,0,0,1,63-80.73c.88-.9,1.76-1.79,2.65-2.68q-30.07,15.51-59.17,32.83Z"/><path class="cls-26" d="M641.54,6.81a10.82,10.82,0,0,0-5.87,1.31C605.55,23,539.06,62.65,480.49,143.75q29.06-17.34,59.17-32.83a476.54,476.54,0,0,1,45.26-40.41c14.7-11.52,50.13-36.35,51.66-39.8C640.52,21.82,645.78,7.2,641.54,6.81Z"/><path class="cls-27" d="M435.68,218.77s-372.36,229-408.43,249-32,76.13-4,84.15-5.84-16.44,28.05-46.08c32.05-28.06,360.64-232.42,360.64-232.42S417.35,252.26,435.68,218.77Z"/></g></g></g></svg>