<?xml version="1.0" encoding="utf-8"?>
<!-- Generator: Adobe Illustrator 23.0.5, SVG Export Plug-In . SVG Version: 6.00 Build 0)  -->
<svg version="1.1" id="Capa_1" xmlns="http://www.w3.org/2000/svg" xmlns:xlink="http://www.w3.org/1999/xlink" x="0px" y="0px"
	 viewBox="0 0 1648 839.4" style="enable-background:new 0 0 1648 839.4;" xml:space="preserve">
<style type="text/css">
	.st0{fill:#FFFFFF;}
	.st1{opacity:0.7;}
	.st2{fill:none;stroke:#CFCFCF;stroke-width:2;stroke-linecap:round;stroke-miterlimit:10;}
	.st3{fill:url(#SVGID_1_);}
	.st4{opacity:0.3;fill:url(#SVGID_2_);enable-background:new    ;}
	.st5{fill:url(#SVGID_3_);}
	.st6{opacity:0.3;fill:url(#SVGID_4_);enable-background:new    ;}
	.st7{opacity:0.2;fill:url(#SVGID_5_);enable-background:new    ;}
	.st8{opacity:0.1;fill:url(#SVGID_6_);enable-background:new    ;}
	.st9{opacity:0.4;fill:url(#SVGID_7_);enable-background:new    ;}
	.st10{opacity:0.4;fill:url(#SVGID_8_);enable-background:new    ;}
	.st11{fill:#CFCFCF;}
	.st12{opacity:0.4;fill:url(#SVGID_9_);enable-background:new    ;}
	.st13{opacity:0.4;fill:url(#SVGID_10_);enable-background:new    ;}
	.st14{opacity:0.35;fill:url(#SVGID_11_);enable-background:new    ;}
	.st15{opacity:0.4;fill:url(#SVGID_12_);enable-background:new    ;}
	.st16{fill:url(#SVGID_13_);}
</style>
<title>Recurso 16</title>
<g>
	<g id="_1-_nave">
		<path class="st0" d="M68,548.1c1.8-1.8,38.1-40.1,77.6-64c91.4-55.2,214.3-41.7,337.6-46c206.3-7.2,196.7-56.8,356.9-44
			c124.9,10,123.8,39.5,242.4,39c87.7-0.4,149.8-16.8,245,10c22.2,6.3,65.2,25.9,103.1,43c41.4,18.7,62.5,28.4,82.8,42
			c29.9,20,94.7,63.7,93.4,104c-0.6,20.1-18.6,64.5-258.2,128c-195.9,51.9-350.3,66.2-394,70c-202.7,17.5-346.9,6.7-482.1-4
			c-78.7-6-156.8-19.4-233.6-40c-92.1-24.7-233.8-62.8-238.8-130C-2.3,623.4,28.2,590.5,68,548.1z"/>
		<g class="st1">
			<line class="st2" x1="1542.2" y1="320.2" x2="1570" y2="269"/>
			<line class="st2" x1="574.8" y1="204.7" x2="602.3" y2="153.7"/>
			<line class="st2" x1="873" y1="183.8" x2="891.4" y2="154"/>
			<line class="st2" x1="1257.2" y1="291.4" x2="1278" y2="246.1"/>
		</g>
		<g>
			
				<linearGradient id="SVGID_1_" gradientUnits="userSpaceOnUse" x1="1673.9993" y1="200.8579" x2="1778.3893" y2="662.2779" gradientTransform="matrix(0.95 0.33 -0.33 0.95 -200.85 -433.94)">
				<stop  offset="0" style="stop-color:#FFFFFF"/>
				<stop  offset="1" style="stop-color:#CFCFCF"/>
			</linearGradient>
			<path class="st3" d="M1525.2,587.7c-19.7,45.7-69.5,68.2-111.1,50.2s-127.3-68.3-171.5-82.7c-25.3,20.6-64.3,27.3-102,14.2
				c-38.5-13.3-65.3-43.4-71.9-76c-2.7-13.2-1.9-26.8,2.5-39.5c12.4-35.8,50.5-56.7,92.6-54.5c3.8-15.8,9.9-30.9,18.2-44.9
				c40.7-68.5,123.4-94.5,184.6-58.1c24.7,14.7,42.1,37.3,51.4,63.5c26.8-6.4,54.9,0.8,72.8,21.5c21.4,24.8,21.8,61.1,3.5,89.7
				c-0.9,1.4-1.8,2.8-2.8,4.2c23,12.4,37.5,35.7,40.9,62c1.7,13.4,0.5,27-3.4,39.9C1528,580.7,1526.7,584.2,1525.2,587.7z"/>
			
				<radialGradient id="SVGID_2_" cx="2271.1626" cy="1244.3774" r="181.84" fx="2239.2419" fy="1244.3774" gradientTransform="matrix(0.43 0.9 -0.74 0.35 1241.71 -2100.6299)" gradientUnits="userSpaceOnUse">
				<stop  offset="0" style="stop-color:#FFFFFF;stop-opacity:0"/>
				<stop  offset="7.000000e-02" style="stop-color:#FCFCFC;stop-opacity:7.000000e-02"/>
				<stop  offset="0.19" style="stop-color:#F4F4F4;stop-opacity:0.24"/>
				<stop  offset="0.36" style="stop-color:#E6E6E6;stop-opacity:0.52"/>
				<stop  offset="0.56" style="stop-color:#D4D4D4;stop-opacity:0.9"/>
				<stop  offset="0.61" style="stop-color:#CFCFCF"/>
			</radialGradient>
			<path class="st4" d="M1525.2,587.7c-19.7,45.7-69.5,68.2-111.1,50.2s-127.3-68.3-171.5-82.7c-25.3,20.6-64.3,27.3-102,14.2
				c-38.5-13.3-65.3-43.4-71.9-76c18.9-14,47.4-20.2,78.7-16.8c3.1-14.5,8.9-28.2,17.1-40.5c40.5-60.9,130.8-79.2,201.6-40.9
				c28.6,15.5,49.6,37.8,61.9,62.8c31.3,2,48.1,9.6,63.6,17.2c23.4,11.5,37.5,35.7,40.9,61.9c0.3,16.6,0.2,24.3-3.4,39.9
				C1528,580.7,1526.7,584.2,1525.2,587.7z"/>
			
				<linearGradient id="SVGID_3_" gradientUnits="userSpaceOnUse" x1="652.6695" y1="90.1764" x2="574.5095" y2="540.4364" gradientTransform="matrix(0.9976 -6.975647e-02 6.975647e-02 0.9976 35.2805 14.9255)">
				<stop  offset="0" style="stop-color:#FFFFFF"/>
				<stop  offset="0.18" style="stop-color:#F6F6F6"/>
				<stop  offset="1" style="stop-color:#CFCFCF"/>
			</linearGradient>
			<path class="st5" d="M903.9,307.7c3.3,46.8-39.4,88-95.4,91.9s-104-30.9-107.3-77.7c-0.1-1.4-0.2-2.9-0.2-4.3
				c-30,13.7-63.7,16.9-95.7,9c-7,34.1-32.5,61.2-66.2,66.1c-44.1,6.4-85.5-27.6-92.6-76.1c-3-19.6,0.4-39.6,9.5-57.2
				c1.2-2.3,2.5-4.6,3.9-6.7c-2.3-2.6-4.4-5.3-6.3-8.1c-21.7-32.2-15.6-74.2,13.6-93.8c12.2-8.2,27.1-11.6,41.6-9.5
				c19.6-48,65.9-83.4,122.2-87.4c60.3-4.2,114.4,29,138.4,79.5c38.3,2.1,71.7,33.7,77.9,76.7c1.3,9.2,1.3,18.4,0,27.6
				c21.5,8.5,38.9,23.4,48.4,41.9C900.5,288.3,903.2,297.9,903.9,307.7z"/>
			
				<radialGradient id="SVGID_4_" cx="2167.3948" cy="1658.678" r="295.24" fx="2072.2446" fy="1671.2275" gradientTransform="matrix(-0.32 0.95 -0.85 -0.29 2771.1599 -1375.39)" gradientUnits="userSpaceOnUse">
				<stop  offset="0" style="stop-color:#FFFFFF;stop-opacity:0"/>
				<stop  offset="6.000000e-02" style="stop-color:#FCFCFC;stop-opacity:7.000000e-02"/>
				<stop  offset="0.16" style="stop-color:#F4F4F4;stop-opacity:0.24"/>
				<stop  offset="0.3" style="stop-color:#E6E6E6;stop-opacity:0.52"/>
				<stop  offset="0.48" style="stop-color:#D4D4D4;stop-opacity:0.9"/>
				<stop  offset="0.52" style="stop-color:#CFCFCF"/>
				<stop  offset="0.97" style="stop-color:#3E56B0;stop-opacity:0.6"/>
			</radialGradient>
			<path class="st6" d="M903.9,307.7c3.3,46.8-39.4,88-95.4,91.9s-104-30.9-107.3-77.7c-0.1-1.4-0.2-2.9-0.2-4.3
				c-30,13.7-63.7,16.9-95.7,9c-7,34.1-32.5,61.2-66.2,66.1c-44.1,6.4-85.5-27.6-92.6-76.1c-3-19.6,0.4-39.6,9.5-57.2
				c2.1-1.6,2.8-6.9,5.2-8.3c14.7-8.6,33.6-7.9,50.4-6.1c23.5-48.3,78.1-84.3,144-88.9c70.6-4.9,133.2,23.8,160.7,74
				c33.4,1.2,63.7,22.9,79.6,49.6C900.5,288.3,903.2,297.9,903.9,307.7z"/>
			<path class="st0" d="M629.8,409.6c-0.2,2-0.5,4.2-0.8,6.4c-1.6,10.3-3.7,20.5-6.3,30.6c-7.4,28.1-19.7,58.2-35.7,66.7
				c-3.4,1.9-7.2,2.7-11.1,2.2c-7.8-1-203.4,6-277.4,2.4c-17.9-0.9-35.1-0.4-50.8,0.1c-23.7,0.8-44.1,1.9-58.6-1
				c-11.8-2.4-19.8-7.5-22.5-17.5c-0.2-0.7-0.3-1.4-0.5-2.1c-1.6-8.5,0.8-17.7,6.4-27.1v-0.1c3.1-5,6.7-9.6,10.8-13.9
				c0.8-0.9,1.6-1.6,2.2-2.3c3.9-3.9,8.1-7.6,12.5-11c-2.7-5.5-4.9-11.3-6.6-17.2c-0.2-0.8-0.5-1.6-0.7-2.5
				c-1.8-6.8-3-13.7-3.5-20.7c-3.9-52.9,28.8-99.1,73.1-103c17.9-1.6,34.9,3.9,49.1,14.5c11.3-13.9,28.2-20.8,44.8-16.6
				c6.2,1.6,11.9,4.6,16.7,8.8c17.5-46.1,60.6-73.5,102.2-62.5c18.5,4.9,34,16.7,44.9,32.6c15.9-9.9,35.2-10.8,50.6-0.4
				c19.3,13,26.2,39.6,18.2,63.8C614.7,346.1,633.6,376.2,629.8,409.6z"/>
			
				<linearGradient id="SVGID_5_" gradientUnits="userSpaceOnUse" x1="459.2353" y1="321.5521" x2="453.1854" y2="497.0821" gradientTransform="matrix(1 4.000000e-02 -4.000000e-02 1.07 -41.42 -48.5399)">
				<stop  offset="0.15" style="stop-color:#FFFFFF;stop-opacity:0.8"/>
				<stop  offset="0.19" style="stop-color:#F2F3FA;stop-opacity:0.8"/>
				<stop  offset="0.27" style="stop-color:#CED4EB;stop-opacity:0.8"/>
				<stop  offset="0.36" style="stop-color:#95A2D4;stop-opacity:0.8"/>
				<stop  offset="0.47" style="stop-color:#465DB3;stop-opacity:0.8"/>
				<stop  offset="0.48" style="stop-color:#3E56B0;stop-opacity:0.8"/>
				<stop  offset="0.55" style="stop-color:#4E44B0;stop-opacity:0.87"/>
				<stop  offset="0.64" style="stop-color:#5F31B0;stop-opacity:0.94"/>
				<stop  offset="0.74" style="stop-color:#6A26B0;stop-opacity:0.99"/>
				<stop  offset="0.82" style="stop-color:#6D22B0"/>
			</linearGradient>
			<path class="st7" d="M622.7,446.6c-7.4,28.1-19.7,58.2-35.7,66.7c-3.4,1.9-7.2,2.7-11.1,2.2c-7.8-1-203.4,6-277.4,2.4
				c-17.9-0.9-35.1-0.4-50.8,0.1c-23.7,0.8-44.1,1.9-58.6-1c-11.8-2.4-19.8-7.5-22.5-17.5c-0.2-0.7-0.3-1.4-0.5-2.1
				c-1.6-8.5,0.8-17.7,6.4-27.1v-0.1c3.1-5,6.7-9.6,10.8-13.9c0.8-0.9,1.6-1.6,2.2-2.3c3.9-3.9,8.1-7.6,12.5-11
				c-2.6-5.4-5.6-11-6.6-17.2c-3.8-22.6,8.1-48.6,10.6-53.3c17.9-34,45.5-38.2,78.4-33.7c18.3,2.5,35.4,10.4,49.2,22.6
				c13.7-9,32.3-11,49-3.9c6.1,2.6,11.6,6.3,16.2,11c24.5-34.2,73.1-47.5,115.1-29.3c17.7,7.5,32.5,20.3,42.5,36.7
				c16.1-4.2,34.1-1.9,48.2,7.4c1.6,1,3.1,2.1,4.6,3.3c18.4,15,22,38.4,10.4,56.6C618.1,444.3,620.4,445.4,622.7,446.6z"/>
			
				<linearGradient id="SVGID_6_" gradientUnits="userSpaceOnUse" x1="454.8667" y1="374.5385" x2="428.0367" y2="553.5084" gradientTransform="matrix(1 4.000000e-02 -4.000000e-02 1.07 -41.42 -48.5399)">
				<stop  offset="0" style="stop-color:#FFFFFF"/>
				<stop  offset="0.18" style="stop-color:#DCC9EC"/>
				<stop  offset="0.49" style="stop-color:#A170CC"/>
				<stop  offset="0.71" style="stop-color:#7B38B8"/>
				<stop  offset="0.82" style="stop-color:#6D22B0"/>
			</linearGradient>
			<path class="st8" d="M586,512.1c-3.4,1.9-7.2,2.7-11.1,2.2c-7.8-1-203.4,6-277.4,2.4c-17.9-0.9-35.1-0.4-50.8,0.2
				c-23.7,0.8-44.1,1.9-58.6-1c-11.8-2.4-19.8-7.4-22.5-17.5c-0.2-0.7-0.3-1.4-0.5-2.1c-1.6-8.5,0.8-17.7,6.4-27.1c0,0,0,0,0-0.1
				c13-16,23.1-31.5,43.2-34.5c36.7-5.4,46.9,6.5,56.9,20.5c11.3-13.9,28.2-20.8,44.8-16.6c6.2,1.6,11.9,4.7,16.7,8.9
				c17.5-46.1,60.6-73.5,102.2-62.5c18.6,4.9,34,16.7,44.9,32.6c15.9-9.9,35.2-10.8,50.6-0.4c19.3,13,26.2,39.6,18.2,63.8
				C565.4,484.5,578.6,496.3,586,512.1z"/>
			
				<linearGradient id="SVGID_7_" gradientUnits="userSpaceOnUse" x1="533.7389" y1="150.3533" x2="838.2261" y2="150.3533" gradientTransform="matrix(0.9979 -6.488065e-02 6.488065e-02 0.9979 47.1194 73.4197)">
				<stop  offset="1.000000e-02" style="stop-color:#FFFFFF"/>
				<stop  offset="0.22" style="stop-color:#FDEED2"/>
				<stop  offset="0.76" style="stop-color:#FAC260"/>
				<stop  offset="1" style="stop-color:#F8B133"/>
			</linearGradient>
			<path class="st9" d="M769.8,133.6C746,83,692.1,49.5,631.8,53.4c-17.4,1.1-34.4,5.3-50.3,12.5c3.8-0.7,7.8-0.4,11.5-1.1
				C667.4,51,737.7,94,762.3,144.5c34.7-0.7,83.5,22.4,78.9,93.6c52,32.1,57.1,57.1,60.6,63.1c1-11.9-17.9-52.7-54-62.2
				C855.9,182.1,817.1,137.2,769.8,133.6z"/>
			
				<linearGradient id="SVGID_8_" gradientUnits="userSpaceOnUse" x1="1674.525" y1="296.5367" x2="1509.3149" y2="299.9667" gradientTransform="matrix(0.95 0.33 -0.33 0.95 -200.85 -433.94)">
				<stop  offset="0" style="stop-color:#FFFFFF"/>
				<stop  offset="0.21" style="stop-color:#FDEED2"/>
				<stop  offset="0.76" style="stop-color:#FAC260"/>
				<stop  offset="1" style="stop-color:#F8B133"/>
			</linearGradient>
			<path class="st10" d="M1388.8,312.4c-61.9-37.3-147.1-14.7-193.9,52.9c-9.9,14.3-17.6,29.9-22.8,46.5c-43.3-5.3-84.1,12.9-101,48
				c0.5-1.8,1-3.6,1.6-5.3c12.4-35.8,50.5-56.7,92.6-54.5c3.8-15.8,9.9-30.9,18.2-44.9c40.8-68.5,123.4-94.6,184.7-58.1
				C1375.6,301.3,1382.5,306.5,1388.8,312.4z"/>
			<path class="st11" d="M1103.8,426.2c-1.8-1.8-3.8-3.6-5.9-5.4c-14.9-12.3-33.7-19.1-52.6-22.1c-10.2-1.5-20.7-1.4-30.9,0.4
				c-20,3.4-32.6-17.3-25.3-35c49.9-118.7,97.4-238.4,142.5-358.9c1.1-2.1,1.6-3.1,2.7-5.2c-25.9,106.5-53.1,212.6-81.4,318.5
				c7.9-1.2,16-0.4,23.5,2.3C1117.6,335.9,1117.1,392.3,1103.8,426.2z"/>
			
				<linearGradient id="SVGID_9_" gradientUnits="userSpaceOnUse" x1="1524.4778" y1="179.4438" x2="1562.6876" y2="310.2538" gradientTransform="matrix(0.93 0.38 -0.42 1.05 -242.71 -435.7701)">
				<stop  offset="0" style="stop-color:#F8B133"/>
				<stop  offset="0.13" style="stop-color:#F9BF58;stop-opacity:0.82"/>
				<stop  offset="0.42" style="stop-color:#FCE3B6;stop-opacity:0.36"/>
				<stop  offset="0.63" style="stop-color:#FFFFFF;stop-opacity:0"/>
			</linearGradient>
			<path class="st12" d="M1132.5,468.2c-11.4-20.6-34.5-25-33.2-29.8s2.2-8.6,2.8-11.9c0.9-4.8,1.3-8.3,1.6-10.7
				c2-15.7,1.8-36-2.9-51.2c-4.3-14-18.9-30-34.2-32.3c-5.3-0.8-20.5-1.8-17.3-11.7c0.8-1.9,2.3-3.5,4.2-4.3c-0.4,1.4-0.6,2.1-1,3.6
				c7.9-1.1,16-0.3,23.5,2.4c33.9,12.5,40.2,55.8,33.1,86.7l0,0c-1.3,6-3.1,11.9-5.3,17.6c6.8,3,12.9,7.3,18,12.6
				c8.3,16.2,10.4,18.5,12.7,20.9C1136.3,462,1133.5,465.6,1132.5,468.2z"/>
			
				<linearGradient id="SVGID_10_" gradientUnits="userSpaceOnUse" x1="1347.1399" y1="305.3075" x2="1350.58" y2="392.7375" gradientTransform="matrix(0.93 0.38 -0.38 0.93 -204.97 -529.05)">
				<stop  offset="0.17" style="stop-color:#F8B133"/>
				<stop  offset="0.2" style="stop-color:#F9BE54;stop-opacity:0.84"/>
				<stop  offset="0.26" style="stop-color:#FBCF81;stop-opacity:0.62"/>
				<stop  offset="0.32" style="stop-color:#FCDEA7;stop-opacity:0.43"/>
				<stop  offset="0.38" style="stop-color:#FDEAC7;stop-opacity:0.27"/>
				<stop  offset="0.44" style="stop-color:#FEF3DF;stop-opacity:0.15"/>
				<stop  offset="0.5" style="stop-color:#FFFAF1;stop-opacity:7.000000e-02"/>
				<stop  offset="0.55" style="stop-color:#FFFEFB;stop-opacity:2.000000e-02"/>
				<stop  offset="0.6" style="stop-color:#FFFFFF;stop-opacity:0"/>
			</linearGradient>
			<path class="st13" d="M852.5,323.1c0-0.1,0.1-0.2,0.1-0.3c14.9-33.5,53.7-64.9,91.8-50.1c11.9,4.6,21.2,13.3,27.4,24.4l0,0
				c1.8,8.4,2.7,16.6,1,19.3c-13.6-9.8-28.7-16.5-44-22.7c-27-10.8-57.3,12.9-74.6,30.8c-0.5,0.5-0.9,0.9-1.3,1.4
				c-1.6,1.7-3.4,5.9-3.8,6.1"/>
			<path class="st0" d="M1411.7,588.4c0-0.1,0-0.2,0.1-0.3c5-37.3-10.5-91.1-55.4-93.8c-8.5-0.4-17.1,1.1-24.9,4.6
				c0-0.2,0.1-0.5,0.1-0.7c4.3-31-22.4-59.4-52.5-61.3c-14.9-1-35.3,5.2-47,15c-4.4,3.8-10,5.6-15.8,5.1l-0.9-0.1
				c-13.1-1.2-26.6,3.2-38.5,11.5c-4.1,3-9.6,3.3-14,0.8c-6.9-4.1-14.7-6.6-22.7-7.3h-0.3c-3.1-0.3-5.9-1.8-7.9-4.1
				c-0.7-0.8-1.3-1.7-1.7-2.7c-4.6-9.5-10-19-19.5-24.9c-1.8-1.1-7.1-3.3-6.9-4c-1.8-1.8-3.8-3.6-5.9-5.4
				c-14.9-12.3-33.7-19.1-52.6-22.1c-10.2-1.5-20.7-1.4-30.9,0.4c-20,3.4-32.6-17.3-25.3-35c49.9-118.7,97.4-238.4,142.6-358.9
				c-50.8,99.8-103.6,198.4-158.5,296c-5.6-14.1-15.3-25-28.4-30c-41.3-15.8-81.2,26.5-96.4,60.6c0,0.1-0.1,0.2-0.1,0.3
				c-14.9-14.4-45.9-6.4-48.5-12.2c-3-6.6,0-44.2-20-54.7c-25.5-13.4-57.6,4.5-70.3,27.8c-2.7,4.8-4.8,9.8-6.4,15
				c-1.1,3.8-4,6.9-7.7,8.3c-6.4,2.4-12.3,5.7-17.6,10c-1,1-2.6,1-3.6-0.1c-0.3-0.3-0.5-0.6-0.6-0.9c-4.3-14.5-14.8-26.3-28.6-32.3
				H645c-3.8-1.8-6.2-5.7-6-9.9c0.6-21-7.6-44.4-27.6-53.6c-35.8-16.4-74.1,19.9-89.3,49.8c-1.4,2.7-2.7,5.5-3.8,8.2
				c-1.6,3.9-5,6.7-9.2,7.4c-18.5,2.9-34.6,15.3-43.4,31.6c-10.3,19.1-14.5,47.5-1.3,84.6c-10.9,3.5-19.7,10.2-24.7,18.7
				c-15.3-16.5-43.4-22.6-60.1,4.7c-24.3,40-31.3,64.3-81.7,83.5c-23.8,9,236.6-16.2,254.6-5.8c99.3,57.2,263,82.2,377.3,119.9
				c149.5,49.3,309.8,51.6,459.9,70.5c30.9,3.9,66.1-22.2,70.3-54.6C1463.8,619.1,1440.6,591.5,1411.7,588.4z"/>
			
				<linearGradient id="SVGID_11_" gradientUnits="userSpaceOnUse" x1="440.3503" y1="308.6263" x2="560.4103" y2="174.9162" gradientTransform="matrix(0.9855 -0.1697 0.1697 0.9855 97.4106 161.3099)">
				<stop  offset="0.37" style="stop-color:#FFFFFF"/>
				<stop  offset="0.5" style="stop-color:#FDEED2"/>
				<stop  offset="0.85" style="stop-color:#FAC260"/>
				<stop  offset="1" style="stop-color:#F8B133"/>
			</linearGradient>
			<path class="st14" d="M721.8,378c-7.9-0.8-21-20.7-41.3-24.6c-10.9-1.9-20-9.6-23.7-20.1c-2.3-6.9-6.5-13-12.1-17.7
				c-12-9.6-28.4-11.5-42.4-5c-3.6,1.7-7.2,4.1-11.1,3.9s-7.7-2.8-10.7-5.7c-22-20.8-33.5-25.5-57.7-27.6v-0.4
				c7-1.8,14.2-2.6,21.3-2.3c18.2,0.7,35.7,7.8,49.2,20c13.2-12.1,31.5-16.7,48.2-10.6c21,7.7,32.7,30,29.8,53.3
				C693.5,341,713.4,356.1,721.8,378z"/>
			
				<linearGradient id="SVGID_12_" gradientUnits="userSpaceOnUse" x1="1239.7076" y1="193.0822" x2="1220.7277" y2="247.6222" gradientTransform="matrix(0.99 0.4 -0.44 1.08 -324.04 -439.78)">
				<stop  offset="0" style="stop-color:#F8B133"/>
				<stop  offset="0.22" style="stop-color:#FAC66A"/>
				<stop  offset="0.49" style="stop-color:#FCDEA9"/>
				<stop  offset="0.72" style="stop-color:#FEF0D8"/>
				<stop  offset="0.9" style="stop-color:#FFFBF4"/>
				<stop  offset="1" style="stop-color:#FFFFFF"/>
			</linearGradient>
			<path class="st15" d="M843,342.8c-0.7-0.6-1.3-1.1-2-1.7c-2.9-2.3-6.1-4.2-9.5-5.7c-7-3-14.7-3.7-22.1-2.2
				c-2.2,0.6-4.4,1.2-6.6,2c-1.2-2-2.6-3.9-4.3-5.5c0-0.1-0.1-0.1-0.1-0.2c-0.1-0.2-0.1-0.3-0.1-0.5c-0.2-1-0.5-2.6-0.9-4.7
				c0-0.3-0.1-0.5-0.2-0.8v-0.1c-0.1-0.5-0.2-0.9-0.3-1.4c-0.1-0.3-0.1-0.5-0.2-0.8c-2.7-10.9-10.5-28.6-39.8-33.4
				s-46.4,10.7-56.2,21.2c1.2-5,3-9.9,5.3-14.5c14.4-28.9,45.4-42.3,69.4-30c21.6,11.2,26.4,33.5,22.4,55.8c0,0.3,0,0.6,0,0.9
				c0,0.2,0.1,0.4,0.1,0.5c2.3,5.5,30.4-6.9,48.8,10.7"/>
		</g>
		
			<linearGradient id="SVGID_13_" gradientUnits="userSpaceOnUse" x1="1458.1129" y1="5.7214" x2="1458.1129" y2="568.0913" gradientTransform="matrix(0.93 0.38 -0.43 1.06 -256.7 -401.1801)">
			<stop  offset="0.14" style="stop-color:#6BCDC3;stop-opacity:0.5"/>
			<stop  offset="0.17" style="stop-color:#8ED9D1;stop-opacity:0.38"/>
			<stop  offset="0.23" style="stop-color:#E9F7F6;stop-opacity:8.000000e-02"/>
			<stop  offset="0.24" style="stop-color:#FFFFFF;stop-opacity:0"/>
		</linearGradient>
		<path class="st16" d="M1389.7,702.6c-150.2-18.9-310.5-21.2-459.9-70.5c-149.7-49.4-305.5-160.5-444.4-225.9
			c-26.8-12.6-33.2-54.6-19.7-79.6c8.8-16.4,24.9-28.7,43.4-31.6c4.1-0.7,7.6-3.5,9.2-7.4c1.1-2.8,2.4-5.5,3.8-8.2
			c15.2-29.9,53.5-66.3,89.3-49.8c19.9,9.1,28.1,32.6,27.6,53.6c-0.2,4.2,2.2,8.1,6,9.9h0.1c13.8,6,24.3,17.8,28.6,32.2
			c0.5,1.3,1.9,2,3.3,1.6c0.4-0.1,0.7-0.3,0.9-0.6c5.3-4.3,11.3-7.6,17.6-10c3.7-1.4,6.6-4.5,7.7-8.3c1.6-5.2,3.7-10.2,6.4-15
			c12.7-23.3,44.8-41.2,70.3-27.8c20,10.5,17,48.1,20,54.7c2.6,5.8,33.7-2.2,48.5,12.2c0-0.1,0.1-0.2,0.1-0.3
			c15.2-34.1,55.1-76.4,96.4-60.6c13.1,5,22.8,15.9,28.4,30c54.9-97.6,107.8-196.2,158.5-296c1.1-2.1,1.6-3.1,2.7-5.2
			c-25.9,106.5-53,212.7-81.4,318.6c7.9-1.2,16-0.4,23.5,2.3c41.1,15.1,39.9,71.8,27.4,105.4c-0.2,0.6,5.1,2.9,6.9,4
			c9.5,5.9,14.9,15.4,19.5,24.9c0.5,1,1,1.9,1.7,2.7c2,2.4,4.9,3.9,7.9,4.1h0.3c8,0.7,15.8,3.2,22.7,7.3c4.4,2.5,9.9,2.2,14-0.8
			c11.9-8.2,25.4-12.7,38.5-11.5l0.9,0.1c5.7,0.5,11.4-1.4,15.8-5.1c11.7-9.8,32.1-16,47-15c30.1,2,56.8,30.3,52.5,61.3
			c0,0.2-0.1,0.4-0.1,0.7c7.8-3.4,16.3-5,24.9-4.6c45,2.7,60.4,56.5,55.4,93.8c0,0.1,0,0.2-0.1,0.3c29,3.1,52.1,30.7,48.4,59.6
			C1455.8,680.4,1420.6,706.5,1389.7,702.6z"/>
	</g>
</g>
</svg>
