<svg xmlns="http://www.w3.org/2000/svg" xmlns:xlink="http://www.w3.org/1999/xlink" viewBox="0 0 2504 590.92"><defs><style>.cls-1,.cls-2{fill:#fff;}.cls-1{stroke:#fff;stroke-miterlimit:10;stroke-width:2px;}.cls-3{mask:url(#mask);}.cls-4{fill:url(#Degradado_sin_nombre_39);}.cls-5,.cls-7{opacity:0.3;}.cls-5{fill:url(#Degradado_sin_nombre_63);}.cls-6{fill:url(#Degradado_sin_nombre_37);}.cls-7{fill:url(#Degradado_sin_nombre_90);}.cls-8{opacity:0.2;fill:url(#Degradado_sin_nombre_42);}.cls-9{opacity:0.1;fill:url(#Degradado_sin_nombre_41);}.cls-10,.cls-11,.cls-13{opacity:0.4;}.cls-10{fill:url(#Degradado_sin_nombre_121);}.cls-11{fill:url(#Degradado_sin_nombre_123);}.cls-12{opacity:0.35;fill:url(#Degradado_sin_nombre_154);}.cls-13{fill:url(#Degradado_sin_nombre_156);}</style><mask id="mask" x="-58.78" y="-868.43" width="2533.26" height="1459.35" maskUnits="userSpaceOnUse"><path class="cls-1" d="M525.12-838.9c139.12,37.24,233.22,54.8,392,46.73,203.46-10.34,294.27-55.19,456.64-62.71,116.42-5.4,232.27,19.38,341.79,60.09a390.4,390.4,0,0,0,103.68,23.09c48.18,4,96,.06,143.86,8.94,40,7.43,80.18,19.75,115.87,40.16a415.66,415.66,0,0,1,102.35,82.43,389.78,389.78,0,0,1,45.87,61.72c17.1,28.87,31.79,62.73,61.36,80.46,15.08,9,33,10.46,49,17.76,59,27,91.12,89.31,105.68,151.26,13.28,56.52,20.2,114.67,24.78,172.56,4.22,53.44,7,107.55,4.69,161.17C2468.8,94,2454,140.34,2404.37,215c-77,115.89-193.68,184.86-330.16,177.46-48.34-2.62-101,15.78-139.72,45.64-42.94,33.08-143.2,72.35-237.85,75.06-76.19,2.19-166.55-10.86-250.21-68.2-86-58.9-194.24-71.23-289.94-31.17-101,42.29-221.55,61.58-337.32,24.55-81.42-26-169.25-12.54-246.25,25.23-67.58,33.16-141,40-214.76,36.58a1152.82,1152.82,0,0,1-231.75-34.66c-29.64-7.58-59-17.3-84-35.9-71.31-52.94-34.29-119.1-54.78-204.2C-57.51,38-68.47-232.43-47.6-423.74-39.29-500-20.23-573.88-4.33-648.63,7.86-705.94-10.62-789.2,44.85-814.49c68.08-31,108-39.84,166.94-47.79C320.3-876.91,455.32-857.59,525.12-838.9Z"/></mask><linearGradient id="Degradado_sin_nombre_39" x1="2263.83" y1="-204.58" x2="2368.22" y2="256.85" gradientTransform="matrix(0.95, 0.33, -0.33, 0.95, -243.72, -293.84)" gradientUnits="userSpaceOnUse"><stop offset="0" stop-color="#fff"/><stop offset="1" stop-color="#cfcfcf"/></linearGradient><radialGradient id="Degradado_sin_nombre_63" cx="2261.54" cy="-119.46" fx="2229.620387054441" r="181.84" gradientTransform="matrix(0.43, 0.9, -0.74, 0.35, 877.49, -1670.35)" gradientUnits="userSpaceOnUse"><stop offset="0" stop-color="#fff" stop-opacity="0"/><stop offset="0.07" stop-color="#fcfcfc" stop-opacity="0.07"/><stop offset="0.19" stop-color="#f4f4f4" stop-opacity="0.24"/><stop offset="0.36" stop-color="#e6e6e6" stop-opacity="0.52"/><stop offset="0.56" stop-color="#d4d4d4" stop-opacity="0.9"/><stop offset="0.61" stop-color="#cfcfcf"/></radialGradient><linearGradient id="Degradado_sin_nombre_37" x1="1285.8" y1="169.46" x2="1207.64" y2="619.72" gradientTransform="translate(37.61 -73.16) rotate(-4)" gradientUnits="userSpaceOnUse"><stop offset="0" stop-color="#fff"/><stop offset="0.18" stop-color="#f6f6f6"/><stop offset="1" stop-color="#cfcfcf"/></linearGradient><radialGradient id="Degradado_sin_nombre_90" cx="1249.65" cy="309.55" fx="1154.500831818423" fy="322.09302774265115" r="295.24" gradientTransform="matrix(-0.32, 0.95, -0.85, -0.29, 1969.8, -946.22)" gradientUnits="userSpaceOnUse"><stop offset="0" stop-color="#fff" stop-opacity="0"/><stop offset="0.06" stop-color="#fcfcfc" stop-opacity="0.07"/><stop offset="0.16" stop-color="#f4f4f4" stop-opacity="0.24"/><stop offset="0.3" stop-color="#e6e6e6" stop-opacity="0.52"/><stop offset="0.48" stop-color="#d4d4d4" stop-opacity="0.9"/><stop offset="0.52" stop-color="#cfcfcf"/><stop offset="0.97" stop-color="#3e56b0" stop-opacity="0.6"/></radialGradient><linearGradient id="Degradado_sin_nombre_42" x1="1100.76" y1="268.01" x2="1094.71" y2="443.55" gradientTransform="matrix(1, 0.04, -0.04, 1.07, -43.21, -70.64)" gradientUnits="userSpaceOnUse"><stop offset="0.15" stop-color="#fff" stop-opacity="0.8"/><stop offset="0.19" stop-color="#f2f3fa" stop-opacity="0.8"/><stop offset="0.27" stop-color="#ced4eb" stop-opacity="0.8"/><stop offset="0.36" stop-color="#95a2d4" stop-opacity="0.8"/><stop offset="0.47" stop-color="#465db3" stop-opacity="0.8"/><stop offset="0.48" stop-color="#3e56b0" stop-opacity="0.8"/><stop offset="0.55" stop-color="#4e44b0" stop-opacity="0.87"/><stop offset="0.64" stop-color="#5f31b0" stop-opacity="0.94"/><stop offset="0.74" stop-color="#6a26b0" stop-opacity="0.99"/><stop offset="0.82" stop-color="#6d22b0"/></linearGradient><linearGradient id="Degradado_sin_nombre_41" x1="1096.52" y1="321.27" x2="1069.69" y2="500.24" gradientTransform="matrix(1, 0.04, -0.04, 1.07, -43.21, -70.64)" gradientUnits="userSpaceOnUse"><stop offset="0" stop-color="#fff"/><stop offset="0.18" stop-color="#dcc9ec"/><stop offset="0.49" stop-color="#a170cc"/><stop offset="0.71" stop-color="#7b38b8"/><stop offset="0.82" stop-color="#6d22b0"/></linearGradient><linearGradient id="Degradado_sin_nombre_121" x1="1167.38" y1="223.8" x2="1471.87" y2="223.8" gradientTransform="translate(49.36 -11.87) rotate(-3.72)" gradientUnits="userSpaceOnUse"><stop offset="0.01" stop-color="#fff"/><stop offset="0.22" stop-color="#fdeed2"/><stop offset="0.76" stop-color="#fac260"/><stop offset="1" stop-color="#f8b133"/></linearGradient><linearGradient id="Degradado_sin_nombre_123" x1="2256" y1="-105" x2="2090.78" y2="-101.56" gradientTransform="matrix(0.95, 0.33, -0.33, 0.95, -243.72, -293.84)" gradientUnits="userSpaceOnUse"><stop offset="0" stop-color="#fff"/><stop offset="0.21" stop-color="#fdeed2"/><stop offset="0.76" stop-color="#fac260"/><stop offset="1" stop-color="#f8b133"/></linearGradient><linearGradient id="Degradado_sin_nombre_154" x1="1053.94" y1="508.41" x2="1174" y2="374.71" gradientTransform="translate(98.13 15.37) rotate(-9.77)" gradientUnits="userSpaceOnUse"><stop offset="0.37" stop-color="#fff"/><stop offset="0.5" stop-color="#fdeed2"/><stop offset="0.85" stop-color="#fac260"/><stop offset="1" stop-color="#f8b133"/></linearGradient><linearGradient id="Degradado_sin_nombre_156" x1="1738.72" y1="-210.04" x2="1719.74" y2="-155.5" gradientTransform="matrix(0.99, 0.4, -0.44, 1.08, -350.54, -253.97)" gradientUnits="userSpaceOnUse"><stop offset="0" stop-color="#f8b133"/><stop offset="0.22" stop-color="#fac66a"/><stop offset="0.49" stop-color="#fcdea9"/><stop offset="0.72" stop-color="#fef0d8"/><stop offset="0.9" stop-color="#fffbf4"/><stop offset="1" stop-color="#fff"/></linearGradient></defs><title>Recurso 11</title><g id="Capa_2" data-name="Capa 2"><g id="_1-_nave" data-name="1- nave"><path class="cls-2" d="M2504,56.46v479H0V263.21c5.29,63.9-11.09,115.59,48.56,158.34,25,17.9,54.2,27.26,83.73,34.56a1188.28,1188.28,0,0,0,230.93,33.44c73.52,3.34,146.65-3.24,214-35.1,76.7-36.3,164.21-49.24,245.34-24.17C937.9,466,1058,447.44,1158.62,406.81c95.35-38.48,203.24-32.36,288.91,24.32a431.45,431.45,0,0,0,249.33,71.48c94.3-2.57,194.18-40.3,237-72.09,38.61-28.7,91-50.23,139.19-47.7,136,7.17,276.21-49.25,352.93-160.68C2458.8,174.41,2487.41,115.69,2504,56.46Z"/><g class="cls-3"><path class="cls-4" d="M2164.58,534.51c-19.72,45.7-69.46,68.19-111.08,50.23S1926.24,516.46,1882,502.07c-25.32,20.62-64.26,27.26-102,14.2-38.47-13.3-65.31-43.42-71.87-76a74.8,74.8,0,0,1,2.47-39.52c12.39-35.83,50.46-56.71,92.62-54.5a160.22,160.22,0,0,1,18.24-44.89c40.76-68.52,123.44-94.55,184.67-58.14,24.69,14.68,42.1,37.27,51.45,63.49,26.77-6.4,54.86.84,72.8,21.53,21.44,24.75,21.81,61.14,3.48,89.69q-1.37,2.15-2.86,4.2c23,12.43,37.53,35.72,40.92,61.94a95.22,95.22,0,0,1-3.43,39.91A98.85,98.85,0,0,1,2164.58,534.51Z"/><path class="cls-5" d="M2164.58,534.51c-19.72,45.7-69.46,68.19-111.08,50.23S1926.24,516.46,1882,502.07c-25.32,20.62-64.26,27.26-102,14.2-38.47-13.3-65.31-43.42-71.87-76,18.94-14,47.46-20.21,78.69-16.83a115.69,115.69,0,0,1,17.1-40.49c40.5-60.89,130.77-79.18,201.62-40.86,28.57,15.45,49.61,37.74,61.9,62.83,31.35,2,48.13,9.64,63.56,17.21,23.45,11.5,37.53,35.72,40.92,61.94.26,16.59.17,24.3-3.43,39.91A98.85,98.85,0,0,1,2164.58,534.51Z"/><path class="cls-6" d="M1543.2,254.55c3.27,46.84-39.44,88-95.39,91.88s-104-30.88-107.26-77.72c-.1-1.44-.15-2.88-.17-4.31a145.49,145.49,0,0,1-95.66,9c-7,34.09-32.49,61.18-66.15,66.07-44.1,6.4-85.55-27.66-92.59-76.09a93.63,93.63,0,0,1,9.51-57.21c1.22-2.32,2.54-4.55,3.94-6.73a77.88,77.88,0,0,1-6.29-8.09c-21.67-32.15-15.6-74.14,13.57-93.82A59.94,59.94,0,0,1,1148.39,88C1168,40,1214.32,4.57,1270.55.65c60.3-4.22,114.37,29,138.4,79.49,38.26,2.09,71.65,33.73,77.89,76.72a96,96,0,0,1,0,27.6c21.55,8.5,38.88,23.35,48.42,41.94A72.32,72.32,0,0,1,1543.2,254.55Z"/><path class="cls-7" d="M1543.2,254.55c3.27,46.84-39.44,88-95.39,91.88s-104-30.88-107.26-77.72c-.1-1.44-.15-2.88-.17-4.31a145.49,145.49,0,0,1-95.66,9c-7,34.09-32.49,61.18-66.15,66.07-44.1,6.4-85.55-27.66-92.59-76.09a93.63,93.63,0,0,1,9.51-57.21c2.13-1.61,2.79-6.94,5.18-8.33,14.72-8.58,33.56-7.87,50.44-6.15,23.49-48.27,78.12-84.29,144-88.89,70.58-4.93,133.15,23.78,160.66,74,33.38,1.22,63.68,22.86,79.58,49.63A72.32,72.32,0,0,1,1543.2,254.55Z"/><path class="cls-2" d="M1269.18,356.47q-.35,3-.82,6.41a284.35,284.35,0,0,1-6.33,30.6c-7.38,28.12-19.68,58.19-35.69,66.7a18.53,18.53,0,0,1-11.08,2.23c-7.84-1-203.38,6-277.39,2.41-17.93-.88-35.12-.42-50.81.15-23.73.84-44.07,1.93-58.57-1-11.81-2.39-19.76-7.44-22.49-17.47-.19-.68-.35-1.38-.48-2.08-1.61-8.48.76-17.72,6.41-27.08a.11.11,0,0,1,0-.05,85.48,85.48,0,0,1,10.76-13.9c.81-.86,1.56-1.63,2.23-2.31a134.84,134.84,0,0,1,12.49-11,107.59,107.59,0,0,1-6.63-17.19c-.23-.83-.47-1.66-.67-2.5a112.26,112.26,0,0,1-3.46-20.66c-3.93-52.92,28.81-99.06,73.1-103,17.86-1.61,34.85,3.89,49.06,14.47,11.33-13.85,28.24-20.81,44.81-16.56a41.05,41.05,0,0,1,16.74,8.88c17.49-46.1,60.6-73.52,102.23-62.53,18.55,4.9,34,16.69,44.91,32.62,15.88-9.91,35.19-10.77,50.59-.4,19.31,13,26.24,39.59,18.24,63.81C1254,292.94,1272.91,323,1269.18,356.47Z"/><path class="cls-8" d="M1262,393.48c-7.38,28.12-19.68,58.19-35.69,66.7a18.53,18.53,0,0,1-11.08,2.23c-7.84-1-203.38,6-277.39,2.41-17.93-.88-35.12-.42-50.81.15-23.73.84-44.07,1.93-58.57-1-11.81-2.39-19.76-7.44-22.49-17.47-.19-.68-.35-1.38-.48-2.08-1.61-8.48.76-17.72,6.41-27.08a.11.11,0,0,1,0-.05,85.48,85.48,0,0,1,10.76-13.9c.81-.86,1.56-1.63,2.23-2.31a134.84,134.84,0,0,1,12.49-11c-2.64-5.41-5.59-11-6.63-17.19-3.76-22.6,8.08-48.6,10.57-53.34,17.91-34,45.53-38.21,78.41-33.73A93.5,93.5,0,0,1,969,308.42c13.68-8.95,32.25-11,49-3.89a51,51,0,0,1,16.23,11c24.47-34.21,73.13-47.43,115.06-29.29a91.08,91.08,0,0,1,42.46,36.69c16.11-4.24,34.12-1.85,48.24,7.37a51.7,51.7,0,0,1,4.57,3.32c18.38,15,22,38.4,10.42,56.63A61.29,61.29,0,0,1,1262,393.48Z"/><path class="cls-9" d="M1225.32,458.93a18.53,18.53,0,0,1-11.08,2.23c-7.85-1-203.38,6-277.39,2.41-17.93-.88-35.12-.42-50.81.14-23.73.84-44.07,1.93-58.57-1-11.81-2.4-19.76-7.45-22.49-17.47-.19-.69-.35-1.38-.48-2.08-1.61-8.48.76-17.73,6.4-27.08l0-.06c13-16,23.13-31.55,43.23-34.52C890.82,376.08,901.1,388,911,402c11.33-13.84,28.24-20.81,44.82-16.55a40.93,40.93,0,0,1,16.73,8.87c17.5-46.09,60.61-73.51,102.24-62.52,18.55,4.89,34,16.69,44.91,32.61,15.88-9.91,35.19-10.77,50.58-.4,19.31,13,26.24,39.6,18.24,63.81C1204.72,431.37,1217.9,443.11,1225.32,458.93Z"/><path class="cls-10" d="M1409.09,80.48c-23.78-50.58-77.69-84.09-138-80.17a144.52,144.52,0,0,0-50.27,12.52c3.82-.74,7.78-.37,11.54-1.07C1306.73-2,1377,41,1401.61,91.48c34.65-.73,83.46,22.38,78.89,93.63,52,32.1,57.12,57.13,60.59,63.07,1-11.89-17.87-52.71-54-62.19C1495.24,129,1456.41,84,1409.09,80.48Z"/><path class="cls-11" d="M2028.09,259.23c-61.91-37.3-147.14-14.68-193.9,52.9a171.47,171.47,0,0,0-22.75,46.5c-43.27-5.25-84.09,12.9-101,48q.71-2.67,1.62-5.33c12.39-35.83,50.46-56.71,92.62-54.5a160,160,0,0,1,18.24-44.89c40.76-68.52,123.44-94.55,184.67-58.14A116.3,116.3,0,0,1,2028.09,259.23Z"/><path class="cls-12" d="M1361.11,324.86c-7.87-.77-21-20.74-41.27-24.59a30.79,30.79,0,0,1-23.7-20.06,39.55,39.55,0,0,0-12.09-17.72,40.41,40.41,0,0,0-42.36-5c-3.59,1.74-7.16,4.09-11.14,3.9s-7.74-2.82-10.73-5.66c-22-20.84-33.48-25.52-57.71-27.61l0-.44a75.41,75.41,0,0,1,21.35-2.34,77.76,77.76,0,0,1,49.19,20c13.23-12.05,31.49-16.73,48.19-10.58,21,7.72,32.73,30,29.8,53.26C1332.88,287.86,1352.77,302.9,1361.11,324.86Z"/><path class="cls-13" d="M1482.38,289.61c-.68-.57-1.35-1.14-2-1.67a42.07,42.07,0,0,0-9.51-5.71,37.26,37.26,0,0,0-22.08-2.21,62.55,62.55,0,0,0-6.58,2.06,24,24,0,0,0-4.32-5.47,1,1,0,0,1-.08-.21,3.13,3.13,0,0,1-.14-.5c-.24-1-.46-2.63-.86-4.73,0-.27-.09-.55-.16-.84a.37.37,0,0,1,0-.09c-.1-.47-.19-.95-.3-1.44-.07-.26-.12-.52-.19-.8-2.68-10.93-10.53-28.61-39.8-33.4s-46.38,10.71-56.22,21.23a68.13,68.13,0,0,1,5.32-14.53c14.37-28.89,45.42-42.3,69.36-30,21.54,11.18,26.42,33.45,22.38,55.78a3.25,3.25,0,0,0,0,.87,2.36,2.36,0,0,0,.12.54c2.28,5.46,30.39-6.87,48.82,10.68"/></g></g></g></svg>