<svg xmlns="http://www.w3.org/2000/svg" viewBox="0 0 666.71 143.09"><defs><style>.cls-1{fill:#30b595;}.cls-2,.cls-3{fill:#fff;}.cls-2{stroke:#ccc;stroke-miterlimit:10;}.cls-4{fill:#85ccb3;}.cls-5{fill:#31b997;}.cls-6{fill:#416d60;}</style></defs><title>Recurso 2</title><g id="Capa_2" data-name="Capa 2"><g id="Capa_1-2" data-name="Capa 1"><path class="cls-1" d="M258.34,37.33v68.43H247.62V37.33Z"/><path class="cls-1" d="M298.52,103.94a30.07,30.07,0,0,1-11.45,2.43c-6.31,0-11.05-2.23-14.74-6.8-4.74-5.69-7.28-15.84-7.12-27.62.25-24.87,11.71-35.23,23.41-35.23a18.2,18.2,0,0,1,9,2l-1.88,11.47a11.23,11.23,0,0,0-6.3-1.52c-7.29,0-13.09,6.19-13.09,24.06,0,16.45,5.15,22.34,10.14,22.34a5.38,5.38,0,0,0,2.13-.3V78.25h-4.91V67.38h14.81Z"/><path class="cls-1" d="M306.54,105.76V37.33h9.82l8.51,26.8c1.64,5.28,4.34,14.12,5.9,20h.16c-.33-7.22-1.06-19.09-1.06-31.68V37.33h9.41v68.43h-9.82l-8.43-26c-1.8-5.79-4.34-14.42-5.57-20.61h-.16c.24,6.9.65,17.46.65,31.17v15.43Z"/><path class="cls-1" d="M359.49,37.33v68.43H348.77V37.33Z"/><path class="cls-1" d="M367.84,92.16a17.72,17.72,0,0,0,9.08,2.64c5.07,0,7.53-3.25,7.53-7.72,0-5-2.46-7.41-7.12-11.17-7.53-5.69-10.4-12.9-10.4-19.09,0-11,5.9-20.1,17.44-20.1A15.93,15.93,0,0,1,393,39.15l-1.71,11.48a11.33,11.33,0,0,0-7.05-2.34c-4.58,0-6.79,3.45-6.79,7.11,0,4.06,1.64,6.19,7.61,10.66,7.29,5.49,10,12.39,10,19.6,0,12.49-7.45,20.71-18.25,20.71-4.42,0-8.76-1.42-10.56-2.74Z"/><path class="cls-2" d="M433.79,103.94a30,30,0,0,1-11.45,2.43c-6.31,0-11-2.23-14.73-6.8-4.75-5.69-7.29-15.84-7.12-27.62.24-24.87,11.7-35.23,23.4-35.23a18.17,18.17,0,0,1,9,2L431,50.22a11.23,11.23,0,0,0-6.3-1.52c-7.28,0-13.09,6.19-13.09,24.06,0,16.45,5.15,22.34,10.14,22.34a5.42,5.42,0,0,0,2.13-.3V78.25H419V67.38h14.81Z"/><path class="cls-2" d="M441.81,38.34A52.22,52.22,0,0,1,453.52,37c5.89,0,11.12,1,14.73,5.08,3.35,3.76,4.34,8.32,4.34,14.21,0,7.31-2.87,13.91-8.52,17.16v.21c3.77,1.82,5.65,6.19,6.71,13.5,1.07,7.62,2.54,16,3.52,18.58H463.09c-.65-1.92-1.88-8.83-2.7-16.34-1-8.53-2.7-11-6.3-11h-1.56v27.31H441.81ZM452.53,68.2h1.89c4.66,0,7.36-4.68,7.36-10.67,0-5.79-1.88-10-6.71-10.15a6.39,6.39,0,0,0-2.54.4Z"/><path class="cls-2" d="M489,90.13l-2.45,15.63h-10.4l11.95-68.43H501l10.72,68.43H501.31l-2.38-15.63ZM498,79.77l-1.8-14.32c-.57-4.16-1.31-11-1.8-15.54h-.24c-.58,4.58-1.4,11.68-2,15.65l-2.05,14.21Z"/><path class="cls-2" d="M523.73,105.76,511.37,37.33h11.87l3.93,29.54c1,7.32,2.13,15.74,2.86,23.76h.17c.73-8.12,1.63-16.34,2.62-24.06l3.76-29.24h11.78l-12.6,68.43Z"/><path class="cls-2" d="M563.75,37.33v68.43H553V37.33Z"/><path class="cls-2" d="M579.3,49.61h-9.74V37.33h30.28V49.61H590v56.15H579.3Z"/><path class="cls-2" d="M611.46,90.13,609,105.76H598.61l11.95-68.43h12.85l10.72,68.43h-10.4l-2.37-15.63Zm8.92-10.36-1.8-14.32c-.57-4.16-1.31-11-1.8-15.54h-.25c-.57,4.58-1.39,11.68-2,15.65l-2.05,14.21Z"/><path class="cls-2" d="M639,92.16A17.69,17.69,0,0,0,648,94.8c5.07,0,7.53-3.25,7.53-7.72,0-5-2.46-7.41-7.12-11.17-7.53-5.69-10.4-12.9-10.4-19.09,0-11,5.9-20.1,17.44-20.1a15.9,15.9,0,0,1,8.67,2.43l-1.72,11.48a11.29,11.29,0,0,0-7-2.34c-4.59,0-6.8,3.45-6.8,7.11,0,4.06,1.64,6.19,7.62,10.66,7.28,5.49,10,12.39,10,19.6,0,12.49-7.45,20.71-18.25,20.71-4.42,0-8.76-1.42-10.56-2.74Z"/><path class="cls-3" d="M187.2,44.91C166.54,34.82,139.12,29.26,110,29.26S53.42,34.82,32.76,44.91C11.64,55.22,0,69.12,0,84s11.64,28.81,32.76,39.12c13,6.34,28.64,10.89,45.71,13.4,8,4.06,19.07,6.54,31.51,6.54s23.53-2.48,31.51-6.54c17.07-2.51,32.73-7.06,45.71-13.4C208.33,112.84,220,98.94,220,84S208.33,55.22,187.2,44.91ZM69.6,120.47c0-10,18.49-18.54,40.38-18.54s40.39,8.49,40.39,18.54c0,3.2-1.88,6.24-5.14,8.9a91.07,91.07,0,0,1-10.43,2.85,7.91,7.91,0,0,0,1.44-4.46c0-7.52-11.29-13.18-26.26-13.18s-26.25,5.66-26.25,13.18a7.9,7.9,0,0,0,1.43,4.46,90.33,90.33,0,0,1-10.42-2.85C71.48,126.71,69.6,123.67,69.6,120.47Zm18.13,7.29c0-4.31,9.14-9.11,22.25-9.11s22.25,4.8,22.25,9.11c0,2-2,4.17-5.55,5.86A122.33,122.33,0,0,1,113,134.69c-1,0-2,0-3.06,0s-2,0-3.06,0a122.33,122.33,0,0,1-13.64-1.07C89.76,131.93,87.73,129.79,87.73,127.76ZM110,97.86c-24.89,0-44.39,9.93-44.39,22.61A12.79,12.79,0,0,0,67,126.22c-10.55-5.08-16.36-11.6-16.36-18.39s6-13.51,16.81-18.62c11.33-5.35,26.44-8.29,42.55-8.29s31.22,2.94,42.55,8.29c10.84,5.11,16.82,11.72,16.82,18.62s-5.82,13.31-16.37,18.39a12.79,12.79,0,0,0,1.39-5.75C154.37,107.79,134.87,97.86,110,97.86ZM161.57,126c7.65-5.2,11.78-11.48,11.78-18.14,0-8.57-6.79-16.5-19.13-22.32-11.85-5.58-27.56-8.66-44.24-8.66s-32.39,3.08-44.24,8.66C53.4,91.33,46.61,99.26,46.61,107.83c0,6.66,4.13,12.94,11.78,18.14-2.08-.82-4.09-1.68-6-2.6C37.51,116.27,29.32,107,29.32,97.32s8.19-18.95,23.06-26C67.73,64,88.19,59.91,110,59.91s42.25,4,57.6,11.36c14.88,7.1,23.07,16.35,23.07,26.05s-8.19,19-23.07,26.05C165.66,124.29,163.65,125.15,161.57,126Zm23.89-6.49c-3.18,1.56-6.55,3-10.05,4.32,12.46-7.37,19.24-16.62,19.24-26.48,0-11.37-9-21.93-25.36-29.73C153.41,60,132.35,55.84,110,55.84S66.55,60,50.67,67.59C34.32,75.39,25.31,86,25.31,97.32c0,9.86,6.78,19.11,19.24,26.48-3.5-1.33-6.87-2.76-10-4.32C14.83,109.88,4,97.29,4,84S14.83,58.18,34.5,48.58C54.63,38.75,81.43,33.33,110,33.33s55.35,5.42,75.48,15.25C205.13,58.18,216,70.77,216,84S205.13,109.88,185.46,119.48Z"/><polygon class="cls-4" points="112.45 0 65.69 25.94 76.94 77.6 107.45 88.75 154.27 67.31 141.19 20.58 112.45 0"/><polygon class="cls-5" points="65.69 25.94 76.94 77.6 127.27 51.88 112.45 0 65.69 25.94"/><polygon class="cls-6" points="76.94 77.6 127.27 51.88 154.27 67.31 107.45 88.75 76.94 77.6"/></g></g></svg>