<svg xmlns="http://www.w3.org/2000/svg" viewBox="0 0 121.95 125.36"><defs><style>.cls-1{fill:#6bcec4;}.cls-2{fill:#fff;}</style></defs><title>Recurso 1</title><g id="Capa_2" data-name="Capa 2"><g id="Capa_1-2" data-name="Capa 1"><path class="cls-1" d="M67.34,68.71l8.29-11.63,3.77-5.39-1.51-3.33-2.47-1-3.88,1s-3.88,5-4,5.27-7.86,10.56-7.86,10.56l-1.4,1.29-5.06-5.06L48.38,56l-2.15.22-2.69,2.37,1,4.2,4,5.81S53.23,73,54,73.88a12.71,12.71,0,0,0,4.2,2.48c.54,0,4.31-.54,4.31-.54Z"/><path class="cls-1" d="M61,16.09a1.84,1.84,0,0,0,1.84-1.84V1.84a1.84,1.84,0,0,0-3.68,0V14.25A1.84,1.84,0,0,0,61,16.09Z"/><path class="cls-1" d="M26.63,29.24a1.85,1.85,0,0,0,2.61-2.61l-8.78-8.77a1.84,1.84,0,0,0-2.6,2.6Z"/><path class="cls-1" d="M14.25,59.13H1.84a1.84,1.84,0,0,0,0,3.68H14.25a1.84,1.84,0,0,0,0-3.68Z"/><path class="cls-1" d="M26.63,92.71l-8.77,8.77a1.84,1.84,0,0,0,2.6,2.61l8.78-8.78a1.84,1.84,0,1,0-2.61-2.6Z"/><path class="cls-1" d="M95.31,92.71a1.84,1.84,0,1,0-2.6,2.6l8.77,8.78a1.85,1.85,0,0,0,2.61-2.61Z"/><path class="cls-1" d="M120.1,59.13H107.7a1.84,1.84,0,1,0,0,3.68h12.4a1.84,1.84,0,1,0,0-3.68Z"/><path class="cls-1" d="M101.48,17.86l-8.77,8.77a1.84,1.84,0,1,0,2.6,2.61l8.78-8.78a1.84,1.84,0,0,0-2.61-2.6Z"/><path class="cls-2" d="M97.33,57.25C97.33,36.91,81,20.37,61,20.37a35.85,35.85,0,0,0-19.71,5.88A36.85,36.85,0,0,0,28.09,41.49a1.84,1.84,0,1,0,3.33,1.56A32.83,32.83,0,0,1,61,24.05c18,0,32.68,14.89,32.68,33.2A33.28,33.28,0,0,1,84.4,80.4C81,84,78,87.42,77.28,92.23H45.15c-.95-5-4.36-8.49-7.42-11.64a33.29,33.29,0,0,1-9.44-23.34,33.89,33.89,0,0,1,.62-6.45,1.84,1.84,0,0,0-3.61-.71,37.36,37.36,0,0,0-.69,7.16A37,37,0,0,0,35.09,83.16c3.89,4,6.63,7.18,6.63,11.84v0l.1,10.8a9.72,9.72,0,0,0,4.66,8.29v2a9.22,9.22,0,0,0,9.21,9.2H67a9.21,9.21,0,0,0,9.2-9.2v-2a9.72,9.72,0,0,0,4.66-8.29s0-12,0-12.15c.35-4.26,2.94-7.3,6.25-10.75a37,37,0,0,0,10.27-25.7ZM72.51,116.16A5.53,5.53,0,0,1,67,121.68H55.7a5.53,5.53,0,0,1-5.53-5.52v-.71a10.22,10.22,0,0,0,1.35.1H71.16a10,10,0,0,0,1.35-.1Zm-1.35-4.29H51.52a6,6,0,0,1-6-6v-.12H64.16a1.84,1.84,0,0,0,0-3.68H45.51V95.91h31.6l.06,6.14H72.75a1.84,1.84,0,0,0,0,3.68h4.42v.12A6,6,0,0,1,71.16,111.87Z"/><path class="cls-2" d="M72.94,57.5a1.84,1.84,0,1,0,2.91,2.25l3.64-4.69a5.89,5.89,0,1,0-9.3-7.22L58.3,63.15,51.48,55.6a5.89,5.89,0,1,0-8.74,7.9L54.27,76.26a5.92,5.92,0,0,0,9-.34l7.29-9.38a1.84,1.84,0,0,0-2.91-2.26l-7.28,9.38a2.23,2.23,0,0,1-3.39.13L45.47,61a2.21,2.21,0,1,1,3.28-3L57,67.24a1.86,1.86,0,0,0,2.82-.1l13.23-17a2.21,2.21,0,1,1,3.49,2.71Z"/></g></g></svg>