<svg xmlns="http://www.w3.org/2000/svg" viewBox="0 0 126.87 126.88"><defs><style>.cls-1{fill:#6bcec4;}.cls-2{fill:#fff;}</style></defs><title>Recurso 2</title><g id="Capa_2" data-name="Capa 2"><g id="Capa_1-2" data-name="Capa 1"><circle class="cls-1" cx="59.6" cy="35.56" r="7.25"/><path class="cls-1" d="M124,83.17,119,78l-3.45-.64-4.74-1.73s-1.07-3-1.29-4.09-1.94-4.74-3.23-5.6-5-3.45-5.6-3.66a37.43,37.43,0,0,0-5.82-.43c-1.72,0-3.23.21-3.88.21s0,1.08-1.94.22-3.87-6.47-3.87-6.47l-4.31-1.07-4.74-1.08H71l-4.1,3.23L65.34,61l-2.58,5.17s.21,3-.43,3.67S49,82.53,49,82.53l-7.76,7.54,83.6.86Z"/><path class="cls-2" d="M116.3,19H92.89A54.54,54.54,0,0,0,95.13,2a2.1,2.1,0,0,0-2-2c-.78,0-19.32-.76-28.68,8.38L53.56,19h-43A10.59,10.59,0,0,0,0,29.61V99.39A10.59,10.59,0,0,0,10.57,110H44.41v4.23H29.6a2.12,2.12,0,0,0-2.11,2.11v8.46a2.12,2.12,0,0,0,2.11,2.12H97.27a2.11,2.11,0,0,0,2.11-2.12V116.3a2.11,2.11,0,0,0-2.11-2.11H82.47V110H116.3a10.58,10.58,0,0,0,10.57-10.57V29.61A10.58,10.58,0,0,0,116.3,19ZM90.91,4.24a47.26,47.26,0,0,1-3,16h0l0,.09a22.09,22.09,0,0,1-3,5.19L69.05,10C75.73,5.06,86.48,4.32,90.91,4.24Zm-25,8.64L82,28.62,48.36,61.49,32.25,45.75ZM82.15,70.05a2.12,2.12,0,0,0,3.66-.19,12.07,12.07,0,0,1,4-4.5,11.64,11.64,0,0,1,18,9.71v0a14,14,0,0,0-5.78,4.5,2.11,2.11,0,1,0,3.4,2.51,9.55,9.55,0,0,1,5-3.49,9.43,9.43,0,0,1,12.12,10.18h-77L64.2,70.63a2.13,2.13,0,0,0,.61-1.2l.89-6.07a2.37,2.37,0,0,0,.17-.36,10.53,10.53,0,0,1,20.39-.25A16.27,16.27,0,0,0,82,67.93,2.14,2.14,0,0,0,82.15,70.05Zm-61.74-4.7,2-7.74,13.8,13.48L28.27,73Zm4.19,10,0,.05c-1.09,1.06-5.63,2.47-10.15,3.48,1-4.38,2.45-8.75,3.54-9.81l.12-.1ZM20.39,51.43H7.31l18.11-17.7L40.69,31.6Zm3.89,2.11,4.95-4.83L45.34,64.45l-5,4.83ZM42.5,73.13,62.91,53.19,61.6,62.13h0l-.87,6L42.51,85.91V73.13ZM4.23,29.61a6.35,6.35,0,0,1,6.34-6.35H49.23l-3.44,3.36-21.64,3a2.1,2.1,0,0,0-1.18.58L4.23,48.52V29.61Zm0,26.05h14.3L16.1,65.14a9.58,9.58,0,0,0-1.11.91C12,69,10,79.17,9.61,81.19a2.12,2.12,0,0,0,2.07,2.51,1.64,1.64,0,0,0,.38,0c2.06-.36,12.49-2.34,15.45-5.24a7.51,7.51,0,0,0,.94-1.09l9.83-2.4V88.81h-34Zm90.93,62.76v4.23H31.72v-4.23Zm-46.52-4.23V110h29.6v4.23Zm74-14.8a6.34,6.34,0,0,1-6.34,6.34H10.57a6.34,6.34,0,0,1-6.34-6.34V93H122.64v6.35Zm0-21.53A13.67,13.67,0,0,0,113.13,74c-.37,0-.74,0-1.11.08A15.77,15.77,0,0,0,90,60.5a14.78,14.78,0,0,0-22.93-6.67l.81-5.5,18.62-18.2a23.38,23.38,0,0,0,4.72-6.87H116.3a6.35,6.35,0,0,1,6.34,6.35V77.86Z"/><path class="cls-2" d="M53.27,41a9,9,0,0,0,12.52,0,8.62,8.62,0,0,0,0-12.38,9,9,0,0,0-12.52,0,8.62,8.62,0,0,0,0,12.38Zm2.95-9.35a4.76,4.76,0,0,1,6.61,0,4.37,4.37,0,0,1,0,6.32,4.76,4.76,0,0,1-6.61,0,4.4,4.4,0,0,1,0-6.32Z"/></g></g></svg>