<svg xmlns="http://www.w3.org/2000/svg" viewBox="0 0 120.31 124.44"><defs><style>.cls-1{fill:#6bcec4;}.cls-2{fill:#fff;}</style></defs><title>Recurso 3</title><g id="Capa_2" data-name="Capa 2"><g id="Capa_1-2" data-name="Capa 1"><path class="cls-1" d="M66,34.65l3.47-9.33,1.3-6.51-.43-3.47-3.47-3.9-3.47-.65L57.12,11l-4.34,1.3-3,4.12-.21,5.86s-.22,3.9.43,4.33a43.27,43.27,0,0,1,3.47,4.56l1.73,3.25L59.07,36l5.85-.22Z"/><path class="cls-2" d="M60.15,37.07H56.74v2a1.4,1.4,0,0,0,.4,1,1.38,1.38,0,0,0,1,.4h4.1a1.35,1.35,0,0,0,1-.4,1.4,1.4,0,0,0,.4-1v-2ZM109,81.3l-9.12-3.09-6,2.91v2.75a7.54,7.54,0,0,0,15.07,0V81.3ZM93.89,77.08l4.92-2.41a1.82,1.82,0,0,1,1.5-.14L109,77.46V73.84a3.41,3.41,0,0,0-3.41-3.41H97.31a3.43,3.43,0,0,0-3.42,3.41v3.24ZM11.35,75H26.42V70.43H14.77a3.41,3.41,0,0,0-3.42,3.41Zm15.07,3.65H11.35v5.18a7.54,7.54,0,0,0,15.07,0Zm41.27,2.43a12.21,12.21,0,0,1-9.86-2.65,9.14,9.14,0,0,1-5.21,1.26v4.14a7.54,7.54,0,0,0,15.07,0V81.12Zm-15.07-5a5.47,5.47,0,0,0,4.24-1.33,1.81,1.81,0,0,1,2.56.18,8.6,8.6,0,0,0,8.27,2.53V73.84a3.41,3.41,0,0,0-3.42-3.41H56a3.43,3.43,0,0,0-3.41,3.41ZM30.06,83.87a11.05,11.05,0,0,1-1.91,6.23,10.68,10.68,0,0,1,9.61,10.6v21.92a1.81,1.81,0,0,1-1.82,1.82H1.83A1.82,1.82,0,0,1,0,122.62v-6.83a1.83,1.83,0,0,1,3.65,0v5h3.5V104.1a1.83,1.83,0,0,1,3.65,0v16.7H27V104.1a1.82,1.82,0,0,1,3.64,0v16.7h3.51V100.7a7,7,0,0,0-7-7H24.2a11.21,11.21,0,0,1-10.63,0H10.65a7,7,0,0,0-7,7v6.84a1.82,1.82,0,0,1-3.64,0V100.7A10.69,10.69,0,0,1,9.62,90.1,11.06,11.06,0,0,1,7.7,83.87v-10a7.1,7.1,0,0,1,7.06-7.06H28.24a1.82,1.82,0,0,1,1.82,1.82V83.87Zm82.55,0a11.13,11.13,0,0,1-1.91,6.23,10.68,10.68,0,0,1,9.61,10.6v21.92a1.81,1.81,0,0,1-1.82,1.82H84.37a1.82,1.82,0,0,1-1.82-1.82v-6.83a1.82,1.82,0,1,1,3.64,0v5H89.7V104.1a1.83,1.83,0,0,1,3.65,0v16.7h16.16V104.1a1.83,1.83,0,0,1,3.65,0v16.7h3.5V100.7a7,7,0,0,0-7-7h-2.92a11.19,11.19,0,0,1-10.62,0H93.2a7,7,0,0,0-7,7v6.84a1.82,1.82,0,0,1-3.64,0V100.7a10.68,10.68,0,0,1,9.61-10.6,11.13,11.13,0,0,1-1.91-6.23v-10a7.08,7.08,0,0,1,7.06-7.06h8.24a7.08,7.08,0,0,1,7.06,7.06v10Zm-41.27,0a11.13,11.13,0,0,1-1.91,6.23A10.7,10.7,0,0,1,79,100.7v21.92a1.82,1.82,0,0,1-1.83,1.82H43.1a1.81,1.81,0,0,1-1.82-1.82v-6.83a1.82,1.82,0,1,1,3.64,0v5h3.51V104.1a1.82,1.82,0,0,1,3.64,0v16.7H68.24V104.1a1.83,1.83,0,0,1,3.65,0v16.7h3.5V100.7a7,7,0,0,0-7-7H65.47a11.19,11.19,0,0,1-10.62,0H51.92a7,7,0,0,0-7,7v6.84a1.82,1.82,0,0,1-3.64,0V100.7a10.68,10.68,0,0,1,9.61-10.6A11.05,11.05,0,0,1,49,83.87v-10A7.08,7.08,0,0,1,56,66.78h8.24a7.1,7.1,0,0,1,7.07,7.06ZM32.12,48.24H53.64a1.84,1.84,0,0,1,1.64,1l4.87,8.46,4.95-8.57a1.81,1.81,0,0,1,1.57-.91H88.24a1.83,1.83,0,0,1,1.36.6l9,8.65,1-8.69A1.83,1.83,0,0,1,101,47.24a22.48,22.48,0,0,0,11.34-8.08A22.31,22.31,0,0,0,94.37,3.64H25.94A22.28,22.28,0,0,0,8,39.16a22.55,22.55,0,0,0,11.43,8.11,1.83,1.83,0,0,1,1.29,1.63l1,8.59,9.08-8.74a1.88,1.88,0,0,1,1.31-.51Zm20.47,3.64H32.8L21.68,62.59a1.83,1.83,0,0,1-3.14-1l-1.3-11.19a26.18,26.18,0,0,1-12.15-9A25.95,25.95,0,0,1,25.94,0H94.37a25.91,25.91,0,0,1,20.85,41.33,26.2,26.2,0,0,1-12.14,9l-1.3,11.17a1.88,1.88,0,0,1-.51,1.08,1.83,1.83,0,0,1-2.57,0L87.51,51.88H67.72l-6,10.38a1.93,1.93,0,0,1-.67.66,1.82,1.82,0,0,1-2.48-.67q-3-5.19-6-10.37Zm.52-16.77c0-2.07-1.13-3.72-2.26-5.44-1.59-2.4-3.24-4.91-3.24-9a12.55,12.55,0,0,1,25.09,0c0,4-1.65,6.55-3.23,9-1.13,1.72-2.21,3.37-2.26,5.44V39a5,5,0,0,1-5,5h-4.1a5,5,0,0,1-5-5Zm3.47-1.69h7.16a15,15,0,0,1,2.7-5.74c1.27-1.95,2.62-4,2.62-7a8.9,8.9,0,1,0-17.8,0c0,3,1.34,5,2.62,7A15.28,15.28,0,0,1,56.58,33.42Z"/></g></g></svg>