<svg xmlns="http://www.w3.org/2000/svg" viewBox="0 0 101.27 124.59"><defs><style>.cls-1{fill:#6bcec4;}.cls-2{fill:#fff;}</style></defs><title>Recurso 4</title><g id="Capa_2" data-name="Capa 2"><g id="Capa_1-2" data-name="Capa 1"><path class="cls-1" d="M60.31,67.11l-2.58-7s-2.4-2.41-3.26-2.58a40.4,40.4,0,0,1-4-1.55l-2.58-1.21a22.27,22.27,0,0,0,.17-3.78,19.08,19.08,0,0,0-1.2-2.58H43.29l-1,2.24v3.78s.34,1.72-1,1.89A13.5,13.5,0,0,0,37.1,58c-.52.35-3.27,1.89-3.79,2.75s-2.23,4.65-2.23,4.65A20.62,20.62,0,0,0,30.39,70c.17,1.2,1.72,5.85,1.89,6.54a13,13,0,0,0,2.93,3.78c.51.17,4.12,1.2,5,1.37s6.19.86,7.4,1A12.77,12.77,0,0,1,51.89,85a11,11,0,0,1,2.23,5c0,1-2.41,4.64-2.41,4.64s-2.92,3.44-3.61,3.44-4.81.35-6.53-.17a12.84,12.84,0,0,1-3.79-2.41,4.7,4.7,0,0,1-1.2-2.06c-.17-1,.35-1.89-.51-2.92a2.77,2.77,0,0,0-1.72-1.21,3.55,3.55,0,0,0-2.24.17,5.43,5.43,0,0,0-2.41,2.93,16.74,16.74,0,0,0,2.07,3.78c.51.69,2.75,3.44,2.75,3.44s.34,1.2,2.41,2.06a48.44,48.44,0,0,1,4.47,1.9c.86.51.17,3.43.68,4.47s3.44,3.26,3.44,3.26l1-1.2,1.2-3.1s.52-2.4,1-2.57a16.77,16.77,0,0,0,3.44-1.21c.69-.51,5.33-4.81,5.33-4.81A30,30,0,0,0,59.8,92.9c.51-2.23.86-6.7.34-7.39s-6.88-7.57-6.88-7.57a35.48,35.48,0,0,0-3.61-.69c-1.55-.17-5-.68-6.19-.68s-5.16-.69-5.68-1.38-.85-5-.85-5-1.21-3.44.68-4.81,0-3.1,4.13-2.93,6.88-.86,8.77.18,3.61,3.09,3.61,4.47a19.34,19.34,0,0,0,.17,4.47c.35,1.2,4.3,2.23,4.3,2.23a16.52,16.52,0,0,0,1.55-3.09A32.59,32.59,0,0,0,60.31,67.11Z"/><path class="cls-2" d="M100.4,37.58A5.74,5.74,0,0,0,96.8,35l-7.89-1.82,3.64-1a5.76,5.76,0,1,0-3.1-11.09l-17,4.75a5.75,5.75,0,0,0-1.83-2C74.06,17.43,79,6.53,79,1.84A1.86,1.86,0,0,0,76.83,0,91.21,91.21,0,0,1,57.61,2,111,111,0,0,1,38.36,0a1.85,1.85,0,0,0-2,2.74,19.18,19.18,0,0,1,2.36,6.31c-6.24.19-12.71-.56-17.61-3A1.86,1.86,0,0,0,18.51,8c1.54,9.25,4.65,14.67,7.77,18.76h-.07a5.76,5.76,0,0,0-.75,11.47A69.29,69.29,0,0,1,17.38,48.4C10.81,55.69,3.37,64,.87,77.31A42.68,42.68,0,0,0,1,95.07a32.87,32.87,0,0,0,6.75,13.57,41.51,41.51,0,0,0,17.8,12.11,64.24,64.24,0,0,0,22.24,3.84A64.16,64.16,0,0,0,70,120.75a41.49,41.49,0,0,0,17.81-12.11,33,33,0,0,0,6.74-13.57,42.68,42.68,0,0,0,.12-17.76C92.19,64,84.75,55.69,78.19,48.4c-2.23-2.48-4.35-4.84-6.13-7.24l22.16,5.1a5.77,5.77,0,0,0,6.18-8.68ZM57.57,5.64A93.69,93.69,0,0,0,75,4.13C73.9,8.66,70.33,16.73,67,22.88a5.77,5.77,0,0,0-5,3.9h-5.1c-.12-.25-.24-.52-.39-.82-1.57-3.36-4.86-10.34-4.86-16.28a1.86,1.86,0,0,0-2.2-1.8,65.08,65.08,0,0,1-6.94,1A24,24,0,0,0,41.2,4.29,125.2,125.2,0,0,0,57.57,5.64Zm11.91,23v7.84a2.09,2.09,0,1,1-4.17,0V28.62a2.09,2.09,0,0,1,4.17,0ZM22.8,10.73a46.3,46.3,0,0,0,16.35,2l3.65-.23c1.72-.16,3.46-.38,5.22-.68.57,5.69,3.17,11.53,4.75,14.91H31l-.13-.19A35.08,35.08,0,0,1,22.8,10.73ZM75.45,50.86C81.69,57.79,88.77,65.65,91.08,78c2.13,11.35.08,20.87-6.08,28.3-7.6,9.15-21.52,14.62-37.22,14.62s-29.61-5.46-37.21-14.62C4.4,98.86,2.36,89.34,4.48,78c2.32-12.34,9.39-20.2,15.63-27.13,3.73-4.15,7.26-8.07,9.51-12.56h4.49a1.84,1.84,0,1,0,0-3.67h-7.9a2.09,2.09,0,0,1,0-4.17H61.63v4.17H42.88a1.84,1.84,0,1,0,0,3.67h19a5.78,5.78,0,0,0,5.46,3.93,6.11,6.11,0,0,0,.86-.07A91,91,0,0,0,75.45,50.86Zm-2.3-21.39,17.29-4.83a2.08,2.08,0,1,1,1.12,4l-9.88,2.76-.23.09-8.3-1.91v-.12ZM97.54,41.11a2.07,2.07,0,0,1-2.49,1.56L73,37.61a6.15,6.15,0,0,0,.11-1.15v-3.1L96,38.61A2.09,2.09,0,0,1,97.54,41.11Z"/><path class="cls-2" d="M57,75.56a4.79,4.79,0,0,0,4.78-4.78V67.84A13.62,13.62,0,0,0,50.05,54.36V51.17a4.78,4.78,0,1,0-9.56,0V54.6A15.08,15.08,0,0,0,43.8,84.39h2.94a5.52,5.52,0,1,1,0,11H42.33a4.06,4.06,0,0,1-4-4,4.78,4.78,0,0,0-9.56,0,13.63,13.63,0,0,0,11.77,13.49V108a4.78,4.78,0,1,0,9.56,0v-3.43a15.07,15.07,0,0,0-3.31-29.78H43.8a5.52,5.52,0,1,1,0-11h4.41a4.05,4.05,0,0,1,4,4v2.94A4.78,4.78,0,0,0,57,75.56ZM48.21,60.12H43.8a9.19,9.19,0,1,0,0,18.38h2.94A11.4,11.4,0,0,1,48,101.23a1.84,1.84,0,0,0-1.64,1.83v5a1.1,1.1,0,1,1-2.2,0v-4.9a1.85,1.85,0,0,0-1.84-1.84,9.94,9.94,0,0,1-9.93-9.93,1.11,1.11,0,0,1,2.21,0,7.73,7.73,0,0,0,7.72,7.73h4.41a9.2,9.2,0,0,0,0-18.39H43.8A11.4,11.4,0,0,1,42.53,58a1.85,1.85,0,0,0,1.64-1.83v-5a1.1,1.1,0,1,1,2.2,0v4.91a1.84,1.84,0,0,0,1.84,1.83,9.94,9.94,0,0,1,9.93,9.93v2.94a1.11,1.11,0,1,1-2.21,0V67.84A7.72,7.72,0,0,0,48.21,60.12Z"/></g></g></svg>