<svg xmlns="http://www.w3.org/2000/svg" viewBox="0 0 146.32 123.54"><defs><style>.cls-1{fill:#6bcec4;}.cls-2{fill:#fff;}</style></defs><title>Recurso 5</title><g id="Capa_2" data-name="Capa 2"><g id="Capa_1-2" data-name="Capa 1"><path class="cls-1" d="M26.5,56.11H34l.4,4.34s1.77,5.52,1.77,6.31-.39,7.49-.39,8.08-1.58,5.33-1.58,5.33l-5.91,2.56s-3.36-1.38-4-1.78-3.94-3.15-3.94-3.15l-2.17-4.54s-.2-8.67,0-9.46,1.18-5.72,1.18-5.72l3.16-1.38Z"/><path class="cls-2" d="M146.32,88.14A35.38,35.38,0,0,0,82.13,67.59H37.49V59a5,5,0,0,0-5-5H22.38a5,5,0,0,0-5,5v8.57H15A10.7,10.7,0,0,1,4.27,56.9v-16A10.7,10.7,0,0,1,15,30.25H116.21a10.7,10.7,0,0,1,10.7,10.69V50.6a2.14,2.14,0,1,0,4.27,0V40.94a15,15,0,0,0-15-15H94.06V16.72A16.74,16.74,0,0,0,77.34,0H53.84A16.74,16.74,0,0,0,37.12,16.72V26H15a15,15,0,0,0-15,15v63.31a15,15,0,0,0,15,15H83.19a2.14,2.14,0,1,0,0-4.27H15A10.71,10.71,0,0,1,4.27,104.25V67.35A14.92,14.92,0,0,0,15,71.86H17.4V74a10,10,0,1,0,20.09,0V71.86h42a35.39,35.39,0,1,0,66.81,16.28ZM81.2,26H50V16.72a3.86,3.86,0,0,1,3.86-3.86h23.5a3.86,3.86,0,0,1,3.86,3.86ZM41.39,16.72A12.46,12.46,0,0,1,53.84,4.27h23.5A12.46,12.46,0,0,1,89.79,16.72V26H85.47V16.72a8.14,8.14,0,0,0-8.13-8.13H53.84a8.13,8.13,0,0,0-8.13,8.13V26H41.39Zm-19,41.59H32.52a.7.7,0,0,1,.7.71v3.27H21.67V59A.71.71,0,0,1,22.38,58.31ZM33.22,74a5.78,5.78,0,1,1-11.55,0V66.56H33.22V74ZM138.8,102a68.65,68.65,0,0,0-10-1.89,67.11,67.11,0,0,0,0-23.9,67.44,67.44,0,0,0,10-1.88,31.07,31.07,0,0,1,0,27.67ZM123.53,72.43c-3.28.27-6.82.44-10.47.48V57.38C118.52,59.23,122,66.89,123.53,72.43ZM108.79,57.37V72.91c-3.65,0-7.18-.21-10.47-.48,2.25-7.91,6.12-13.63,10.47-15.06ZM98.32,103.85c3.29-.26,6.82-.43,10.47-.48v15.54C104.44,117.49,100.57,111.81,98.32,103.85Zm14.74,15.05V103.37c3.65,0,7.19.22,10.47.48C122,109.4,118.53,117.06,113.06,118.9Zm0-19.8V77.18c4-.05,7.9-.23,11.47-.54a62.24,62.24,0,0,1,0,23c-3.57-.31-7.44-.5-11.47-.55Zm23.49-28.61A69.64,69.64,0,0,1,127.86,72a36.87,36.87,0,0,0-6.07-13A31.33,31.33,0,0,1,136.55,70.49ZM100,59a36.9,36.9,0,0,0-6,13,69.12,69.12,0,0,1-8.68-1.51A31.32,31.32,0,0,1,100,59Zm-17,15.32a67.7,67.7,0,0,0,10,1.88,65.19,65.19,0,0,0-.94,7.69,2.13,2.13,0,0,0,4.26.26,60,60,0,0,1,.95-7.5c3.58.31,7.44.49,11.47.54V99.1c-4,.05-7.89.24-11.47.55a58.25,58.25,0,0,1-.82-5.84,2.13,2.13,0,1,0-4.25.38q.27,3,.81,5.9a67.74,67.74,0,0,0-10,1.89,31.07,31.07,0,0,1,0-27.67Zm2.26,31.48A73.57,73.57,0,0,1,94,104.28a37.4,37.4,0,0,0,6,13,31.21,31.21,0,0,1-14.75-11.52Zm36.48,11.52a37,37,0,0,0,6.07-13,71.69,71.69,0,0,1,8.69,1.5A31.29,31.29,0,0,1,121.79,117.31Z"/></g></g></svg>