<svg xmlns="http://www.w3.org/2000/svg" viewBox="0 0 127.23 125.14"><defs><style>.cls-1{fill:#6bcec4;}.cls-2{fill:#fff;}</style></defs><title>Recurso 6</title><g id="Capa_2" data-name="Capa 2"><g id="Capa_1-2" data-name="Capa 1"><path class="cls-1" d="M74.92,53.19l1.67-6.66,5.73-8,.19-6.48-1.3-5-4.62-3.52s-3.15-.37-3.7-.37S69,22.85,69,22.85l-5.36-.18H62.53l.18-17.21L59.57,1.39,54.2,4.54,53.64,18l.74,16.84-5.92-5.37H44.21l-2,3.89,2.59,6.47,5.55,4.81,4.63,3.89-.37,4.81Z"/><g id="Outline"><path class="cls-2" d="M81.44,44.56a13.88,13.88,0,0,0-9.81-23.7h-7V6.26a6.26,6.26,0,1,0-12.51,0V30.42L50.74,29a6.51,6.51,0,0,0-9.21,9.21L52.14,48.84v3.3H50.05A2.09,2.09,0,0,0,48,54.23v70.91h4.17V56.31h25v68.83h4.17V54.23a2.09,2.09,0,0,0-2.09-2.09H77.17v-3.3ZM56.31,52.14V48a2.08,2.08,0,0,0-.61-1.47L44.48,35.28A2.34,2.34,0,0,1,47.79,32l5,5a2.09,2.09,0,0,0,3.56-1.47V6.26a2.09,2.09,0,1,1,4.17,0V22.94A2.1,2.1,0,0,0,62.57,25h9.06a9.71,9.71,0,0,1,6.86,16.58L73.61,46.5A2.08,2.08,0,0,0,73,48v4.17Z"/><rect class="cls-2" x="68.83" y="60.49" width="4.17" height="4.17"/><path class="cls-2" d="M33.37,50.06H18.77a8.36,8.36,0,0,0-8.35,8.34v9.65A6.51,6.51,0,0,0,1.9,77.86l8.52,8.52v3.31H8.34a2.09,2.09,0,0,0-2.09,2.08v33.37h4.17V93.86h25v31.28h4.17V91.77a2.08,2.08,0,0,0-2.08-2.08H35.45V86.36a23.26,23.26,0,0,0,6.26-16v-12A8.35,8.35,0,0,0,33.37,50.06Zm4.17,20.35A19.17,19.17,0,0,1,31.89,84a2.09,2.09,0,0,0-.61,1.48v4.17H14.6V85.52A2.09,2.09,0,0,0,14,84L4.85,74.91A2.34,2.34,0,0,1,8.16,71.6L11,74.48A2.09,2.09,0,0,0,14.6,73V58.4a4.17,4.17,0,0,1,4.17-4.17h14.6a4.17,4.17,0,0,1,4.17,4.17Z"/><rect class="cls-2" x="27.11" y="98.03" width="4.17" height="4.17"/><path class="cls-2" d="M127.23,76.67v-12a8.36,8.36,0,0,0-8.35-8.35h-14.6a8.36,8.36,0,0,0-8.34,8.35v9.65a6.51,6.51,0,0,0-8.52,9.8l8.52,8.53v3.3H93.85A2.09,2.09,0,0,0,91.77,98v27.11h4.17v-25h25v25h4.17V98a2.09,2.09,0,0,0-2.09-2.09H121V92.61A23.33,23.33,0,0,0,127.23,76.67ZM100.11,95.94V91.77a2.08,2.08,0,0,0-.61-1.47l-9.13-9.14a2.33,2.33,0,0,1,3.3-3.3l2.88,2.87a2.09,2.09,0,0,0,3.56-1.47V64.66a4.17,4.17,0,0,1,4.17-4.17h14.6a4.17,4.17,0,0,1,4.17,4.17v12a19.16,19.16,0,0,1-5.64,13.63,2.08,2.08,0,0,0-.61,1.47v4.17Z"/><rect class="cls-2" x="112.63" y="104.29" width="4.17" height="4.17"/></g></g></g></svg>