<svg xmlns="http://www.w3.org/2000/svg" viewBox="0 0 99.02 125.21"><defs><style>.cls-1{fill:#6bcec4;}.cls-2{fill:#fff;}</style></defs><title>Recurso 7</title><g id="Capa_2" data-name="Capa 2"><g id="Capa_1-2" data-name="Capa 1"><polygon class="cls-1" points="51.91 26.96 56.06 36.3 65.64 37.57 58.49 45.53 60.56 53.84 52.72 49.8 43.03 54.53 45.1 45.76 37.84 38.27 47.3 36.19 51.91 26.96"/><path class="cls-2" d="M98.73,121.93,72.19,75.72a40.63,40.63,0,1,0-44.21-2L.29,121.93a2.19,2.19,0,0,0,3.06,2.95L17,116.41l4.1,7.64a2.2,2.2,0,0,0,1.9,1.16,2.25,2.25,0,0,0,1.93-1.1l24.6-42.83h0l24.6,42.83a2.2,2.2,0,0,0,1.9,1.1h0a2.18,2.18,0,0,0,1.9-1.16l4.11-7.64,13.6,8.47a2.19,2.19,0,0,0,3.06-2.95ZM15.36,40.69A36.26,36.26,0,1,1,51.62,77h0A36.29,36.29,0,0,1,15.36,40.69Zm7.7,77.82-3.35-6.23a2.19,2.19,0,0,0-3-.9l-.12.07-8.19,5.11L31.67,76.08a40.14,40.14,0,0,0,13.08,4.66Zm59.34-7.06a2.19,2.19,0,0,0-3,.71.75.75,0,0,0-.07.12L76,118.51,54.55,81.22A40.44,40.44,0,0,0,68.3,77.74l22.29,38.82Z"/><path class="cls-2" d="M82.71,40.69a31.09,31.09,0,1,0-31.09,31.1h0a31.13,31.13,0,0,0,31.09-31.1Zm-57.8,0A26.71,26.71,0,1,1,51.62,67.41h0A26.75,26.75,0,0,1,24.91,40.69Z"/><path class="cls-2" d="M59.28,56a2.2,2.2,0,0,0,3-.92,2.24,2.24,0,0,0,.22-1.39L61,45.15l6.19-6a2.18,2.18,0,0,0,0-3.1A2.22,2.22,0,0,0,66,35.37l-8.57-1.24-3.83-7.76a2.18,2.18,0,0,0-2.93-1,2.16,2.16,0,0,0-1,1l-3.83,7.76-8.57,1.24a2.19,2.19,0,0,0-1.21,3.74l6.19,6-1.46,8.53a2.2,2.2,0,0,0,1.79,2.53A2.24,2.24,0,0,0,44,56l7.66-4ZM45.85,50l.91-5.28a2.19,2.19,0,0,0-.63-1.94l-3.84-3.75,5.31-.77a2.18,2.18,0,0,0,1.65-1.2l2.38-4.81L54,37.1a2.18,2.18,0,0,0,1.65,1.2l5.31.77-3.84,3.75a2.18,2.18,0,0,0-.62,1.94L57.4,50l-4.75-2.5a2.23,2.23,0,0,0-2,0Z"/></g></g></svg>