<svg xmlns="http://www.w3.org/2000/svg" viewBox="0 0 126.87 126.95"><defs><style>.cls-1{fill:#6bcec4;}.cls-2{fill:#fff;}</style></defs><title>Recurso 8</title><g id="Capa_2" data-name="Capa 2"><g id="Capa_1-2" data-name="Capa 1"><path class="cls-1" d="M64.85,2.54c.79,1.29,7.56,10.24,7.56,10.24l-.6,12.94,1.39,5.37,5.67,5.27,2,5.87.3,12.34-.89,2.28L73.9,50.59l-8,11.34-3.48,2L55.2,52.08l-1.4-2.29s-7.16,7.76-7.16,7.06-.6-19.4-.6-19.4l8.16-6.86,1-13.43L60.77,3.93Z"/><path class="cls-2" d="M126.79,122a21.36,21.36,0,0,0-12.51-14.35,16.89,16.89,0,0,0-6.44-31.34V57.09A10.59,10.59,0,0,0,97.27,46.52H82.46V38.06a2.11,2.11,0,0,0-.61-1.49L74,28.73V14.8C74,7,65,.65,64.65.38a2.12,2.12,0,0,0-2.43,0C61.84.65,52.86,7,52.86,14.8V28.73L45,36.57a2.12,2.12,0,0,0-.62,1.49v8.46H29.6A10.59,10.59,0,0,0,19,57.09V76.27a16.89,16.89,0,0,0-6.44,31.34A21.36,21.36,0,0,0,.08,122a4.11,4.11,0,0,0,.86,3.42A4.29,4.29,0,0,0,4.25,127H122.62a4.29,4.29,0,0,0,3.31-1.57A4.11,4.11,0,0,0,126.79,122ZM105.72,80.35A12.69,12.69,0,1,1,93,93,12.7,12.7,0,0,1,105.72,80.35ZM74,34.71l4.23,4.23v13L74,47.61ZM63.44,4.79a19.3,19.3,0,0,1,6,7.9H57.47A19.41,19.41,0,0,1,63.44,4.79ZM57.09,16.92H69.78V38.06H57.09Zm0,25.37H69.78v4.23H57.09Zm0,8.5H69.77c-.1,1.49-3.09,6.49-6.34,11.14C60.19,57.28,57.2,52.28,57.09,50.79Zm21.15,38A14.81,14.81,0,1,1,63.43,74,14.81,14.81,0,0,1,78.24,88.81ZM48.63,38.94l4.23-4.23v12.9l-4.23,4.31ZM8.46,93a12.69,12.69,0,1,1,12.68,12.68A12.69,12.69,0,0,1,8.46,93ZM4.23,122.8C5.62,116,13.45,110,21,110h0c7.76,0,15.39,6,16.76,12.75ZM29.6,107.67a16.89,16.89,0,0,0-6.34-31.4V57.09a6.34,6.34,0,0,1,6.34-6.34H44.4v6.34A2.12,2.12,0,0,0,48,58.57l5.38-5.47a68.76,68.76,0,0,0,7.91,13.14V69.9a19,19,0,0,0-7.09,35.56,28.57,28.57,0,0,0-14,11.87A22.57,22.57,0,0,0,29.6,107.67Zm12.88,15c1.72-6.89,11.24-14.87,21-14.87s19.24,8,21,14.87Zm30.15-17.26A19,19,0,0,0,65.55,69.9V66.24A68.76,68.76,0,0,0,73.46,53.1l5.38,5.47a2.12,2.12,0,0,0,3.63-1.48V50.75h14.8a6.34,6.34,0,0,1,6.34,6.34V76.27a16.89,16.89,0,0,0-6.34,31.4,22.52,22.52,0,0,0-10.61,9.66A28.55,28.55,0,0,0,72.63,105.46Zm50,17.26H89.11c1.37-6.71,9-12.74,16.76-12.74,7.54,0,15.38,6,16.79,12.72Z"/></g></g></svg>