<svg xmlns="http://www.w3.org/2000/svg" xmlns:xlink="http://www.w3.org/1999/xlink" viewBox="0 0 136.69 130.89"><defs><style>.cls-1{fill:url(#Degradado_sin_nombre_8);}</style><linearGradient id="Degradado_sin_nombre_8" y1="65.45" x2="136.69" y2="65.45" gradientUnits="userSpaceOnUse"><stop offset="0" stop-color="#3566ad"/><stop offset="0.96" stop-color="#5707aa"/></linearGradient></defs><title>Recurso 1</title><g id="Capa_2" data-name="Capa 2"><g id="Capa_1-2" data-name="Capa 1"><path class="cls-1" d="M100.59,129.83A9.22,9.22,0,0,0,114,120.11L107.82,84.2,133.9,58.77A9.22,9.22,0,0,0,128.79,43l-36-5.23L76.61,5.14a9.22,9.22,0,0,0-16.53,0L44,37.81,7.9,43A9.22,9.22,0,0,0,2.79,58.77L28.87,84.2l-6.15,35.91a9.22,9.22,0,0,0,13.38,9.72l32.25-17Zm-56.54-25,3.82-22.27a9.22,9.22,0,0,0-2.63-8.16L29.06,58.61l22.36-3.25a9.22,9.22,0,0,0,6.94-5l10-20.27,10,20.27a9.24,9.24,0,0,0,7,5l22.35,3.25L91.51,74.38a9.23,9.23,0,0,0-2.64,8.16l3.82,22.27-20-10.54a9.23,9.23,0,0,0-8.58,0Z"/></g></g></svg>